<svg xmlns="http://www.w3.org/2000/svg" viewBox="0 0 792 612" enable-background="new 0 0 792 612"><path fill="#A4A4A4" d="M400.4 298.5c.8 0 1.5-.7 1.5-1.5v-1.5c0-.8-.7-1.5-1.5-1.5s-1.5.7-1.5 1.5v1.5c0 .9.7 1.5 1.5 1.5z"/><path fill="#A4A4A4" d="M405.7 296.6h-3v.8c0 1.2-1 2.3-2.3 2.3-1.2 0-2.3-1-2.3-2.3v-.8h-6v.8c0 1.2-1 2.3-2.3 2.3-1.2 0-2.3-1-2.3-2.3v-.8h-3v18.8h21l.2-18.8zm-1.5 17.2h-18v-12h18v12z"/><path fill="#A4A4A4" d="M389.9 298.5c.8 0 1.5-.7 1.5-1.5v-1.5c0-.8-.7-1.5-1.5-1.5s-1.5.7-1.5 1.5v1.5c0 .9.7 1.5 1.5 1.5z"/><rect x="392.2" y="303.4" fill="#A4A4A4" width="2.4" height="2.1"/><rect x="396" y="303.4" fill="#A4A4A4" width="2.4" height="2.1"/><rect x="399.6" y="303.4" fill="#A4A4A4" width="2.4" height="2.1"/><rect x="392.2" y="306.9" fill="#A4A4A4" width="2.4" height="2.1"/><rect x="396" y="306.9" fill="#A4A4A4" width="2.4" height="2.1"/><rect x="399.6" y="306.9" fill="#A4A4A4" width="2.4" height="2.1"/><rect x="392.2" y="310.5" fill="#A4A4A4" width="2.4" height="2.1"/><rect x="388.4" y="306.9" fill="#A4A4A4" width="2.4" height="2.1"/><rect x="388.4" y="310.5" fill="#A4A4A4" width="2.4" height="2.1"/><rect x="396" y="310.5" fill="#A4A4A4" width="2.4" height="2.1"/><rect x="399.6" y="310.5" fill="#A4A4A4" width="2.4" height="2.1"/></svg>