<svg xmlns="http://www.w3.org/2000/svg" viewBox="0 0 792 612" enable-background="new 0 0 792 612"><path fill="#676767" d="M445.1 946.3c1.4 3 2.8 5.9 4.1 8.9-8 0-11.3 8.6-19.8 9.2-1.4-3-2.8-5.9-4.1-8.9 7.9 0 11.8-9.2 19.8-9.2zm-14.6 16.5c2.3-.4 4.2-1.5 6-2.9-1-.4-1.8-1.2-2.3-2.2-.5-1.1-.6-2.3-.4-3.6-1.8 1.3-3.8 2.5-6 2.9.9 1.9 1.8 3.8 2.7 5.8zm.9-3.6l-.1-.2h-.9c0 .2.1.3.2.5l.8-.3zm0-.8c-.2-.2-.4-.3-.7-.5-.1.1-.2.2-.2.4.3.1.6.2.8.3.1 0 .1-.1.1-.2zm.4 1.2c-.1 0-.2-.1-.2-.1l-.6.6c.1.1.3.2.5.2.1-.3.2-.5.3-.7zm0-2.3l-.5.1.2.4-.2-.4c.1.3.2.5.4.8.1-.1.1-.1.2-.1 0-.2-.1-.5-.1-.8zm.5 2.2l-.2.1.1.9.5-.1c-.2-.4-.3-.6-.4-.9zm.6-1.9c-.1-.1-.3-.2-.4-.2l-.3.8.2.1c.2-.2.4-.5.5-.7zm.6 1.8c-.3-.1-.6-.2-.8-.3 0 .1-.1.2-.1.2l.7.5c0-.1.1-.3.2-.4zm-.1-1.3c-.3.2-.5.3-.8.4.1.1.1.1.1.2.3-.1.6-.1.8-.2 0-.1 0-.2-.1-.4zm10.5-10.1c-2.3.4-4.2 1.5-6 2.9 1.1.4 1.8 1.3 2.3 2.2.5 1.1.6 2.3.4 3.6 1.8-1.4 3.8-2.5 6.1-2.9l-2.8-5.8zm-2.7 3.2c-.2.1-.3.1-.4.2l.9 2c.2-.1.2-.2.4-.2-.3-.7-.6-1.4-.9-2zm.9-.5l-.4.2c.3.6.6 1.3.9 2l.4-.2c-.2-.7-.6-1.4-.9-2zm1-.4l-.4.2.9 1.9c.2-.1.3-.1.4-.2l-.9-1.9z"/><path stroke="#676767" d="M447.5 946.1c-2.7-2.7-6.3-4.1-9.8-4.1-3.6 0-7.1 1.4-9.8 4.1-5.4 5.4-5.4 14.2 0 19.7 2.7 2.7 6.3 4.1 9.8 4.1 3.6 0 7.1-1.4 9.8-4.1 5.4-5.4 5.4-14.2 0-19.7z" fill="none"/><path fill="#676767" d="M403.1 295.3c1.4 3 2.8 5.9 4.1 8.9-8 0-11.3 8.6-19.8 9.2-1.4-3-2.8-5.9-4.1-8.9 7.9 0 11.8-9.2 19.8-9.2zm-14.6 16.5c2.3-.4 4.2-1.5 6-2.9-1-.4-1.8-1.2-2.3-2.2-.5-1.1-.6-2.3-.4-3.6-1.8 1.3-3.8 2.5-6 2.9.9 1.9 1.8 3.8 2.7 5.8zm.9-3.6l-.1-.2h-.9c0 .2.1.3.2.5l.8-.3zm0-.8c-.2-.2-.4-.3-.7-.5-.1.1-.2.2-.2.4.3.1.6.2.8.3.1 0 .1-.1.1-.2zm.4 1.2c-.1 0-.2-.1-.2-.1l-.6.6c.1.1.3.2.5.2.1-.3.2-.5.3-.7zm0-2.3l-.5.1.2.4-.2-.4c.1.3.2.5.4.8.1-.1.1-.1.2-.1 0-.2-.1-.5-.1-.8zm.5 2.2l-.2.1.1.9.5-.1c-.2-.4-.3-.6-.4-.9zm.6-1.9c-.1-.1-.3-.2-.4-.2l-.3.8.2.1c.2-.2.4-.5.5-.7zm.6 1.8c-.3-.1-.6-.2-.8-.3 0 .1-.1.2-.1.2l.7.5c0-.1.1-.3.2-.4zm-.1-1.3c-.3.2-.5.3-.8.4.1.1.1.1.1.2.3-.1.6-.1.8-.2 0-.1 0-.2-.1-.4zm10.5-10.1c-2.3.4-4.2 1.5-6 2.9 1.1.4 1.8 1.3 2.3 2.2.5 1.1.6 2.3.4 3.6 1.8-1.4 3.8-2.5 6.1-2.9l-2.8-5.8zm-2.7 3.2c-.2.1-.3.1-.4.2l.9 2c.2-.1.2-.2.4-.2-.3-.7-.6-1.4-.9-2zm.9-.5l-.4.2c.3.6.6 1.3.9 2l.4-.2c-.2-.7-.6-1.4-.9-2zm1-.4l-.4.2.9 1.9c.2-.1.3-.1.4-.2l-.9-1.9z"/><path stroke="#676767" d="M405.5 295.1c-2.7-2.7-6.3-4.1-9.8-4.1-3.6 0-7.1 1.4-9.8 4.1-5.4 5.4-5.4 14.2 0 19.7 2.7 2.7 6.3 4.1 9.8 4.1 3.6 0 7.1-1.4 9.8-4.1 5.4-5.4 5.4-14.2 0-19.7z" fill="none"/></svg>