<svg xmlns="http://www.w3.org/2000/svg" viewBox="0 0 792 612" enable-background="new 0 0 792 612"><g fill="#676767"><path d="M395.5 294.1c-1.3 0-2.4.5-3.3 1.4-.9.9-1.4 2-1.4 3.4s.5 2.4 1.4 3.4c.9.9 2 1.4 3.3 1.4 1.3 0 2.4-.5 3.4-1.4.9-.9 1.4-2 1.4-3.4s-.5-2.4-1.4-3.4c-1-.9-2.1-1.4-3.4-1.4zM404.6 308.7c0-.4-.1-.7-.2-1-.1-.3-.2-.6-.4-.8-.2-.2-.4-.5-.7-.8-.3-.3-.6-.5-.9-.7-.2-.2-.6-.4-1.1-.6l-1.1-.5c-.3-.1-.7-.3-1.2-.5-1 .9-2.2 1.3-3.5 1.3-1.4 0-2.6-.5-3.7-1.4-.6.2-1.2.5-1.6.7-.4.2-.9.4-1.4.7-.5.3-.9.6-1.2.9-.3.3-.6.7-.8 1.2-.2.5-.4 1-.4 1.5v1.9c2.1 2.7 5.4 4.5 9.1 4.5 3.7 0 6.9-1.7 9-4.4v-2z"/></g><path stroke="#676767" d="M405.5 295.1c-2.7-2.7-6.3-4.1-9.8-4.1-3.6 0-7.1 1.4-9.8 4.1-5.4 5.4-5.4 14.2 0 19.7 2.7 2.7 6.3 4.1 9.8 4.1 3.6 0 7.1-1.4 9.8-4.1 5.4-5.4 5.4-14.2 0-19.7z" fill="none"/></svg>