<svg xmlns="http://www.w3.org/2000/svg" viewBox="0 0 792 612" enable-background="new 0 0 792 612"><path fill="#676767" d="M383.4 305.8c.3.3 1 .5 2 .5h6.1l7.9 7.9c.1.1.2.2.4.2.1 0 .3-.1.4-.2l.7-.7c.2-.2.2-.4.1-.7l-4-6.5h7.1l1.6 1.6c.2.2.6.2.8 0l.3-.3c.1-.1.2-.3.2-.5l-.3-2.2 1.5-1.5c.2-.2.2-.5.1-.7l-.3-.4c-.2-.2-.5-.3-.7-.2l-.2.1.1-1c0-.1 0-.3-.1-.4-.1-.1-.2-.2-.4-.2l-1-.1c-.2 0-.4.1-.5.3l-1.3 2.4h-6.7l3.1-5.8c.1-.2.1-.5-.1-.6l-.8-.8c-.1-.1-.2-.2-.4-.2-.1 0-.3.1-.4.2l-6.7 7.2h-5.8c-.6 0-1 .3-1.3.6-.5.2-.8.3-1 .6-.7.5-.8 1.1-.4 1.4z"/><path stroke="#676767" d="M405 295.1c-2.7-2.7-6.3-4.1-9.8-4.1-3.6 0-7.1 1.4-9.8 4.1-5.4 5.4-5.4 14.2 0 19.7 2.7 2.7 6.3 4.1 9.8 4.1 3.6 0 7.1-1.4 9.8-4.1 5.4-5.4 5.4-14.2 0-19.7z" fill="none"/></svg>