<svg xmlns="http://www.w3.org/2000/svg" viewBox="0 0 792 612" enable-background="new 0 0 792 612"><path stroke="#676767" d="M405.5 295.1c-2.7-2.7-6.3-4.1-9.8-4.1-3.6 0-7.1 1.4-9.8 4.1-5.4 5.4-5.4 14.2 0 19.7 2.7 2.7 6.3 4.1 9.8 4.1 3.6 0 7.1-1.4 9.8-4.1 5.4-5.4 5.4-14.2 0-19.7z" fill="none"/><path fill="#676767" d="M389.8 295.9c-.9.8-1.3 2-1.3 3.2 0 1.2.4 2.3 1.3 3.2l-.7.8c-1.1-1.1-1.7-2.6-1.7-4s.5-2.8 1.7-3.9l.7.7zm11.9 19.5h-.3c-.3 0-.7-.2-.8-.6l-.3-.7h-9.1l-.3.7c-.1.4-.5.6-.8.6h-.3c-.5-.2-.7-.7-.5-1.2l5.5-14.2.8-.6h.3l.8.6 5.5 14.2c.2.5 0 1-.5 1.2zm-9.3-18.1c-.5.5-.8 1.2-.8 1.9 0 .6.2 1.3.7 1.8l-.7.7c-.7-.7-1.1-1.6-1.1-2.5 0-.9.3-1.8 1.1-2.5l.8.6zm2.5 16l-2.4-2.4-.9 2.4h3.3zm-2.1-3.3l.8.8 1.5-1.5-1.5-1.5-.8 2.2zm1.3-3.1l1.7 1.7 1.7-1.7h-3.4zm3.2 4.5l-1.5-1.5-1.5 1.5 1.5 1.5 1.5-1.5zm-2.9-5.4h2.8l-1.4-3.6-1.4 3.6zm.2-7.7c0-.6.5-1.1 1.1-1.1.6 0 1.1.5 1.1 1.1s-.5 1.1-1.1 1.1c-.6.1-1.1-.5-1.1-1.1zm3.2 9.5l-1.4 1.4 1.5 1.5.7-.7-.8-2.2zm2.2 5.5l-.9-2.4-2.4 2.4h3.3zm-.8-12.3c.5-.5.8-1.2.8-1.9 0-.6-.2-1.3-.7-1.8l.7-.7c.6.7 1.1 1.6 1.1 2.6 0 .9-.3 1.8-1.1 2.5l-.8-.7zm2.7 1.4c.9-.8 1.3-2 1.3-3.2 0-1.2-.4-2.4-1.3-3.2l.7-.7c1.1 1.1 1.7 2.6 1.7 4s-.5 2.8-1.7 3.9l-.7-.8z"/></svg>