<svg xmlns="http://www.w3.org/2000/svg" viewBox="0 0 792 612" enable-background="new 0 0 792 612"><g fill="#676767"><path d="M399.7 296.6c-1-.7-2.4-1-4-1-2.1 0-3.7.5-4.8 1.5-1 .9-1.6 2.2-1.8 3.7l4.2.5c.1-.9.4-1.5.7-1.9.4-.4.9-.6 1.5-.6s1 .1 1.3.4c.3.3.4.7.4 1.2s-.3 1-1 1.6c-1.2 1-2 1.7-2.3 2.1-.3.4-.6.8-.7 1.2-.2.5-.2 1.1-.2 1.8v.2h4.1c0-.6.1-1 .3-1.4.2-.4.7-.9 1.6-1.6 1.1-.9 1.9-1.6 2.2-2.2.3-.6.5-1.2.5-1.8 0-1.6-.6-2.8-2-3.7z"/><circle cx="395.2" cy="311.1" r="2.2"/></g><path stroke="#676767" d="M405.2 295.1c-2.7-2.7-6.3-4.1-9.8-4.1s-7.1 1.4-9.8 4.1c-5.4 5.4-5.4 14.2 0 19.7 2.7 2.7 6.3 4.1 9.8 4.1s7.1-1.4 9.8-4.1c5.4-5.4 5.4-14.2 0-19.7z" fill="none"/></svg>