<svg xmlns="http://www.w3.org/2000/svg" viewBox="0 0 792 612" enable-background="new 0 0 792 612"><path fill="#676767" d="M404.2 307.7c0 4.9-4 8.9-8.9 8.9s-8.9-4-8.9-8.9c0-3.7 2.2-6.8 5.4-8.2l-2.2-4.9c0-.5.3-.7.8-.7h10c.4 0 .8.2.8.7l-2.2 4.9c3 1.4 5.2 4.5 5.2 8.2zm-5.5-2.2l.2.1 1.2-2.5-.1-.1c-.2.1-.3.2-.4.2s-.2 0-.3-.1c-1.7-.6-2.5-1-3.4-1v-.5c0-.2.1-.4.5-.5v-.2h-2.1v.2c.4.1.4.3.4.5v.4c-2.6.1-4.2 1.4-4.2 3.3 0 2 1.1 2.7 4.2 3v2.6c-2.1-.2-3.2-1-3.2-1.7l-.2-.1-1.1 2.6.2.1c.2-.1.2-.1.3-.1 0 0 .2 0 .2.1 1.3.6 2.6 1 3.8 1.1v.5c0 .3-.1.4-.4.5v.2h2.1v-.1c-.4-.1-.5-.2-.5-.5v-.5c2.6-.1 4.3-1.5 4.3-3.4s-1.4-2.9-4.1-3.1h-.3v-2.4c.6 0 1.3.2 1.9.5.8.3 1 .5 1 .9zm-4.1-1.6v2.3c-1.4-.1-2-.2-2-1.1 0-.2.1-.4.3-.6.3-.4.9-.5 1.7-.6zm1.2 4.7c1.6.1 2.1.2 2.1 1s-.6 1.3-2.1 1.5v-2.5z"/><path stroke="#676767" d="M405 295.1c-2.7-2.7-6.3-4.1-9.8-4.1-3.6 0-7.1 1.4-9.8 4.1-5.4 5.4-5.4 14.2 0 19.7 2.7 2.7 6.3 4.1 9.8 4.1 3.6 0 7.1-1.4 9.8-4.1 5.4-5.4 5.4-14.2 0-19.7z" fill="none"/></svg>