<svg xmlns="http://www.w3.org/2000/svg" viewBox="0 0 792 612" enable-background="new 0 0 792 612"><path stroke="#676767" d="M405.2 295.1c-2.7-2.7-6.3-4.1-9.8-4.1s-7.1 1.4-9.8 4.1c-5.4 5.4-5.4 14.2 0 19.7 2.7 2.7 6.3 4.1 9.8 4.1s7.1-1.4 9.8-4.1c5.4-5.4 5.4-14.2 0-19.7z" fill="none"/><path fill="#676767" d="M404.7 297.3v12.7c0 1.2-1 2.2-2.1 2.2h-14.5c-1.8 0-2.8-.9-2.8-3.2v-9.3h2.7v-2.5h16.7zm-16.7 3.8h-1.3v7.9c0 1.2.3 1.7.6 1.7.4 0 .7-.6.7-1.7v-7.9zm15.3-2.4h-14v10.4c0 .8-.2 1.4-.4 1.8h13.6c.5 0 .8-.5.8-.9v-11.3zm-8.6 4.8h-3.2v-.5h3.2v.5zm0 1.4h-3.2v-.5h3.2v.5zm0 1.5h-3.2v-.5h3.2v.5zm0 1.4h-3.2v-.5h3.2v.5zm0 1.4h-3.2v-.5h3.2v.5zm-2.7-8.5h8.4v.9h-8.4v-.9zm4 2.3h5.4v5.1h-5.4v-5.1z"/></svg>