<svg xmlns="http://www.w3.org/2000/svg" viewBox="0 0 792 612" enable-background="new 0 0 792 612"><path fill="#C1C1C0" stroke="#fff" stroke-width=".532" stroke-miterlimit="10" d="M477.6 356l.3.2v.1l1.8 28.6.1.1c.1 0 .3 0 .5.1.2.2.1.4.2.7.1.9.1 1.8.1 2.8l.3 7.1.1 1v.7c-.2 0-.3.1-.4.1l-8.4.5c-2.2.1-4.5.3-6.7.5l-3.2.2c-2.8.1-5.5.2-8.3.4l-6 .3-5.2.2h-.7c-.2-.2-.2-.4-.2-.7l-.2-4.3c0-.6 0-1.1-.2-1.7-.1-.4-.1-.8-.1-1.1-.1-2.8-.2-5.6-.4-8.4-.1-1.5-.2-3.1-.2-4.6l-.3-7.8c-.1-1.7-.2-3.4-.2-5v-.5h-.6l-5.2.2c-1.7.1-3.4.1-5 .2-.6 0-1.2.1-1.8.2-.6 0-1.2 0-1.8.1l-4.3.2h-.5c-.1-.4-.1-.8-.1-1.2 0-.4 0-.8-.1-1.2v-4.8c.1-.1.2-.1.3-.3-.1-1.9-.2-3.9-.2-5.8-.1-1.9-.2-3.9-.2-5.8.4 0 .7-.1 1-.1.2-.2.1-.4.1-.6l-.2-5.1-.3-7.9-.2-4.7c0-.8-.1-1.6-.2-2.3l-.1-2.4v-.4c.7-.1 1.3-.1 1.9-.1.6 0 1.2-.1 1.9-.1l.1-.5c0-1 0-1.9-.1-2.9l-.3-7.6v-.7l.4-.1 7.4-.3c2.2 0 4.4-.2 6.7-.4l3-.2c2.7-.1 5.5-.2 8.2-.4l5.4-.3c.2-.1.2-.3.1-.5l-.1-3v-.4l.4-.1c.3 0 .6 0 .8-.1l5.3-.3c.3 0 .5-.1.7.2 0 .1.2.1.3.1h1.2l5.7-.3 3.9-.2h.5l.1.4.3 5.7.3 4.6c0 .8-.1 1.5 0 2.3.2 2.3.3 4.6.4 6.9l.3 6 .3 5v.3c.2.6.2 1.3.2 1.9l.4 6.7.2 3.8.4 7.1c.3-.5.3-.4.4-.3z"/><path fill="#C1C1C0" stroke="#fff" stroke-width=".532" stroke-miterlimit="10" d="M474.3 295.4l1.2-.1.1-.6c.4-.2.8-.1 1.2-.2.1-.4 0-.7 0-1.2l.6-.2.1-.5.5-.1.1-.6.5-.1c.1-.4.2-.8.2-1.2.1 0 .2-.1.4-.2 0-.1 0-.3.1-.5l.6-.2v-.7c.1 0 .2-.1.2-.1l.3-.1v-1l.6-.2c0-.2.1-.3.1-.6l1.2-.1.1-.6.3-.1c3.8-.3 7.6-.5 11.3-.8h.3l.1.5c.2 0 .3 0 .6.1l.2.6h1.2l.2.5c.2 0 .3 0 .5.1l.2.6h.6l.1.2.2 2.6c0 .3 0 .7.2 1 1.4 0 2.8-.2 4.2-.3 1.4-.1 2.8-.2 4.1-.3.3.4.6.7.9 1 .3.3.7.6 1.1.8.4.2.8.1 1.2-.1.1-.1.2-.2.3-.4.1-.3.3-.5.6-.6.2 0 .4.2.4.4.1.4.4.7.7.9.3.2.4.4.6.7.2.3.5.2.6-.1.1-.2.1-.4.2-.5l.1-.1c.5.2 1.1-.1 1.7.1 0 .5.1.9.1 1.3 0 .7.1.8.8.9l.6-.1c.3.2.6.3.8.5.3.2.5.6.4 1l-.3.5c-.1.1-.2.2-.2.3 0 .4-.2.6-.4.9-.1.1-.1.3-.1.5 0 .3-.2.6-.6.7-.2.1-.4.1-.5.1-.3.1-.4.3-.4.6l.2 1.5.9.5c.5.4.6.6.4 1.2l-.1.3.3.6c0 .1-.1.1-.1.1-.2 0-.4.1-.4.3-.1.3-.2.4-.4.5l-.2.1c-.2.2-.1.5.1.6l.3.1c0 .1 0 .2-.1.3-.1.3-.1.5.1.7.2.2.1.4-.1.5-.1.1-.2.1-.4.2v.2c.2.4.2.8.1 1.2l-.1.7c-.1 0-.2.1-.4.1-.2.1-.4.1-.5.2-.3.2-.3.4-.1.6l.2.2-.3.1c-.3.2-.4.6-.1.9l.2.2c-.2.8 0 1.6 0 2.3.2 2.6.4 5.2.5 7.9.2 2.2.3 4.4.5 6.7l.3 4.8c.1 1.7.2 3.3.4 5 .1.8.1 1.6.2 2.3l.5 6.9.6 8.7.5 7.2.5 6.9.3 5c.1 1.6.2 3.2.3 4.7.1 1.7.2 3.5.4 5.2l.3 4.8.2 3.3v.5c-.2.2-.5.2-.7.2l-5.9.4c-.8.1-1.6.1-2.3.2l-7.1.5-6.9.5-5.2.3c-2.1.1-4.2.3-6.2.4l-4.5.3h-.2l-.1-.4-.4-8.4-.2-3.2c0-.2 0-.4-.1-.6l-.6-.1-.4-5.7-.3-5.7-.3-5.7c-.1-1.9-.2-3.8-.4-5.7-.1-1.9-.2-3.8-.3-5.8l-.4-.2v-.2c-.1-1.6-.2-3.2-.3-4.7l-.4-6.8-.2-2.9c-.1-1.3-.1-2.6-.2-3.8 0-.4 0-.9-.2-1.3v-.4c-.1-1.7-.2-3.4-.3-5.2l-.4-6.4-.2-2.9-.2-3.1c0-.4-.1-.8 0-1.3v-.4c-.1-2.2-.2-4.4-.4-6.7l-.6-9.6-.1-2.1c0-.4-.1-.8-.2-1.2.1-.3.1-.8.2-1.3z"/><path fill="#D4EDEF" stroke="#fff" stroke-width=".532" stroke-miterlimit="10" d="M389.6 367.2h-2.4c-.5 0-1 .1-1.5-.1h-.3l-5.7.1-4.7.1c-.3 0-.6 0-1-.1l-.1-1.2c-.1-4.2-.2-8.4-.2-12.6 0-4-.1-7.9-.2-11.9v-1.5c.1-.1.3-.1.5-.2.1-.2 0-.5 0-.7l-.1-6.4c0-1.3-.1-2.6-.1-3.8v-.7l.6-.1 10.3-.3h4.2c3.9-.1 7.8-.2 11.6-.3l3.9-.1h.3c.3.2.7.1 1 .1 1 0 2-.1 3.1-.1h1.4l8.5-.3c.4 0 .8 0 1.1-.1h.8l.1.4.1 1.6.3 11c.1 1.8.1 3.6.2 5.5v.6c-.3.2-.7.1-1.1.2v.4c.1 2.2.1 4.4.2 6.5l.2 4.5v.2c-.1.1-.2.2-.4.3.1 2.6.2 5.2.3 7.7.2.2.4.1.6.1 1.8-.1 3.6-.1 5.5-.2 1.4-.1 2.8-.2 4.2-.2 2.7-.1 5.4-.2 8.1-.4h.9c0 .2.1.3.1.4l.3 6.3c.1 1.4.2 2.9.2 4.3.1 1.3.1 2.6.2 3.8l.2 4.6.3 7.2c0 .4 0 .8.2 1.1v.3c.1 1.7.1 3.5.2 5.3v.3l-.5.1c-.7 0-1.4 0-2.1.1l-9.9.3-4.9.2-11.1.5c-3.3.2-6.6.2-9.9.3l-4.2.1c-2 .1-4 .1-6 .1-.6 0-1.3 0-1.9.1h-.4l-.1-.5-.3-10-.3-9.3-.4-13.1c.2.2.1-.1.1-.5z"/><path fill="#A3DAD9" stroke="#fff" stroke-width=".532" stroke-miterlimit="10" d="M343 401.3c0-.3 0-.5-.1-.7 0-1.3 0-2.6-.1-3.8l.1-1.5-.1-10.8v-3.5l.1-2-.1-17.8v-7.5l3.4-.1h3.4c.1-.2.1-.3-.1-.3-.1-.1-.3-.2-.4-.2-.2-.3 0-.5.1-.8.1-.2.2-.3.2-.4-.1-.4.1-.7.3-1 .2-.3.3-.7.3-1.1.3-.2.4-.5.4-.8 0-.1 0-.3.1-.4.3-.4.3-.9.5-1.4v-.3c.3-.2.6-.4.7-.8 0-.1.2-.2.3-.3.1-.1.2-.1.2-.2.1-.4.4-.6.7-.8-.1-.2-.3-.4-.3-.6-.1-.2-.3-.4-.5-.5-.4-.2-.4-.4-.3-.7l.1-.2.1-.2c-.1-.2-.3-.4-.5-.6.2-.4.2-.9-.1-1.3-.1-.2-.2-.4-.2-.6-.1 0-.2 0-.3-.1l-.7-.7c-.2-.2-.3-.4-.2-.6.1-.4-.1-.6-.3-.7-.3-.2-.5-.4-.6-.7-.1-.2-.2-.4-.5-.4l-.2-.1c-.1-.2-.4-.3-.6-.3-.3 0-.5-.2-.7-.4 0-.1.1-.2.1-.4.2-.5.3-.9.4-1.4.1-.8.1-.8-.5-1.3.2-.4.2-.9.4-1.4l.3-.4c.3-.1.5-.3.6-.6.1-.2.3-.3.6-.3.2.1.4 0 .5-.2.4-.5 1-.8 1.6-1.1.5-.3 1.1-.4 1.7-.4 2.7 0 5.4-.1 8.2-.1l11.5-.2h1c.2.3.1.5.1.7l.2 8.7v1.9l-.5.2c.2 9.1.2 18.2.5 27.3 0 .1 0 .3.1.4h.6l10-.2h4.8c.2.2.1.4.1.6l.1 4.8c0 1.7.1 3.4.1 5l.3 10 .3 10.3.1 2.3v.6l-.5.1-6.2.1h-5l-9.7.1h-13.5c-2.7 0-5.3 0-8-.1h-3.3c-.4.2-.7.2-1.1.2z"/><path fill="#C1C1C0" stroke="#fff" stroke-width=".532" stroke-miterlimit="10" d="M295.7 344.7c-.7 0-1.3 0-2-.1-.1-.9 0-1.7 0-2.6v-5.2c-.3-.1-.6-.1-.9-.1h-.8c0-.2-.1-.3-.1-.4v-3.3c-.6-.3-1.3 0-1.9-.2v-4l-.4-.1-3-.1c-2-.1-4-.1-6-.1h-1.1c-.3 0-.5.1-.8-.1v-.2l2-10.8.4-.1c.7 0 1.5-.1 2.2 0 1.3.2 2.6 0 3.9.1.2 0 .5 0 .7-.2.1-.1.3 0 .6 0v-1.3c.1-.1.2-.1.2-.1.6 0 1-.3 1.5-.6l.1-.1c.6-.3 1-.6 1.4-1.2 0-.1.2-.1.3-.1h3.3c.1.1.2.2.3.4.4 0 .8.1 1.3.1l.2.6 1.1.1.2 1.2 1.2.1.1.9 1.5.1c.2.2.1.4.1.5v1c.2.2.4.1.5.1h1.3l.1.8c.4.2.8.1 1.3.1h2.6c0 .4.1.8.1 1.3l2.3.1h4.4c.2.3.1.5.1.7v7l.9.1c.2.5.1.9.1 1.4v1.4l.3.1c1.2 0 2.4.1 3.5 0l3.8-.2h4c.1 0 .2 0 .4.1.1.5.1 1 .1 1.6v3.2c.2 0 .3.1.4.1 1.3 0 2.6-.1 4-.1h.5l14.5-.1c.3 0 .5 0 .8.1l.6.1c.1.3.3.6.7.5.3.3.5.6.9.9v.3c.1.4.2.7.5.9l.5.4c-.1.2-.1.4-.1.5.2.2.3-.1.6.1.2.2.4.6.2 1.1-.1.2 0 .4.1.6l.3.2c-.1.2-.1.3-.2.4-.2.5 0 .8.4 1.1.3.1.4.4.5.7-.3.3-.5.7-.9 1.1-.3.3-.6.7-1 .9.1.7 0 1.3-.4 1.8-.1.1-.2.3-.1.4.1.4-.1.6-.4.7v.5c0 .1 0 .3-.1.4-.3.4-.4.8-.4 1.2v.2c-.2.4-.3.8-.3 1.3-1.1.2-2.1.1-3.1.1h-3.1c0 .2-.1.4-.1.5v2.7l-3.8.1-.1.5-.5.1-.1.6-.5.1-.1.5-.5.1-.1.5-.2.1c-.8 0-1.6 0-2.4.1h-.6l-.1.6-.5.1-.1.5-.6.1-.1.6h-1.1c0 .2-.1.4-.1.7-.4 0-.8 0-1.2.1l-.1.6-.5.1-.1.5-.6.1-.1.5-.5.1c0 .2-.1.3-.2.6-.4-.2-.7-.3-1.1-.1 0 .1-.1.2-.1.4s0 .4-.2.5c-.1 0-.1.2-.1.2 0 .2-.1.3-.2.4-.1.1-.1.3-.2.5h-1.8c-.3.4-.7.2-1 .2h-1.7c-.3 0-.5-.1-.7.2 0 .1-.2.1-.3.1h-.2c-.3.4-.7.3-1 .3-.2 0-.3 0-.4.2-.1.1-.2.1-.3.1-.8 0-1.7.1-2.5 0l-1.4-.1h-.5l-.1.7-.8.2c-.4.3-.7.7-1.1 1.1l-.1.1c-.3-.1-.5.2-.7.4-.2-.3-.1-.6-.2-.9-.1 0-.2 0-.4-.1-.1 0-.2 0-.3-.1-.3-.5-.8-.2-1.3-.3-.3 0-.5.2-.8 0-.2-.1-.6-.1-.8-.1-.2 0-.2-.1-.3-.2-.2-.2-.4-.1-.4.1l-.1.4-.9.1-.1.3-.2.1-1 .2h-.1c-.2.4-.6.3-1 .3-.2 0-.4 0-.5-.2 0-.1-.2-.1-.3-.1h-.7c-.3 0-.5 0-.7-.3 0-.1-.3-.1-.4-.1-.2-.2-.3-.5-.3-.7-.5-.3-1.1-.3-1.6-.3h-1.9c-.1-.2-.1-.3-.2-.4-.2-.1-.5-.2-.8-.2-.2.1 0 .4-.3.5l-.1-.1v-1.9l-.6.1h-.1c-.1-.1-.2-.2-.3-.2-.3-.1-.6-.2-.8-.4-.3-.2-.6-.2-.9.1l-.3.2c-.1-.3-.1-.5-.1-.7 0-.4.1-.7-.2-1.1-.1-.1 0-.3 0-.4v-6.8c.6-.2 1.2 0 1.8-.1.2-.2.1-.5.1-.7v-3.0999999999999996c.6-.3 1.3.1 1.9-.4-.1-2-.3-4.6-.2-7.3z"/><path fill="#D4EDEF" stroke="#fff" stroke-width=".532" stroke-miterlimit="10" d="M301.6 317.2l-1.5-.1c0-.1-.1-.3-.1-.5v-.5c-.4 0-.8-.1-1.1-.1l-.2-1.2c-.3 0-.7-.1-1.1-.1l-.1-.6-1-.1c-.1 0-.3 0-.4-.1-.1-.2-.3-.3-.5-.3h-3.4c-.3 0-.5.1-.6.3-.2.4-.6.6-.9.8l-.4.2c-.2.3-.6.3-.8.5-.3.3-.6.1-.9.2l-.2 1.3c-.1 0-.3 0-.5-.1l-.2.3c-2.2.1-4.3-.1-6.5-.1l-.1-.3 1.5-18 .3-.1c1 .1 2 0 3 0h2c.2 0 .4 0 .6-.2.1-.1.3-.1.4-.1h5.8c.3 0 .7 0 1 .1.2.1.4.1.6.1l3 .2h.3c.3-.3.6-.2.9-.2l5.9.1h.4c.5-.2 1-.1 1.5-.1h4.7l.1.4c-.2.3 0 .6 0 .9 0 .3.2.5.4.7l.3.3c.1.4-.2.8-.3 1.3.2.1.3.1.4.1h8.4l.1-1.3c0-.4 0-.8.1-1.3.4 0 .7 0 1.1-.1l.2-1.1c.3 0 .6.1.8.3.3.2.6.2.8-.1.1-.2.3-.2.5-.2.3.1.7.1.9-.2.1.1.3.2.4.1.5-.1 1 .2 1.5.3l1.1.3.3.1c.1 0 .3 0 .4.1.1.1.1.2.1.4.1.3.2.5.5.5.4 0 .8.2 1.2.3.3.1.6.3.6.6.4 0 .8-.1 1.2-.3l.3.3c.1 0 .2.1.2.1.3-.2.5.1.8.2.3.1.7.2 1 .1.2-.1.4 0 .5.1.2.1.3.1.5.1.5-.1.9-.1 1.4 0 .1 0 .2.1.3.2.4.3.8.3 1.1-.1l.4-.3c.2-.1.4-.3.6-.5l-.1-.7c.1-.2.3-.2.5-.2h3.5l5.3-.1h.2c1.1-.3 2.2-.2 3.3-.2 1.2-.1 2.5 0 3.7 0 .6 0 .7.1.8.6l.2.7v.2c-.2.5 0 .9.2 1.3 0 .1.1.2 0 .3-.1.3-.1.5.1.7-.1.2-.2.3-.2.5-.1.2-.1.5.1.7l.2.2c.2.8.3 1.6-.1 2.4l-.1.2c-.2.2-.3.4-.4.7-.1.3-.3.4-.6.6-.3.1-.5.4-.7.6-.1.1-.1.2-.1.3 0 .1 0 .1.1.2.4.7.3 1.3-.1 1.9-.1.2-.3.4-.3.7 0 0 0 .1-.1.1-.5.2-.4.6-.4 1 0 .1 0 .2-.1.3-.1.3-.2.7-.2 1 0 .2-.3.4-.5.3l-.4-.3c-.6-.1-1 .2-1.3.7.1.5.1.6-.3.8-.3.2-.5.3-.6.7 0 .1-.1.2-.2.3-.1.2-.2.4-.2.6 0 .5-.1.9 0 1.4v.4l.2.1.1 1.1-.1.5c.1.5-.1.9-.3 1.2v.1c.2.4.1.9.2 1.3 0 .1 0 .2.1.3.1.2.1.3 0 .5-.2.5-.3 1-.4 1.5 0 .2 0 .4.1.6l.3.8c-.2 0-.5 0-.7.1-.1.2-.2.4-.2.6-.6.4-1.1.7-1.7 1-.4.2-.7.5-1.1.6-.1 0-.3.1-.3.2l-1 1c-.2.5-.4 1-.5 1.5-.1.2 0 .3.1.4l.4.3c0 1-.2 2-.9 2.9h-10.899999999999999c-1.3 0-2.7 0-4 .1-1.2.1-2.4.1-3.5.1h-.4c-.2-.2-.1-.4-.1-.6v-4.1000000000000005l-.4-.1c-1.6 0-3.2 0-4.8.1-.6 0-1.2 0-1.8.1-.5 0-.9 0-1.4.1h-3.4999999999999996l-.1-.4v-2.5c-.3 0-.6-.1-.8-.1-.2-.2-.1-.4-.1-.6v-7.1c-.2-.2-.4-.1-.7-.2h-6.2c0-.4-.1-.8-.1-1.3h-2c-.6 0-1.3 0-1.9-.1 0-.3-.1-.6-.1-.8l-1.8-.1c-.5-.6-.4-1.1-.5-1.6z"/><path fill="#A3DAD9" stroke="#fff" stroke-width=".532" stroke-miterlimit="10" d="M428.4 310.8l-.1-.5-.1-1.8-.4-10.3c0-.8 0-1.5-.1-2.3l-.1-2.6c0-.8 0-1.6-.1-2.4l-.4-8.4-.2-5.7-.2-4.8v-.4l-.6-.1-.1-.3c-.1-2.3-.2-4.6-.3-7l.4-.1 3.4-.2 5.2-.2 2.6-.1 10.7-.6 8.4-.4c1.2-.1 2.4-.2 3.6-.2l3.6-.1c.4 0 .8.1 1.2.2.2 0 .3.2.3.4s-.1.5.1.7c.3.1.5 0 .7-.2.2-.2.4-.5.8-.3 0 0 .1 0 .1-.1.2-.4.7-.4.9-.7.3 0 .4.1.5.3.2.2.4.5.8.4.3-.1.4.3.6.5.3 0 .5-.2.7.1l.3.1c.2 0 .3 0 .5.1.3.5.3.5.8.8l-.2 1.1c0 .2 0 .5.1.7.1.3.2.5.2.7v.5c-.3.1-.6.1-.8 0-.4-.2-.8.1-1.1.1-.1 0-.2.2-.1.2.1.4-.2.6-.4.8l-.3.4c.2.4.3.9.8 1.1-.1.8-.1.8.3 1.6.1.2.1.3.1.5s0 .4.1.6c-.6.4-1.3.5-2 .4-.5-.1-.9 0-1.2.5l-.3.4c-.3 0-.6-.1-.8.2h-.3c-.1 0-.3 0-.4-.1-.3.2-.5.5-.7.8-.3-.1-.6-.2-.8-.3-.2.2-.5.4-.8.4-.1.5 0 .9.2 1.2.2.2.2.5.4.8.4.1.8.1 1.1.4.4 0 .8.4 1.3.1.1-.1.3 0 .4.1.4.4.8.3 1.3.2.1 0 .1 0 .2-.1l.9.5c0 .1.1.3.1.5.1.3.2.6.6.7.4.1.4.4.5.7l-.3.9-.5-.1c-.2.2-.3.4-.4.6-.1.3-.2.6-.5.8-.1 0-.2.1-.2.2 0 .5-.3 1 0 1.5l.2.4c.2.3-.1.6 0 .9 0 .1-.1.2-.2.3-.4.3-.9.5-1.4.4-.2.2-.1.4-.1.6.1.4 0 .7-.1 1.1-.1.2-.2.4-.2.7-.1.2 0 .4.1.5.2.2.4.5.7.8l-.6.3v.3c0 .2-.1.4-.3.5-.2 0-.3.2-.4.3l-.3.4-.1.2c.1.4-.3.7-.4 1.1l-.4 1.1c-.1.2-.1.4-.1.7.1.3.1.6.1.9.1 0 .2.1.3 0 1.4-.1 2.8-.1 4.2-.3l2.3-.2c.6-.1 1.1-.1 1.7-.1 0 .2.1.3.1.4v.9c0 .3 0 .5.1.8.1.2.1.4.1.6l.4 6.4v.4c-.1 0-.2.1-.4.1l-3.6.2-3.1.2-3.6.2c-.3 0-.6.1-.8-.2-.1-.1-.3-.1-.5-.1-1.3.1-2.6.1-3.8.2l-2.4.1c-.3 0-.6.1-1 .1 0 .2-.1.3 0 .5 0 .9.1 1.8.1 2.8v.7l-.6.1-7.2.3c-2.9.1-5.8.3-8.6.4-1.7.1-3.4.2-5 .3h-1.8c-.8.2-2.1.2-3.4.3z"/><path fill="#A3DAD9" stroke="#fff" stroke-width=".532" stroke-miterlimit="10" d="M441.7 239.6c-1.1-.1-2.1.1-3.2.1-.1-.4-.1-.9-.1-1.3s0-.8-.1-1.2c0-.4 0-.8-.1-1.3-.7-.1-1.3 0-1.9 0l-2 .1c-.6 0-1.3.1-1.9 0-.1-.8-.1-1.6-.1-2.4-.1-.8-.1-1.5-.1-2.3 0-.8-.1-1.6-.1-2.3l-.1-2.3v-2.3l-.1-2.3c.2-.1.3-.1.5-.1s.4 0 .6-.1c.6-.1 1.2-.2 1.8-.5.6-.3 1.2-.3 1.8-.5.5-.1.9-.1 1.3.1 1.2.4 2.3.3 3.5-.1.5-.2 1-.4 1.5-.8.4-.3.8-.6 1.3-.8.6-.2 1-.6 1.3-1.2l.3-.4 1.6-.2 7.2-.4 2.7-.1 4-.2c2.1-.1 4.1-.2 6.2-.4l3-.2 6.4-.4h.5c.1.3.1.6.1.9l.3 4.9.1.6c.1.5.2 1 .1 1.6-.7.2-1.4.1-2.1.2-.1.6.1 1.2 0 1.9l-.6.2c-.1.7.1 1.3.1 1.9 0 .6.1 1.2 0 1.9l-1.5.1c-.1.7 0 1.3.1 2l.1 1.9.1 2c0 .6 0 1.3.1 1.9.1.7.1 1.3.1 2l-2.4.2c0 .1-.1.3 0 .4 0 .4 0 .8.1 1.1v.4c-.3.1-.6.1-.9.1-.7 0-1.4 0-2.1.1-.4 0-.9 0-1.3.1-.5.1-.9-.2-1.3-.3-.1 0-.1-.1-.2-.2-.3 0-.5 0-.8.1 0 .2 0 .3-.1.5-.2 0-.4.1-.7.1l.1 3.2c-.2.2-.4.2-.6.2l-4.8.3h-.5l-.1.6c-.4 0-.7.1-1-.1l-.3-.1c-.4 0-.8 0-1.2.1 0 .1-.1.2-.1.2l.2 3.8c0 .1 0 .1.1.2h1.2l.1.5c0 .5 0 1 .1 1.6 0 .2 0 .4.1.6 1.2.1 2.3-.1 3.4-.1l.2 1.7c0 .6 0 1.2.1 1.8l.1 1.7c.3 0 .6 0 .8.1.1.5.2 2.9.2 3.4-.2 0-.4.1-.5.1-2.6.1-5.2.2-7.7.3-2.8.1-5.5.3-8.3.5l-3.3.2h-.4c-.1-.5-.3-2.6-.2-3.5l.4-.2.1-.2c-.1-2.1-.2-4.2-.3-6.2l-.2-3.6-.3-8.4c-.3-.6-.3-1-.4-1.5z"/><path fill="#A3DAD9" stroke="#fff" stroke-width=".532" stroke-miterlimit="10" d="M518.1 254.5c-.7.2-14.1 1.1-15 1-.2-.4-.1-.8-.1-1.2l-.1-1.2c0-.4 0-.9-.2-1.3-2.2.1-4.4.3-6.6.5-.2-.7-.1-1.3-.3-1.9h-1.3l-.3-2.5-.6-.1-.1-1.1-.6-.1c0-.1-.1-.3-.1-.5-.2 0-.4-.1-.5-.1l-.1-.2c-.1-.3 0-.7-.2-1l-1.7.1c0-.1-.1-.2-.1-.4l-.1-.8-.6-.1-.3-2.7-.5-.1-.1-.2c-.1-.6-.1-1.2-.1-1.8l-.1-1.6s0-.1-.1-.2h-1.3l-.4-4.5-.6-.1-.2-1.8-.6-.1-.1-.2c0-.3 0-.6-.1-1-.2 0-.4-.1-.6-.2-.2-1.1-.2-2.2-.3-3.3.4-.3.8-.1 1.2-.2v-.3c-.1-1.2-.1-2.4-.2-3.5 0-.1 0-.2-.1-.4-.6-.1-1.2.1-1.8.1l-1.8.1-1.8.1c-.6 0-1.2.1-1.7.1l-.1-.1v-.1l-.2-2.1-.2-3.7c.2 0 .3-.1.4-.1 1.2-.1 2.3-.2 3.5-.2l8.9-.5 4.6-.3h.7c1.8 0 3.6-.3 5.4-.4.8 0 1.6-.1 2.4-.2l6.7-.4h.6l.8.7c0 .4 0 .9.6.9.1.5.2.9.3 1.3.2.7.7 1.3 1.3 1.7.7.4 1 .9 1.4 1.5.1.1.1.4.1.5 0 .3.2.5.4.7.5.3.9.4 1.4-.1.4-.4 1-.2 1.3.2.1.2.3.4.4.7.2.3.4.5.7.7.3.2.6.2.9.1.4-.2.7-.1 1.1-.1.2 0 .3.1.5.2l1.4 1c.3.2.4.5.4.9s0 .8.1 1.3.3.8.7 1.1c.3.3.6.6 1 .9 0 0 .1.1.1.2.1.5.5.8.7 1.2.2.3.2.6 0 .9-.2.3-.4.5-.5.9l-.2.3-.3.5c-.1.2-.2.2-.3.3-.3.1-.5.3-.4.6-.1.6-.2 1.2-.6 1.6-.2.2-.2.3-.1.6l.1.3c-.1.4 0 .8.1 1.2l-.5.6c-.3.3-.5.6-.5 1.1 0 .5-.1 1-.5 1.3-.1.1-.3.3-.3.5l-1.2 3c-.2.4-.2.7-.1 1.1.1.2.1.5.1.7 0 .4 0 .7-.3 1-.1.1-.2.4-.3.6-.2.8-.4 1.6-.3 2.4 0 .1 0 .3-.1.4-.3.8-.3 1.7-.4 2.6-.4.2-.4.7-.6 1-.1.1-.1.3-.3.4-.4.3-.6.7-.6 1.2.1 0 0 .1 0 .1z"/><path fill="#D4EDEF" stroke="#fff" stroke-width=".532" stroke-miterlimit="10" d="M472.8 261.2c.2-.1.3-.2.4-.3.2-.2.4-.2.6-.2l.4.1c.1 0 .3 0 .3-.1.2-.4.6-.6.6-1l.1-.1s.1-.1.2-.1c.5-.2.8-.1 1.1.4.3.4.6.8 1.2.9.4.4 1 .4 1.6.6.5.2 1.1.1 1.6-.2.5-.4 1-.7 1.4-1.2l.1-.1c.5-.4.7-1 1-1.5.3 0 .6.4.8-.1.3.2.4.4.5.6l.3.5c.2.3.5.5.8.3l.6.6v.2c0 .4.2.6.6.6l2.1-.1 3.6-.3 1-.1v-.5c0-.9-.1-1.8-.2-2.8v-.6l.6-.1 23.8-1.7c.1.3 0 .5-.2.7-.4.4-.6 1-1.1 1.3-.2.2-.3.4-.2.7.1.4.1.9-.1 1.3-.2.3-.1.6.1.8.1.1.1.3.1.4 0 .2.1.4.2.6l.4.6c-.2.7-.3 1.4-.5 2-.1.4-.2.8-.6 1.1-.2.2-.4.5-.7.5v.4c0 .2 0 .3-.1.5-.2.5-.5 1-.7 1.4-.1.2-.1.4-.1.5v.4c-.1.1-.2.1-.2.2-.6.3-1.1.6-1.5 1.1-.1.1-.2.2-.3.2-.4 0-.7.3-1 .4-.3.1-.5.3-.5.6 0 .2-.2.3-.4.5v.5c0 .3 0 .5-.2.7-.3.3-.3.7-.2 1.1-.1.1-.1.2-.2.2-.2.2-.3.4-.3.6 0 .3 0 .6-.1.8 0 .2-.1.4-.3.6-.2.2-.3.4-.3.7l-.1 1.1c0 .3-.1.5-.3.7l-.2.1c-.2.2-.3.4-.1.7.2.4 0 .9-.2 1.3-.1.2-.2.2-.4.2-.4 0-.5.2-.6.6l-.1.6c-.1.3-.2.5-.5.6-.5.2-.5.3-.3.8.1.4.3.7.3 1.1.1.6-.1 1.1-.2 1.7 0 .1-.2.3-.3.4-.2.2-.2.4-.1.7.2.5.5.9.9 1.2.4.3.7.5.9 1-.1.2-.1.5-.3.7-.3.4-.5.8-1.1.8l-5.1.3-2.1.1h-.5c-.1-.4-.1-.9-.1-1.3s0-.8-.1-1.2c0-.4-.1-.8-.1-1.3-.2 0-.4 0-.7-.1-.1-.1-.1-.3-.2-.5l-.5-.1-.2-.5h-1.2l-.2-.5c-.2 0-.3-.1-.6-.1 0-.1-.1-.3-.1-.5-.1 0-.3-.1-.5 0l-3.5.2c-1.7.1-3.4.2-5 .4l-3 .2c-.2 0-.3 0-.5.1l-.1.6-1.1.1-.1.6-.5.1v1l-.6.2v.7l-.6.2c0 .1 0 .3-.1.5-.1.1-.2.1-.4.2l-.2 1.2c-.1 0-.3.1-.5.1l-.1.6-.5.1c0 .2 0 .4-.1.6-.2 0-.4.1-.5.1v1.2l-1.2.2-.1.6-.7.1c-1.3 0-2.6.1-4 .2l-4.3.3h-.5c-.1-.5-.2-.9.1-1.4l.2-.7c.1-.2.1-.5.4-.7.1 0 .1-.1.1-.2-.2-.4.2-.6.3-.9 0-.1.1-.2.2-.2.5-.1.5-.5.6-.9v-.1c.2-.3.5-.2.7-.2 0-.3-.1-.5-.3-.7-.2-.2-.4-.4-.4-.7 0-.1-.1-.1-.2-.2l.1-.5c.2-.5.3-1 .1-1.5.4-.3.9-.4 1.4-.5l.2-.3c.2-.2.2-.4.3-.7.1-.3 0-.4-.1-.6l-.3-.6c-.1-.2-.1-.3 0-.5s0-.4 0-.6c.4-.4.7-.9.8-1.5.2 0 .3 0 .5.1.2-.2.4-.4.4-.8 0-.2.1-.4.2-.6-.3-.7-.3-.7-1.2-1.2l-.1-.3c0-.4-.2-.6-.5-.8l-.7-.3h-.3c-.3 0-.5.1-.7.1-.2-.2-.3-.3-.5-.4h-.2c-.6.1-1.1 0-1.6-.2-.2-.1-.4-.1-.7-.2-.3-.4-.5-.8-.6-1.3l.1-.1c.6-.3.6-.3 1.2 0 .2 0 .3-.1.4-.3l.1-.3c.1-.2.3-.3.5-.2l.4.1h.2c.1-.4.5-.3.8-.4 0-.1.1-.2.2-.3.2-.4.5-.6 1-.5.6.1 1.2.1 1.8-.2.2-.1.3-.2.5-.2.1-.4-.1-.7 0-1v-.3c-.4-.5-.5-1.1-.4-1.8v-.1c-.4-.1-.5-.5-.6-.9l.2-.4c.3-.2.3-.4.3-.7.5-.3 1-.1 1.4 0 .2 0 .4.1.6-.1.2-.2.2-.5.1-.8l-.3-.8-.1-.4c.2-.4.1-.7.2-1.1.1-.4 0-.5-.4-.7 0 0-.1 0-.1-.1l-.1-.1v-.3c.2-.2.3-.4.3-.6 0-.1.1-.3.2-.4.3-.1.5-.5.3-1z"/><path fill="#C1C1C0" stroke="#fff" stroke-width=".532" stroke-miterlimit="10" d="M420.7 326.9c-.1 0-.1 0-.2.1l-1.8.1-6.4.2-6.5.2c-.2 0-.4 0-.6-.1-.1-.1-.3-.1-.5 0l-5.7.2-5 .1c-2.6.1-5.3.2-7.9.2l-9.9.2c-2.8 0-5.7.1-8.5.2-3.5.1-6.9.2-10.4.2h-5.1c-.1 0-.1 0-.2-.1l.9-.1c.1-.2 0-.3-.1-.3-.5-.5-.6-1.1-.5-1.8.1-.5.3-.9.5-1.4-.3-.3-.3-.7-.3-1.1 0-.2 0-.4-.1-.7.1-.3.3-.6.5-1l-.3-.3c.1-.1.2-.3.2-.4v-.1c-.2-.2-.2-.5-.1-.8.1-.3.1-.5-.1-.7-.1-.1-.1-.2-.1-.3 0-.3 0-.7-.1-1 0-.3 0-.7.2-.9.1-.1.1-.2.1-.3.1-.2.2-.3.4-.4.3-.2.6-.4.7-.9.1-.4.5-.6.8-.5l.5.2c.4.1.8-.2.8-.6 0-.4.1-.7.2-1.1.1-.3.1-.6.1-.9.1 0 .2-.1.3-.2l.3-.3c-.1-.1-.1-.2-.2-.4l.4-.4c.2-.8.3-1.5-.1-2.2.2-.4.5-.6.9-.6.3-.5.5-1 .8-1.4.3-.5.4-1.1.3-1.7l-.1-.6c0-.3-.1-.6-.4-.8l.2-.4c.2-.2.2-.5 0-.7 0 0-.1-.1 0-.1.3-.5-.1-.9-.2-1.4 0-.1-.1-.2 0-.2.3-.3.1-.6-.1-.9-.1-.1-.1-.3-.1-.5-.1-.5-.3-.8-.8-1-.1 0-.2-.1-.3-.2-.1-.1-.1-.2-.1-.3 0-.3-.2-.5-.5-.7v-2.1c-.2-.3-.1-.6.1-.9-.4-.4-.2-.9-.3-1.4.2 0 .3-.1.4-.1 7.7-.1 15.4-.4 23.2-.3 0 .2.1.3.1.4l.1 6.5c0 .3 0 .7.2 1l.1.5c0 .8 0 1.6.1 2.4 0 .2 0 .4.1.6 1.2.2 2.4.1 3.6.2.2.2.2.5.2.8.1 1.9.1 3.9.1 5.8 0 .4 0 .8.1 1.2l.5.1h7.2c.1.2.1.5.1.8 0 .8 0 1.5.1 2.3v.7l.4.1 3.7-.1h.4l7.1-.2h.4c.1.3.1.5.1.8 0 .8 0 1.6.1 2.4 0 .2 0 .4.1.7 1.3.1 2.6-.1 3.9-.1l.2 3.8.5.1h1.7c2.1-.1 4.2-.2 6.3-.2.9 0 1.8-.1 2.8-.1h.5l.1.3c-.1.6-.1 1.7-.1 2.9z"/><path fill="#A3DAD9" stroke="#fff" stroke-width=".532" stroke-miterlimit="10" d="M428 310.8l-1.9.1c-.6 0-1.2.1-1.9.1v.5l.3 10.5v.7l-.4.1-2.5.1-7.2.3-4.3.2c-.3 0-.7 0-1.1-.1-.1-.4-.1-.9-.1-1.3v-1.3c0-.4-.1-.8-.1-1.3-.7-.1-1.3 0-1.9 0h-1.9c-.2-.2-.1-.5-.1-.7 0-.8 0-1.6-.1-2.4 0-.2 0-.5-.1-.7-1 0-2 0-3 .1l-3 .1-3 .1-3 .1-.1-.5c0-.9 0-1.8-.1-2.6 0-.2 0-.5-.1-.7-2.5 0-5.1.1-7.6 0-.1-.4-.1-.7-.1-1 0-1.4-.1-2.8-.1-4.3 0-.8-.1-1.6-.1-2.5l-.5-.1-2.6-.1h-.7c-.1-.3-.1-.6-.1-.8v-2.1c0-.2 0-.5-.1-.7-.1-.2-.1-.4-.1-.6l-.1-6v-.9l3.8-.2c.1-.6 0-1.3 0-1.9v-1.9c.1-.2.4-.1.6-.1 1.3 0 2.6-.1 3.8-.1h.7c0-.2.1-.4 0-.5l-.1-2.4v-.9l.5-.1 6.2-.2c2.1-.1 4.3-.2 6.4-.2h.9l.1.4v1.6l.1 3.4c0 .1 0 .1.1.2h.5l6-.2 2.3-.1c.8 0 1.6-.1 2.3-.1h.6c.2.7.1 1.4.2 2.2l3.9-.1c.1.6.1 1.2.1 1.9l.1 1.8c.9.1 1.8-.1 2.6-.1l2.6-.1 2.6-.1.1.1v.1l.6 15c.1.1.1.1.1.3z"/><path fill="#D4EDEF" stroke="#fff" stroke-width=".532" stroke-miterlimit="10" d="M329 363.4l.1-.5.5-.1.2-.6c.4 0 .8 0 1.2-.1 0-.2.1-.4.1-.7h1.2l.1-.6.5-.1.1-.5.5-.1.1-.6c1 0 2.1-.1 3.2-.1l.1-.6c.2 0 .3-.1.6-.1l.1-.5.5-.1c0-.2.1-.4.2-.6.1 0 .3-.1.5-.1l.1-.4.1-.1h3.3s.1 0 .2.1c0 .1.1.3.1.5v4.4c0 4.3 0 8.5.1 12.8v4.5l-.1 1.7v3.8c0 2.1 0 4.3.1 6.4 0 1.3.1 2.7 0 4l-.1 3.1v3.2c-.2 0-.3.1-.4.1h-3.5c-2.3 0-4.7.1-7 .2-2.8.1-5.5.1-8.3.1h-3.9c-1.6 0-3.3-.1-4.9-.2h-1.3c-.7.1-1.4.1-2.1.1 0-.2-.1-.3-.1-.4v-11.3c0-3.1 0-6.2.1-9.3l-.1-6 .1-4.5c.2 0 .4-.1.5-.2l.3-.3.7-.7c.1-.1.2-.1.3-.1h.6c0-.3.1-.5.1-.7.3-.1.6-.1.9 0l.6.1h2.7c.2 0 .4 0 .6-.2.1-.1.3-.1.4-.1.3-.1.6 0 .9-.3.2-.2.5-.1.7-.4.1-.1.3 0 .4 0h2.1c.2 0 .5 0 .6-.2.1-.1.2-.1.3-.1h1.5c.2-.2 0-.6.4-.7l.1-.5c.1-.1.2-.2.3-.4l.1-.7c.2.1.4.2.6.2.2 0 .4 0 .6-.1l.1-.5.5-.1.1-.5c.4-.2.6-.3.8-.3z"/><path fill="#64BCBB" stroke="#fff" stroke-width=".532" stroke-miterlimit="10" d="M399.5 267c.2.3.5.5.4.9.2.3.2.6.1 1 .3.2.6.4 1 .3 0 0 .2.1.2.2s0 .2-.1.2l-.3.2c-.2.1-.3.3-.2.6l.2.5c.2.1.6.1.8.4.1.1.3.1.5.2.2.3.3.6.5 1l-1 .1h-8.4c-.4 0-.7 0-1.1.1h-11.5c-.3 0-.7 0-1-.1h-21c-.1-.2 0-.4.1-.6.1-.3.1-.6-.2-.8 0-.3.1-.6.3-.8.1-.1.2-.1.2-.2 0-.3.2-.5.4-.6.2-.2.2-.3.2-.6-.1 0-.3 0-.4-.1-.3 0-.5-.2-.6-.5 0-.4-.4-.6-.5-.9-.4-.2-.8.1-1.1.1 0-.1-.1-.1 0-.2.2-.3.2-.7 0-1.1-.3-.6-.2-1.2-.3-1.9 0-.1.1-.3.3-.3h.4c0-.3.1-.6.1-1 .2 0 .3 0 .5.1.3.2.6.2.9 0 .1-.1.3-.1.4-.1v-.3c0-.2 0-.3.2-.4.2-.2.5-.4.7-.5.1-.1.2-.1.3-.1.2 0 .4.1.7-.1 0-.3 0-.6.2-.9.1-.1.1-.4 0-.5-.3-.4-.3-.8-.5-1.2-.3-.2-.6-.3-1-.2-.2-.2-.4-.5-.4-.9 0-.3-.2-.5-.4-.6-.2-.1-.3-.3-.4-.5-.1-.2-.2-.5-.4-.7-.2-.3-.2-.3-.2-.7.3-.2.6-.3 1-.3l.5-.7h.5c.1-.4.1-.8.1-1.2.7-.1 1.4-.1 2.1-.1.7 0 1.4 0 2.1-.1h2.1c0-.2.1-.3.1-.4v-3.2l-.1-5.8c0-.6 0-1.1-.1-1.7v-.6c.4-.2.8-.1 1.3-.2v-5.9c0-.7-.1-1.3 0-2h.4c.4.1.8 0 1.2-.2.9-.5 1.8-.4 2.6.2.3.2.6.3.9.4.5.1 1 .3 1.4.4.2.1.4.2.5.4.3.5.5 1.1.5 1.8 0 .6.3.9.9.9.4 0 .8-.1 1.3-.2.3-.1.5-.3.6-.5.2-.6.6-.9 1-1.2.2-.1.5-.2.7-.2h1.4c.2 0 .3 0 .5.1.3.1.6.1 1-.1l.5-.2c.8.2 1.1.8 1.3 1.5v.1c-.3.4-.3.7.2 1 .2.1.2.3.1.4-.3.4-.2.8-.3 1.2.1.3.2.5.4.7l.2.2c.1.1.2.2.2.3.1.3.2.5.5.4.2 0 .3 0 .5.1l.6.4c-.1.3-.1.6 0 .9.1.3 0 .7-.1 1.1l-.6.3c-.1.2-.1.4-.2.7v.3c.2.2.1.5.1.8l-.2 1.2c-.6.3-.8.8-1 1.4-.2.1-.4.1-.5.2-.1.1-.1.3-.2.5-.2.1-.5.1-.6.4l-.1.1c-.4.3-.4.3-.1.7-.1.2-.2.5-.4.7-.2-.1-.1-.2-.2-.3 0-.2-.2-.3-.3-.3-.2 0-.3.1-.3.2l-.2.4h-.3c-.3 0-.5.1-.5.4 0 .3-.2.6-.4.8.2.3.3.6.3.9v1.9c0 .4.2.7.6.8.1 0 .1 0 .2.1l.5.4c.2.1.4 0 .6 0l.3.1c.5-.1 1-.1 1.5-.1.5-.3 1 0 1.4.1.3.1.5.2.7.4.2.2.5.4.8.6.4.3.9.4 1.4.5.3.2.3.7.7.8.3.1.6.3.9.5l.2.4v.4c-.3.4-.2.8-.2 1.2.2 0 .3.1.4.1l6-.1h.4c.6 0 .6 0 .7.6 0 .1 0 .2.1.3.1.2.2.3.1.6l.1.3c0 .1.1.2.1.2-.2.4 0 .6.2.9-.1.2-.2.4-.2.5.1.4.3.7.2 1l-.1 1.1c.9.5.9.7.9.8z"/><path fill="#A3DAD9" stroke="#fff" stroke-width=".532" stroke-miterlimit="10" d="M315.2 280.6c-.1-.5-.3-.9-.6-1.1-.3-.3-.3-.4-.4-1.1.1-.1.3-.2.4-.4.1-.1.1-.3.2-.5.1-.1.2-.1.4-.2h.1c.3.3.8.3 1.2.4.2 0 .2.1.3.2.1.1.3.1.5.2.1.1 0 .4.2.6.2.2.4 0 .6 0 .2.2.1.4.1.5-.2.5 0 .8.4 1.1l1.1-.6c.1-.3.1-.7.5-.9.2 0 .4.3.6.1.2-.1.2-.4.3-.6.1-.2.2-.4.4-.5.1-.1.1-.2.2-.2.7 0 1.2-.5 1.8-.8.2-.1.3-.3.3-.4.3-.1.5-.1.7-.2.5-.2.5-.2.7-.8l.6.1c.3-.1.6-.1 1 0 .2.1.5 0 .8 0 .4.5.9.7 1.5.5.5-.1.9-.2 1.3-.4.3-.2.6-.2.9.1.2.2.5.3.8.3.1 0 .3 0 .3.1.4.4.9.4 1.4.4h.1l.2.4c.4.2.7.3 1.1.1h.6c.3-.1.6-.1.9 0 .5.1.9.1 1.4 0 .4 0 .7.1 1.1-.2.2-.1.4 0 .6 0 .1 0 .3.1.4 0 .4-.2.8 0 1.2.1.3 0 .5.2.6.5.1.3.3.5.5.6l.6.7c.1.1.2.3.2.4.3.5 1 .6 1.4.2.3-.3.7-.5 1.1-.8.2-.1.4-.3.6-.5.2 0 .4.3.6.4l.5.3c.2.1.4.2.6.2.6.2 1.1.3 1.6.7.1 0 .2.1.2 0 .5-.3 1.2.2 1.7-.3.4.4.9.4 1.4.4 1.2 0 2.5 0 3.7-.1h.6c0 .2.1.3.1.4v.8c0 .3 0 .5-.1.8l-.2.6c-.1.2 0 .4.1.6.2.3.4.7.3 1.1-.1.2-.1.4-.1.6 0 .4-.1.8-.4 1.2-.1.2-.1.4-.1.5.1.2.1.4.1.6l-1.1 1.2c-.1.1-.2.3-.1.4.1.3.1.5 0 .7-.1.2 0 .5.1.8l.1.4c-.2.6 0 1.1-.1 1.7-.1.6 0 1.1 0 1.7 0 .1 0 .2.1.3l.1.2c.1.3-.2.5 0 .8.1.2.1.5.1.8 0 .1-.1.3 0 .4.1.4.1.8 0 1.3l.5.2c0 .1.1.2.1.4l.1.4h-.7c-1.8 0-3.6.1-5.5.1l-.7.1-.7.1h-2.5c-1.3 0-2.7 0-4 .1-.8 0-1.6.1-2.3.1-.3.3-.3.6-.1 1l-.6.4c-.1.1-.2.2-.4.3-.1.1-.3.2-.4.2-.1 0-.2-.1-.3-.2l-1-.3c-.3 0-.6 0-.8.1-.2 0-.4.1-.6 0-.1-.1-.4-.1-.5 0-.3.1-.5 0-.8 0h-.1l-.4-.4c-.1-.1-.3.1-.5 0-.3-.3-.6-.2-1 0h-.3c-.4-.3-.7-.6-1.3-.7-.2 0-.3-.1-.5-.2h-.5c0-.1-.1-.2-.1-.2-.1-.5-.2-.6-.7-.7l-.4-.1c-.4-.1-.8-.4-1.2-.3-.2 0-.2-.3-.5-.3l-.7.1c-.4-.1-.7-.2-1 .1h-.2c-.5-.1-.8 0-1.1.3-.5-.3-1-.4-1.6-.5l-.1 1.2-1.1.2c-.2.8-.1 1.7-.2 2.5l-.4.1h-7c-.2 0-.4 0-.6-.1l.2-.9c.1-.3 0-.4-.2-.6-.5-.3-.6-.8-.5-1.4.1-.3.1-.5-.1-.7-.2-.2-.4-.2-.6-.2 0 0-.1 0-.1-.1-.1-.2 0-.3.1-.5.2-.3.2-.4-.2-.6-.1 0-.1 0-.2-.1l-.1-.1c-.1-.3.1-.9-.5-.9l.1-.5c0-.1 0-.3-.1-.4.1 0 .1-.1.1-.1.3-.2.3-.2.2-.4-.1-.2-.1-.3-.3-.4-.1-.1-.2-.1-.4-.2l.6-.6c0-.1 0-.3-.1-.5 0-.2-.1-.3.1-.5.1-.1.2-.3.1-.5-.2-.4-.1-.7.2-1.1.1-.2.2-.3.1-.5-.2-.5-.1-1.1-.1-1.7.1-.7.1-.5-.3-1.1.2-.5.3-.9-.1-1.3-.1-.1-.1-.2-.2-.4l-.2-.4c-.1-.1-.3-.1-.5-.2.4-.4.9-.6 1.4-.6.2 0 .4 0 .6-.1.3-.1.4-.4.2-.6l-.1-.1-.1-.1c.1-.2.4-.3.4-.5 0 0 0-.1.1-.1.4-.1.3-.5.3-.8l.5-.1 1.5-.1c.3 0 .5-.2.8-.3.3-.2.4-.5.2-.8l-.4-.6c0-.1-.2-.2-.3-.2 0 .9-.2 1-.4 1z"/><path fill="#C1C1C0" stroke="#fff" stroke-width=".532" stroke-miterlimit="10" d="M422.1 264c0-1.2-.2-2.3-.1-3.5l.9-.1c.1-1.4-.1-2.7-.1-4-.3-.2-.6-.2-.9-.2-.8 0-1.6 0-2.4.1h-.7c-.1-1.3 0-2.5-.2-3.8-.2-.2-.4-.1-.6-.1-.9 0-1.8 0-2.7.1h-.6c0-.2 0-.3-.1-.4l-.3-10c0-.4-.1-.8.1-1.2.1-.1 0-.3 0-.5l-.4-11.1v-1.6c.4-.3 1-.6 1.6-.6.7 0 1.3-.2 1.9-.4.7-.2 1.4-.4 2.2-.6.2-.1.4-.1.6-.1.5 0 .9 0 1.4-.1l2.5-.5c.4-.6.8-1.2 1.1-1.9.2-.3.4-.6.7-.9l.4-.3c.4-.2.7-.2 1.1 0l.4.2c.5.3 1.1.3 1.7.3.2 0 .4-.1.5-.2l.7-.3c.1 0 .3 0 .4-.1.1 2.4.2 4.8.3 7.1.1 2.3.2 4.7.3 7.1h.6l4.5-.2h.7l.1.5c.1.9.1 1.9.1 2.8v.5l.4.1 1.8-.1h1c0 .2.1.3.1.4.1 1.3.2 2.7.2 4l.2 4.8c.1 2.6.2 5.3.4 7.9l.1 2-.5.3c-.1 1.2.1 2.5.1 3.8-.2 0-.3.1-.4.1-.8.1-1.6.1-2.4.1l-3.9.2c-.7 0-1.5 0-2.2.1l-4.5.2c-1.7.1-3.5.2-5.2.2 0-.1-.4-.1-.9-.1z"/><path fill="#D4EDEF" stroke="#fff" stroke-width=".532" stroke-miterlimit="10" d="M483.7 257.9l-.2-.2h-.1c-.2.2-.5.3-.6.6-.1.5-.4.9-.8 1.3l-1 1c-.5.5-1.2.6-1.9.4l-1.3-.5c-.5-.2-.8-.5-1.1-.9-.4-.5-.5-.6-1.2-.5-.4.1-.7.2-.7.6-.1.3-.4.4-.5.8-.8-.2-1.3 0-1.8.6.1.4-.1.9-.3 1.3-.1.2-.2.4-.3.7-.4.3-.8.3-1.3 0l-.6-.1c-.2-.1-.5-.5-.9-.4-.1 0-.3-.1-.3-.2-.2-.2-.4-.3-.6-.4-.2-.1-.3-.1-.5.1-.1.2-.2.3-.5.2-.1 0-.2 0-.2.1-.1.3-.4.2-.6.4-.1.2-.3.3-.5.4h-.2l-.1-.7c-.2-.2-.4-.5-.8-.3-.6-.2-1.2-.1-1.9-.2-.1-.6-.1-1.2-.1-1.9 0-.6 0-1.2-.1-1.9-.3 0-.5 0-.9-.1l-.3-5.1c-.2 0-.3-.1-.5 0l-1.8.1h-1.1c-.2-.4-.1-.9-.1-1.3s-.1-.8-.1-1.3c-.4-.2-.8 0-1.2-.1-.1-.5-.3-2.8-.2-3.5.3-.1.7-.2 1 0l.3.1h1.2l.1-.6.2-.1 3-.2c.8 0 1.7-.1 2.5-.2l.1-.4-.1-2.1v-.8l.6-.2.1-.5c.2-.1.3.1.4.2l.4.2c.1.1.3.1.4.1l2.6-.2h2.1c.2 0 .4 0 .6-.1v-1.9l1.2-.1 1.2-.1c0-.2.1-.3 0-.4l-.4-6.8-.1-2v-.6l1.5-.2c.1-.6 0-1.2-.1-1.8 0-.6-.1-1.2-.1-1.9l.6-.2v-.2c0-.3 0-.7-.1-1v-.7c.2 0 .3-.1.4-.1.4 0 .8 0 1.2-.1l.6-.1v-1.9c.1 0 .2-.1.4-.1 1.5-.2 5.8-.4 6.4-.3l.1.1.2 3v.4l-1.2.2c-.1.5.1 3.1.3 4 .2 0 .4.1.5.1 0 .1.1.1.1.1 0 .3.1.7.1 1.1.2 0 .4 0 .6.1l.2 1.8c.2 0 .4.1.5.1.2.7.1 1.5.2 2.2 0 .7.1 1.5.2 2.2l.4.1h.9l.1.5.2 2.9c0 .1 0 .3.1.4l.5.1c.2.4.1.9.2 1.4 0 .4 0 .9.1 1.3l.5.1.1.2c.1.3 0 .7.2 1h1.8c.2.3.1.7.2 1.1.2 0 .3.1.6.1 0 .2.1.3.2.5l.6.1c0 .2 0 .4.1.6v.5l.6.1c.2.8.2 1.7.3 2.5.4.1.9-.1 1.3.1l.2 1.8.4.1c.3 0 .6 0 .9-.1l4.6-.3h.7c.2.2.2.5.2.7 0 .9.3 1.8.1 2.8-1.6.2-3.1.3-4.7.4-1.6.1-3.1.2-4.7.4v.4l.2 2.8v.6c-.3 0-.5.1-.7.1l-5.9.3-.1-.1.1-.3c0-.2 0-.3-.2-.4l-.3-.3c-.2-.5-.5-.6-1-.4-.2-.3-.4-.5-.5-.8 0-.3-.3-.4-.6-.4h-.5z"/><path fill="#64BCBB" stroke="#fff" stroke-width=".532" stroke-miterlimit="10" d="M360.9 252.3l-.5 1.2c-.2.4-.1.6.3.9l.1.1c0 .1-.1.3-.1.5l-.4.2c-.1.1-.1.2-.2.4s-.2.3-.5.4l-.9.3c-.1.5-.2.9.2 1.3.1.1.2.2.2.4.1.4.2.7.6.9.1 0 .1.2.2.3 0 .4.3.8.4 1.1.1.3.2.3.5.1.3-.2.5 0 .6.2.1.3.2.6.4 1-.1.2-.2.5-.3.8h-.5c-.5.1-.7.5-1.1.7-.2.1-.3.4-.3.6-.3.3-.6.3-1 .1-.1-.1-.3-.1-.4-.1-.3 0-.5.2-.5.5v.4l-.1.1c-.7.2-.7.3-.6.9 0 .1.1.2 0 .3 0 .6.2 1.2.4 1.7-.1.2-.2.4-.2.6-.1.3.1.6.5.5l.4-.1c.3-.1.4-.1.6.2.1.1.2.3.2.4-.1.4.2.5.4.7.1.1.2.1.4.2-.1.3-.4.4-.7.4h-1.8l-12.3.2c-1.9 0-3.9.1-5.8.2h-.6l-.2-.5c-.1-.3-.3-.4-.6-.4h-.1c-.5.1-.9 0-1.3-.3-.2-.2-.5-.3-.8-.4-.3-.1-.6 0-.8.1-.1-.2-.2-.3-.3-.4-.1-.1-.1-.2-.2-.2-.6-.2-.7-.7-1-1.1-.2-.3-.3-.7-.5-1.1-.2-.1-.4-.2-.7-.3 0-.2 0-.5-.1-.7l-.1-.6-1.2-.6c-.1-.1-.3-.1-.4-.1-.3-.1-.5-.1-.7-.4-.1-.2-.4-.3-.6-.4-.5-.2-.8-.6-1.1-1.1-.1-.2-.3-.5-.4-.6-.2-.2-.4-.4-.5-.7l-.3-.3-.8-.7c0-.7.3-1.3.7-1.8.4-.5.3-1 .3-1.5v-.2c.3-.9.3-1 .1-1.6.1-.3.2-.5.4-.9-.5-.2-1 .1-1.4-.1l-.1-.5c-.6-.1-1.2-.1-1.7 0-.3.2-.3.7-.8.6-.2-.5-.2-1.5 0-2.2l.5-.1.2-1.2h.8l.1.6c.6.1 1.6.1 2.2 0 .1-.5 0-1 0-1.5v-3l2.9-.1c.2-.5.2-.5-.1-1 .4-.2.7-.2 1.1-.2 3.2 0 6.4 0 9.6-.1h5.2l7.9-.1h2.4c.4 0 .6.2.5.6 0 .3 0 .5.2.7l.1.1c.1.5.5.8.8 1.2.9.1 1.7.4 2.4 1 0 .4 0 .9-.1 1.3s-.1.7.1 1c.2.3.4.7.5 1.1.2-.1.2 0 .3.1z"/><path fill="#D4EDEF" stroke="#fff" stroke-width=".532" stroke-miterlimit="10" d="M356.5 293.1c.2-.5 0-1 0-1.4v-.1c.2-.4.1-.8-.1-1.2-.1-.1 0-.3 0-.4.1-.3.1-.6 0-1 .4-.3.6-.8 1.1-1 .1-.1.2-.2.1-.4-.1-.3-.1-.5-.2-.9.3-.4.4-.8.4-1.3 0-.3 0-.6.1-.8.2-.5 0-.9-.2-1.2-.3-.4-.2-.7 0-1 .2-.3.2-.7.1-1v-.7c0-.2 0-.4.2-.6.2-.2.2-.4 0-.6l-.3-.5c.1-.4.3-.7.1-1.1-.1-.2 0-.4.2-.6.2-.2.5-.3.6-.6l.4-.3c-.1-.2-.2-.3-.3-.4-.1-.1-.2-.2-.3-.4l-.6.1c-.3-.3-.8-.3-.8-.9.1-.3.4-.5.7-.6.3-.1.7-.2 1-.4.3-.2.7-.1 1-.1l11.3-.2 8-.2c.4 0 .9-.1 1.3.1h.4l5.7-.1c2.6-.1 5.2-.2 7.8-.2 2.6-.1 5.2-.1 7.7-.2h.8c0 .5-.6.6-.6 1.2 0 .1.3.3.2.6 0 0 0 .1.1.2.4.3.4.8.4 1.2 0 1.9.1 3.7.2 5.6l.1 1.7v.7c-.2.2-.4.1-.7.1l-8.7.3-4.8.2-.1.5.1 2.7v.6c-.2.2-.4.1-.6.1-1.2 0-2.4.1-3.5.1h-1l-.1.5c0 .8 0 1.7.1 2.5v.8c-.2.2-.4.1-.6.1l-5.3.1c-2.7 0-5.5 0-8.2.1-2.2 0-4.4.1-6.5.1l-6 .1c-.1.1-.4.1-.7.1z"/><path fill="#A3DAD9" stroke="#fff" stroke-width=".532" stroke-miterlimit="10" d="M421.7 261.1c.1 1.1.1 2.2.2 3.2.2.2.5.1.7.1l2.5-.1h.6c.1 1.3.2 2.6.2 3.9 0 1.2.1 2.5.2 3.8l.6.1v.7l.3 6.9.2 4.8c.1 1.8.2 3.7.2 5.5.1 1.5.1 3.1.1 4.6 0 .1 0 .2-.1.4-.1 0-.2.1-.4.1l-7.1.3c-.1-.6-.1-1.2-.1-1.9l-.1-1.8h-3.9l-.2-2.1c-.6-.1-4.2 0-5.9.2-2.5.2-5.1.2-5.8.1v-.3c-.1-1.2-.1-2.5-.1-3.7l-.2-7.5-.1-2.6c0-.4 0-.8-.3-1.1-.1-.1-.1-.2-.1-.3v-.4c.3-.1.5-.3.5-.7 0-.3.1-.5.2-.8-.2-.4-.6-.4-1-.5-.1-.3-.3-.6-.5-.9-.3-.1-.6-.1-.8-.4l-.4-.2-.2-.4.1-.1.3-.2c.2-.2.3-.5.1-.7l-.1-.2-.4-.4c-.1 0-.3 0-.5.1-.1-.3-.2-.6-.2-.8 0-.3-.2-.6-.3-.9-.1-.2-.1-.4 0-.6.1-.1.1-.2.1-.3 0-.3 0-.6-.1-.9-.1-.3-.2-.7-.1-1v-.4c-.2-.2-.2-.4-.1-.6v-.3c-.1-.2-.1-.3 0-.5s-.1-.3-.1-.6h2.8l4.1-.1c.4 0 .8-.1 1.3-.1.9 0 1.8-.1 2.8-.1h1.5l2.8-.1c1 0 1.9 0 2.9-.1 1.1-.2 2.1-.1 3.2-.2.3.1.4.1.7.1z"/><path fill="#D4EDEF" stroke="#fff" stroke-width=".532" stroke-miterlimit="10" d="M287.4 385.2c-.4.2-.9.2-1.3.1h-1.2c-.5-.1-.6-.1-.7-.7l-.1-.3c0-.3.1-.6.3-.8l.4-.3c.3-.2.4-.5.3-.9l-.1-.3.4-.4c0-.7.2-1.5-.1-2.3.2 0 .3-.1.4 0 .5.2.9.1 1.3-.1h.2c.3.4.7.3 1.2.2.4-.1.8-.2 1-.6.1-.2.2-.3.2-.6 0-.2.1-.4.1-.5l.3-.5c.2-.3.4-.6.1-.8.1-.4.2-.6.4-.9 0-.1.1-.2.2-.3.2-.2.5-.3.5-.7 0-.1.1-.2.1-.2.3-.3.2-.6 0-.8l-.2-.3c.1-.2.2-.4.4-.6l2-3.1.1-.2c.1-.4.2-.7.4-1.1.2-.3.4-.6.4-1 0-.1 0-.1.3-.3 0 .5.1.9.1 1.3.4.1.4.1.8.1l.1-.4c.4 0 .2.3.5.5h2.6c.2 0 .4 0 .5.2.4.1.5.4.7.7.2.1.5 0 .6.3 0 .1.2.1.3.1h.7c.2 0 .5 0 .6.3 0 .1.2.1.3.1.2 0 .4 0 .6.1.4.2.7.1 1-.2.2-.2.4-.2.6-.3.2-.1.4-.1.6 0h.2l.1-.6h.6l.3-.1c.1-.2.3-.2.4-.2.2 0 .5 0 .7.1.3.1.6.1 1 0 .3-.1.7-.2.9.2l.6.1.2.9c.1 0 .3.1.5.2l.1.2v5.6l.1 2.1v2.5c0 3.7 0 7.3-.1 11v9.9l-.3.1-4.3.2h-.9c-1.1-.1-2.1-.1-3.2-.1h-3.4c-.6 0-1.1 0-1.7.1-.4.1-.7.1-1.1.1-1.4-.1-2.9-.1-4.3 0-.4 0-.6-.1-.7-.5-.2-.5-.3-.5-.2-.8 0-.2 0-.3-.2-.4l-.2-.3c.2-.3.2-.7.5-.9.2-.6.5-1.1.1-1.7l-.2-.4c-.2-.2-.3-.5-.2-.8-.2-.2-.5-.2-.6-.6.3-.3.6-.6 1-.8.2-.1.3-.4.4-.5.1-.5 0-.9-.2-1.3l.3-.7c0-.1.1-.1.2-.2.2-.1.4-.2.5-.3 0-.3-.1-.5-.1-.9-.1-.1-.3-.2-.5-.4l-.2-.6v-.2c-.4-.4-.5-1-.8-1.5 0-.1-.1-.2-.2-.2l.2-.4c-.1-.5-.4-.7-.9-.6-.3-.3-.4-.6-.4-1-.2-.2-.4-.3-.5-.4h-.2c-.6.4-.6.3-1.2-.4z"/><path fill="#D4EDEF" stroke="#fff" stroke-width=".532" stroke-miterlimit="10" d="M272.6 342.4c.3-.5.5-1 1-1.2.5-.2.8-.6 1.4-.5.4-1 .6-2 .9-2.9.4-1 .6-2 .9-3l.9-2.9.9-2.9c.5 0 1.1-.1 1.6 0 3.2.1 6.4.2 9.6.2 0 .2.1.4.1.5v2.7c0 .3-.1.6.1.9l1.8.1c.1.4 0 .8 0 1.2v2.5c.6.2 1.1 0 1.6.1.2.2.1.4.1.5v6.3c0 .3 0 .6.1.9l1.9.1c0 .1.1.2.1.4v3.1c0 .8 0 1.6.1 2.3v1.3c0 .4-.2.5-.5.5h-1.4l-.1 1.9c0 .6 0 1.3-.1 1.9l-1.9.1-.1.5v6.9c0 .3 0 .5.2.7.1 0 .1.2.1.3v.9c-.2 0-.4 0-.6.1h-.4l-.4.3c-.2 0-.3 0-.4.2-.1.1-.2.1-.4.1h-1c-.1 0-.3 0-.4.1 0 .5 0 1-.1 1.4-.1.1-.3.1-.3.2-.1.4-.3.4-.6.4l-.2.6c-.1 0-.3.1-.5.1 0 .2-.1.3-.2.5-.2 0-.4.1-.5.1l-.1.6h-2.5c-.2 0-.5 0-.6.2 0 .1-.2.1-.3.1-.5 0-.5 0-.9.3-.1-.3-.1-.7-.1-1v-2l-.6-.2c0-.1 0-.1-.1-.2v-1.3c0-.3 0-.5-.1-.8-.1-.3-.1-.6.1-1 .1-.1.1-.3.1-.4l.5-.1c.2-.7.1-1.3-.3-1.8-.2-.2-.2-.5-.3-.8l-.6-.1c-.1-.3-.4-.6-.7-.7-.2-.1-.3-.3-.3-.5s-.1-.3-.2-.4c-.1-.1-.1-.3-.2-.5-.2-.1-.6 0-.7-.4-.3-.1-.3-.5-.6-.7l-3.7-.1c-1.2-.1-2.5.1-3.8-.1.1-.3.1-.5.2-.7l1.5-4.8c.1-.2.1-.5.1-.8-.1-.2 0-.5.1-.7.4-.8.7-1.7.9-2.6.2-.7.3-1.3.3-2 0-.5.1-1.1.3-1.6.2-.4.2-.7.1-1.1-.4-.5-.5-.9-.8-1.3z"/><path fill="#D4EDEF" stroke="#fff" stroke-width=".532" stroke-miterlimit="10" d="M290.9 397.8c-.1.4-.2.7-.4 1-.2.2-.1.5-.2.6-.3.3-.2.6 0 .8.1.2.2.4.1.7 0 .1 0 .2.1.3.1.1.2.3.2.4-.1.2-.2.2-.3.2l-8.1-.1c-1 0-2 0-3.1-.1-.4 0-.8 0-1.2-.1-.4-.5-.7-1-1.2-1.2-.2-.1-.3-.3-.4-.4-.2-.2-.5-.5-.8-.4-.2 0-.4-.1-.4-.3-.1-.3-.3-.5-.5-.7-.1-.1-.2-.3-.2-.4-.1-.3-.2-.5-.4-.6-.5-.4-.7-.8-.6-1.5.1-.8.1-.9-.5-1.4.1-.2.2-.4.2-.6v-.6c-.2-.3-.4-.4-.5-.7-.1-.2-.2-.4-.2-.7.1-.7-.3-1.1-.7-1.5-.1-.1-.2-.1-.2-.2 0-.3 0-.5.1-.8.1-.7.1-1.5-.2-2.2 0-.1-.1-.3-.2-.3-.1-.1-.2-.2-.3-.2.3-1.3.4-2.6.2-3.9.5-.6 1.3-.7 1.9-1.2 0-.2 0-.3.1-.5.1-.3.2-.5.5-.5l.3-.1c0-.1 0-.2-.1-.3-.1-.1-.2-.1-.2-.1l-1.2.3c0 .2.1.3.1.4.1.3 0 .6-.3.7-.3.1-.6.3-.8.4h-.4c.1-.3.2-.5.4-.7.2-.2.2-.5.2-.7 0-.6 0-1.3.3-1.8l.2-.4c.1-.6.4-1.2.6-1.7.2-.5.2-1.1-.1-1.6-.1-.2-.2-.3-.1-.5v-.8c0-.2 0-.4-.1-.6-.1-.3-.3-.5-.2-.8 0-.1 0-.2-.1-.3-.3-.3-.6-.8-1.2-.9 0-.4 0-.7-.3-1.1-.2-.3-.2-.7-.3-1.1-.1-.6-.5-.9-1-1.1-.2-.1-.4 0-.6.1v-.2c0-.8-.1-1.5-.3-2.3-.1-.7-.5-1.2-1-1.7.1-.2.2-.4.4-.6.2-.3.4-.5.3-.9l.1-.3v-.1c.7-.9 1.1-1.9 1.5-3l.2-.5h.3l6.9.1c.4.4.5 1.1 1.2 1l.3 1.2c.2.1.5.3.7.5l.2.1c.3.4.3.4.8.5 0 .3.1.6.3.9.3.3.4.7.3 1.1-.2 0-.4.1-.5.1-.2.7-.3 1.4-.1 2.2.1.2 0 .4 0 .6v1.5c.2 0 .4.1.7.1v2.6c0 .2 0 .3.1.5.1.3.3.3.6.1l.4-.4h.5c.1 0 .2 0 .3-.1.1-.2.3-.2.6-.2h2.5l.2-.6c.2 0 .3-.1.6-.1 0-.1.1-.3.1-.5l.5-.1c0-.2.1-.4.2-.5l.5-.1c.1-.2.1-.4.4-.5 0 0 .1-.1.1-.2v-.8c0-.2 0-.3.1-.5.4-.1.8 0 1.2 0 .3 0 .6.1.8-.2.3 0 .5-.1.7-.3.1-.1.4-.1.5 0 .2 0 .5 0 .7.1l.5-.4c.1-.1.3-.1.3-.1.5.3 1.1.4 1.5.9-.2.5-.3 1-.7 1.5-.1.1-.2.3-.2.5 0 .4-.3.7-.5 1-.6 1-1.3 2-1.9 3.1-.3.5-.3.6.1 1.1 0 0 0 .1.1.1l-.3.7c0 .1-.1.2-.2.2l-.1.1c-.4.2-.3.6-.5.9-.2.3-.3.6-.1 1-.2.2-.3.4-.5.7-.1.2-.3.4-.3.6 0 .4-.2.7-.4.9l-.6.2c-.2.1-.4.1-.6-.1-.2-.2-.4-.2-.7-.1l-.6.1h-.4c-.4-.3-.7-.1-1 .1-.2.1-.3.4-.1.6.1.1.2.2.2.4 0 .4 0 .8-.1 1.3 0 .1 0 .2-.1.3-.3.3-.3.6-.2 1v.2l-.1.2c-.5.3-.8.7-.9 1.3.2.4.1.9.6 1.3.8.2 1.6.2 2.5.2.4 0 .7.1 1 .3 0 .1.1.1.2.2.3 0 .6-.1.9-.2.1.1.3.2.3.4 0 .4.3.6.4.9l.7.2v.2c-.1.3-.2.5.1.7l.5 1.1c0 .1 0 .1.1.2.3.3.3.7.3 1.1.2.1.4.2.5.3.2.2.1.5-.2.6-.2.1-.3.1-.3.3-.1.3-.4.4-.4.8 0 .2 0 .3.1.5.2.2.2.4.1.7-.1.2-.2.5-.4.6-.4.1-.6.5-.9.7-.2.1-.2.3-.1.6v.1c.2.3.5.6.6.9-.4-.4-.2-.1 0 .3z"/><path fill="#D4EDEF" stroke="#fff" stroke-width=".532" stroke-miterlimit="10" d="M418.4 252.7c.1 1.3.1 2.6.2 3.8.3.1.6.1.8.1l2.3-.1c.3 0 .5 0 .8.1.1.5.2 2.6.2 3.5-.2.2-.5.1-.8.2 0 .1-.1.3-.1.5-.1 0-.1.1-.1.1-.4 0-.8.1-1.3.1-.8 0-1.6.1-2.4.2-.9.1-1.8.1-2.8.1l-3.5.1h-2.8c-2.1.2-4.3.1-6.4.2h-3c-.2-.3-.5-.6-.7-1 .2-.4.5-.2.7-.4l.8.1c.1-.5.3-1-.1-1.5l.3-.3c.1-.1.1-.2.1-.3 0-.1-.1-.2-.2-.2-.2 0-.4 0-.5-.2 0-.1.1-.3.1-.5-.3-.2 0-.7-.4-.9l-.1-.3c-.1-.2-.3-.4-.5-.4-.5.2-.8-.2-1.2-.5.1-.2.3-.4.2-.6-.1-.1-.3-.2-.5-.3-.1-.2-.2-.5-.4-.8.1-.1.1-.1.2-.1.4-.2.4-.3.2-.7l-.1-.2c.2-.3-.1-.6 0-.9 0 0 .1-.1.2-.1.5-.3.5-.4.2-.8 0-.1-.1-.2-.1-.2.3-.4-.1-.8 0-1.2-.2-.3-.1-.6 0-.9 0-.1 0-.2.1-.4l.3-.2c.2-.2.2-.3 0-.5l-.1-.1c0-.2 0-.4.1-.6.1 0 .2-.1.2-.2.2-.3.3-.5.7-.6.1 0 .2-.2.1-.4s-.2-.3 0-.5c.1-.1 0-.3-.1-.4l-.2-.2c.1-.1.3-.2.3-.4 0-.1 0-.3-.1-.5l.9-.6.9.7h.2c.2-.1.5-.1.5-.4 0-.2-.1-.5-.3-.6-.2-.1-.2-.2-.1-.4.3 0 .7 0 1 .1.5.1.9-.3.9-.8 0-.1-.1-.2-.1-.2-.1-.1-.3-.2-.5-.4l.2-.2c.1 0 .2 0 .3-.1.1 0 .1-.1.1-.2s0-.2-.1-.2l-.6-.2-.9-.8c.1-.2.1-.5 0-.8-.1-.2-.1-.3-.1-.5 0-.3-.2-.5-.5-.5h-.1c-.5-.1-.6-.3-.4-.8.1-.2.1-.3-.1-.4-.1-.1-.2-.1-.4-.1l-.2.1-.2.1c-.3-.1-.4-.3-.4-.6s-.3-.5-.5-.8l-1-.6c-.3-.1-.5-.1-.8-.1-.2-.3-.6-.6-.8-1l-.4-.3c-.2-.1-.4-.1-.5-.2-.2-.6-.6-.9-1.3-.8l-.2-.3c-.1-.2 0-.3.1-.4l.2-.1c.8-.2 1.5-.1 2.2.2l.5.4 1 1c.4.4 1 .5 1.6.5 1.3-.1 2.7-.4 4-.7l1.1-.3c.6-.3 1.3-.4 2-.4.4 0 .7-.1 1.2-.2l.9-1.2c.4-.5.9-.9 1.5-1l1.3-.4c.5-.1.9-.3 1.3-.6.3-.2.6-.4 1-.6l.3-.2c0 .1 0 .2.1.3.1 1.7.2 3.3.2 5 .1 2.3.2 4.7.2 7 0 .2 0 .4-.1.6-.1.1 0 .3 0 .5.1 2.5.2 5.1.2 7.6 0 1.3.1 2.6.1 3.8.2.2.4.1.6.1.9 0 1.9 0 2.8-.1.3.3.4.4.6.4z"/><path fill="#D4EDEF" stroke="#fff" stroke-width=".532" stroke-miterlimit="10" d="M303.8 256c-1.2.1-2.3 0-3.4 0h-6.8l-.1.4-.1 5.6v.5l1.8.1c.1.3 0 .7 0 1-.2 0-.3.1-.4.1l-7.7-.1c-.2 0-.4 0-.6-.1-.2 0-.3-.2-.2-.4.1-.5.1-1 .2-1.4.1-.5.1-.9.1-1.4 0-.5 0-1 .1-1.5.1-2.7.2-5.3.4-8l.2-3.5.3-8.2.3-7.3c0-.1.1-.3 0-.4-.2-.3 0-.6.1-.9h.2l7.5.1c.1.1.1.2.2.4l.2.1h6.5c.4 0 .8.1 1.1-.2.1-.1.2 0 .3 0 1 0 1.9 0 2.9.1h.1c.1.5.1 2.1 0 2.8h-3.8c-.1.5-.1 1 0 1.5l.6.1.1.5.5.1.1.5c.2 0 .3.1.6.2 0 .1.1.3.1.5l1.2.1.2.6h1.1c0 .2.1.4.1.5.4.3.9-.1 1.2.3v.1l-.5.1-.1.5c-.4 0-.7 0-1.1.1l-.2 1.2c-.4.2-.8 0-1.2.1l-.1.5-.5.1c0 .2-.1.3-.1.6l-.5.1-.1 1.2-.4.1-.1.2-.1 1.6c-.2 0-.4.1-.7.1 0 .3 0 .5-.1.8l.6.2c.2 3.4.1 6.5 0 9.7z"/><path fill="#D4EDEF" stroke="#fff" stroke-width=".532" stroke-miterlimit="10" d="M316.9 266.3c-.3-.7-.4-1.3-.2-2 .2-.6.2-1.2.1-1.8.3-.3.7-.4.9-.8.1-.1.2-.2.4-.2.3 0 .5-.2.6-.4l.4-.5c.1-.2-.2-.3-.3-.5-.2-.3-.3-.5-.7-.7-.2-.1-.2-.4-.1-.6.7.1.7.1.9-.4l-.1-.2c-.3-.2-.4-.6-.5-.9-.1-.7-.1-.7-.8-.6 0-.1-.2-.2-.1-.3.1-.2.2-.4.4-.4h.5c.6 0 .9-.3.8-.9l-.1-.6c-.1-.3 0-.5.3-.6.3-.1.5-.3.6-.7l.6.7h.3c.4 0 .8 0 1.1.3.1.1.2.1.3.1.1 0 .3 0 .4.1.6.3 1.1 0 1.5-.5l.2-.3c.4-.1.8 0 1.3 0l.1.6c.4 0 .7.1 1 .1v.9c-.1.3.1.5.1.8-.1.1-.2.3-.4.5v1.2c0 .3 0 .6-.3.7l-.1.1c-.2.5-.3.9-.4 1.4 0 .1 0 .3.1.4l.3.3c.6.3.9.8 1.3 1.3.2.2.3.4.4.6l.3.5c.3.5.8.7 1.2 1 .1.1.3.1.4.3.1.2.4.4.6.4.6 0 1 .4 1.5.6.1.3.1.6.1.8 0 .5 0 .5.4.6l.3.1h.1c.3.6.5 1.2.9 1.7.2.3.4.5.7.6 0 .1.1.1.1.1.3.5.3.7 1.2.5.4.2.9.3 1.2.7.2.2.4.2.7.2h.7c.3.2.2.5.3.7l.4.1h.4c3.4-.1 6.8-.2 10.1-.2 3.2-.1 6.4-.1 9.6-.1h.5c-.1.3-.3.4-.4.6-.1.4-.2.7.2.9-.1.7-.4 1.1-1 1.3l-1.1.4-.3.4c-.1.3-.1.6.1.9.4.4.7.7 1.3.6 0 0 .1 0 .1.1 0 .2-.2.5-.4.6-.4.3-.6.7-.8 1.1.2.2.4.4.1.7-.1.1-.1.3 0 .5l.3.6c0 .2-.2.2-.3.2-1.5 0-3.1 0-4.6.1-.3 0-.5 0-.7-.2-.1-.2-.4-.2-.6-.1-.3.1-.6.2-1 .1-.2 0-.4.1-.5.1-.5-.2-.9-.4-1.4-.5-.6-.2-1.2-.4-1.7-.9-.1-.1-.3-.3-.5-.2-.1 0-.3 0-.4.1-.4.4-.8.7-1.3.9l-.4.3c-.3.2-.6.1-.8-.2l-.3-.5c-.1-.2-.2-.4-.4-.5-.3-.3-.6-.5-.7-.9 0-.1-.1-.2-.2-.3-.2-.1-1.3-.4-1.5-.4-.2.1-.5.1-.7 0-.3 0-.6 0-.9.1l-.2.1c-.4-.1-.9 0-1.3 0h-1.6c-.2 0-.5 0-.7.1-.4.2-.5.1-.7-.3-.1-.2-.2-.2-.4-.3-.2 0-.4 0-.6-.1-.2 0-.5 0-.6-.3 0-.1-.1-.1-.2-.1-.5-.1-.9-.3-1.4-.5-.3-.2-.7-.1-.9.1-.4.3-.9.3-1.4.4l-.7-.1-.4-.6-.4.1c-.3.1-.5.1-.7 0-.2-.1-.4-.1-.6 0-.2.1-.4 0-.6 0-.2 0-.4.1-.4.3 0 .3-.2.4-.4.5-.1 0-.2.1-.3.2l-.3-.1c-.2-.1-.3 0-.4.2 0 .1 0 .2-.1.4-.3.2-.6.1-.8.4l-.8.3c-.5.1-.9.4-1 1 0 .1 0 .1-.1.2h-.1l-.5-.1c-.5.3-.5.3-.8 1-.1 0-.3.1-.5.1-.1 0-.2.1-.3.2-.2-.1-.2-.3-.2-.5l.1-.6c-.1-.4-.2-.5-.7-.4h-.2v-.2c0-.4 0-.4-.3-.5-.1 0-.2 0-.3-.2-.1-.2-.2-.3-.4-.2-.4.1-.8.1-1.1-.3 0-.1-.1-.1-.2-.2-.1 0-.1 0-.2-.1l-.3.3c-.1.1-.3.1-.4.1-.2 0-.1-.2-.1-.4v-.1c.2-.4.5-.7.6-1.1.2-.1.4-.2.6-.2.3-.1.4-.2.5-.4.1-.3.1-.5-.2-.7-.4-.2-.8-.5-1.3-.5h-.2c-.2-.2-.5-.2-.7-.1-.2 0-.3-.1-.3-.2 0-.3-.1-.6 0-.9.2-.2.4 0 .6 0 .2 0 .4-.1.4-.3 0-.7.5-1.2.7-1.8l.1-.2c.3-.2.4-.5.4-.8.3-.1.5-.1.7 0 .2.1.5 0 .6-.2.2-.2.4-.4.6-.5.2-.1.4-.3.4-.6l.1-1.4c0-.4-.2-.5-.6-.5 0-.1-.1-.1-.2-.1z"/><path fill="#D4EDEF" stroke="#fff" stroke-width=".532" stroke-miterlimit="10" d="M282.6 298.4l2-17.7c-.1-.1-.2-.2-.4-.3v-.2c.3-.6.4-1.2.5-1.8 0-.3 0-.7-.1-1l-.1-.5c0-.1 0-.2-.1-.3-.1-.2-.2-.3-.2-.5.1-.3 0-.7.2-1 .1-.2.1-.5.1-.8l-.1-.6c0-.1 0-.3.2-.4.3-.2.4-.5.5-.8.1-.6.2-1.1.5-1.6.1-.1.1-.3.1-.5.2-1.9.4-3.9.7-5.8 0-.2 0-.3.1-.5l.4-.1 7.5.1h1l.1.5-.1 12.4v.8l.6.2.1.7 1.1.1h2.1l.1.5v2.1c0 .2 0 .5.1.7.1.1.1.3.1.5v5.1c0 1.2 0 2.4-.1 3.5v.4l-3.9.1-.1.4v1.3c0 .1 0 .3.1.4.1.3.1.7.1 1.1l-.6.1-.1.6-1.3.1c-.4 0-.8-.1-1.2.1-.1.5-.1 1 0 1.5.4 0 .8 0 1.2.1.2.3.1.7.1 1.1l-.5.1h-4c-.3 0-.7-.1-.9.2-.1.1-.3 0-.5 0h-2.3l-1.2.1c-.8-.4-1.3-.5-1.8-.5z"/><path fill="#D4EDEF" stroke="#fff" stroke-width=".532" stroke-miterlimit="10" d="M401.1 237.9l.2.6c.1.2.1.4 0 .7-.1.3 0 .5.3.6.2.1.4.2.4.4.1.1.2.2.3.4 0 .1-.1.2-.1.4-.1.2 0 .3.2.4l.3.2c.1.1.1.2.1.4-.1.2-.2.3-.4.2l-1.1-.2c-.2 0-.3 0-.5.1-.1.3 0 .6.1.8 0 .1.2.1.3.2.1.1.1.1.1.2s-.2.1-.3 0c-.2-.1-.3-.2-.4-.3l-.2-.2c-.1-.1-.3-.1-.4 0l-1.1.7c-.3.2-.3.3 0 .6-.2.2-.5.5-.1.8l-.4.2c-.2.1-.1.3.1.4h.1l-.3.7c-.1 0-.3 0-.4.1-.2.1-.3.2-.1.5 0 0 .1.1.1.2-.1.1-.2.2-.2.3l-.1.3c.1.1.1.3 0 .4l-.1.1c.2.4 0 .7-.3 1 .1.1.3.2.4.4-.1.1-.2.3-.3.5.1.1.2.1.4.2v.1l-.3.3-.2.8v.3l-.3.4c.2.1.3.2.4.3l-.1.6-.1.2-.2.2c.1.3.4.6.4.9 0 .3.1.6.1 1 .6.3 1.1.8 1.9.7-.1.2-.1.3-.1.5l.1.5.3.4c0 .2-.1.4 0 .5l.4.5c0 .2-.1.4 0 .6 0 .2.2.3 0 .5-.2 0-.4 0-.5.2-.1.1-.3.1-.4.1-.6.2-.7.3-.7.9v.1h-.1l-5.9.2h-.4c-.1-.2-.2-.4 0-.7.3-.5.1-.9-.1-1.3 0-.1-.3-.2-.4-.3-.3-.1-.5-.4-.8-.6l-.1-.1c-.1-.5-.5-.6-.9-.6l-.5-.1c-.4-.3-.9-.4-1.3-.8-.5-.5-1.3-.6-2-.7l-1.9.2c-.3.1-.7.1-1-.2l-.6-.3c-.2-.1-.3-.2-.3-.4l-.1-1.3.1-1.1v-.5l.1-.7c.2 0 .4.1.6 0 .2-.1.3-.2.4-.4l.3.3c.2.2.5.1.6-.1l.3-.6c.1-.1.1-.2.3-.3.3-.1.3-.4.2-.6.3-.1.5-.3.5-.7l.5-.1c.1-.6.2-1.2 1-1.2l.1-.4v-.5c0-.4.1-.7.4-.9.2-.1.1-.3 0-.4l-.4-.3.1-.6.5-.3c.2-.1.3-.3.2-.6v-.5c.1-.2 0-.5 0-.7 0-.1 0-.1.1-.1.4-.4.3-.5-.1-.6l-.6-.3c-.2-.2-.5-.3-.8-.1-.1-.3-.1-.5-.4-.7-.2-.1-.3-.4-.4-.6 0-.4.1-.8.3-1.1.2-.2.1-.5-.1-.7-.1-.1-.2-.2-.3-.2.2-.7.2-.7-.1-1.5.6-.2.9-.6 1.3-1.1.3-.4.7-.6 1.1-.7 1.5-.4 2.9-1.2 4.3-1.8l.6-.4c.2-.2.3-.4.6-.5 0 .1.1.2.1.2.1.2.3.3.6.3.6 0 .6 0 .8.6 0 0 0 .1.1.2.1 0 .2.1.4.1.3.1.5.2.7.5l.7.9h.8c.3.1.6.3.8.5 0 0 .1.1.1.2.1.6.6 1 1 1.5.2-.1.4-.1.5-.2 0 .6.3.7 1.2.9z"/><path fill="#D4EDEF" stroke="#fff" stroke-width=".532" stroke-miterlimit="10" d="M294.4 211.5c.3.3.5.4.6.6l.3.3c.6.7 1.4.9 2.2.5.1 0 .1 0 .2.1.2.2.4.1.7 0l.9-.5c.2-.1.4-.2.7-.1.2.1.4 0 .4-.3.1-.6.5-1 1.1-1.2.2-.1.3-.2.3-.4.1-.2.3-.3.5-.3.4 0 .8.1 1.2.3.1 0 .2.1.2.2.2.5.7.8 1.1 1.1.3.2.4.4.3.7v.3l.1.3 1.2 1.2c.1.1.2.1.3.1l.4.1v.4l-.1 3.5c0 .3-.1.6.2.8.1.1.1.3.1.5v2.2c0 1.4 0 2.7-.1 4.1v.9c.1 1.2 0 2.3 0 3.5 0 .1 0 .1-.1.2-.2.1-.4.1-.7.1h-2.6c-.2 0-.4 0-.6.1-.2.1-.4.1-.6.1h-6.4c0-.1-.1-.2-.1-.4-.6-.1-1.3-.1-2-.1h-3.9c-.6 0-1.3.1-1.9-.1-.1-.3 0-.6.1-.9.1-.4.1-.7.1-1.1 0-.9 0-1.8-.2-2.8 0-.3-.1-.5-.2-.8l-.1-.3c0-.3 0-.5-.2-.7-.2-.2-.2-.5 0-.7l.3-.4c.1-.3.3-.5.7-.5.3 0 .5-.2.6-.5.1-.6.3-1.2.2-1.8-.1-.4 0-.8 0-1.1 0-.4 0-.7-.1-1-.1-.3-.2-.7-.2-1 0-.6-.2-1.2-.4-1.7-.3-.9-.7-1.8-1.1-2.7-.1-.2-.1-.4-.2-.5.1-.2.3-.1.4-.2.3-.2.5-.1.7.1l.3.3c.4.1.6.4.6.8l.4.1.5.6c.2.1.4.1.7.2.2.1.3.2.2.4l-.2.3c-.1.2-.1.3.1.5l.3-.2.3-.6c.1-.3.4-.4.7-.5l.3.8v.9c0 .1.1.2.2.2s.2 0 .2-.1c.2-.2.3-.4.2-.7 0-.1-.1-.3-.2-.4-.1-.2-.1-.3 0-.5.1-.3.1-.6 0-.9-.3-.1-.5-.1-.8-.1-.3 0-.5-.2-.7-.5 1-.3 1.9-.2 2.6-.8z"/><path fill="#A3DAD9" stroke="#fff" stroke-width=".532" stroke-miterlimit="10" d="M296.3 278.4c0-.3-.1-.5-.1-.7l-.5-.1-.1-.2v-2.5l.1-7.6v-3.7c0-.3 0-.6.1-.9l.3-.1c6.7 0 13.4.1 20.1.2l.2.1c0 .5 0 1-.1 1.4-.2.7 0 1.4.2 2.1.1.2.2.3.4.2h.4c.1.5.1 1.1 0 1.6 0 .1-.1.2-.2.3l-.8.6c-.4 0-.8-.3-1.3.1 0 .5-.3.8-.5 1.2-.3.6-.5 1.2-.7 1.8-.1 0-.2-.1-.4-.1-.3 0-.5.1-.5.4v.8c0 .4.2.6.6.6h.3c.4.3.9.1 1.3.3l.4.2c.1.1.2.2.2.3 0 .1-.1.2-.2.3-.1.1-.3.1-.4.1-.3.1-.5.3-.6.5-.1.2-.1.3-.2.4-.4.5-.4.9 0 1.4l.1.2c-.2.3-.4.5-.7.8-4.5 0-9.1 0-13.7-.1-1.3.2-2.5.1-3.7.1z"/><path fill="#64BCBB" stroke="#fff" stroke-width=".532" stroke-miterlimit="10" d="M303.6 235c-.1-.3 0-.6 0-.9 1.3-.1 2.5 0 3.8 0l.1-.5v-2.6c.1 0 .2-.1.2-.1h9.5c.1 0 .2 0 .4.1v1.2c.4 0 .8 0 1.2.1 0 .2.1.4.1.5 0 0 .1.1.2.1h1.7l.1 4.5.6.1c0 .1.1.3.1.5.2 0 .3.1.6.1 0 .1.1.3.1.5l.5.1.1.5c.2 0 .4.1.6.2 0 .1.1.3.1.5l.5.1c0 .2.1.3.1.6l.5.1.1.5c.2 0 .4.1.6.2 0 .1 0 .3.1.5l.5.1.1.5.6.1c.1.6.1 7.5 0 8.1-.2.1-.5.1-.7.1h-.7l-.2-.6c-.5-.1-1-.1-1.5 0-.2.4 0 .8-.1 1.2h-1.6l-.2-1.2-1.8-.1-.2-.6-.5-.1-.1-.5c-.2-.1-.4-.1-.5-.2l-.1-.5-.5-.1-.1-.6h-2.5c0-.1 0-.2-.1-.3 0-.1 0-.2-.1-.3l-.5-.1-.2-.5-.2-.1h-10.799999999999999s-.1-.1-.1-.2l.6-.1.1-.2.1-1.6c.2-.1.4-.1.6-.1v-1.2l.6-.1.1-.5.6-.1.1-.5.2-.1h1l.1-1.2c.1 0 .2-.1.4-.1h.8c.1-.2.1-.4.1-.6l.5-.1c.2-.2.1-.5.1-.8-.4-.2-.8-.1-1.2-.2l-.2-.5c-.3-.1-.7-.1-1.1-.1l-.2-.5c-.4-.2-.8 0-1.2-.1l-.1-.5-.5-.1-.1-.5-.6-.1c0-.2-.1-.3-.1-.6-.1-.5-.3-.5-.5-.5z"/><path fill="#D4EDEF" stroke="#fff" stroke-width=".532" stroke-miterlimit="10" d="M304.1 256.3c0-1.2 0-2.2.1-3.3v-3.2c0-1.1-.1-2.2 0-3.3h.5c3-.1 9 0 9.6.1l.1.5.6.2.1.5c.2.2.4.1.6.1h1.9l.2.6.5.1.1.5.6.2.1.5.5.1c0 .2.1.4.1.5.1 0 .1.1.1.1h1.7000000000000002l.1 1.2c.4 0 .8 0 1.2.1.2.4.1.8.1 1.3 0 .4.1.8 0 1.2-.4-.1-.8-.1-1.1-.4-.1-.1-.3-.2-.5-.2h-.7c-.1-.2-.2-.4-.4-.6-.2-.2-.5-.2-.6 0-.2.3-.4.5-.7.7-.3.2-.4.5-.3.8l.1.6c0 .2 0 .3-.1.5h-.8c-.4 0-.7.3-.8.6v.3c.1.1.2.3.3.5.2 0 .4 0 .6-.1 0 0 .1.1.1.2 0 .5.1.9.5 1.3-.1 0-.1.1-.2 0-.3-.1-.5-.1-.7.2-.2.3-.1.7.1.9.2.2.4.2.5.5.1.2.2.3.4.5l-.4.5c-.4 0-.8.3-1.1.6-.3.4-.8.6-1.4.6-4.3 0-8.5 0-12.8-.1l-8.7-.1h-.5c0-.2-.1-.3-.1-.4 0-1.8 0-3.5.1-5.3v-.1c.1-.2.3-.1.5-.1h8.8c.5.1.8.1 1.1.1z"/><path fill="#D4EDEF" stroke="#fff" stroke-width=".532" stroke-miterlimit="10" d="M311.5 289.4c.2.2.2.4.2.7 0 .2.1.4.1.7l-.4.1c-.2.1-.2.2-.1.3.1.2.2.7.2.8v.2l-.4.3c.1.4.2.6.4.9-.2.2-.5.3-.7.4-.1.5.3.6.6.8-.3.4-.3.4-.2 1l-.3.2c-.1.1-.2.2-.1.4 0 .1.2.2.3.2h.5c0 .2.1.3 0 .4 0 .3.1.5.4.6l-.1.4v.3c-.4.1-.7.1-1 .1-1.2 0-2.5-.1-3.7 0-2.4.1-4.8 0-7.2 0-.3 0-.5 0-.8.1-.1.1-.2 0-.3 0l-2.8-.1h-.1c-.6-.3-1.2-.1-1.8-.2h-.4l-.1-1.4-1.2-.1-.1-.8c.2-.2.4-.2.6-.2h1.9l.1-.6c.2 0 .4-.1.5-.1 0-.6 0-1.1-.1-1.6s0-1 0-1.5c.3-.2.7-.1 1-.1.9 0 1.7 0 2.6.1h.4l.1-.3.1-4.5v-4.4c0-.4 0-.8-.1-1.2-.1-.1 0-.3 0-.5v-2.1c.1 0 .3 0 .4-.1 1.9-.1 3.8.1 5.7.1h8.1c.3.4.6.7.8 1 .2.2.2.3.3.6.1.4.3.6.7.5h.2l.5.6c.1.2.1.3-.1.4-.2.1-.5.3-.8.3l-1.8.1c-.3 0-.4.1-.5.4 0 .2-.1.3-.2.4-.1 0-.1.1-.1.2 0 .2-.1.3-.3.4-.3.3-.3.4 0 .7v.1h-.3c-.5 0-1 .2-1.5.5-.4.2-.4.6-.5 1 0 .1.1.2.2.2h.4c.2.2.2.5.4.8.2.2.1.5 0 .8.1.1.1.2.2.2.4.2.4.6.2.9.1.4.1.4 0 .6z"/><path fill="#D4EDEF" stroke="#fff" stroke-width=".532" stroke-miterlimit="10" d="M326.2 232.8c-.3.1-.6 0-.7.3 0 0-.1.1-.2.1h-3.9c0-.2-.1-.4-.1-.5-.6-.2-1.2.1-1.8-.2 0-.1 0-.1-.1-.2v-.3l-1.2-.2c-.2-.4 0-.8-.1-1.1h-.3c-2 0-4.1 0-6.1-.1h-3.5c-.1 0-.3 0-.5-.1v-.5c.1-1.2.1-2.4 0-3.6v-6.9c0-.2 0-.5-.1-.7-.1-.1-.1-.2-.1-.3 0-1.2 0-2.4.1-3.6v-.2c.1 0 .3-.1.4 0 .5.1.9.1 1.4.1h.4c.5.3 1 .1 1.5.1.1 0 .3-.1.4-.2.3-.3.5-.6.7-.9.2-.3.4-.6.7-.8l.4.2c.6.4 1.2.5 1.8.5.3 0 .6.1.8.3.1.1.2.2.4.2.4.2.7.5.9.9.1.3.3.5.6.6.3.1.6.3 1 .2.1 0 .3.1.4.2l.2.2c.4.4.8.8 1.3.9 1 .3 1.4 1.1 1.5 2 .1.4.1.7.3 1.1.1.1.1.3.1.5 0 .4.2.7.5 1 .5.4.9.9 1.1 1.5 0 .1.1.2.1.2.2.2.2.3.1.5l-.1.5c0 .2-.1.4 0 .6.1.5.3 1 .5 1.5l.3 1.1v.3c-.1.8-.2 1.7.1 2.5.1.3.2.5.4.7.2.2.3.5.3.8l.1.5c-.1-.1-.1.1 0 .3z"/><path fill="#64BCBB" stroke="#fff" stroke-width=".532" stroke-miterlimit="10" d="M368.3 241.8c-.5 0-.8.1-1.2.1v6.999999999999999c0 .8.1 1.6.1 2.3 0 .8.1 1.6 0 2.3-.3.1-.6.1-.9.1l-5.2.1c-.1 0-.2 0-.4-.1l.1-.5.3-.7c0-.2.1-.4 0-.5-.3-.4-.2-.9-.6-1.2-.1-.1-.2-.4-.2-.7 0-.5.1-1 .2-1.5-.1-.2-.2-.5-.5-.6l-.3-.3c-.1-.1-.2-.2-.3-.2l-1.5-.4c-.6-.5-.9-1.3-.9-2.1-.3-.3-.6-.7-.9-.9l-.7-.8-.1-.1c.1-.4-.2-.6-.3-.8-.1-.3-.2-.3-.5-.2-.4.1-.5 0-.7-.3-.1-.3-.2-.6-.3-.8l.5-.6-.2-.6c-.1-.1-.1-.2-.1-.4v-.3c-.1-.1-.1-.3-.1-.5 0-.3 0-.6-.2-.8-.1-.1-.1-.3-.1-.4v-1.2c.3-.2.7-.5.7-1 0 0 0-.1.1-.1.4-.3.7-.8 1.1-1 0 0 .1 0 .1-.1.4-.2.9-.4 1.3-.4s.9.1 1.3.2c.3.1.6.1.8.2.5.1 1 .1 1.5-.1l.5-.2c.3-.1.6-.2 1-.2.5 0 .9-.1 1.3-.2.6-.2 1.3-.4 1.9-.7.6-.2 1.2 0 1.7.2l.4.3c.3.3.7.5 1.1.5.1 1.3.1 2.6.1 3.9.1 1.7.2 3 .1 4.3z"/><path fill="#64BCBB" stroke="#fff" stroke-width=".532" stroke-miterlimit="10" d="M326.1 233.1v.5c-.1.3-.1.6-.2.8-.1.6.1 1.2.3 1.7 0 .1.1.2.2.3.3.2.7.5 1 .6.3.1.6.3.8.5.5.4 1.1.7 1.8.9l.5.1c1 0 2 .3 3 .7l.9.3c.6.2 1.2.4 1.7.8.3.3.7.3 1.1.2l.9-.3c.5-.2 1.1-.1 1.5.4v.1c.3.6.8.7 1.4.8.8.1 1.6.1 2.3-.4.2-.1.5-.2.7-.4.2-.1.4-.3.6-.5.2-.2.5-.4.8-.4.5-.1.9-.2 1.4-.1.3.1.7 0 .9-.2l1.2-.8c.4-.3.9-.5 1.4-.6.8-.1 1.4-.6 1.9-1.3h.7l.1 1c0 .2 0 .4.2.6.1.1.1.3.1.5-.1.3 0 .5.1.8 0 .3.1.5.3.8v.2c-.2.1-.3.2-.5.4.1.3.2.6.3.8.1.2.2.5.4.7.3.2.6.3.9.2.1.1.2.2.2.4.4.9.5 1 1 1.5 0 0 0 .1.1.1-.1.1-.2.1-.3.1h-2.8c-3.8 0-7.5 0-11.3.1l-6.3.1h-4.9c-.3 0-.5.1-.8.2-.1.4.3.6.3.9l-.3.1h-2.3c0-.2-.1-.3-.1-.4v-3.3l-.6-.2-.1-.5-.5-.1-.1-.6c-.2 0-.3-.1-.6-.1l-.1-.5-.5-.1c0-.2-.1-.3-.1-.6l-.5-.1-.1-.5-.5-.1-.1-.5-.5-.1-.1-.5c-.2 0-.3-.1-.6-.1 0-.1-.1-.3-.1-.5l-.5-.1c-.1-.6-.1-3 0-3.6.1 0 .3-.1.5-.1h3.4c0-.2 0-.2.5-.6z"/></svg>