<svg xmlns="http://www.w3.org/2000/svg" viewBox="0 0 157 157" enable-background="new 0 0 612 792"><rect width="157" height="157" fill="#e5e5e5"/><path d="M125.7 116.8c-5.7-26.4-20.6-48-42-55l-.2.2-.1-.3h-.1l-5.8 6-5.8-6h-.1l-.1.3-.2-.2c-21.4 7-36.3 28.6-42 55h13.1l10.1-12.7c-.4.9-1.3 6.2.2 12.4l1.9.2h.1c1.3.1 44.1.1 45.4 0h.1l1.9-.2c1.5-6.2.5-11.5.2-12.4l10.1 12.7h13.3z"/><rect x="20.7" y="118.8" width="114.9" height="12.5"/><path d="M31.6 153.5h93l1.5-20.1h-96l1.5 20.1zm0 0"/><g transform="translate(-226.7 -301)" fill="#e5e5e5"><path d="M327.3 403.1l-5.8 2.8c-.9.4-2 .1-2.4-.8l-6.3-12.9c-.4-.9-.1-2 .8-2.4l5.8-2.8c.9-.4 2-.1 2.4.8l6.3 12.9c.4.9.1 2-.8 2.4z"/><rect x="321.3" y="402" transform="matrix(.988 .156 -.156 .988 68.034 -45.42)" width="3.2" height="16.1"/></g><path d="M90.1 65.2c0 6-5.3 10.8-11.8 10.8-6.5 0-11.8-4.8-11.8-10.8v-16.4h23.8s-.2 16.3-.2 16.4z" fill="#e5e5e5"/><path d="M100.8 40.7c0 14.3-10.5 25.9-23.4 25.9-12.9 0-23.4-11.6-23.4-25.9 0-14.3 10.5-25.9 23.4-25.9 12.9 0 23.4 11.6 23.4 25.9zm0 0"/></svg>