<svg xmlns="http://www.w3.org/2000/svg" viewBox="0 0 138.69999 138.69999" enable-background="new 0 0 792 612"><rect x="-7.3" y="139.7" width="127.7" height="15.3" fill="none"/><rect width="138.7" height="138.7" fill="#a4a4a4"/><rect x="6.3" y="116.7" width="133" height="18.7" fill="none"/><text font-size="14" x="5" y="127.339" fill="#fff" font-family="OpenSansBold">View All of Oregon</text><path d="M125.5 94.9l-1.6-15.9-1.6-15.6-.1-3.8.3-5.5-1.7-1.5-2 .8-.9-.6v-1.1l-.6-2.6 2-5.7 1.4-.9.6-1.3-.5-2.8.5-.8 1.5-5.8 1.9-4.6-.9-3.1-3.5-1.1-2.1-3.1-12.4 1.1-13.3 1.5-12.5 4.5-.8-1-3.9 3.2-3.8.8-2.4-.6-.8.9-3.9 1.2-1.8-.6-4.9-.2-.6.3h-3.9l-1 2-5.1 1.5-6-1.6.3-.8-2-6.4-3-2.5-3.5.7-1.3-1.8-2 .3-4.1 3.3v5.9l.3 9.1-.8 6.2v12.8l-1.3 12.9-2.9 12.5-.7 2.9 1.8 7.2.7 5.2 3.1 3 6.4-.1 10.1-.9 6.7-.5 11.4-.3 11.9-1.1 12.1-.7m41.1-4.5l-41.2 4.5 29.6-3.1 12-1.5" fill="#fff"/><path d="M79.7 69.6c-5.4 7.7-6.1 14.2-6.1 14.2-.1.5-.6.5-.7 0 0 0-1-6.5-6.3-14.2-4.4-6.1-6.3-8.5-6.3-13.4 0-7.1 5.7-12.8 12.8-12.8 7.1 0 12.9 5.7 12.9 12.8 0 5-3.8 9.8-6.3 13.4zm-1.6-13.2c0-2.7-2.1-4.9-5-4.9-2.6 0-4.8 2.1-4.8 4.9 0 2.7 2.2 5.1 4.8 5.1 2.9 0 5-2.3 5-5.1z" fill="#64bcba"/></svg>