<svg xmlns="http://www.w3.org/2000/svg" viewBox="0 0 26 26" enable-background="new 0 0 792 612"><path d="M13 0c-7.2 0-13 5.8-13 13s5.8 13 13 13 13-5.8 13-13-5.8-13-13-13z" fill="#64bcba"/><path d="M22.431 6.769c-.114.228-.342.571-.685.97-.342.4-.742.742-1.199 1.027 0 .114 0 .228.057.285.057 1.427-.285 2.911-.742 4.167-.913 2.283-2.34 4.167-4.338 5.365-2.112 1.199-4.566 1.484-6.792 1.256-1.484-.171-2.968-.685-4.053-1.598 2.055.228 3.938-.457 5.423-1.541-1.655.057-2.911-1.142-3.482-2.569.285.057.514.057.799.057.285 0 .571-.057.856-.114-1.085-.342-1.998-.97-2.454-1.941-.285-.628-.4-1.199-.4-1.827.514.285 1.085.514 1.655.514-.856-.685-1.484-1.598-1.598-2.626-.057-.856.114-1.655.457-2.397 1.256 1.37 2.626 2.511 4.224 3.196 1.085.457 2.169.685 3.311.685-.114-1.027-.057-1.998.457-2.797.571-.913 1.37-1.427 2.283-1.655 1.313-.342 2.569.114 3.368 1.027.856-.114 1.712-.457 2.34-.856-.285.856-.856 1.712-1.655 2.112.742-.228 1.484-.457 2.169-.742z" fill="#fff"/></svg>