<svg xmlns="http://www.w3.org/2000/svg" viewBox="0 0 138.69999 138.69999" enable-background="new 0 0 792 612"><rect width="138.7" height="138.7" fill="#48a04b"/><rect x="5.7" y="116.7" width="132.3" height="23.3" fill="none"/><text font-size="14" x="6" y="127.292" fill="#fff" font-family="OpenSansBold">Search Campaigns</text><rect x="36" y="72.8" width="68.2" height="7.4" fill="#fff"/><path d="M46.4 106.5h47.6l4.7-24.5h-57l4.7 24.5zm0 0" fill="#fff"/><path d="M60.5 92.5l-3.2 2.4 1.2 3.8c0 .1.1.2.1.4s0 .3-.2.3-.3-.1-.4-.2l-3.2-2.3-3.2 2.3c-.1.1-.3.2-.5.2s-.2-.1-.2-.3c0-.1 0-.2.1-.4l1.2-3.8-3.2-2.4c-.1-.1-.3-.3-.3-.4 0-.2.4-.3.6-.3h4l1.2-3.8c0-.2.2-.5.4-.5s.3.3.4.5l1.2 3.8h4c.2 0 .6 0 .6.3-.3.1-.5.3-.6.4z" fill="#64bcba"/><path d="M75.8 92.5l-3.2 2.4 1.2 3.8c0 .1.1.2.1.4s0 .3-.2.3-.3-.1-.4-.2l-3.2-2.3-3.2 2.3c-.1.1-.3.2-.5.2s-.2-.1-.2-.3c0-.1 0-.2.1-.4l1.2-3.8-3.2-2.4c-.1-.1-.3-.3-.3-.4 0-.2.4-.3.6-.3h4l1.2-3.8c0-.2.2-.5.4-.5s.3.3.4.5l1.2 3.8h4c.2 0 .6 0 .6.3-.3.1-.5.3-.6.4z" fill="#64bcba"/><path d="M91 92.5l-3.2 2.4 1.2 3.8c0 .1.1.2.1.4s0 .3-.2.3-.3-.1-.4-.2l-3.2-2.3-3.2 2.3c-.1.1-.3.2-.5.2s-.2-.1-.2-.3c0-.1 0-.2.1-.4l1.2-3.8-3.2-2.4c-.1-.1-.3-.3-.3-.4 0-.2.4-.3.6-.3h4l1.2-3.8c0-.2.2-.5.4-.5s.3.3.4.5l1.2 3.8h4c.2 0 .6 0 .6.3l-.6.4z" fill="#64bcba"/><path d="M69.8 11.3s-18.3-.8-16.2 27.6c0 0-.1 23.2 10.3 25.3 0 0-4.6-5.3-3.3-9 0 0 5.7-1.1 4.9-9.8 0 0-4.8-4.2-5.4-7.1 0 0 0-9.1.8-10.3 0 0 4.6.4 5 0 0 0 3.7-3.4 4.6-5.1 0 0 .7 3-1.1 4.9h4.8s1.5-1.5 1.8-3.2c0 0 .5 2.9-.2 3.3h2.8s1.5 8.1 1.2 10.4c0 0-2.7 6-5.4 7 0 0-.9 9 5.6 10.2 0 0-.6 8.1-4.6 8.4 0 0 6.7 1.8 10.5-12.5 0 0 1.9-19.9-.6-26.3 0 0-2.4-12.3-15.5-13.8z" fill="#fff"/><path d="M44.4 71.7c0-10.3 8-18.7 17.9-18.7 9.9 0 17.9 8.4 17.9 18.7" fill="#fff"/><path d="M58.8 71.7c0-10.3 8-18.7 17.9-18.7 9.9 0 17.9 8.4 17.9 18.7" fill="#fff"/><path d="M77.1 52.7c0 4.2-3.1 7.6-7 7.6s-7-3.4-7-7.6" fill="#48a04b"/><g transform="translate(-341 -211.2)" fill="#48a04b"><path d="M425.9 276.6l-1.3.6c-.9.4-2 .1-2.4-.8l-2.4-5c-.4-.9-.1-2 .8-2.4l1.3-.6c.9-.4 2-.1 2.4.8l2.4 5c.5.8.1 1.9-.8 2.4z"/><rect x="423.7" y="275.6" transform="matrix(.988 .156 -.156 .988 48.916 -62.897)" width="1.6" height="8.2"/></g></svg>