<svg xmlns="http://www.w3.org/2000/svg" viewBox="0 0 138.7 138.7" enable-background="new 0 0 792 612"><rect width="138.7" height="138.7" fill="#64bcba"/><rect x="5" y="116.7" width="127.7" height="15.3" fill="none"/><text font-size="14" x="9" y="127.339" fill="#fff" font-family="OpenSansBold">Browse My Ballot</text><g transform="translate(-327.2 -235.3)" fill="#fff"><path d="M361.8 320h17.6l2.4-14.3h-17l-3 14.3zm5.8-10.9h10.2l-1.3 7.5h-10.5l1.6-7.5zm0 0"/><path d="M384.1 291.6l-3.7 2.1-.3 2.1h-9.9l1.5-7h8.3l5.1-3v-.3h-16.1l-2.8 13.5h16.6l1.3-7.4zm0 0"/><g><path d="M385.9 286.4l-8.7 5.1-2.3-2.2-2.3 1.4 4 4.2 11.4-6.7-2.1-1.8zm0 0"/><path d="M445.2 257.2l-4.3-5.1c-1.1-1.3-3.1-1.5-4.5-.4l-3.7 3.1 8.4 9.9 3.7-3.1c1.3-1.1 1.5-3.1.4-4.4zm0 0"/></g><path d="M429.3 277.1l-3.7 3.1 12 49.5h-86.1l12.7-52.5h38.9l5.3-4.3h-47.7l-14.7 61.2h97.1l-13.8-57zm0 0"/><path d="M431.1 256.3l-33.8 28.6 8.4 9.9 19-16 4.2-3.5 10.6-9-8.4-10zm0 0"/><path d="M390.3 299.3l13.1-3.2-7.9-9.3-5.2 12.5zm0 0"/></g><polygon points="423.2,307.7 424.3,312 385.9,312 386.6,307.7" transform="translate(-327.2 -235.3)" fill="#fff"/><polygon points="420.6,313.8 421.7,317.2 386.3,317.2 387,313.8" transform="translate(-327.2 -235.3)" fill="#fff"/></svg>