<svg xmlns="http://www.w3.org/2000/svg" viewBox="0 0 71.400002 71.400002" enable-background="new 0 0 792 612"><circle cx="395.6" cy="304.7" r="35.7" transform="translate(-359.9 -269)" fill="#d1d1d1"/><path d="M62 28.4l-14.6 10.6 5.5 17.1c.2.5.3 1.1.3 1.6 0 .7-.2 1.3-1 1.3-.7 0-1.5-.5-2-.9l-14.5-10.5-14.5 10.4c-.6.4-1.3.9-2.1.9-.7 0-1-.6-1-1.2s.2-1.1.3-1.6l5.7-17.1-14.5-10.6c-.6-.4-1.5-1.2-1.5-2 0-1.1 1.8-1.2 2.6-1.2l18 .1 5.5-17.1c.2-.7.8-2.1 1.7-2.1.9 0 1.4 1.4 1.6 2.1l5.6 17.1 17.9-.1c.7 0 2.6.1 2.6 1.2-.1.8-1.1 1.6-1.6 2z" fill="#a4a4a4"/></svg>