<svg xmlns="http://www.w3.org/2000/svg" viewBox="0 0 64 64" enable-background="new 0 0 792 612"><circle cx="295.9" cy="126.6" r="32" transform="translate(-263.9 -94.6)" fill="#64bcba"/><path d="M9.7 39.8c.1-.3.3-.7.3-1v-.3c0-.2.1-.3.2-.5 0-.1 0-.2.1-.4 0-.1 0-.2.1-.3 0-.1 0-.2-.1-.2 0-.1 0-.1.1-.2l.3-.2c.4-.6.6-1.3.8-2 .2-.7.3-1.3.4-2 .1-.8.3-1.6.3-2.4l.1-.6v-.4c.1-.2.1-.4.1-.6 0-.1.1-.2 0-.2-.1-.4.1-1 .1-1.4h-.1c.1-.1.2-.3.2-.4l-.1-.2v-1.1l.1-.3c.1-.2.1-.4.1-.6 0-.3.1-.6.2-.9-.2.1.1-.4.1-.4.1-.2.1-.5.1-.8 0-.2 0-.4.1-.7 0-.2.1-.5-.2-.4 0-.1.1-.1.2-.1.1-.1.1-.4.1-.5v-.4l.1-.4c0-.1.1-.3 0-.4l.1-.5c0-.3.1-.6 0-.8 0-.1-.2-.2-.1-.3.1-.1.1-.4.1-.6v-.4c0-.1-.2-.3-.1-.3l.2-.2h.1c.1-.1.1-.2.1-.3 0-.3 0-.6-.1-.8-.1-.2-.1-.7-.4-.8.1-.2.2 0 .2.1l.3.2c.1.1.2.3.4.3s0-.1 0-.2l.3-.1.2-.1h.2c.1 0 .3 0 .3-.1.1-.1.2.1.3-.1 0-.2.2.1.2 0l.4-.3c.3-.1.5.2.4.5 0 .4.5.5.8.4.4-.1.6-.4 1-.2.3.1.5.3.7.5l.4.2.2.4c.2.2.4.6.3.9 0 .2.2.3.1.5s-.1.3 0 .5c.1.1.1.3.1.4 0 .3-.2.6.2.7.1.1.3.2.4.2l.4.1c.1 0 .3.1.5.2l.3.2.3-.1c.2 0 .2.2.3.2.4.1.6-.2.9-.3.1 0 .2 0 .4-.1l.5-.2.1-.1.2-.1.3-.3c.3-.2.6 0 .9 0l.4-.1c.2 0 .4-.1.5-.2.1 0 .2 0 .3.1.2.1.2.2.4.2l.4-.1c.2.1.3.2.5.2.2.1.3.2.3.4s.3.2.3.1c.1 0 .2-.1.2-.2.1-.1.3-.1.5-.1h.1c.1 0 .1-.1.2 0l.2.1c.1 0 .2-.1.2-.2.2-.2.7-.2 1-.4.3-.3.6-.3.9 0 .2.3.7.1 1 0l.4-.1c.3 0 .3 0 .5-.3l.5-.2.5-.2c.2-.1.3-.1.5-.1.2-.1.4-.1.5-.2h.5c.3-.1.3-.2.4-.4.1-.2.2-.2.4-.1s.3.1.5 0c.1-.1.3-.1.5-.1l.4-.1c.2 0 .3 0 .5.1.2 0 .4 0 .5-.1.1-.1.3-.2.4-.2.2-.2.2-.2.4-.2h2.9l4.2-.1c.7 0 1.4 0 2.1-.1h1c.3 0 .8-.1 1 .1.1.1.1.3.1.4l.3.3c.1.1.2.5.4.5l.1-.1c.2 0 .2.1.3.2 0 .2.2.1.3.1.2 0 .3.1.4.2.1 0 .2.1.2.2 0 .2 0 .3.1.4l.4.5c0 .1-.1.2-.2.3l-.2.4-.1.4-.1.1c0 .1-.1.1-.1.1l-.4.9v.4l-.1.3c-.1.3 0 .6-.2.9 0 .1-.1.1-.2.2v.2c0 .1-.2.3-.3.4l-.1.3c-.1.1 0 .2 0 .4.1.2-.1.5-.2.7-.1.1-.1.2-.2.4 0 .1 0 .2-.1.2 0 .1-.2.1-.3.2-.1.1-.1.1-.2.1-.1.1-.2.2-.2.3l-.1.3c0 .1-.1.2-.1.4 0 .1 0 .3-.1.3l-.1.2c0 .1.1.3-.1.3-.1 0-.1.1-.1.2l-.2.2.1.3v.2l-.1.2c-.1.3.4.3.2.7-.1.1-.1.1 0 .2s.2.2.4.2l.1-.2c.1 0 .1.1.2.2l.2.2s0-.1.1-.1h.1c.1 0 .2 0 .3.1.1.2-.1.3.1.3.1 0 .2 0 .3.1.1.1 0 .2-.1.4l-.1.3c-.1.1-.2 0-.2.2 0 .1 0 .2.1.2.1.1.1.1.1.3 0 .1 0 .3-.1.3-.1.1 0 .1 0 .2s0 .2-.1.3v.3s-.1 0-.2.1c0 0-.1.2-.1.3.1.5.1 1.1.1 1.6l.1 2c0 1.5.1 3.1.2 4.6.1 1.5.2 3.1.2 4.6v1.2c0 .1-.8.1-.9.1-.8.1-1.5.1-2.3.1l-9.2.3h-9c-2.8 0-5.7-.1-8.5-.2l-8.5-.2-2.1-.1h-.9c-.2 0-.4 0-.5-.1l-.3-.3c-.2-.1-.4-.4-.4-.6 0-.2 0-.4-.1-.6 0-.1 0-.2-.1-.3l-.1-.4-.1-.5v-.5c0-.3 0-.5.1-.8.1-.3.1-.5.1-.8 0-.1 0-.3-.1-.3-.1-.1-.2-.1-.2-.2 0-.2-.2-.5-.4-.4v-.4c0-.1-.2-.3-.1-.5.7-.2.8-.5 1-.8z" fill="#fff"/></svg>