<svg xmlns="http://www.w3.org/2000/svg" viewBox="0 0 71.400002 71.400002" enable-background="new 0 0 792 612"><circle cx="395.6" cy="304.7" r="35.7" transform="translate(-359.9 -269)" fill="#64bcba"/><path d="M44.5 18v-6.3c0-.3.3-.6.9-.8.6-.2 1.3-.3 2.2-.3.9 0 1.6.1 2.2.3.6.2.9.5.9.8v11.5l12.6 10.9h-5l-22.6-18.4-22.6 18.3h-5l27.6-23.4 8.8 7.4zm8.8 15.5v23.099999999999998h-11.4c0-.3.1-.6.1-1v-7.3c0-1.7-.6-3.1-1.8-4.3-1.2-1.2-2.7-1.8-4.4-1.8-1.8 0-3.2.6-4.4 1.8-1.2 1.2-1.8 2.6-1.8 4.3v7.3c0 .3 0 .6.1 1h-11.6v-23l17.6-14.7 17.6 14.6z" fill="#fff"/></svg>