<svg xmlns="http://www.w3.org/2000/svg" viewBox="0 0 64 64" enable-background="new 0 0 792 612"><circle cx="344.4" cy="165.6" r="32" transform="translate(-312.4 -133.6)" fill="#64bcba"/><path d="M53.5 26l-12.1 8.8 4.6 14.2c.1.4.2.9.2 1.3 0 .6-.2 1.1-.8 1.1-.6 0-1.2-.4-1.7-.7l-12.1-8.7-12.1 8.7c-.5.4-1.1.7-1.7.7-.6 0-.8-.5-.8-1s.1-.9.3-1.4l4.6-14.2-12.1-8.8c-.5-.4-1.3-1-1.3-1.6 0-.9 1.5-1 2.1-1h14.9l4.6-14.2c.2-.6.7-1.8 1.4-1.8s1.2 1.2 1.4 1.8l4.6 14.2h14.9c.6 0 2.1.1 2.1 1 .2.6-.6 1.3-1 1.6z" fill="#fff"/></svg>