<svg xmlns="http://www.w3.org/2000/svg" viewBox="0 0 64 64" enable-background="new 0 0 792 612"><circle cx="395.9" cy="305.6" r="32" transform="translate(-363.9 -273.6)" fill="#d8d8d7"/><g><path d="M14.2 15.5v30.1h42v-30.1c-14.3-4.9-27.7 5-42 0zm15.6 9l.3-1.1.3 1c.4-.1.6-.1 1.1-.2l-.9.8.3 1c-.3-.2-.5-.3-.9-.5l-.9.8.3-1.1-.9-.5c.6-.1.8-.1 1.3-.2zm-3.6-2.9c.1-.4.2-.6.3-1.1l.3 1c.4-.1.6-.1 1.1-.2l-.9.8.3 1-.9-.5c-.3.3-.5.4-.9.7.1-.4.2-.6.3-1.1-.4-.2-.5-.3-.9-.6.7.1.9.1 1.3 0zm0 6.6c.1-.4.2-.6.3-1.1l.3 1c.4-.1.6-.1 1.1-.1l-.9.8.3 1-.9-.5c-.3.3-.5.4-.9.7.1-.4.2-.6.3-1.1-.4-.2-.5-.3-.9-.6.7 0 .9 0 1.3-.1zm-3.1-3l.3-1 .3 1c.4 0 .6 0 1.1-.1l-.9.7.3 1-.9-.6c-.4.3-.5.4-.9.6l.3-1-.9-.7c.7.1.9.1 1.3.1zm-3.8-3.7l.3-1c.1.4.2.6.3 1.1.4.1.6.1 1.1.1l-.9.5c.1.4.2.6.3 1.1-.4-.3-.5-.4-.9-.8l-.9.5.3-1c-.3-.3-.5-.5-.9-.8.6.2.8.2 1.3.3zm0 6.6l.3-1c.1.4.2.6.3 1.1.4.1.6.1 1.1.1l-.9.5c.1.4.2.6.3 1.1-.4-.3-.5-.4-.9-.8l-.9.5.3-1c-.3-.3-.5-.5-.9-.8.6.2.8.2 1.3.3zm34.7 14.4l-37.6 1.8v-2.4l37.6-1.8v2.4zm0-4.6l-37.6 1.8v-2.3l37.6-1.8v2.3zm0-4.5l-37.6 1.8v-2.3l37.6-1.8v2.3zm0-4.5c-6.8-1.6-12.5-.6-19.2 1v-2.5c6.7-1.5 12.4-2.5 19.2-1v2.5zm0-4.8c-6.8-1.6-12.5-.6-19.2 1v-2.3c6.7-1.5 12.4-2.5 19.2-1v2.3zm0-4.5c-6.8-1.6-12.5-.6-19.2 1v-2.8c6.7-1.5 12.4-2.5 19.2-1v2.8zm0 0" fill="#a4a4a4"/><path d="M11.7 11.3h-1.4c-1.3 0-2.3 1-2.3 2.3 0 .9.5 1.6 1.2 2v34.2l3.6 4v-38.2c.7-.4 1.1-1.1 1.1-2 0-1.3-1-2.3-2.2-2.3zm0 0" fill="#a4a4a4"/></g></svg>