<svg xmlns="http://www.w3.org/2000/svg" viewBox="0 0 792 612" enable-background="new 0 0 792 612"><circle fill="#D8D8D7" cx="396" cy="305.6" r="32"/><polygon fill="#A4A4A4" points="375.4,284 395.7,284 396.2,284.4 396.2,325 395.7,325.4 375.4,325.4 375,325 375,284.4"/><g fill="#D8D8D7"><rect x="376.7" y="292" width="3.9" height="2.9"/><rect x="383.1" y="292" width="3.9" height="2.9"/><rect x="389.6" y="292" width="3.9" height="2.9"/></g><g fill="#D8D8D7"><rect x="376.7" y="287.3" width="3.9" height="2.9"/><rect x="383.1" y="287.3" width="3.9" height="2.9"/><rect x="389.6" y="287.3" width="3.9" height="2.9"/></g><g fill="#D8D8D7"><rect x="376.7" y="296.7" width="3.9" height="2.9"/><rect x="383.1" y="296.7" width="3.9" height="2.9"/><rect x="389.6" y="296.7" width="3.9" height="2.9"/></g><g fill="#D8D8D7"><rect x="376.7" y="301.5" width="3.9" height="2.9"/><rect x="383.1" y="301.5" width="3.9" height="2.9"/><rect x="389.6" y="301.5" width="3.9" height="2.9"/></g><g fill="#D8D8D7"><rect x="376.7" y="306.2" width="3.9" height="2.9"/><rect x="383.1" y="306.2" width="3.9" height="2.9"/><rect x="389.6" y="306.2" width="3.9" height="2.9"/></g><g fill="#D8D8D7"><rect x="376.7" y="311" width="3.9" height="2.9"/><rect x="383.1" y="311" width="3.9" height="2.9"/><rect x="389.6" y="311" width="3.9" height="2.9"/></g><polygon fill="#A4A4A4" points="397.7,294 418.1,294 418.5,294.4 418.5,325 418.1,325.4 397.7,325.4 397.3,325 397.3,294.4"/><g fill="#D8D8D7"><rect x="399.1" y="303.9" width="3.9" height="3.9"/><rect x="405.6" y="303.9" width="3.9" height="3.9"/><rect x="412" y="303.9" width="3.9" height="3.9"/></g><g fill="#D8D8D7"><rect x="399.1" y="297.8" width="3.9" height="3.9"/><rect x="405.6" y="297.8" width="3.9" height="3.9"/><rect x="412" y="297.8" width="3.9" height="3.9"/></g><g fill="#D8D8D7"><rect x="399.1" y="310.1" width="3.9" height="3.9"/><rect x="405.6" y="310.1" width="3.9" height="3.9"/><rect x="412" y="310.1" width="3.9" height="3.9"/></g><rect x="382.7" y="316.6" fill="#D8D8D7" width="5.3" height="9.4"/><rect x="405.1" y="316.6" fill="#D8D8D7" width="5.3" height="9.4"/></svg>