<svg xmlns="http://www.w3.org/2000/svg" viewBox="0 0 33.399999 33.399999" enable-background="new 0 0 792 612"><g fill="#a4a4a4"><path d="M16.8 4.25h-6.3c-5 0-9.2 3.4-10.3 8.1h27c-1.2-4.7-5.4-8.1-10.4-8.1zm-7.5 4.2l-1 .7.4 1.2c0 .1 0 .3-.1.4l-.2.1c-.1 0-.1 0-.2-.1l-1-.7-1 .7c-.1.1-.3.1-.4 0-.1-.1-.2-.3-.1-.4l.4-1.2-1-.7c-.1-.1-.2-.3-.1-.4 0-.1.2-.2.3-.2h1.3l.4-1.2c0-.1.2-.2.3-.2.2 0 .3.1.3.2l.4 1.2h1.3c.2 0 .3.1.3.2-.1.2-.2.4-.3.4zm6.6 0l-1 .7.4 1.2c0 .1 0 .3-.1.4l-.2.1c-.1 0-.1 0-.2-.1l-1-.7-1 .7c-.1.1-.3.1-.4 0-.1-.1-.2-.3-.1-.4l.4-1.2-1-.7c-.1-.1-.2-.3-.1-.4 0-.1.2-.2.3-.2h1.3l.4-1.2c0-.1.2-.2.3-.2.2 0 .3.1.3.2l.4 1.2h1.3c.2 0 .3.1.3.2-.1.2-.2.4-.3.4zm6.3 0l-1 .7.4 1.2c0 .1 0 .3-.1.4l-.2.1c-.1 0-.1 0-.2-.1l-1-.7-1 .7c-.1.1-.3.1-.4 0-.1-.1-.2-.3-.1-.4l.4-1.2-1-.7c-.1-.1-.2-.3-.1-.4 0-.1.2-.2.3-.2h1.3l.4-1.2c0-.1.2-.2.3-.2.2 0 .3.1.3.2l.4 1.2h1.3c.2 0 .3.1.3.2-.1.2-.1.4-.3.4zm0 0"/><path d="M29.9 19.05v5.5c0 .7-.6 1.2-1.2 1.2-.7 0-1.1-.6-1.1-1.2v-10.399999999999999h-27.6v14.799999999999999h5.8v-7.6h10.8v7.6h5.4v-7.8c0-.6.5-1.1 1.1-1.1.5 0 1.1.4 1.1 1.1v3.3c0 2.6 2 4.7 4.5 4.7 2.6 0 4.7-2.1 4.7-4.7v-5.5h-3.5zm0 0"/></g></svg>