<svg xmlns="http://www.w3.org/2000/svg" viewBox="0 0 38.862847 38.859999" enable-background="new 0 0 792 612"><g fill="#a4a4a4" transform="translate(-376 -285.62)"><path d="M379.9 321.4h5.8v-5.5h10.9v5.5h5.6v-8.7h-22.2v8.7zm0 0"/><path d="M413.9 299.7l-2.7-3.4-.9-1.1c.1-.1.2-.2.2-.3.4-.6.9-1.2 1.2-1.8.1-.2.7-1.4.1-2.1-.2-.2-.4-.3-.7-.3-.4 0-.9.3-1.2.4h-.1c-.6.4-1.2.7-1.9 1.2 0 0-.1 0-.1.1-.2-.4-.3-.8-.5-1.1-.2-.6-.5-1.1-.7-1.8-.2-.5-.6-.8-1.1-.8-.3 0-.5.1-.7.3-.3.4-.5 1-.5 1.8 0 1-.1 1.6-.2 2.6-.1.3-.2.6-.4.8l-4.3 4.4c-.4.4-.8.6-1.4.6h-15.2c-1.2 0-2 .5-2.7 1.5l-4.1 6.5 2.6 1.9 1.1-1.7v3.2h22.6l.1-.2 2.7-6 .6-1.2.2-.3 1.2.5c1.5.6 2.9 1.2 4.3 1.9.3.2.6.2.9.2.6 0 1.1-.3 1.5-.9 1.4-1.5 1.4-3.3.1-4.9zm-27 5.2l-1.1.8.4 1.4c.1.2 0 .3-.1.5-.1.1-.2.1-.2.1-.1 0-.2 0-.2-.1l-1.1-.8-1.2.8c-.1.1-.3.1-.5 0-.1-.1-.2-.3-.1-.5l.4-1.4-1.2-.8c-.1-.1-.2-.3-.1-.5s.2-.3.4-.3h1.4l.4-1.4c.1-.2.2-.3.4-.3s.3.1.4.3l.4 1.4h1.4c.2 0 .3.1.4.3 0 .2-.1.4-.2.5zm7.4 0l-1.2.8.4 1.4c.1.2 0 .3-.1.5-.1.1-.2.1-.2.1-.1 0-.2 0-.2-.1l-1.1-.8-1.2.8c-.1.1-.3.1-.5 0-.1-.1-.2-.3-.1-.5l.4-1.4-1.1-.8c-.1-.1-.2-.3-.1-.5s.2-.3.4-.3h1.4l.4-1.4c.1-.2.2-.3.4-.3s.3.1.4.3l.4 1.4h1.4c.2 0 .3.1.4.3 0 .2-.1.4-.2.5zm7.1 0l-1.1.8.4 1.4c.1.2 0 .3-.1.5-.1.1-.2.1-.2.1-.1 0-.2 0-.2-.1l-1.1-.8-1.2.8c-.1.1-.3.1-.5 0-.1-.1-.2-.3-.1-.5l.4-1.4-1.1-.8c-.1-.1-.2-.3-.1-.5s.2-.3.4-.3h1.4l.4-1.4c.1-.2.2-.3.4-.3s.3.1.4.3l.4 1.4h1.4c.2 0 .3.1.4.3-.1.2-.1.4-.3.5zm0 0"/></g></svg>