<svg xmlns="http://www.w3.org/2000/svg" viewBox="0 0 53 53" enable-background="new 0 0 792 612"><circle cx="396.9" cy="305.8" r="26.5" transform="translate(-370.4 -279.3)" fill="#a4a4a4"/><path d="M44.7 22.2l-10.2 7.4 3.9 12c.1.4.2.7.2 1.1 0 .5-.1.9-.7.9-.5 0-1-.3-1.4-.6l-10.2-7.4-10.2 7.4c-.4.3-.9.6-1.4.6-.5 0-.7-.4-.7-.9 0-.4.1-.8.2-1.1l3.9-12-10.2-7.4c-.4-.3-1.1-.9-1.1-1.4 0-.8 1.3-.9 1.8-.9h12.6l3.8-12c.1-.5.6-1.5 1.2-1.5s1 1 1.1 1.5l3.9 12h12.5c.5 0 1.8.1 1.8.8.3.7-.4 1.2-.8 1.5z" fill="#fff"/></svg>