<svg xmlns="http://www.w3.org/2000/svg" viewBox="0 0 27.5 27.6" enable-background="new 0 0 792 612"><path d="M17.8 20.5c-2.3 0-4.5-.8-6.3-2.3l-1.8 4.4-4.5 4.5c-.5.3-1 .5-1.6.5-1.4 0-2.6-1.3-2.6-2.7 0-.6.2-1.1.5-1.6l4.5-4.5 4.4-1.8c-1.5-1.8-2.3-4.1-2.3-6.4 0-5.3 4.4-9.6 9.7-9.6 5.2 0 9.7 4.4 9.7 9.7 0 2.5-.9 5-2.8 6.9-2 2-4.5 2.9-6.9 2.9zm0-3.7c3.2 0 5.9-2.7 5.9-6 0-3.2-2.7-5.9-5.9-5.9-3.3 0-6 2.7-6 5.9 0 1.6.6 3.1 1.7 4.3 1.2 1.1 2.7 1.7 4.3 1.7z" fill="#a4a4a4"/><path d="M16.8 19.5c-2.3 0-4.5-.8-6.3-2.3l-1.8 4.4-4.5 4.5c-.5.3-1 .5-1.6.5-1.4 0-2.6-1.3-2.6-2.7 0-.6.2-1.1.5-1.6l4.5-4.5 4.4-1.8c-1.5-1.8-2.3-4.1-2.3-6.4 0-5.3 4.4-9.6 9.7-9.6 5.2 0 9.7 4.4 9.7 9.7 0 2.5-.9 5-2.8 6.9-2 2-4.5 2.9-6.9 2.9zm0-3.7c3.2 0 5.9-2.7 5.9-6 0-3.2-2.7-5.9-5.9-5.9-3.3 0-6 2.7-6 5.9 0 1.6.6 3.1 1.7 4.3 1.2 1.1 2.7 1.7 4.3 1.7z" fill="#a4a4a4"/></svg>