<svg xmlns="http://www.w3.org/2000/svg" viewBox="0 0 53 53" enable-background="new 0 0 792 612"><circle cx="396.9" cy="305.7" r="26.5" transform="translate(-370.4 -279.2)" fill="#a4a4a4"/><path d="M26.5 5.4c-2.7 0-5.1 1-7 2.9-1.9 1.9-2.9 4.3-2.9 7.1s1 5.1 2.9 7.1c1.9 1.9 4.3 2.9 7 2.9s5.1-1 7.1-2.9 2.9-4.3 2.9-7.1-1-5.1-2.9-7.1c-2-1.9-4.3-2.9-7.1-2.9z" fill="#fff"/><path d="M45.6 36.2c0-.7-.1-1.5-.3-2.1-.2-.7-.5-1.3-.8-1.8-.3-.5-.8-1-1.5-1.6-.7-.6-1.3-1-1.8-1.4-.5-.4-1.3-.8-2.2-1.3-1-.5-1.7-.9-2.3-1.1-.6-.3-1.4-.6-2.5-1.1-2.2 1.8-4.7 2.7-7.5 2.7-2.9 0-5.5-1-7.7-2.9-1.3.5-2.4 1-3.3 1.4-.8.4-1.8.9-2.9 1.5-1.1.6-1.9 1.3-2.6 2-.6.7-1.2 1.5-1.7 2.5s-.8 2.1-.9 3.3v3.9c4.4 5.7 11.3 9.4 19.1 9.4 7.7 0 14.6-3.6 19-9.2v-4.2z" fill="#fff"/></svg>