<svg xmlns="http://www.w3.org/2000/svg" viewBox="0 0 23.299998 23.300001" enable-background="new 0 0 792 612"><path d="M20.3 13.95c0 4.8-3.9 8.7-8.6 8.7-4.8 0-8.7-3.9-8.7-8.7 0-3.6 2.2-6.6 5.2-7.9l-2.2-4.7c0-.5.3-.7.7-.7h9.7c.4 0 .7.2.7.7l-2.1 4.6c3.1 1.3 5.3 4.4 5.3 8zm-5.4-2.2l.2.1 1.2-2.4-.2-.1c-.2.1-.3.2-.4.2-.1 0-.2 0-.3-.1-1.6-.6-2.4-.9-3.3-.9v-.5c0-.2.1-.4.5-.5v-.2h-2.1v.2c.4.1.4.3.4.5v.4c-2.6.1-4 1.3-4 3.2 0 2 1.1 2.6 4 2.9v2.6c-2.1-.2-3.1-1-3.1-1.7l-.2-.1-1.1 2.5.2.1c.2-.1.2-.1.3-.1 0 0 .2 0 .2.1 1.3.6 2.5 1 3.6 1.1v.5c0 .3-.1.4-.4.5v.2h2.1v-.3c-.4-.1-.5-.2-.5-.5v-.5c2.6-.1 4.2-1.4 4.2-3.3s-1.4-2.8-3.9-3h-.3v-2.3c.6 0 1.2.2 1.9.5.8.3 1 .5 1 .9zm-3.9-1.6v2.3c-1.3-.1-2-.2-2-1 0-.2.1-.4.3-.6.3-.5.9-.6 1.7-.7zm1.1 4.6c1.6.1 2.1.2 2.1.9 0 .8-.6 1.3-2.1 1.5v-2.4z" fill="#48a04b"/></svg>