<svg xmlns="http://www.w3.org/2000/svg" viewBox="0 0 168 168" enable-background="new 0 0 792 612"><circle cx="395.5" cy="304.5" r="84" transform="translate(-311.5 -220.5)" fill="#64bcba"/><g fill="#fff"><path d="M83.1 19.6c-7.7 0-14.3 2.7-19.7 8.2-5.5 5.5-8.2 12.1-8.2 19.8 0 7.7 2.7 14.4 8.2 19.8 5.5 5.5 12 8.2 19.7 8.2 7.7 0 14.3-2.7 19.8-8.2 5.5-5.5 8.3-12.1 8.3-19.8 0-7.7-2.8-14.4-8.3-19.8-5.5-5.4-12.1-8.2-19.8-8.2z"/><path d="M136.7 106c0-2.1-.3-4.1-.9-6-.6-1.9-1.4-3.5-2.3-5-.9-1.4-2.3-2.9-4.2-4.5-1.9-1.6-3.6-2.9-5.1-3.9-1.5-1-3.6-2.2-6.3-3.5-2.7-1.4-4.9-2.4-6.5-3.1-1.6-.7-4-1.8-7.2-3.2-6.2 5-13.2 7.6-20.9 7.6-8.2 0-15.4-2.7-21.7-8.2-3.8 1.5-6.8 2.8-9.2 3.9-2.4 1.1-5.1 2.5-8.1 4.3-3 1.8-5.5 3.6-7.2 5.5-1.8 1.9-3.4 4.2-4.7 6.9-1.4 2.7-2.2 5.8-2.5 9.1v11c12.4 16.1 31.8 26.5 53.7 26.5 21.6 0 40.9-10.2 53.3-26v-11.4z"/></g></svg>