<svg xmlns="http://www.w3.org/2000/svg" viewBox="0 0 143 143" enable-background="new 0 0 792 612"><circle cx="397" cy="305.4" r="71.5" transform="translate(-325.5 -233.9)" fill="#10716f"/><g fill="#fff"><path stroke-miterlimit="10" d="M354.4 268.2c-3.7 0-6.9 1.3-9.6 4-2.6 2.6-4 5.8-4 9.6s1.3 7 4 9.6c2.6 2.6 5.8 4 9.6 4 3.7 0 6.9-1.3 9.6-4 2.7-2.6 4-5.8 4-9.6s-1.3-7-4-9.6c-2.6-2.6-5.8-4-9.6-4z" stroke="#10716f" transform="translate(-325.5 -233.9)"/><path stroke-miterlimit="10" d="M440.7 268.2c-3.7 0-6.9 1.3-9.6 4-2.6 2.6-4 5.8-4 9.6s1.3 7 4 9.6c2.6 2.6 5.8 4 9.6 4 3.7 0 6.9-1.3 9.6-4 2.7-2.6 4-5.8 4-9.6s-1.3-7-4-9.6c-2.6-2.6-5.8-4-9.6-4z" stroke="#10716f" transform="translate(-325.5 -233.9)"/><path stroke-miterlimit="10" d="M417.4 261.7c-3.7 0-6.9 1.3-9.6 4-2.6 2.6-4 5.8-4 9.6s1.3 7 4 9.6c2.6 2.6 5.8 4 9.6 4 3.7 0 6.9-1.3 9.6-4 2.7-2.6 4-5.8 4-9.6s-1.3-7-4-9.6c-2.6-2.7-5.8-4-9.6-4z" stroke="#10716f" transform="translate(-325.5 -233.9)"/><path stroke-miterlimit="10" d="M376.1 261.7c-3.7 0-6.9 1.3-9.6 4-2.6 2.6-4 5.8-4 9.6s1.3 7 4 9.6c2.6 2.6 5.8 4 9.6 4 3.7 0 6.9-1.3 9.6-4 2.7-2.6 4-5.8 4-9.6s-1.3-7-4-9.6c-2.6-2.7-5.8-4-9.6-4z" stroke="#10716f" transform="translate(-325.5 -233.9)"/><path stroke-miterlimit="10" d="M370.1 276.9c-3.7 0-6.9 1.3-9.6 4-2.6 2.6-4 5.8-4 9.6s1.3 7 4 9.6c2.6 2.6 5.8 4 9.6 4 3.7 0 6.9-1.3 9.6-4 2.7-2.6 4-5.8 4-9.6s-1.3-7-4-9.6c-2.7-2.7-5.9-4-9.6-4z" stroke="#10716f" transform="translate(-325.5 -233.9)"/><path stroke-miterlimit="10" d="M423.5 276.9c-3.7 0-6.9 1.3-9.6 4-2.6 2.6-4 5.8-4 9.6s1.3 7 4 9.6c2.6 2.6 5.8 4 9.6 4 3.7 0 6.9-1.3 9.6-4 2.7-2.6 4-5.8 4-9.6s-1.3-7-4-9.6c-2.7-2.7-5.9-4-9.6-4z" stroke="#10716f" transform="translate(-325.5 -233.9)"/><path stroke-miterlimit="10" d="M397.1 264.8c-3.7 0-6.9 1.3-9.6 4-2.6 2.6-4 5.8-4 9.6s1.3 7 4 9.6c2.6 2.6 5.8 4 9.6 4 3.7 0 6.9-1.3 9.6-4 2.7-2.6 4-5.8 4-9.6s-1.3-7-4-9.6c-2.7-2.6-5.9-4-9.6-4z" stroke="#10716f" transform="translate(-325.5 -233.9)"/><path d="M54.1 91.5c-.5-.8-1.2-1.6-2.3-2.4-1-.8-2-1.5-2.7-2.1-.8-.5-1.9-1.2-3.4-1.9l-3.5-1.7c-.9-.4-2.2-1-3.8-1.7-3.3 2.7-7.1 4.1-11.2 4.1-4.4 0-8.3-1.5-11.7-4.4-.8.3-1.6.6-2.3.9 3.7 13.7 11.7 25.6 22.6 34.2 8.1-1.9 15.2-6.6 20.2-13v-6.2c0-1.1-.2-2.2-.5-3.2-.5-1-.9-1.8-1.4-2.6z"/><path stroke-miterlimit="10" d="M441.8 287.1c4.2 0 7.8 1.5 10.8 4.5 3 3 4.5 6.6 4.5 10.8 0 4.2-1.5 7.8-4.5 10.8-3 3-6.6 4.5-10.8 4.5-4.2 0-7.8-1.5-10.8-4.5-3-3-4.5-6.6-4.5-10.8 0-4.2 1.5-7.8 4.5-10.8 3-3.1 6.6-4.5 10.8-4.5z" stroke="#10716f" transform="translate(-325.5 -233.9)"/><path d="M88.9 91.5c.5-.8 1.2-1.6 2.3-2.4 1-.8 2-1.5 2.7-2.1.8-.5 1.9-1.2 3.4-1.9l3.5-1.7c.9-.4 2.2-1 3.8-1.7 3.3 2.7 7.1 4.1 11.2 4.1 4.4 0 8.3-1.5 11.7-4.4.8.3 1.6.6 2.3.9-3.7 13.7-11.7 25.6-22.6 34.2-8.1-1.9-15.2-6.6-20.2-13v-6.2c0-1.1.2-2.2.5-3.2.5-1 .9-1.8 1.4-2.6z"/><path stroke-miterlimit="10" d="M434.9 333.9c0-1.5-.2-2.9-.7-4.2-.4-1.3-1-2.5-1.6-3.5-.6-1-1.6-2-3-3.1s-2.5-2-3.6-2.7c-1-.7-2.5-1.5-4.4-2.5l-4.5-2.2c-1.1-.5-2.8-1.2-5-2.2-4.3 3.5-9.2 5.3-14.6 5.3-5.7 0-10.8-1.9-15.1-5.7-2.6 1-4.8 1.9-6.4 2.7-1.6.8-3.5 1.8-5.6 3-2.1 1.2-3.8 2.5-5 3.8-1.2 1.3-2.3 2.9-3.3 4.8s-1.5 4-1.8 6.4v7.6c8.6 11.2 22.2 18.5 37.4 18.5 15.1 0 28.5-7.1 37.1-18.1v-7.9z" stroke="#10716f" transform="translate(-325.5 -233.9)"/><path stroke-miterlimit="10" d="M397.5 276.9c-5.4 0-10 1.9-13.8 5.7-3.8 3.8-5.7 8.4-5.7 13.8s1.9 10 5.7 13.8c3.8 3.8 8.4 5.7 13.8 5.7s10-1.9 13.8-5.7c3.8-3.8 5.8-8.4 5.8-13.8s-1.9-10-5.8-13.8c-3.8-3.8-8.4-5.7-13.8-5.7z" stroke="#10716f" transform="translate(-325.5 -233.9)"/><path stroke-miterlimit="10" d="M352.2 287.1c-4.2 0-7.8 1.5-10.8 4.5-3 3-4.5 6.6-4.5 10.8 0 4.2 1.5 7.8 4.5 10.8 3 3 6.6 4.5 10.8 4.5 4.2 0 7.8-1.5 10.8-4.5 3-3 4.5-6.6 4.5-10.8 0-4.2-1.5-7.8-4.5-10.8-3-3.1-6.6-4.5-10.8-4.5z" stroke="#10716f" transform="translate(-325.5 -233.9)"/></g></svg>