<svg xmlns="http://www.w3.org/2000/svg" viewBox="0 0 55.200001 55.200001" enable-background="new 0 0 612 792"><circle cx="305.7" cy="395" r="27.6" transform="translate(-278.1 -367.4)" fill="#64bcba"/><path d="M27.9 26.6c-.6-.4-1.4-.6-2.1-.6-1 0-2.1.4-2.8 1.2l-6.6 6.6c-.7.7-1.2 1.7-1.2 2.8 0 2.2 1.8 3.9 3.9 3.9 1.1 0 2.7-.6 3.1-1.7h8.9l-4.9 4.8c-1.9 1.8-4.4 2.9-7 2.9-5.5 0-10-4.5-10-10 0-2.6 1-5.2 2.9-7l6.6-6.6c1.9-1.9 4.4-2.9 7.1-2.9 2.3 0 4.6.8 6.4 2.4l-4.3 4.2zm15.9-.6l-6.6 6.6c-1.9 1.9-4.4 2.9-7.1 2.9-2.3 0-4.6-.8-6.4-2.4l4.3-4.3c.6.4 1.4.6 2.1.6 1 0 2.1-.4 2.8-1.2l6.6-6.6c.7-.7 1.2-1.7 1.2-2.8 0-2.2-1.8-3.9-3.9-3.9-1.1 0-2.7.6-3.1 1.7h-8.9l4.9-4.8c1.9-1.8 4.4-2.9 7-2.9 5.5 0 10 4.5 10 10 0 2.7-1.1 5.3-2.9 7.1z" fill="#fff"/></svg>