<svg xmlns="http://www.w3.org/2000/svg" viewBox="0 0 139.2 139.2" enable-background="new 0 0 792 612"><circle cx="391.4" cy="309.3" r="69.6" transform="translate(-321.8 -239.7)" fill="#c79c60"/><path d="M118.3 58.9l-26.8 19.4 10.3 31.6c.3 1.1.5 1.8.5 2.9 0 1.3-.3 2.4-1.8 2.4-1.3 0-2.6-.8-3.7-1.6l-26.9-19.5-26.9 19.5c-1.1.8-2.4 1.6-3.7 1.6-1.3 0-1.8-1.1-1.8-2.4 0-1.1.3-2.1.5-2.9l10.3-31.6-26.9-19.5c-1.1-.8-2.9-2.4-2.9-3.7 0-2.1 3.4-2.4 4.7-2.4h33.2l10-31.6c.3-1.3 1.6-3.9 3.2-3.9s2.6 2.6 2.9 3.9l10.3 31.6h32.9c1.3 0 4.7.3 4.7 2.1.8 2-1 3.3-2.1 4.1z" fill="#fff"/></svg>