<?xml version="1.0" encoding="utf-8"?>
<!-- Generator: Adobe Illustrator 18.0.0, SVG Export Plug-In . SVG Version: 6.00 Build 0)  -->
<!DOCTYPE svg PUBLIC "-//W3C//DTD SVG 1.1//EN" "http://www.w3.org/Graphics/SVG/1.1/DTD/svg11.dtd">
<svg version="1.1" id="Layer_1" xmlns="http://www.w3.org/2000/svg" xmlns:xlink="http://www.w3.org/1999/xlink" x="0px" y="0px"
	 viewBox="0 0 792 612" enable-background="new 0 0 792 612" xml:space="preserve">
<path fill="#A4A4A4" d="M400.4,298.5c0.8,0,1.5-0.7,1.5-1.5v-1.5c0-0.8-0.7-1.5-1.5-1.5s-1.5,0.7-1.5,1.5v1.5
	C398.9,297.9,399.6,298.5,400.4,298.5z"/>
<path fill="#A4A4A4" d="M405.7,296.6h-3v0.8c0,1.2-1,2.3-2.3,2.3c-1.2,0-2.3-1-2.3-2.3v-0.8h-6v0.8c0,1.2-1,2.3-2.3,2.3
	c-1.2,0-2.3-1-2.3-2.3v-0.8l-3,0v18.8h1.5h18l1.5,0L405.7,296.6z M404.2,313.8h-18v-12h18L404.2,313.8L404.2,313.8z"/>
<path fill="#A4A4A4" d="M389.9,298.5c0.8,0,1.5-0.7,1.5-1.5v-1.5c0-0.8-0.7-1.5-1.5-1.5s-1.5,0.7-1.5,1.5v1.5
	C388.4,297.9,389.1,298.5,389.9,298.5z"/>
<rect x="392.2" y="303.4" fill="#A4A4A4" width="2.4" height="2.1"/>
<rect x="396" y="303.4" fill="#A4A4A4" width="2.4" height="2.1"/>
<rect x="399.6" y="303.4" fill="#A4A4A4" width="2.4" height="2.1"/>
<rect x="392.2" y="306.9" fill="#A4A4A4" width="2.4" height="2.1"/>
<rect x="396" y="306.9" fill="#A4A4A4" width="2.4" height="2.1"/>
<rect x="399.6" y="306.9" fill="#A4A4A4" width="2.4" height="2.1"/>
<rect x="392.2" y="310.5" fill="#A4A4A4" width="2.4" height="2.1"/>
<rect x="388.4" y="306.9" fill="#A4A4A4" width="2.4" height="2.1"/>
<rect x="388.4" y="310.5" fill="#A4A4A4" width="2.4" height="2.1"/>
<rect x="396" y="310.5" fill="#A4A4A4" width="2.4" height="2.1"/>
<rect x="399.6" y="310.5" fill="#A4A4A4" width="2.4" height="2.1"/>
</svg>
