<?xml version="1.0" encoding="utf-8"?>
<!-- Generator: Adobe Illustrator 18.0.0, SVG Export Plug-In . SVG Version: 6.00 Build 0)  -->
<!DOCTYPE svg PUBLIC "-//W3C//DTD SVG 1.1//EN" "http://www.w3.org/Graphics/SVG/1.1/DTD/svg11.dtd">
<svg version="1.1" id="Layer_1" xmlns="http://www.w3.org/2000/svg" xmlns:xlink="http://www.w3.org/1999/xlink" x="0px" y="0px"
	 viewBox="0 0 792 612" enable-background="new 0 0 792 612" xml:space="preserve">
<path fill="#676767" d="M383.4,305.8c0.3,0.3,1,0.5,2,0.5l6.1,0l7.9,7.9c0.1,0.1,0.2,0.2,0.4,0.2c0.1,0,0.3-0.1,0.4-0.2l0.7-0.7
	c0.2-0.2,0.2-0.4,0.1-0.7l-4-6.5l7.1,0l1.6,1.6c0.2,0.2,0.6,0.2,0.8,0l0.3-0.3c0.1-0.1,0.2-0.3,0.2-0.5l-0.3-2.2l1.5-1.5
	c0.2-0.2,0.2-0.5,0.1-0.7l-0.3-0.4c-0.2-0.2-0.5-0.3-0.7-0.2l-0.2,0.1l0.1-1c0-0.1,0-0.3-0.1-0.4c-0.1-0.1-0.2-0.2-0.4-0.2l-1-0.1
	c-0.2,0-0.4,0.1-0.5,0.3l-1.3,2.4l-6.7,0l3.1-5.8c0.1-0.2,0.1-0.5-0.1-0.6l-0.8-0.8c-0.1-0.1-0.2-0.2-0.4-0.2
	c-0.1,0-0.3,0.1-0.4,0.2l-6.7,7.2h-5.8c-0.6,0-1,0.3-1.3,0.6c-0.5,0.2-0.8,0.3-1,0.6C383.1,304.9,383,305.5,383.4,305.8z"/>
<g>
	<path fill="none" stroke="#676767" d="M405,295.1c-2.7-2.7-6.3-4.1-9.8-4.1c-3.6,0-7.1,1.4-9.8,4.1c-5.4,5.4-5.4,14.2,0,19.7
		c2.7,2.7,6.3,4.1,9.8,4.1c3.6,0,7.1-1.4,9.8-4.1C410.4,309.4,410.4,300.6,405,295.1z"/>
</g>
</svg>
