<?xml version="1.0" encoding="utf-8"?>
<!-- Generator: Adobe Illustrator 18.0.0, SVG Export Plug-In . SVG Version: 6.00 Build 0)  -->
<!DOCTYPE svg PUBLIC "-//W3C//DTD SVG 1.1//EN" "http://www.w3.org/Graphics/SVG/1.1/DTD/svg11.dtd">
<svg version="1.1" id="Layer_1" xmlns="http://www.w3.org/2000/svg" xmlns:xlink="http://www.w3.org/1999/xlink" x="0px" y="0px"
	 viewBox="0 0 792 612" enable-background="new 0 0 792 612" xml:space="preserve">
<g>
	<path fill="none" stroke="#676767" d="M405.2,295.1c-2.7-2.7-6.3-4.1-9.8-4.1s-7.1,1.4-9.8,4.1c-5.4,5.4-5.4,14.2,0,19.7
		c2.7,2.7,6.3,4.1,9.8,4.1s7.1-1.4,9.8-4.1C410.6,309.4,410.6,300.6,405.2,295.1z"/>
</g>
<path fill="#676767" d="M404.7,297.3V310c0,1.2-1,2.2-2.1,2.2h-14.5c-1.8,0-2.8-0.9-2.8-3.2v-9.3h2.7v-2.5H404.7z M388,301.1h-1.3
	v7.9c0,1.2,0.3,1.7,0.6,1.7c0.4,0,0.7-0.6,0.7-1.7V301.1z M403.3,298.7h-14v10.4c0,0.8-0.2,1.4-0.4,1.8h13.6c0.5,0,0.8-0.5,0.8-0.9
	V298.7z M394.7,303.5h-3.2V303h3.2V303.5z M394.7,304.9h-3.2v-0.5h3.2V304.9z M394.7,306.4h-3.2v-0.5h3.2V306.4z M394.7,307.8h-3.2
	v-0.5h3.2V307.8z M394.7,309.2h-3.2v-0.5h3.2V309.2z M392,300.7h8.4v0.9H392V300.7z M396,303h5.4v5.1H396V303z"/>
</svg>
