<?xml version="1.0" encoding="utf-8"?>
<!-- Generator: Adobe Illustrator 18.0.0, SVG Export Plug-In . SVG Version: 6.00 Build 0)  -->
<!DOCTYPE svg PUBLIC "-//W3C//DTD SVG 1.1//EN" "http://www.w3.org/Graphics/SVG/1.1/DTD/svg11.dtd">
<svg version="1.1" id="Layer_1" xmlns="http://www.w3.org/2000/svg" xmlns:xlink="http://www.w3.org/1999/xlink" x="0px" y="0px"
	 viewBox="0 0 792 612" enable-background="new 0 0 792 612" xml:space="preserve">
<path fill="#676767" d="M404.2,307.7c0,4.9-4,8.9-8.9,8.9s-8.9-4-8.9-8.9c0-3.7,2.2-6.8,5.4-8.2l-2.2-4.9c0-0.5,0.3-0.7,0.8-0.7h10
	c0.4,0,0.8,0.2,0.8,0.7l-2.2,4.9C402,300.9,404.2,304,404.2,307.7z M398.7,305.5l0.2,0.1l1.2-2.5L400,303c-0.2,0.1-0.3,0.2-0.4,0.2
	s-0.2,0-0.3-0.1c-1.7-0.6-2.5-1-3.4-1v-0.5c0-0.2,0.1-0.4,0.5-0.5v-0.2h-2.1v0.2c0.4,0.1,0.4,0.3,0.4,0.5v0.4
	c-2.6,0.1-4.2,1.4-4.2,3.3c0,2,1.1,2.7,4.2,3v2.6c-2.1-0.2-3.2-1-3.2-1.7l-0.2-0.1l-1.1,2.6l0.2,0.1c0.2-0.1,0.2-0.1,0.3-0.1
	c0,0,0.2,0,0.2,0.1c1.3,0.6,2.6,1,3.8,1.1v0.5c0,0.3-0.1,0.4-0.4,0.5v0.2h2.1V314c-0.4-0.1-0.5-0.2-0.5-0.5V313
	c2.6-0.1,4.3-1.5,4.3-3.4s-1.4-2.9-4.1-3.1h-0.3v-2.4c0.6,0,1.3,0.2,1.9,0.5C398.5,304.9,398.7,305.1,398.7,305.5z M394.6,303.9v2.3
	c-1.4-0.1-2-0.2-2-1.1c0-0.2,0.1-0.4,0.3-0.6C393.2,304.1,393.8,304,394.6,303.9z M395.8,308.6c1.6,0.1,2.1,0.2,2.1,1
	s-0.6,1.3-2.1,1.5V308.6z"/>
<g>
	<path fill="none" stroke="#676767" d="M405,295.1c-2.7-2.7-6.3-4.1-9.8-4.1c-3.6,0-7.1,1.4-9.8,4.1c-5.4,5.4-5.4,14.2,0,19.7
		c2.7,2.7,6.3,4.1,9.8,4.1c3.6,0,7.1-1.4,9.8-4.1C410.4,309.4,410.4,300.6,405,295.1z"/>
</g>
</svg>
