<?xml version="1.0" encoding="utf-8"?>
<!-- Generator: Adobe Illustrator 18.0.0, SVG Export Plug-In . SVG Version: 6.00 Build 0)  -->
<!DOCTYPE svg PUBLIC "-//W3C//DTD SVG 1.1//EN" "http://www.w3.org/Graphics/SVG/1.1/DTD/svg11.dtd">
<svg version="1.1" id="Layer_1" xmlns="http://www.w3.org/2000/svg" xmlns:xlink="http://www.w3.org/1999/xlink" x="0px" y="0px"
	 viewBox="0 0 792 612" enable-background="new 0 0 792 612" xml:space="preserve">
<g>
	<path fill="#676767" d="M395.5,294.1c-1.3,0-2.4,0.5-3.3,1.4c-0.9,0.9-1.4,2-1.4,3.4s0.5,2.4,1.4,3.4c0.9,0.9,2,1.4,3.3,1.4
		c1.3,0,2.4-0.5,3.4-1.4c0.9-0.9,1.4-2,1.4-3.4s-0.5-2.4-1.4-3.4C397.9,294.6,396.8,294.1,395.5,294.1z"/>
	<path fill="#676767" d="M404.6,308.7c0-0.4-0.1-0.7-0.2-1c-0.1-0.3-0.2-0.6-0.4-0.8c-0.2-0.2-0.4-0.5-0.7-0.8
		c-0.3-0.3-0.6-0.5-0.9-0.7c-0.2-0.2-0.6-0.4-1.1-0.6c-0.5-0.2-0.8-0.4-1.1-0.5c-0.3-0.1-0.7-0.3-1.2-0.5c-1,0.9-2.2,1.3-3.5,1.3
		c-1.4,0-2.6-0.5-3.7-1.4c-0.6,0.2-1.2,0.5-1.6,0.7c-0.4,0.2-0.9,0.4-1.4,0.7c-0.5,0.3-0.9,0.6-1.2,0.9c-0.3,0.3-0.6,0.7-0.8,1.2
		c-0.2,0.5-0.4,1-0.4,1.5v1.9c2.1,2.7,5.4,4.5,9.1,4.5c3.7,0,6.9-1.7,9-4.4V308.7z"/>
</g>
<g>
	<path fill="none" stroke="#676767" d="M405.5,295.1c-2.7-2.7-6.3-4.1-9.8-4.1c-3.6,0-7.1,1.4-9.8,4.1c-5.4,5.4-5.4,14.2,0,19.7
		c2.7,2.7,6.3,4.1,9.8,4.1c3.6,0,7.1-1.4,9.8-4.1C410.9,309.4,410.9,300.6,405.5,295.1z"/>
</g>
</svg>
