<?xml version="1.0" encoding="utf-8"?>
<!-- Generator: Adobe Illustrator 18.0.0, SVG Export Plug-In . SVG Version: 6.00 Build 0)  -->
<!DOCTYPE svg PUBLIC "-//W3C//DTD SVG 1.1//EN" "http://www.w3.org/Graphics/SVG/1.1/DTD/svg11.dtd">
<svg version="1.1" id="Layer_1" xmlns="http://www.w3.org/2000/svg" xmlns:xlink="http://www.w3.org/1999/xlink" x="0px" y="0px"
	 viewBox="0 0 792 612" enable-background="new 0 0 792 612" xml:space="preserve">
<g>
	<path fill="#676767" d="M399.7,296.6c-1-0.7-2.4-1-4-1c-2.1,0-3.7,0.5-4.8,1.5c-1,0.9-1.6,2.2-1.8,3.7l4.2,0.5
		c0.1-0.9,0.4-1.5,0.7-1.9c0.4-0.4,0.9-0.6,1.5-0.6c0.6,0,1,0.1,1.3,0.4c0.3,0.3,0.4,0.7,0.4,1.2c0,0.5-0.3,1-1,1.6
		c-1.2,1-2,1.7-2.3,2.1c-0.3,0.4-0.6,0.8-0.7,1.2c-0.2,0.5-0.2,1.1-0.2,1.8v0.2h4.1c0-0.6,0.1-1,0.3-1.4c0.2-0.4,0.7-0.9,1.6-1.6
		c1.1-0.9,1.9-1.6,2.2-2.2c0.3-0.6,0.5-1.2,0.5-1.8C401.7,298.7,401.1,297.5,399.7,296.6z"/>
	<circle fill="#676767" cx="395.2" cy="311.1" r="2.2"/>
</g>
<g>
	<path fill="none" stroke="#676767" d="M405.2,295.1c-2.7-2.7-6.3-4.1-9.8-4.1s-7.1,1.4-9.8,4.1c-5.4,5.4-5.4,14.2,0,19.7
		c2.7,2.7,6.3,4.1,9.8,4.1s7.1-1.4,9.8-4.1C410.6,309.4,410.6,300.6,405.2,295.1z"/>
</g>
</svg>
