<?xml version="1.0" encoding="utf-8"?>
<!-- Generator: Adobe Illustrator 18.0.0, SVG Export Plug-In . SVG Version: 6.00 Build 0)  -->
<!DOCTYPE svg PUBLIC "-//W3C//DTD SVG 1.1//EN" "http://www.w3.org/Graphics/SVG/1.1/DTD/svg11.dtd">
<svg version="1.1" id="Layer_1" xmlns="http://www.w3.org/2000/svg" xmlns:xlink="http://www.w3.org/1999/xlink" x="0px" y="0px"
	 viewBox="0 0 792 612" enable-background="new 0 0 792 612" xml:space="preserve">
<path fill="#676767" d="M445.1,946.3c1.4,3,2.8,5.9,4.1,8.9c-8,0-11.3,8.6-19.8,9.2c-1.4-3-2.8-5.9-4.1-8.9
	C433.2,955.5,437.1,946.3,445.1,946.3z M430.5,962.8c2.3-0.4,4.2-1.5,6-2.9c-1-0.4-1.8-1.2-2.3-2.2c-0.5-1.1-0.6-2.3-0.4-3.6
	c-1.8,1.3-3.8,2.5-6,2.9C428.7,958.9,429.6,960.8,430.5,962.8z M431.4,959.2c0-0.1-0.1-0.1-0.1-0.2c-0.3,0-0.6,0-0.9,0
	c0,0.2,0.1,0.3,0.2,0.5C430.9,959.4,431.1,959.3,431.4,959.2z M431.4,958.4c-0.2-0.2-0.4-0.3-0.7-0.5c-0.1,0.1-0.2,0.2-0.2,0.4
	c0.3,0.1,0.6,0.2,0.8,0.3C431.4,958.6,431.4,958.5,431.4,958.4z M431.8,959.6c-0.1,0-0.2-0.1-0.2-0.1c-0.2,0.2-0.4,0.4-0.6,0.6
	c0.1,0.1,0.3,0.2,0.5,0.2C431.6,960,431.7,959.8,431.8,959.6z M431.8,957.3c-0.2,0-0.3,0.1-0.5,0.1c0.1,0.2,0.1,0.2,0.2,0.4
	c-0.1-0.2-0.1-0.2-0.2-0.4c0.1,0.3,0.2,0.5,0.4,0.8c0.1-0.1,0.1-0.1,0.2-0.1C431.9,957.9,431.8,957.6,431.8,957.3z M432.3,959.5
	c-0.1,0-0.1,0.1-0.2,0.1c0,0.3,0.1,0.6,0.1,0.9c0.2,0,0.3-0.1,0.5-0.1C432.5,960,432.4,959.8,432.3,959.5z M432.9,957.6
	c-0.1-0.1-0.3-0.2-0.4-0.2c-0.1,0.3-0.2,0.5-0.3,0.8c0.1,0,0.1,0.1,0.2,0.1C432.6,958.1,432.8,957.8,432.9,957.6z M433.5,959.4
	c-0.3-0.1-0.6-0.2-0.8-0.3c0,0.1-0.1,0.2-0.1,0.2c0.2,0.2,0.5,0.3,0.7,0.5C433.3,959.7,433.4,959.5,433.5,959.4z M433.4,958.1
	C433.4,958.1,433.4,958.1,433.4,958.1c-0.3,0.2-0.5,0.3-0.8,0.4c0,0,0,0,0,0c0.1,0.1,0.1,0.1,0.1,0.2c0.3-0.1,0.6-0.1,0.8-0.2
	C433.5,958.4,433.5,958.3,433.4,958.1z M443.9,948c-2.3,0.4-4.2,1.5-6,2.9c1.1,0.4,1.8,1.3,2.3,2.2c0.5,1.1,0.6,2.3,0.4,3.6
	c1.8-1.4,3.8-2.5,6.1-2.9C445.7,951.9,444.9,949.9,443.9,948z M441.2,951.2c-0.2,0.1-0.3,0.1-0.4,0.2c0.3,0.7,0.6,1.3,0.9,2
	c0.2-0.1,0.2-0.2,0.4-0.2C441.8,952.5,441.5,951.8,441.2,951.2z M442.1,950.7c-0.2,0.1-0.2,0.1-0.4,0.2c0.3,0.6,0.6,1.3,0.9,2
	c0.2-0.1,0.2-0.1,0.4-0.2C442.8,952,442.4,951.3,442.1,950.7z M443.1,950.3c-0.2,0.1-0.2,0.1-0.4,0.2c0.3,0.6,0.6,1.3,0.9,1.9
	c0.2-0.1,0.3-0.1,0.4-0.2C443.7,951.6,443.4,950.9,443.1,950.3z"/>
<g>
	<path fill="none" stroke="#676767" d="M447.5,946.1c-2.7-2.7-6.3-4.1-9.8-4.1c-3.6,0-7.1,1.4-9.8,4.1c-5.4,5.4-5.4,14.2,0,19.7
		c2.7,2.7,6.3,4.1,9.8,4.1c3.6,0,7.1-1.4,9.8-4.1C452.9,960.4,452.9,951.6,447.5,946.1z"/>
</g>
<path fill="#676767" d="M403.1,295.3c1.4,3,2.8,5.9,4.1,8.9c-8,0-11.3,8.6-19.8,9.2c-1.4-3-2.8-5.9-4.1-8.9
	C391.2,304.5,395.1,295.3,403.1,295.3z M388.5,311.8c2.3-0.4,4.2-1.5,6-2.9c-1-0.4-1.8-1.2-2.3-2.2c-0.5-1.1-0.6-2.3-0.4-3.6
	c-1.8,1.3-3.8,2.5-6,2.9C386.7,307.9,387.6,309.8,388.5,311.8z M389.4,308.2c0-0.1-0.1-0.1-0.1-0.2c-0.3,0-0.6,0-0.9,0
	c0,0.2,0.1,0.3,0.2,0.5C388.9,308.4,389.1,308.3,389.4,308.2z M389.4,307.4c-0.2-0.2-0.4-0.3-0.7-0.5c-0.1,0.1-0.2,0.2-0.2,0.4
	c0.3,0.1,0.6,0.2,0.8,0.3C389.4,307.6,389.4,307.5,389.4,307.4z M389.8,308.6c-0.1,0-0.2-0.1-0.2-0.1c-0.2,0.2-0.4,0.4-0.6,0.6
	c0.1,0.1,0.3,0.2,0.5,0.2C389.6,309,389.7,308.8,389.8,308.6z M389.8,306.3c-0.2,0-0.3,0.1-0.5,0.1c0.1,0.2,0.1,0.2,0.2,0.4
	c-0.1-0.2-0.1-0.2-0.2-0.4c0.1,0.3,0.2,0.5,0.4,0.8c0.1-0.1,0.1-0.1,0.2-0.1C389.9,306.9,389.8,306.6,389.8,306.3z M390.3,308.5
	c-0.1,0-0.1,0.1-0.2,0.1c0,0.3,0.1,0.6,0.1,0.9c0.2,0,0.3-0.1,0.5-0.1C390.5,309,390.4,308.8,390.3,308.5z M390.9,306.6
	c-0.1-0.1-0.3-0.2-0.4-0.2c-0.1,0.3-0.2,0.5-0.3,0.8c0.1,0,0.1,0.1,0.2,0.1C390.6,307.1,390.8,306.8,390.9,306.6z M391.5,308.4
	c-0.3-0.1-0.6-0.2-0.8-0.3c0,0.1-0.1,0.2-0.1,0.2c0.2,0.2,0.5,0.3,0.7,0.5C391.3,308.7,391.4,308.5,391.5,308.4z M391.4,307.1
	C391.4,307.1,391.4,307.1,391.4,307.1c-0.3,0.2-0.5,0.3-0.8,0.4c0,0,0,0,0,0c0.1,0.1,0.1,0.1,0.1,0.2c0.3-0.1,0.6-0.1,0.8-0.2
	C391.5,307.4,391.5,307.3,391.4,307.1z M401.9,297c-2.3,0.4-4.2,1.5-6,2.9c1.1,0.4,1.8,1.3,2.3,2.2c0.5,1.1,0.6,2.3,0.4,3.6
	c1.8-1.4,3.8-2.5,6.1-2.9C403.7,300.9,402.9,298.9,401.9,297z M399.2,300.2c-0.2,0.1-0.3,0.1-0.4,0.2c0.3,0.7,0.6,1.3,0.9,2
	c0.2-0.1,0.2-0.2,0.4-0.2C399.8,301.5,399.5,300.8,399.2,300.2z M400.1,299.7c-0.2,0.1-0.2,0.1-0.4,0.2c0.3,0.6,0.6,1.3,0.9,2
	c0.2-0.1,0.2-0.1,0.4-0.2C400.8,301,400.4,300.3,400.1,299.7z M401.1,299.3c-0.2,0.1-0.2,0.1-0.4,0.2c0.3,0.6,0.6,1.3,0.9,1.9
	c0.2-0.1,0.3-0.1,0.4-0.2C401.7,300.6,401.4,299.9,401.1,299.3z"/>
<g>
	<path fill="none" stroke="#676767" d="M405.5,295.1c-2.7-2.7-6.3-4.1-9.8-4.1c-3.6,0-7.1,1.4-9.8,4.1c-5.4,5.4-5.4,14.2,0,19.7
		c2.7,2.7,6.3,4.1,9.8,4.1c3.6,0,7.1-1.4,9.8-4.1C410.9,309.4,410.9,300.6,405.5,295.1z"/>
</g>
</svg>
