<?xml version="1.0" encoding="utf-8"?>
<!-- Generator: Adobe Illustrator 18.0.0, SVG Export Plug-In . SVG Version: 6.00 Build 0)  -->
<!DOCTYPE svg PUBLIC "-//W3C//DTD SVG 1.1//EN" "http://www.w3.org/Graphics/SVG/1.1/DTD/svg11.dtd">
<svg version="1.1" id="Layer_1" xmlns="http://www.w3.org/2000/svg" xmlns:xlink="http://www.w3.org/1999/xlink" x="0px" y="0px"
	 viewBox="0 0 792 612" enable-background="new 0 0 792 612" xml:space="preserve">
<path fill="#C1C1C0" stroke="#FFFFFF" stroke-width="0.5318" stroke-miterlimit="10" d="M477.6,356c0.1,0.1,0.2,0.1,0.3,0.2
	c0,0,0,0,0,0.1c0.6,9.5,1.2,19.1,1.8,28.6c0,0,0,0,0.1,0.1c0.1,0,0.3,0,0.5,0.1c0.2,0.2,0.1,0.4,0.2,0.7c0.1,0.9,0.1,1.8,0.1,2.8
	c0.1,2.4,0.2,4.7,0.3,7.1c0,0.3,0.1,0.7,0.1,1c0,0.2,0,0.5,0,0.7c-0.2,0-0.3,0.1-0.4,0.1c-2.8,0.2-5.6,0.3-8.4,0.5
	c-2.2,0.1-4.5,0.3-6.7,0.5c-1.1,0.1-2.1,0.1-3.2,0.2c-2.8,0.1-5.5,0.2-8.3,0.4c-2,0.1-4,0.2-6,0.3c-1.7,0.1-3.5,0.1-5.2,0.2
	c-0.2,0-0.5,0-0.7,0c-0.2-0.2-0.2-0.4-0.2-0.7c-0.1-1.4-0.1-2.9-0.2-4.3c0-0.6,0-1.1-0.2-1.7c-0.1-0.4-0.1-0.8-0.1-1.1
	c-0.1-2.8-0.2-5.6-0.4-8.4c-0.1-1.5-0.2-3.1-0.2-4.6c-0.1-2.6-0.2-5.2-0.3-7.8c-0.1-1.7-0.2-3.4-0.2-5c0-0.1,0-0.3,0-0.5
	c-0.2,0-0.4,0-0.6,0c-1.7,0.1-3.5,0.1-5.2,0.2c-1.7,0.1-3.4,0.1-5,0.2c-0.6,0-1.2,0.1-1.8,0.2c-0.6,0-1.2,0-1.8,0.1
	c-1.4,0.1-2.9,0.1-4.3,0.2c-0.2,0-0.3,0-0.5,0c-0.1-0.4-0.1-0.8-0.1-1.2c0-0.4,0-0.8-0.1-1.2c0-0.4,0-0.8,0-1.2c0-0.4,0-0.8,0-1.2
	s0-0.8,0-1.2c0-0.4,0-0.8,0-1.2c0.1-0.1,0.2-0.1,0.3-0.3c-0.1-1.9-0.2-3.9-0.2-5.8c-0.1-1.9-0.2-3.9-0.2-5.8c0.4,0,0.7-0.1,1-0.1
	c0.2-0.2,0.1-0.4,0.1-0.6c-0.1-1.7-0.1-3.4-0.2-5.1c-0.1-2.6-0.2-5.3-0.3-7.9c-0.1-1.6-0.1-3.1-0.2-4.7c0-0.8-0.1-1.6-0.2-2.3
	c0-0.8-0.1-1.6-0.1-2.4c0-0.1,0-0.3,0-0.4c0.7-0.1,1.3-0.1,1.9-0.1c0.6,0,1.2-0.1,1.9-0.1c0-0.2,0.1-0.3,0.1-0.5c0-1,0-1.9-0.1-2.9
	c-0.1-2.5-0.2-5.1-0.3-7.6c0-0.2,0-0.5,0-0.7c0.1,0,0.3-0.1,0.4-0.1c2.5-0.1,4.9-0.2,7.4-0.3c2.2,0,4.4-0.2,6.7-0.4
	c1-0.1,2-0.1,3-0.2c2.7-0.1,5.5-0.2,8.2-0.4c1.8-0.1,3.6-0.2,5.4-0.3c0.2-0.1,0.2-0.3,0.1-0.5c0-1-0.1-2-0.1-3c0-0.1,0-0.2,0-0.4
	c0.1,0,0.3-0.1,0.4-0.1c0.3,0,0.6,0,0.8-0.1c1.8-0.1,3.5-0.2,5.3-0.3c0.3,0,0.5-0.1,0.7,0.2c0,0.1,0.2,0.1,0.3,0.1
	c0.4,0,0.8,0,1.2,0c1.9-0.1,3.8-0.2,5.7-0.3c1.3-0.1,2.6-0.1,3.9-0.2c0.2,0,0.3,0,0.5,0c0,0.1,0.1,0.3,0.1,0.4
	c0.1,1.9,0.2,3.8,0.3,5.7c0.1,1.5,0.2,3.1,0.3,4.6c0,0.8-0.1,1.5,0,2.3c0.2,2.3,0.3,4.6,0.4,6.9c0.1,2,0.2,4,0.3,6
	c0.1,1.7,0.2,3.3,0.3,5c0,0.1,0,0.2,0,0.3c0.2,0.6,0.2,1.3,0.2,1.9c0.1,2.2,0.3,4.5,0.4,6.7c0.1,1.3,0.1,2.5,0.2,3.8
	c0.1,2.4,0.3,4.7,0.4,7.1C477.5,355.8,477.5,355.9,477.6,356z"/>
<path fill="#C1C1C0" stroke="#FFFFFF" stroke-width="0.5318" stroke-miterlimit="10" d="M474.3,295.4c0.4,0,0.8-0.1,1.2-0.1
	c0-0.2,0.1-0.4,0.1-0.6c0.4-0.2,0.8-0.1,1.2-0.2c0.1-0.4,0-0.7,0-1.2c0.2-0.1,0.4-0.1,0.6-0.2c0-0.2,0.1-0.3,0.1-0.5
	c0.2,0,0.3-0.1,0.5-0.1c0-0.2,0.1-0.4,0.1-0.6c0.2,0,0.3-0.1,0.5-0.1c0.1-0.4,0.2-0.8,0.2-1.2c0.1,0,0.2-0.1,0.4-0.2
	c0-0.1,0-0.3,0.1-0.5c0.2-0.1,0.4-0.1,0.6-0.2c0-0.2,0-0.4,0-0.7c0.1,0,0.2-0.1,0.2-0.1c0.1,0,0.2-0.1,0.3-0.1c0-0.3,0-0.7,0-1
	c0.2-0.1,0.4-0.1,0.6-0.2c0-0.2,0.1-0.3,0.1-0.6c0.4,0,0.8-0.1,1.2-0.1c0-0.2,0.1-0.4,0.1-0.6c0.1,0,0.2-0.1,0.3-0.1
	c3.8-0.3,7.6-0.5,11.3-0.8c0.1,0,0.2,0,0.3,0c0,0.2,0.1,0.3,0.1,0.5c0.2,0,0.3,0,0.6,0.1c0.1,0.2,0.1,0.4,0.2,0.6c0.4,0,0.8,0,1.2,0
	c0.1,0.2,0.1,0.3,0.2,0.5c0.2,0,0.3,0,0.5,0.1c0.1,0.2,0.1,0.4,0.2,0.6c0.2,0,0.4,0,0.6,0c0,0.1,0.1,0.1,0.1,0.2
	c0.1,0.9,0.1,1.7,0.2,2.6c0,0.3,0,0.7,0.2,1c1.4,0,2.8-0.2,4.2-0.3c1.4-0.1,2.8-0.2,4.1-0.3c0.3,0.4,0.6,0.7,0.9,1
	c0.3,0.3,0.7,0.6,1.1,0.8c0.4,0.2,0.8,0.1,1.2-0.1c0.1-0.1,0.2-0.2,0.3-0.4c0.1-0.3,0.3-0.5,0.6-0.6c0.2,0,0.4,0.2,0.4,0.4
	c0.1,0.4,0.4,0.7,0.7,0.9c0.3,0.2,0.4,0.4,0.6,0.7c0.2,0.3,0.5,0.2,0.6-0.1c0.1-0.2,0.1-0.4,0.2-0.5c0,0,0.1-0.1,0.1-0.1
	c0.5,0.2,1.1-0.1,1.7,0.1c0,0.5,0.1,0.9,0.1,1.3c0,0.7,0.1,0.8,0.8,0.9c0.2,0,0.4-0.1,0.6-0.1c0.3,0.2,0.6,0.3,0.8,0.5
	c0.3,0.2,0.5,0.6,0.4,1c-0.1,0.2-0.2,0.3-0.3,0.5c-0.1,0.1-0.2,0.2-0.2,0.3c0,0.4-0.2,0.6-0.4,0.9c-0.1,0.1-0.1,0.3-0.1,0.5
	c0,0.3-0.2,0.6-0.6,0.7c-0.2,0.1-0.4,0.1-0.5,0.1c-0.3,0.1-0.4,0.3-0.4,0.6c0.1,0.5,0.1,1,0.2,1.5c0.3,0.2,0.6,0.3,0.9,0.5
	c0.5,0.4,0.6,0.6,0.4,1.2c0,0.1-0.1,0.2-0.1,0.3c0.1,0.2,0.2,0.4,0.3,0.6c0,0.1-0.1,0.1-0.1,0.1c-0.2,0-0.4,0.1-0.4,0.3
	c-0.1,0.3-0.2,0.4-0.4,0.5c-0.1,0-0.1,0.1-0.2,0.1c-0.2,0.2-0.1,0.5,0.1,0.6c0.1,0,0.2,0.1,0.3,0.1c0,0.1,0,0.2-0.1,0.3
	c-0.1,0.3-0.1,0.5,0.1,0.7c0.2,0.2,0.1,0.4-0.1,0.5c-0.1,0.1-0.2,0.1-0.4,0.2c0,0.1,0,0.2,0,0.2c0.2,0.4,0.2,0.8,0.1,1.2
	c-0.1,0.2,0,0.5-0.1,0.7c-0.1,0-0.2,0.1-0.4,0.1c-0.2,0.1-0.4,0.1-0.5,0.2c-0.3,0.2-0.3,0.4-0.1,0.6c0,0,0.1,0.1,0.2,0.2
	c-0.1,0-0.2,0.1-0.3,0.1c-0.3,0.2-0.4,0.6-0.1,0.9c0.1,0.1,0.1,0.1,0.2,0.2c-0.2,0.8,0,1.6,0,2.3c0.2,2.6,0.4,5.2,0.5,7.9
	c0.2,2.2,0.3,4.4,0.5,6.7c0.1,1.6,0.2,3.2,0.3,4.8c0.1,1.7,0.2,3.3,0.4,5c0.1,0.8,0.1,1.6,0.2,2.3c0.2,2.3,0.3,4.6,0.5,6.9
	c0.2,2.9,0.4,5.8,0.6,8.7c0.2,2.4,0.3,4.8,0.5,7.2c0.2,2.3,0.3,4.6,0.5,6.9c0.1,1.7,0.2,3.3,0.3,5c0.1,1.6,0.2,3.2,0.3,4.7
	c0.1,1.7,0.2,3.5,0.4,5.2c0.1,1.6,0.2,3.2,0.3,4.8c0.1,1.1,0.1,2.2,0.2,3.3c0,0.2,0,0.4,0,0.5c-0.2,0.2-0.5,0.2-0.7,0.2
	c-2,0.1-3.9,0.3-5.9,0.4c-0.8,0.1-1.6,0.1-2.3,0.2c-2.4,0.2-4.7,0.3-7.1,0.5c-2.3,0.2-4.6,0.3-6.9,0.5c-1.7,0.1-3.5,0.2-5.2,0.3
	c-2.1,0.1-4.2,0.3-6.2,0.4c-1.5,0.1-3,0.2-4.5,0.3c0,0-0.1,0-0.2,0c0-0.1-0.1-0.3-0.1-0.4c-0.1-2.8-0.3-5.6-0.4-8.4
	c-0.1-1.1-0.1-2.1-0.2-3.2c0-0.2,0-0.4-0.1-0.6c-0.2,0-0.4-0.1-0.6-0.1c-0.2-1.9-0.2-3.8-0.4-5.7c-0.1-1.9-0.2-3.8-0.3-5.7
	c-0.1-1.9-0.2-3.8-0.3-5.7c-0.1-1.9-0.2-3.8-0.4-5.7c-0.1-1.9-0.2-3.8-0.3-5.8c-0.1-0.1-0.3-0.1-0.4-0.2c0-0.1,0-0.1,0-0.2
	c-0.1-1.6-0.2-3.2-0.3-4.7c-0.1-2.3-0.3-4.5-0.4-6.8c-0.1-1-0.1-1.9-0.2-2.9c-0.1-1.3-0.1-2.6-0.2-3.8c0-0.4,0-0.9-0.2-1.3
	c0-0.1,0-0.2,0-0.4c-0.1-1.7-0.2-3.4-0.3-5.2c-0.1-2.1-0.3-4.3-0.4-6.4c-0.1-1-0.1-1.9-0.2-2.9c-0.1-1-0.1-2.1-0.2-3.1
	c0-0.4-0.1-0.8,0-1.3c0-0.1,0-0.2,0-0.4c-0.1-2.2-0.2-4.4-0.4-6.7c-0.2-3.2-0.4-6.4-0.6-9.6c0-0.7-0.1-1.4-0.1-2.1
	c0-0.4-0.1-0.8-0.2-1.2C474.2,296.4,474.2,295.9,474.3,295.4z"/>
<path fill="#D4EDEF" stroke="#FFFFFF" stroke-width="0.5318" stroke-miterlimit="10" d="M389.6,367.2c-0.9,0-1.7,0-2.4,0
	c-0.5,0-1,0.1-1.5-0.1c-0.1,0-0.2,0-0.3,0c-1.9,0-3.8,0.1-5.7,0.1c-1.6,0-3.1,0.1-4.7,0.1c-0.3,0-0.6,0-1-0.1c0-0.4-0.1-0.8-0.1-1.2
	c-0.1-4.2-0.2-8.4-0.2-12.6c0-4-0.1-7.9-0.2-11.9c0-0.5,0-0.9,0-1.5c0.1-0.1,0.3-0.1,0.5-0.2c0.1-0.2,0-0.5,0-0.7
	c0-2.1-0.1-4.3-0.1-6.4c0-1.3-0.1-2.6-0.1-3.8c0-0.2,0-0.4,0-0.7c0.2,0,0.4-0.1,0.6-0.1c3.4-0.1,6.9-0.2,10.3-0.3c1.4,0,2.8,0,4.2,0
	c3.9-0.1,7.8-0.2,11.6-0.3c1.3,0,2.6-0.1,3.9-0.1c0.1,0,0.3,0,0.3,0c0.3,0.2,0.7,0.1,1,0.1c1,0,2-0.1,3.1-0.1c0.5,0,0.9,0,1.4,0
	c2.8-0.1,5.7-0.2,8.5-0.3c0.4,0,0.8,0,1.1-0.1c0.3,0,0.5,0,0.8,0c0,0.1,0.1,0.3,0.1,0.4c0,0.5,0.1,1.1,0.1,1.6
	c0.1,3.7,0.2,7.3,0.3,11c0.1,1.8,0.1,3.6,0.2,5.5c0,0.2,0,0.4,0,0.6c-0.3,0.2-0.7,0.1-1.1,0.2c0,0.1,0,0.3,0,0.4
	c0.1,2.2,0.1,4.4,0.2,6.5c0.1,1.5,0.1,3,0.2,4.5c0,0.1,0,0.1,0,0.2c-0.1,0.1-0.2,0.2-0.4,0.3c0.1,2.6,0.2,5.2,0.3,7.7
	c0.2,0.2,0.4,0.1,0.6,0.1c1.8-0.1,3.6-0.1,5.5-0.2c1.4-0.1,2.8-0.2,4.2-0.2c2.7-0.1,5.4-0.2,8.1-0.4c0.3,0,0.6,0,0.9,0
	c0,0.2,0.1,0.3,0.1,0.4c0.1,2.1,0.2,4.2,0.3,6.3c0.1,1.4,0.2,2.9,0.2,4.3c0.1,1.3,0.1,2.6,0.2,3.8c0.1,1.5,0.1,3.1,0.2,4.6
	c0.1,2.4,0.2,4.8,0.3,7.2c0,0.4,0,0.8,0.2,1.1c0,0.1,0,0.2,0,0.3c0.1,1.7,0.1,3.5,0.2,5.3c0,0.1,0,0.2,0,0.3c-0.2,0-0.3,0.1-0.5,0.1
	c-0.7,0-1.4,0-2.1,0.1c-3.3,0.1-6.6,0.2-9.9,0.3c-1.6,0.1-3.3,0.1-4.9,0.2c-3.7,0.2-7.4,0.3-11.1,0.5c-3.3,0.2-6.6,0.2-9.9,0.3
	c-1.4,0-2.8,0.1-4.2,0.1c-2,0.1-4,0.1-6,0.1c-0.6,0-1.3,0-1.9,0.1c-0.1,0-0.3,0-0.4,0c0-0.2-0.1-0.3-0.1-0.5
	c-0.1-3.3-0.2-6.7-0.3-10c-0.1-3.1-0.2-6.2-0.3-9.3c-0.1-4.4-0.3-8.7-0.4-13.1C389.7,367.9,389.6,367.6,389.6,367.2z"/>
<path fill="#A3DAD9" stroke="#FFFFFF" stroke-width="0.5318" stroke-miterlimit="10" d="M343,401.3c0-0.3,0-0.5-0.1-0.7
	c0-1.3,0-2.6-0.1-3.8c0-0.5,0.1-1,0.1-1.5c0-3.6-0.1-7.2-0.1-10.8c0-1.2,0-2.4,0-3.5c0-0.7,0.1-1.3,0.1-2c0-5.9-0.1-11.9-0.1-17.8
	c0-2.3,0-4.6,0-7c0-0.2,0-0.3,0-0.5c1.2-0.1,2.3,0,3.4-0.1c1.1,0,2.3,0,3.4,0c0.1-0.2,0.1-0.3-0.1-0.3c-0.1-0.1-0.3-0.2-0.4-0.2
	c-0.2-0.3,0-0.5,0.1-0.8c0.1-0.2,0.2-0.3,0.2-0.4c-0.1-0.4,0.1-0.7,0.3-1c0.2-0.3,0.3-0.7,0.3-1.1c0.3-0.2,0.4-0.5,0.4-0.8
	c0-0.1,0-0.3,0.1-0.4c0.3-0.4,0.3-0.9,0.5-1.4c0-0.1,0-0.2,0-0.3c0.3-0.2,0.6-0.4,0.7-0.8c0-0.1,0.2-0.2,0.3-0.3
	c0.1-0.1,0.2-0.1,0.2-0.2c0.1-0.4,0.4-0.6,0.7-0.8c-0.1-0.2-0.3-0.4-0.3-0.6c-0.1-0.2-0.3-0.4-0.5-0.5c-0.4-0.2-0.4-0.4-0.3-0.7
	c0-0.1,0.1-0.1,0.1-0.2c0-0.1,0.1-0.1,0.1-0.2c-0.1-0.2-0.3-0.4-0.5-0.6c0.2-0.4,0.2-0.9-0.1-1.3c-0.1-0.2-0.2-0.4-0.2-0.6
	c-0.1,0-0.2,0-0.3-0.1c-0.2-0.2-0.5-0.5-0.7-0.7c-0.2-0.2-0.3-0.4-0.2-0.6c0.1-0.4-0.1-0.6-0.3-0.7c-0.3-0.2-0.5-0.4-0.6-0.7
	c-0.1-0.2-0.2-0.4-0.5-0.4c-0.1,0-0.1-0.1-0.2-0.1c-0.1-0.2-0.4-0.3-0.6-0.3c-0.3,0-0.5-0.2-0.7-0.4c0-0.1,0.1-0.2,0.1-0.4
	c0.2-0.5,0.3-0.9,0.4-1.4c0.1-0.8,0.1-0.8-0.5-1.3c0.2-0.4,0.2-0.9,0.4-1.4c0.1-0.1,0.2-0.3,0.3-0.4c0.3-0.1,0.5-0.3,0.6-0.6
	c0.1-0.2,0.3-0.3,0.6-0.3c0.2,0.1,0.4,0,0.5-0.2c0.4-0.5,1-0.8,1.6-1.1c0.5-0.3,1.1-0.4,1.7-0.4c2.7,0,5.4-0.1,8.2-0.1
	c3.8-0.1,7.7-0.1,11.5-0.2c0.3,0,0.7,0,1,0c0.2,0.3,0.1,0.5,0.1,0.7c0.1,2.9,0.1,5.8,0.2,8.7c0,0.4,0,0.9,0,1.3c0,0.2,0,0.4,0,0.6
	c-0.2,0.1-0.3,0.1-0.5,0.2c0.2,9.1,0.2,18.2,0.5,27.3c0,0.1,0,0.3,0.1,0.4c0.2,0,0.4,0,0.6,0c3.3-0.1,6.7-0.1,10-0.2
	c1.6,0,3.2,0,4.8,0c0.2,0.2,0.1,0.4,0.1,0.6c0,1.6,0.1,3.2,0.1,4.8c0,1.7,0.1,3.4,0.1,5c0.1,3.3,0.2,6.7,0.3,10
	c0.1,3.4,0.2,6.9,0.3,10.3c0,0.8,0.1,1.5,0.1,2.3c0,0.2,0,0.4,0,0.6c-0.2,0-0.3,0.1-0.5,0.1c-2.1,0-4.1,0.1-6.2,0.1
	c-1.7,0-3.4,0-5,0c-3.2,0-6.5,0.1-9.7,0.1c-2.7,0-5.3,0-8,0c-1.8,0-3.6,0-5.5,0c-2.7,0-5.3,0-8-0.1c-1.1,0-2.2,0-3.3,0
	C343.7,401.3,343.4,401.3,343,401.3z"/>
<path fill="#C1C1C0" stroke="#FFFFFF" stroke-width="0.5318" stroke-miterlimit="10" d="M295.7,344.7c-0.7,0-1.3,0-2-0.1
	c-0.1-0.9,0-1.7,0-2.6c0-0.9,0-1.8,0-2.6c0-0.8,0-1.7,0-2.6c-0.3-0.1-0.6-0.1-0.9-0.1c-0.3,0-0.5,0-0.8,0c0-0.2-0.1-0.3-0.1-0.4
	c0-0.8,0-1.7,0-2.5c0-0.3,0-0.5,0-0.8c-0.6-0.3-1.3,0-1.9-0.2c0-1.3,0-2.6,0-4c-0.1,0-0.3-0.1-0.4-0.1c-1,0-2-0.1-3-0.1
	c-2-0.1-4-0.1-6-0.1c-0.4,0-0.8,0-1.1,0c-0.3,0-0.5,0.1-0.8-0.1c0-0.1,0-0.2,0-0.2c0.7-3.6,1.3-7.2,2-10.8c0.1,0,0.3-0.1,0.4-0.1
	c0.7,0,1.5-0.1,2.2,0c1.3,0.2,2.6,0,3.9,0.1c0.2,0,0.5,0,0.7-0.2c0.1-0.1,0.3,0,0.6,0c0-0.5,0-0.9,0-1.3c0.1-0.1,0.2-0.1,0.2-0.1
	c0.6,0,1-0.3,1.5-0.6c0,0,0.1-0.1,0.1-0.1c0.6-0.3,1-0.6,1.4-1.2c0-0.1,0.2-0.1,0.3-0.1c0.1,0,0.3,0,0.4,0c1,0,1.9,0,2.9,0
	c0.1,0.1,0.2,0.2,0.3,0.4c0.4,0,0.8,0.1,1.3,0.1c0.1,0.2,0.1,0.4,0.2,0.6c0.4,0,0.7,0.1,1.1,0.1c0.2,0.4,0,0.8,0.2,1.2
	c0.4,0,0.8,0.1,1.2,0.1c0,0.3,0.1,0.6,0.1,0.9c0.5,0.1,1,0,1.5,0.1c0.2,0.2,0.1,0.4,0.1,0.5c0,0.4,0,0.7,0,1
	c0.2,0.2,0.4,0.1,0.5,0.1c0.4,0,0.8,0,1.3,0c0,0.3,0.1,0.5,0.1,0.8c0.4,0.2,0.8,0.1,1.3,0.1c0.4,0,0.9,0,1.3,0c0.4,0,0.8,0,1.3,0
	c0,0.4,0.1,0.8,0.1,1.3c0.8,0.1,1.5,0,2.3,0.1c0.7,0,1.5,0,2.2,0c0.8,0,1.5,0,2.2,0c0.2,0.3,0.1,0.5,0.1,0.7c0,2.1,0,4.2,0,6.2
	c0,0.3,0,0.5,0,0.8c0.3,0,0.6,0.1,0.9,0.1c0.2,0.5,0.1,0.9,0.1,1.4c0,0.5,0,0.9,0,1.4c0.1,0,0.2,0.1,0.3,0.1c1.2,0,2.4,0.1,3.5,0
	c1.3-0.1,2.5-0.1,3.8-0.2c1.3,0,2.7,0,4,0c0.1,0,0.2,0,0.4,0.1c0.1,0.5,0.1,1,0.1,1.6c0,0.5,0,1,0,1.6c0,0.5,0,1,0,1.6
	c0.2,0,0.3,0.1,0.4,0.1c1.3,0,2.6-0.1,4-0.1c0.2,0,0.3,0,0.5,0c4.8,0,9.7-0.1,14.5-0.1c0.3,0,0.5,0,0.8,0.1c0.2,0.1,0.4,0,0.6,0.1
	c0.1,0.3,0.3,0.6,0.7,0.5c0.3,0.3,0.5,0.6,0.9,0.9c0,0,0,0.2,0,0.3c0.1,0.4,0.2,0.7,0.5,0.9c0.2,0.1,0.3,0.3,0.5,0.4
	c-0.1,0.2-0.1,0.4-0.1,0.5c0.2,0.2,0.3-0.1,0.6,0.1c0.2,0.2,0.4,0.6,0.2,1.1c-0.1,0.2,0,0.4,0.1,0.6c0.1,0.1,0.2,0.1,0.3,0.2
	c-0.1,0.2-0.1,0.3-0.2,0.4c-0.2,0.5,0,0.8,0.4,1.1c0.3,0.1,0.4,0.4,0.5,0.7c-0.3,0.3-0.5,0.7-0.9,1.1c-0.3,0.3-0.6,0.7-1,0.9
	c0.1,0.7,0,1.3-0.4,1.8c-0.1,0.1-0.2,0.3-0.1,0.4c0.1,0.4-0.1,0.6-0.4,0.7c0,0.2,0,0.4,0,0.5c0,0.1,0,0.3-0.1,0.4
	c-0.3,0.4-0.4,0.8-0.4,1.2c0,0.1,0,0.1,0,0.2c-0.2,0.4-0.3,0.8-0.3,1.3c-1.1,0.2-2.1,0.1-3.1,0.1c-1,0-2,0-3.1,0
	c0,0.2-0.1,0.4-0.1,0.5c0,0.7,0,1.4,0,2.1c0,0.2,0,0.4,0,0.6c-1.3,0.1-2.6,0-3.8,0.1c0,0.2-0.1,0.3-0.1,0.5c-0.2,0-0.3,0.1-0.5,0.1
	c0,0.2-0.1,0.4-0.1,0.6c-0.2,0-0.3,0.1-0.5,0.1c0,0.2-0.1,0.3-0.1,0.5c-0.2,0-0.3,0.1-0.5,0.1c0,0.2-0.1,0.3-0.1,0.5
	c-0.1,0-0.1,0.1-0.2,0.1c-0.8,0-1.6,0-2.4,0.1c-0.2,0-0.4,0-0.6,0c0,0.2-0.1,0.4-0.1,0.6c-0.2,0-0.3,0.1-0.5,0.1
	c0,0.2-0.1,0.3-0.1,0.5c-0.2,0-0.4,0.1-0.6,0.1c0,0.2-0.1,0.4-0.1,0.6c-0.4,0-0.7,0-1.1,0c0,0.2-0.1,0.4-0.1,0.7
	c-0.4,0-0.8,0-1.2,0.1c0,0.2-0.1,0.4-0.1,0.6c-0.2,0-0.3,0.1-0.5,0.1c0,0.2-0.1,0.3-0.1,0.5c-0.2,0-0.4,0.1-0.6,0.1
	c0,0.2-0.1,0.3-0.1,0.5c-0.2,0-0.3,0.1-0.5,0.1c0,0.2-0.1,0.3-0.2,0.6c-0.4-0.2-0.7-0.3-1.1-0.1c0,0.1-0.1,0.2-0.1,0.4
	c0,0.2,0,0.4-0.2,0.5c-0.1,0-0.1,0.2-0.1,0.2c0,0.2-0.1,0.3-0.2,0.4c-0.1,0.1-0.1,0.3-0.2,0.5c-0.1,0-0.3,0-0.4,0
	c-0.4,0-0.7,0-1.1,0c-0.1,0-0.2,0-0.3,0c-0.3,0.4-0.7,0.2-1,0.2c-0.6,0-1.1,0-1.7,0c-0.3,0-0.5-0.1-0.7,0.2c0,0.1-0.2,0.1-0.3,0.1
	c-0.1,0-0.2,0-0.2,0c-0.3,0.4-0.7,0.3-1,0.3c-0.2,0-0.3,0-0.4,0.2c-0.1,0.1-0.2,0.1-0.3,0.1c-0.8,0-1.7,0.1-2.5,0
	c-0.5,0-0.9-0.1-1.4-0.1c-0.1,0-0.3,0-0.5,0c0,0.2-0.1,0.5-0.1,0.7c-0.2,0.2-0.5,0-0.8,0.2c-0.4,0.3-0.7,0.7-1.1,1.1
	c0,0-0.1,0.1-0.1,0.1c-0.3-0.1-0.5,0.2-0.7,0.4c-0.2-0.3-0.1-0.6-0.2-0.9c-0.1,0-0.2,0-0.4-0.1c-0.1,0-0.2,0-0.3-0.1
	c-0.3-0.5-0.8-0.2-1.3-0.3c-0.3,0-0.5,0.2-0.8,0c-0.2-0.1-0.6-0.1-0.8-0.1c-0.2,0-0.2-0.1-0.3-0.2c-0.2-0.2-0.4-0.1-0.4,0.1
	c0,0.1-0.1,0.3-0.1,0.4c-0.3,0-0.6,0.1-0.9,0.1c0,0.1-0.1,0.2-0.1,0.3c-0.1,0-0.1,0.1-0.2,0.1c-0.3,0.1-0.7,0.1-1,0.2
	c0,0-0.1,0-0.1,0c-0.2,0.4-0.6,0.3-1,0.3c-0.2,0-0.4,0-0.5-0.2c0-0.1-0.2-0.1-0.3-0.1c-0.2,0-0.5,0-0.7,0c-0.3,0-0.5,0-0.7-0.3
	c0-0.1-0.3-0.1-0.4-0.1c-0.2-0.2-0.3-0.5-0.3-0.7c-0.5-0.3-1.1-0.3-1.6-0.3c-0.6,0-1.3,0-1.9,0c-0.1-0.2-0.1-0.3-0.2-0.4
	c-0.2-0.1-0.5-0.2-0.8-0.2c-0.2,0.1,0,0.4-0.3,0.5c0,0-0.1-0.1-0.1-0.1c0-0.4,0-0.8,0-1.2c0-0.2,0-0.4,0-0.7c-0.2,0-0.4,0.1-0.6,0.1
	c0,0-0.1,0-0.1,0c-0.1-0.1-0.2-0.2-0.3-0.2c-0.3-0.1-0.6-0.2-0.8-0.4c-0.3-0.2-0.6-0.2-0.9,0.1c-0.1,0.1-0.2,0.1-0.3,0.2
	c-0.1-0.3-0.1-0.5-0.1-0.7c0-0.4,0.1-0.7-0.2-1.1c-0.1-0.1,0-0.3,0-0.4c0-1,0-2.1,0-3.1c0-1,0-2.1,0-3.1c0-0.2,0-0.4,0-0.6
	c0.6-0.2,1.2,0,1.8-0.1c0.2-0.2,0.1-0.5,0.1-0.7c0-0.8,0-1.6,0-2.3c0-0.3,0-0.5,0-0.8c0.6-0.3,1.3,0.1,1.9-0.4
	C295.8,350,295.6,347.4,295.7,344.7z"/>
<path fill="#D4EDEF" stroke="#FFFFFF" stroke-width="0.5318" stroke-miterlimit="10" d="M301.6,317.2c-0.5-0.1-1,0-1.5-0.1
	c0-0.1-0.1-0.3-0.1-0.5c0-0.2,0-0.3,0-0.5c-0.4,0-0.8-0.1-1.1-0.1c-0.2-0.4,0-0.8-0.2-1.2c-0.3,0-0.7-0.1-1.1-0.1
	c0-0.2-0.1-0.4-0.1-0.6c-0.3-0.1-0.7,0-1-0.1c-0.1,0-0.3,0-0.4-0.1c-0.1-0.2-0.3-0.3-0.5-0.3c-1.1,0-2.3,0-3.4,0
	c-0.3,0-0.5,0.1-0.6,0.3c-0.2,0.4-0.6,0.6-0.9,0.8c-0.1,0.1-0.3,0.1-0.4,0.2c-0.2,0.3-0.6,0.3-0.8,0.5c-0.3,0.3-0.6,0.1-0.9,0.2
	c-0.2,0.4,0,0.8-0.2,1.3c-0.1,0-0.3,0-0.5-0.1c-0.1,0.1-0.1,0.2-0.2,0.3c-2.2,0.1-4.3-0.1-6.5-0.1c0-0.1-0.1-0.2-0.1-0.3
	c0.5-6,1-12,1.5-18c0.1,0,0.2-0.1,0.3-0.1c1,0.1,2,0,3,0c0.7,0,1.3,0,2,0c0.2,0,0.4,0,0.6-0.2c0.1-0.1,0.3-0.1,0.4-0.1
	c0.4,0,0.9,0,1.3,0c1.5,0,3,0,4.5,0c0.3,0,0.7,0,1,0.1c0.2,0.1,0.4,0.1,0.6,0.1c1,0.1,2,0.1,3,0.2c0.1,0,0.3,0,0.3,0
	c0.3-0.3,0.6-0.2,0.9-0.2c2,0,3.9,0.1,5.9,0.1c0.1,0,0.2,0,0.4,0c0.5-0.2,1-0.1,1.5-0.1c1.2,0,2.5,0,3.7,0c0.3,0,0.6,0,1,0
	c0,0.1,0.1,0.3,0.1,0.4c-0.2,0.3,0,0.6,0,0.9c0,0.3,0.2,0.5,0.4,0.7c0.1,0.1,0.2,0.2,0.3,0.3c0.1,0.4-0.2,0.8-0.3,1.3
	c0.2,0.1,0.3,0.1,0.4,0.1c0.2,0,0.5,0,0.7,0c2.4,0,4.7,0,7.1,0c0.2,0,0.4,0,0.6,0c0.1-0.4,0-0.9,0.1-1.3c0-0.4,0-0.8,0.1-1.3
	c0.4,0,0.7,0,1.1-0.1c0.2-0.3,0-0.8,0.2-1.1c0.3,0,0.6,0.1,0.8,0.3c0.3,0.2,0.6,0.2,0.8-0.1c0.1-0.2,0.3-0.2,0.5-0.2
	c0.3,0.1,0.7,0.1,0.9-0.2c0.1,0.1,0.3,0.2,0.4,0.1c0.5-0.1,1,0.2,1.5,0.3c0.4,0.1,0.7,0.2,1.1,0.3c0.1,0,0.2,0.1,0.3,0.1
	c0.1,0,0.3,0,0.4,0.1c0.1,0.1,0.1,0.2,0.1,0.4c0.1,0.3,0.2,0.5,0.5,0.5c0.4,0,0.8,0.2,1.2,0.3c0.3,0.1,0.6,0.3,0.6,0.6
	c0.4,0,0.8-0.1,1.2-0.3c0.1,0.1,0.2,0.2,0.3,0.3c0.1,0,0.2,0.1,0.2,0.1c0.3-0.2,0.5,0.1,0.8,0.2c0.3,0.1,0.7,0.2,1,0.1
	c0.2-0.1,0.4,0,0.5,0.1c0.2,0.1,0.3,0.1,0.5,0.1c0.5-0.1,0.9-0.1,1.4,0c0.1,0,0.2,0.1,0.3,0.2c0.4,0.3,0.8,0.3,1.1-0.1
	c0.1-0.1,0.3-0.2,0.4-0.3c0.2-0.1,0.4-0.3,0.6-0.5c0-0.2-0.1-0.5-0.1-0.7c0.1-0.2,0.3-0.2,0.5-0.2c1.2,0,2.4,0,3.5,0
	c1.8,0,3.5-0.1,5.3-0.1c0.1,0,0.1,0,0.2,0c1.1-0.3,2.2-0.2,3.3-0.2c1.2-0.1,2.5,0,3.7,0c0.6,0,0.7,0.1,0.8,0.6
	c0.1,0.2,0.1,0.5,0.2,0.7c0,0.1,0,0.1,0,0.2c-0.2,0.5,0,0.9,0.2,1.3c0,0.1,0.1,0.2,0,0.3c-0.1,0.3-0.1,0.5,0.1,0.7
	c-0.1,0.2-0.2,0.3-0.2,0.5c-0.1,0.2-0.1,0.5,0.1,0.7c0.1,0.1,0.1,0.1,0.2,0.2c0.2,0.8,0.3,1.6-0.1,2.4c0,0.1-0.1,0.1-0.1,0.2
	c-0.2,0.2-0.3,0.4-0.4,0.7c-0.1,0.3-0.3,0.4-0.6,0.6c-0.3,0.1-0.5,0.4-0.7,0.6c-0.1,0.1-0.1,0.2-0.1,0.3c0,0.1,0,0.1,0.1,0.2
	c0.4,0.7,0.3,1.3-0.1,1.9c-0.1,0.2-0.3,0.4-0.3,0.7c0,0,0,0.1-0.1,0.1c-0.5,0.2-0.4,0.6-0.4,1c0,0.1,0,0.2-0.1,0.3
	c-0.1,0.3-0.2,0.7-0.2,1c0,0.2-0.3,0.4-0.5,0.3c-0.1-0.1-0.3-0.2-0.4-0.3c-0.6-0.1-1,0.2-1.3,0.7c0.1,0.5,0.1,0.6-0.3,0.8
	c-0.3,0.2-0.5,0.3-0.6,0.7c0,0.1-0.1,0.2-0.2,0.3c-0.1,0.2-0.2,0.4-0.2,0.6c0,0.5-0.1,0.9,0,1.4c0,0.1,0,0.3,0,0.4
	c0.1,0,0.1,0.1,0.2,0.1c0,0.4,0.1,0.7,0.1,1.1c0,0.2-0.1,0.3-0.1,0.5c0.1,0.5-0.1,0.9-0.3,1.2c0,0,0,0,0,0.1
	c0.2,0.4,0.1,0.9,0.2,1.3c0,0.1,0,0.2,0.1,0.3c0.1,0.2,0.1,0.3,0,0.5c-0.2,0.5-0.3,1-0.4,1.5c0,0.2,0,0.4,0.1,0.6
	c0.1,0.3,0.2,0.5,0.3,0.8c-0.2,0-0.5,0-0.7,0.1c-0.1,0.2-0.2,0.4-0.2,0.6c-0.6,0.4-1.1,0.7-1.7,1c-0.4,0.2-0.7,0.5-1.1,0.6
	c-0.1,0-0.3,0.1-0.3,0.2c-0.2,0.5-0.8,0.5-1,1c-0.2,0.5-0.4,1-0.5,1.5c-0.1,0.2,0,0.3,0.1,0.4c0.1,0.1,0.3,0.2,0.4,0.3
	c0,1-0.2,2-0.9,2.9c-1.1,0-2.2,0-3.3,0c-2.5,0-5.1,0-7.6,0c-1.3,0-2.7,0-4,0.1c-1.2,0.1-2.4,0.1-3.5,0.1c-0.1,0-0.3,0-0.4,0
	c-0.2-0.2-0.1-0.4-0.1-0.6c0-1.2,0-2.5,0-3.7c0-0.1,0-0.3,0-0.4c-0.1,0-0.3-0.1-0.4-0.1c-1.6,0-3.2,0-4.8,0.1c-0.6,0-1.2,0-1.8,0.1
	c-0.5,0-0.9,0-1.4,0.1c-0.1,0-0.2,0-0.4,0c-0.9,0-1.8,0-2.8,0c-0.1,0-0.2,0-0.3,0c0-0.1-0.1-0.3-0.1-0.4c0-0.6,0-1.2,0-1.8
	c0-0.2,0-0.4,0-0.7c-0.3,0-0.6-0.1-0.8-0.1c-0.2-0.2-0.1-0.4-0.1-0.6c0-2,0-4,0-6c0-0.4,0-0.8,0-1.1c-0.2-0.2-0.4-0.1-0.7-0.2
	c-1.8,0-3.6,0-5.5,0c-0.2,0-0.5,0-0.7,0c0-0.4-0.1-0.8-0.1-1.3c-0.7,0-1.4,0-2,0c-0.6,0-1.3,0-1.9-0.1c0-0.3-0.1-0.6-0.1-0.8
	c-0.6-0.1-1.2,0-1.8-0.1C301.6,318.2,301.7,317.7,301.6,317.2z"/>
<path fill="#A3DAD9" stroke="#FFFFFF" stroke-width="0.5318" stroke-miterlimit="10" d="M428.4,310.8c0-0.2-0.1-0.3-0.1-0.5
	c0-0.6-0.1-1.2-0.1-1.8c-0.1-3.4-0.3-6.9-0.4-10.3c0-0.8,0-1.5-0.1-2.3c0-0.9-0.1-1.7-0.1-2.6c0-0.8,0-1.6-0.1-2.4
	c-0.1-2.8-0.3-5.6-0.4-8.4c-0.1-1.9-0.1-3.8-0.2-5.7c-0.1-1.6-0.1-3.2-0.2-4.8c0-0.1,0-0.2,0-0.4c-0.2,0-0.4-0.1-0.6-0.1
	c0-0.1-0.1-0.2-0.1-0.3c-0.1-2.3-0.2-4.6-0.3-7c0.1,0,0.3-0.1,0.4-0.1c1.1-0.1,2.3-0.1,3.4-0.2c1.7-0.1,3.5-0.1,5.2-0.2
	c0.9,0,1.7-0.1,2.6-0.1c3.6-0.2,7.1-0.4,10.7-0.6c2.8-0.1,5.6-0.3,8.4-0.4c1.2-0.1,2.4-0.2,3.6-0.2c1.2,0,2.4-0.1,3.6-0.1
	c0.4,0,0.8,0.1,1.2,0.2c0.2,0,0.3,0.2,0.3,0.4c0,0.2-0.1,0.5,0.1,0.7c0.3,0.1,0.5,0,0.7-0.2c0.2-0.2,0.4-0.5,0.8-0.3
	c0,0,0.1,0,0.1-0.1c0.2-0.4,0.7-0.4,0.9-0.7c0.3,0,0.4,0.1,0.5,0.3c0.2,0.2,0.4,0.5,0.8,0.4c0.3-0.1,0.4,0.3,0.6,0.5
	c0.3,0,0.5-0.2,0.7,0.1c0.1,0.1,0.2,0,0.3,0.1c0.2,0,0.3,0,0.5,0.1c0.3,0.5,0.3,0.5,0.8,0.8c-0.2,0.3,0,0.8-0.2,1.1
	c0,0.2,0,0.5,0.1,0.7c0.1,0.3,0.2,0.5,0.2,0.7c0,0.2,0,0.3,0,0.5c-0.3,0.1-0.6,0.1-0.8,0c-0.4-0.2-0.8,0.1-1.1,0.1
	c-0.1,0-0.2,0.2-0.1,0.2c0.1,0.4-0.2,0.6-0.4,0.8c-0.1,0.1-0.2,0.3-0.3,0.4c0.2,0.4,0.3,0.9,0.8,1.1c-0.1,0.8-0.1,0.8,0.3,1.6
	c0.1,0.2,0.1,0.3,0.1,0.5c0,0.2,0,0.4,0.1,0.6c-0.6,0.4-1.3,0.5-2,0.4c-0.5-0.1-0.9,0-1.2,0.5c-0.1,0.1-0.2,0.3-0.3,0.4
	c-0.3,0-0.6-0.1-0.8,0.2c0,0-0.2,0-0.3,0c-0.1,0-0.3,0-0.4-0.1c-0.3,0.2-0.5,0.5-0.7,0.8c-0.3-0.1-0.6-0.2-0.8-0.3
	c-0.2,0.2-0.5,0.4-0.8,0.4c-0.1,0.5,0,0.9,0.2,1.2c0.2,0.2,0.2,0.5,0.4,0.8c0.4,0.1,0.8,0.1,1.1,0.4c0.4,0,0.8,0.4,1.3,0.1
	c0.1-0.1,0.3,0,0.4,0.1c0.4,0.4,0.8,0.3,1.3,0.2c0.1,0,0.1,0,0.2-0.1c0.3,0.2,0.6,0.3,0.9,0.5c0,0.1,0.1,0.3,0.1,0.5
	c0.1,0.3,0.2,0.6,0.6,0.7c0.4,0.1,0.4,0.4,0.5,0.7c-0.1,0.3-0.2,0.6-0.3,0.9c-0.2,0-0.3-0.1-0.5-0.1c-0.2,0.2-0.3,0.4-0.4,0.6
	c-0.1,0.3-0.2,0.6-0.5,0.8c-0.1,0-0.2,0.1-0.2,0.2c0,0.5-0.3,1,0,1.5c0.1,0.1,0.1,0.3,0.2,0.4c0.2,0.3-0.1,0.6,0,0.9
	c0,0.1-0.1,0.2-0.2,0.3c-0.4,0.3-0.9,0.5-1.4,0.4c-0.2,0.2-0.1,0.4-0.1,0.6c0.1,0.4,0,0.7-0.1,1.1c-0.1,0.2-0.2,0.4-0.2,0.7
	c-0.1,0.2,0,0.4,0.1,0.5c0.2,0.2,0.4,0.5,0.7,0.8c-0.2,0.1-0.4,0.2-0.6,0.3c0,0.1,0,0.2,0,0.3c0,0.2-0.1,0.4-0.3,0.5
	c-0.2,0-0.3,0.2-0.4,0.3c-0.1,0.1-0.2,0.3-0.3,0.4c0,0.1-0.1,0.1-0.1,0.2c0.1,0.4-0.3,0.7-0.4,1.1c-0.1,0.4-0.3,0.7-0.4,1.1
	c-0.1,0.2-0.1,0.4-0.1,0.7c0.1,0.3,0.1,0.6,0.1,0.9c0.1,0,0.2,0.1,0.3,0c1.4-0.1,2.8-0.1,4.2-0.3c0.8-0.1,1.5-0.1,2.3-0.2
	c0.6-0.1,1.1-0.1,1.7-0.1c0,0.2,0.1,0.3,0.1,0.4c0,0.3,0,0.6,0,0.9c0,0.3,0,0.5,0.1,0.8c0.1,0.2,0.1,0.4,0.1,0.6
	c0.1,2.1,0.3,4.3,0.4,6.4c0,0.1,0,0.2,0,0.4c-0.1,0-0.2,0.1-0.4,0.1c-1.2,0.1-2.4,0.1-3.6,0.2c-1,0.1-2.1,0.1-3.1,0.2
	c-1.2,0.1-2.4,0.1-3.6,0.2c-0.3,0-0.6,0.1-0.8-0.2c-0.1-0.1-0.3-0.1-0.5-0.1c-1.3,0.1-2.6,0.1-3.8,0.2c-0.8,0-1.6,0.1-2.4,0.1
	c-0.3,0-0.6,0.1-1,0.1c0,0.2-0.1,0.3,0,0.5c0,0.9,0.1,1.8,0.1,2.8c0,0.2,0,0.4,0,0.7c-0.2,0-0.4,0.1-0.6,0.1
	c-2.4,0.1-4.8,0.2-7.2,0.3c-2.9,0.1-5.8,0.3-8.6,0.4c-1.7,0.1-3.4,0.2-5,0.3c-0.6,0-1.2,0-1.8,0C431,310.7,429.7,310.7,428.4,310.8z
	"/>
<path fill="#A3DAD9" stroke="#FFFFFF" stroke-width="0.5318" stroke-miterlimit="10" d="M441.7,239.6c-1.1-0.1-2.1,0.1-3.2,0.1
	c-0.1-0.4-0.1-0.9-0.1-1.3c0-0.4,0-0.8-0.1-1.2c0-0.4,0-0.8-0.1-1.3c-0.7-0.1-1.3,0-1.9,0c-0.7,0-1.3,0.1-2,0.1
	c-0.6,0-1.3,0.1-1.9,0c-0.1-0.8-0.1-1.6-0.1-2.4c-0.1-0.8-0.1-1.5-0.1-2.3c0-0.8-0.1-1.6-0.1-2.3c0-0.8-0.1-1.5-0.1-2.3
	c0-0.8,0-1.6,0-2.3c0-0.8-0.1-1.5-0.1-2.3c0.2-0.1,0.3-0.1,0.5-0.1c0.2,0,0.4,0,0.6-0.1c0.6-0.1,1.2-0.2,1.8-0.5
	c0.6-0.3,1.2-0.3,1.8-0.5c0.5-0.1,0.9-0.1,1.3,0.1c1.2,0.4,2.3,0.3,3.5-0.1c0.5-0.2,1-0.4,1.5-0.8c0.4-0.3,0.8-0.6,1.3-0.8
	c0.6-0.2,1-0.6,1.3-1.2c0.1-0.1,0.2-0.3,0.3-0.4c0.5-0.1,1.1-0.1,1.6-0.2c2.4-0.1,4.8-0.3,7.2-0.4c0.9,0,1.8-0.1,2.7-0.1
	c1.3-0.1,2.7-0.1,4-0.2c2.1-0.1,4.1-0.2,6.2-0.4c1-0.1,2-0.1,3-0.2c2.1-0.1,4.3-0.3,6.4-0.4c0.2,0,0.3,0,0.5,0
	c0.1,0.3,0.1,0.6,0.1,0.9c0.1,1.6,0.2,3.3,0.3,4.9c0,0.2,0.1,0.4,0.1,0.6c0.1,0.5,0.2,1,0.1,1.6c-0.7,0.2-1.4,0.1-2.1,0.2
	c-0.1,0.6,0.1,1.2,0,1.9c-0.2,0.1-0.4,0.1-0.6,0.2c-0.1,0.7,0.1,1.3,0.1,1.9c0,0.6,0.1,1.2,0,1.9c-0.5,0-1,0.1-1.5,0.1
	c-0.1,0.7,0,1.3,0.1,2c0,0.6,0.1,1.3,0.1,1.9c0,0.7,0.1,1.3,0.1,2c0,0.6,0,1.3,0.1,1.9c0.1,0.7,0.1,1.3,0.1,2
	c-0.8,0.1-1.6,0.1-2.4,0.2c0,0.1-0.1,0.3,0,0.4c0,0.4,0,0.8,0.1,1.1c0,0.1,0,0.2,0,0.4c-0.3,0.1-0.6,0.1-0.9,0.1
	c-0.7,0-1.4,0-2.1,0.1c-0.4,0-0.9,0-1.3,0.1c-0.5,0.1-0.9-0.2-1.3-0.3c-0.1,0-0.1-0.1-0.2-0.2c-0.3,0-0.5,0-0.8,0.1
	c0,0.2,0,0.3-0.1,0.5c-0.2,0-0.4,0.1-0.7,0.1c0,1.1,0.1,2.1,0.1,3.2c-0.2,0.2-0.4,0.2-0.6,0.2c-1.6,0.1-3.2,0.2-4.8,0.3
	c-0.1,0-0.3,0-0.5,0c0,0.2-0.1,0.4-0.1,0.6c-0.4,0-0.7,0.1-1-0.1c-0.1,0-0.2-0.1-0.3-0.1c-0.4,0-0.8,0-1.2,0.1
	c0,0.1-0.1,0.2-0.1,0.2c0.1,1.3,0.1,2.5,0.2,3.8c0,0.1,0,0.1,0.1,0.2c0.4,0,0.7,0,1.2,0c0,0.2,0.1,0.3,0.1,0.5c0,0.5,0,1,0.1,1.6
	c0,0.2,0,0.4,0.1,0.6c1.2,0.1,2.3-0.1,3.4-0.1c0.1,0.6,0.1,1.1,0.2,1.7c0,0.6,0,1.2,0.1,1.8c0,0.6,0.1,1.1,0.1,1.7
	c0.3,0,0.6,0,0.8,0.1c0.1,0.5,0.2,2.9,0.2,3.4c-0.2,0-0.4,0.1-0.5,0.1c-2.6,0.1-5.2,0.2-7.7,0.3c-2.8,0.1-5.5,0.3-8.3,0.5
	c-1.1,0.1-2.2,0.1-3.3,0.2c-0.1,0-0.3,0-0.4,0c-0.1-0.5-0.3-2.6-0.2-3.5c0.1-0.1,0.3-0.1,0.4-0.2c0-0.1,0.1-0.1,0.1-0.2
	c-0.1-2.1-0.2-4.2-0.3-6.2c-0.1-1.2-0.1-2.4-0.2-3.6c-0.1-2.8-0.2-5.6-0.3-8.4C441.8,240.5,441.8,240.1,441.7,239.6z"/>
<path fill="#A3DAD9" stroke="#FFFFFF" stroke-width="0.5318" stroke-miterlimit="10" d="M518.1,254.5c-0.7,0.2-14.1,1.1-15,1
	c-0.2-0.4-0.1-0.8-0.1-1.2c0-0.4-0.1-0.8-0.1-1.2c0-0.4,0-0.9-0.2-1.3c-2.2,0.1-4.4,0.3-6.6,0.5c-0.2-0.7-0.1-1.3-0.3-1.9
	c-0.4,0-0.8,0-1.3,0c-0.1-0.8-0.2-1.7-0.3-2.5c-0.2,0-0.4-0.1-0.6-0.1c0-0.4-0.1-0.7-0.1-1.1c-0.2,0-0.4-0.1-0.6-0.1
	c0-0.1-0.1-0.3-0.1-0.5c-0.2,0-0.4-0.1-0.5-0.1c0-0.1-0.1-0.1-0.1-0.2c-0.1-0.3,0-0.7-0.2-1c-0.6,0-1.1,0.1-1.7,0.1
	c0-0.1-0.1-0.2-0.1-0.4c0-0.3-0.1-0.5-0.1-0.8c-0.2,0-0.4-0.1-0.6-0.1c-0.2-0.9-0.1-1.8-0.3-2.7c-0.2,0-0.3-0.1-0.5-0.1
	c0-0.1-0.1-0.1-0.1-0.2c-0.1-0.6-0.1-1.2-0.1-1.8c0-0.5-0.1-1.1-0.1-1.6c0,0,0-0.1-0.1-0.2c-0.4,0-0.8,0-1.3,0
	c-0.2-1.5-0.2-3-0.4-4.5c-0.2,0-0.4-0.1-0.6-0.1c-0.1-0.6-0.1-1.2-0.2-1.8c-0.2,0-0.4-0.1-0.6-0.1c0-0.1-0.1-0.1-0.1-0.2
	c0-0.3,0-0.6-0.1-1c-0.2,0-0.4-0.1-0.6-0.2c-0.2-1.1-0.2-2.2-0.3-3.3c0.4-0.3,0.8-0.1,1.2-0.2c0-0.1,0-0.2,0-0.3
	c-0.1-1.2-0.1-2.4-0.2-3.5c0-0.1,0-0.2-0.1-0.4c-0.6-0.1-1.2,0.1-1.8,0.1c-0.6,0-1.2,0.1-1.8,0.1c-0.6,0-1.2,0.1-1.8,0.1
	c-0.6,0-1.2,0.1-1.7,0.1c-0.1-0.1-0.1-0.1-0.1-0.1c0,0,0,0,0-0.1c-0.1-0.7-0.1-1.4-0.2-2.1c-0.1-1.2-0.1-2.5-0.2-3.7
	c0.2,0,0.3-0.1,0.4-0.1c1.2-0.1,2.3-0.2,3.5-0.2c3-0.2,5.9-0.3,8.9-0.5c1.5-0.1,3.1-0.2,4.6-0.3c0.2,0,0.5,0,0.7,0
	c1.8,0,3.6-0.3,5.4-0.4c0.8,0,1.6-0.1,2.4-0.2c2.2-0.1,4.5-0.3,6.7-0.4c0.2,0,0.4,0,0.6,0c0.3,0.2,0.5,0.5,0.8,0.7
	c0,0.4,0,0.9,0.6,0.9c0.1,0.5,0.2,0.9,0.3,1.3c0.2,0.7,0.7,1.3,1.3,1.7c0.7,0.4,1,0.9,1.4,1.5c0.1,0.1,0.1,0.4,0.1,0.5
	c0,0.3,0.2,0.5,0.4,0.7c0.5,0.3,0.9,0.4,1.4-0.1c0.4-0.4,1-0.2,1.3,0.2c0.1,0.2,0.3,0.4,0.4,0.7c0.2,0.3,0.4,0.5,0.7,0.7
	c0.3,0.2,0.6,0.2,0.9,0.1c0.4-0.2,0.7-0.1,1.1-0.1c0.2,0,0.3,0.1,0.5,0.2c0.5,0.3,0.9,0.7,1.4,1c0.3,0.2,0.4,0.5,0.4,0.9
	c0,0.4,0,0.8,0.1,1.3c0.1,0.5,0.3,0.8,0.7,1.1c0.3,0.3,0.6,0.6,1,0.9c0,0,0.1,0.1,0.1,0.2c0.1,0.5,0.5,0.8,0.7,1.2
	c0.2,0.3,0.2,0.6,0,0.9c-0.2,0.3-0.4,0.5-0.5,0.9c0,0.1-0.2,0.2-0.2,0.3c-0.1,0.2-0.2,0.3-0.3,0.5c-0.1,0.2-0.2,0.2-0.3,0.3
	c-0.3,0.1-0.5,0.3-0.4,0.6c-0.1,0.6-0.2,1.2-0.6,1.6c-0.2,0.2-0.2,0.3-0.1,0.6c0,0.1,0.1,0.2,0.1,0.3c-0.1,0.4,0,0.8,0.1,1.2
	c-0.2,0.2-0.3,0.4-0.5,0.6c-0.3,0.3-0.5,0.6-0.5,1.1c0,0.5-0.1,1-0.5,1.3c-0.1,0.1-0.3,0.3-0.3,0.5c-0.4,1-0.8,2-1.2,3
	c-0.2,0.4-0.2,0.7-0.1,1.1c0.1,0.2,0.1,0.5,0.1,0.7c0,0.4,0,0.7-0.3,1c-0.1,0.1-0.2,0.4-0.3,0.6c-0.2,0.8-0.4,1.6-0.3,2.4
	c0,0.1,0,0.3-0.1,0.4c-0.3,0.8-0.3,1.7-0.4,2.6c-0.4,0.2-0.4,0.7-0.6,1c-0.1,0.1-0.1,0.3-0.3,0.4c-0.4,0.3-0.6,0.7-0.6,1.2
	C518.2,254.4,518.1,254.5,518.1,254.5z"/>
<path fill="#D4EDEF" stroke="#FFFFFF" stroke-width="0.5318" stroke-miterlimit="10" d="M472.8,261.2c0.2-0.1,0.3-0.2,0.4-0.3
	c0.2-0.2,0.4-0.2,0.6-0.2c0.1,0,0.3,0.1,0.4,0.1c0.1,0,0.3,0,0.3-0.1c0.2-0.4,0.6-0.6,0.6-1c0,0,0,0,0.1-0.1c0,0,0.1-0.1,0.2-0.1
	c0.5-0.2,0.8-0.1,1.1,0.4c0.3,0.4,0.6,0.8,1.2,0.9c0.4,0.4,1,0.4,1.6,0.6c0.5,0.2,1.1,0.1,1.6-0.2c0.5-0.4,1-0.7,1.4-1.2
	c0,0,0.1-0.1,0.1-0.1c0.5-0.4,0.7-1,1-1.5c0.3,0,0.6,0.4,0.8-0.1c0.3,0.2,0.4,0.4,0.5,0.6c0.1,0.2,0.2,0.3,0.3,0.5
	c0.2,0.3,0.5,0.5,0.8,0.3c0.2,0.2,0.4,0.4,0.6,0.6c0,0,0,0.1,0,0.2c0,0.4,0.2,0.6,0.6,0.6c0.7,0,1.4-0.1,2.1-0.1
	c1.2-0.1,2.4-0.2,3.6-0.3c0.3,0,0.7-0.1,1-0.1c0-0.2,0-0.4,0-0.5c0-0.9-0.1-1.8-0.2-2.8c0-0.2,0-0.4,0-0.6c0.2,0,0.4-0.1,0.6-0.1
	c7.9-0.6,15.9-1.1,23.8-1.7c0.1,0.3,0,0.5-0.2,0.7c-0.4,0.4-0.6,1-1.1,1.3c-0.2,0.2-0.3,0.4-0.2,0.7c0.1,0.4,0.1,0.9-0.1,1.3
	c-0.2,0.3-0.1,0.6,0.1,0.8c0.1,0.1,0.1,0.3,0.1,0.4c0,0.2,0.1,0.4,0.2,0.6c0.1,0.2,0.3,0.4,0.4,0.6c-0.2,0.7-0.3,1.4-0.5,2
	c-0.1,0.4-0.2,0.8-0.6,1.1c-0.2,0.2-0.4,0.5-0.7,0.5c0,0.1,0,0.3,0,0.4c0,0.2,0,0.3-0.1,0.5c-0.2,0.5-0.5,1-0.7,1.4
	c-0.1,0.2-0.1,0.4-0.1,0.5c0,0.1,0,0.3,0,0.4c-0.1,0.1-0.2,0.1-0.2,0.2c-0.6,0.3-1.1,0.6-1.5,1.1c-0.1,0.1-0.2,0.2-0.3,0.2
	c-0.4,0-0.7,0.3-1,0.4c-0.3,0.1-0.5,0.3-0.5,0.6c0,0.2-0.2,0.3-0.4,0.5c0,0.1,0,0.3,0,0.5c0,0.3,0,0.5-0.2,0.7
	c-0.3,0.3-0.3,0.7-0.2,1.1c-0.1,0.1-0.1,0.2-0.2,0.2c-0.2,0.2-0.3,0.4-0.3,0.6c0,0.3,0,0.6-0.1,0.8c0,0.2-0.1,0.4-0.3,0.6
	c-0.2,0.2-0.3,0.4-0.3,0.7c0,0.4-0.1,0.7-0.1,1.1c0,0.3-0.1,0.5-0.3,0.7c-0.1,0-0.1,0.1-0.2,0.1c-0.2,0.2-0.3,0.4-0.1,0.7
	c0.2,0.4,0,0.9-0.2,1.3c-0.1,0.2-0.2,0.2-0.4,0.2c-0.4,0-0.5,0.2-0.6,0.6c0,0.2-0.1,0.4-0.1,0.6c-0.1,0.3-0.2,0.5-0.5,0.6
	c-0.5,0.2-0.5,0.3-0.3,0.8c0.1,0.4,0.3,0.7,0.3,1.1c0.1,0.6-0.1,1.1-0.2,1.7c0,0.1-0.2,0.3-0.3,0.4c-0.2,0.2-0.2,0.4-0.1,0.7
	c0.2,0.5,0.5,0.9,0.9,1.2c0.4,0.3,0.7,0.5,0.9,1c-0.1,0.2-0.1,0.5-0.3,0.7c-0.3,0.4-0.5,0.8-1.1,0.8c-1.7,0.1-3.4,0.2-5.1,0.3
	c-0.7,0-1.4,0.1-2.1,0.1c-0.2,0-0.3,0-0.5,0c-0.1-0.4-0.1-0.9-0.1-1.3c0-0.4,0-0.8-0.1-1.2c0-0.4-0.1-0.8-0.1-1.3
	c-0.2,0-0.4,0-0.7-0.1c-0.1-0.1-0.1-0.3-0.2-0.5c-0.2,0-0.3-0.1-0.5-0.1c-0.1-0.2-0.1-0.3-0.2-0.5c-0.4,0-0.7,0-1.2,0
	c-0.1-0.2-0.1-0.3-0.2-0.5c-0.2,0-0.3-0.1-0.6-0.1c0-0.1-0.1-0.3-0.1-0.5c-0.1,0-0.3-0.1-0.5,0c-1.2,0.1-2.3,0.1-3.5,0.2
	c-1.7,0.1-3.4,0.2-5,0.4c-1,0.1-2,0.1-3,0.2c-0.2,0-0.3,0-0.5,0.1c0,0.2-0.1,0.4-0.1,0.6c-0.4,0-0.7,0.1-1.1,0.1
	c0,0.2-0.1,0.4-0.1,0.6c-0.2,0-0.3,0.1-0.5,0.1c0,0.3,0,0.7,0,1c-0.2,0.1-0.4,0.1-0.6,0.2c0,0.2,0,0.4,0,0.7
	c-0.2,0.1-0.4,0.1-0.6,0.2c0,0.1,0,0.3-0.1,0.5c-0.1,0.1-0.2,0.1-0.4,0.2c-0.1,0.4-0.1,0.8-0.2,1.2c-0.1,0-0.3,0.1-0.5,0.1
	c0,0.2-0.1,0.4-0.1,0.6c-0.2,0-0.3,0.1-0.5,0.1c0,0.2,0,0.4-0.1,0.6c-0.2,0-0.4,0.1-0.5,0.1c0,0.1,0,0.1,0,0.2c0,0.3,0,0.7,0,1
	c-0.4,0.1-0.8,0.1-1.2,0.2c0,0.2-0.1,0.4-0.1,0.6c-0.2,0-0.5,0.1-0.7,0.1c-1.3,0-2.6,0.1-4,0.2c-1.4,0.1-2.9,0.2-4.3,0.3
	c-0.1,0-0.3,0-0.5,0c-0.1-0.5-0.2-0.9,0.1-1.4c0.1-0.2,0.1-0.5,0.2-0.7c0.1-0.2,0.1-0.5,0.4-0.7c0.1,0,0.1-0.1,0.1-0.2
	c-0.2-0.4,0.2-0.6,0.3-0.9c0-0.1,0.1-0.2,0.2-0.2c0.5-0.1,0.5-0.5,0.6-0.9c0,0,0,0,0-0.1c0.2-0.3,0.5-0.2,0.7-0.2
	c0-0.3-0.1-0.5-0.3-0.7c-0.2-0.2-0.4-0.4-0.4-0.7c0-0.1-0.1-0.1-0.2-0.2c0-0.2,0.1-0.3,0.1-0.5c0.2-0.5,0.3-1,0.1-1.5
	c0.4-0.3,0.9-0.4,1.4-0.5c0.1-0.1,0.1-0.2,0.2-0.3c0.2-0.2,0.2-0.4,0.3-0.7c0.1-0.3,0-0.4-0.1-0.6c-0.1-0.2-0.2-0.4-0.3-0.6
	c-0.1-0.2-0.1-0.3,0-0.5c0.1-0.2,0-0.4,0-0.6c0.4-0.4,0.7-0.9,0.8-1.5c0.2,0,0.3,0,0.5,0.1c0.2-0.2,0.4-0.4,0.4-0.8
	c0-0.2,0.1-0.4,0.2-0.6c-0.3-0.7-0.3-0.7-1.2-1.2c0-0.1-0.1-0.2-0.1-0.3c0-0.4-0.2-0.6-0.5-0.8c-0.2-0.1-0.5-0.2-0.7-0.3
	c-0.1,0-0.2,0-0.3,0c-0.3,0-0.5,0.1-0.7,0.1c-0.2-0.2-0.3-0.3-0.5-0.4c-0.1,0-0.1,0-0.2,0c-0.6,0.1-1.1,0-1.6-0.2
	c-0.2-0.1-0.4-0.1-0.7-0.2c-0.3-0.4-0.5-0.8-0.6-1.3c0.1-0.1,0.1-0.1,0.1-0.1c0.6-0.3,0.6-0.3,1.2,0c0.2,0,0.3-0.1,0.4-0.3
	c0-0.1,0.1-0.2,0.1-0.3c0.1-0.2,0.3-0.3,0.5-0.2c0.1,0,0.3,0.1,0.4,0.1c0.1,0,0.2,0,0.2,0c0.1-0.4,0.5-0.3,0.8-0.4
	c0-0.1,0.1-0.2,0.2-0.3c0.2-0.4,0.5-0.6,1-0.5c0.6,0.1,1.2,0.1,1.8-0.2c0.2-0.1,0.3-0.2,0.5-0.2c0.1-0.4-0.1-0.7,0-1
	c0-0.1,0-0.2,0-0.3c-0.4-0.5-0.5-1.1-0.4-1.8c0,0,0,0,0-0.1c-0.4-0.1-0.5-0.5-0.6-0.9c0.1-0.1,0.1-0.3,0.2-0.4
	c0.3-0.2,0.3-0.4,0.3-0.7c0.5-0.3,1-0.1,1.4,0c0.2,0,0.4,0.1,0.6-0.1c0.2-0.2,0.2-0.5,0.1-0.8c-0.1-0.3-0.2-0.5-0.3-0.8
	c0-0.1-0.1-0.3-0.1-0.4c0.2-0.4,0.1-0.7,0.2-1.1c0.1-0.4,0-0.5-0.4-0.7c0,0-0.1,0-0.1-0.1c0,0,0,0-0.1-0.1c0-0.1,0-0.3,0-0.3
	c0.2-0.2,0.3-0.4,0.3-0.6c0-0.1,0.1-0.3,0.2-0.4C472.8,262.1,473,261.7,472.8,261.2z"/>
<path fill="#C1C1C0" stroke="#FFFFFF" stroke-width="0.5318" stroke-miterlimit="10" d="M420.7,326.9c-0.1,0-0.1,0-0.2,0.1
	c-0.6,0-1.2,0.1-1.8,0.1c-2.1,0.1-4.3,0.1-6.4,0.2c-2.2,0.1-4.3,0.1-6.5,0.2c-0.2,0-0.4,0-0.6-0.1c-0.1-0.1-0.3-0.1-0.5,0
	c-1.9,0.1-3.8,0.1-5.7,0.2c-1.7,0-3.3,0.1-5,0.1c-2.6,0.1-5.3,0.2-7.9,0.2c-3.3,0-6.6,0.2-9.9,0.2c-2.8,0-5.7,0.1-8.5,0.2
	c-3.5,0.1-6.9,0.2-10.4,0.2c-1.7,0-3.4,0-5.1,0c-0.1,0-0.1,0-0.2-0.1c0.3,0,0.6-0.1,0.9-0.1c0.1-0.2,0-0.3-0.1-0.3
	c-0.5-0.5-0.6-1.1-0.5-1.8c0.1-0.5,0.3-0.9,0.5-1.4c-0.3-0.3-0.3-0.7-0.3-1.1c0-0.2,0-0.4-0.1-0.7c0.1-0.3,0.3-0.6,0.5-1
	c-0.1-0.1-0.2-0.2-0.3-0.3c0.1-0.1,0.2-0.3,0.2-0.4c0,0,0-0.1,0-0.1c-0.2-0.2-0.2-0.5-0.1-0.8c0.1-0.3,0.1-0.5-0.1-0.7
	c-0.1-0.1-0.1-0.2-0.1-0.3c0-0.3,0-0.7-0.1-1c0-0.3,0-0.7,0.2-0.9c0.1-0.1,0.1-0.2,0.1-0.3c0.1-0.2,0.2-0.3,0.4-0.4
	c0.3-0.2,0.6-0.4,0.7-0.9c0.1-0.4,0.5-0.6,0.8-0.5c0.2,0.1,0.3,0.1,0.5,0.2c0.4,0.1,0.8-0.2,0.8-0.6c0-0.4,0.1-0.7,0.2-1.1
	c0.1-0.3,0.1-0.6,0.1-0.9c0.1,0,0.2-0.1,0.3-0.2c0.1-0.1,0.2-0.2,0.3-0.3c-0.1-0.1-0.1-0.2-0.2-0.4c0.1-0.1,0.3-0.3,0.4-0.4
	c0.2-0.8,0.3-1.5-0.1-2.2c0.2-0.4,0.5-0.6,0.9-0.6c0.3-0.5,0.5-1,0.8-1.4c0.3-0.5,0.4-1.1,0.3-1.7c0-0.2-0.1-0.4-0.1-0.6
	c0-0.3-0.1-0.6-0.4-0.8c0.1-0.1,0.1-0.3,0.2-0.4c0.2-0.2,0.2-0.5,0-0.7c0,0-0.1-0.1,0-0.1c0.3-0.5-0.1-0.9-0.2-1.4
	c0-0.1-0.1-0.2,0-0.2c0.3-0.3,0.1-0.6-0.1-0.9c-0.1-0.1-0.1-0.3-0.1-0.5c-0.1-0.5-0.3-0.8-0.8-1c-0.1,0-0.2-0.1-0.3-0.2
	c-0.1-0.1-0.1-0.2-0.1-0.3c0-0.3-0.2-0.5-0.5-0.7c0-0.6,0-1.2,0-1.8c0-0.1,0-0.2,0-0.3c-0.2-0.3-0.1-0.6,0.1-0.9
	c-0.4-0.4-0.2-0.9-0.3-1.4c0.2,0,0.3-0.1,0.4-0.1c7.7-0.1,15.4-0.4,23.2-0.3c0,0.2,0.1,0.3,0.1,0.4c0,2.2,0.1,4.3,0.1,6.5
	c0,0.3,0,0.7,0.2,1c0.1,0.1,0,0.3,0.1,0.5c0,0.8,0,1.6,0.1,2.4c0,0.2,0,0.4,0.1,0.6c1.2,0.2,2.4,0.1,3.6,0.2
	c0.2,0.2,0.2,0.5,0.2,0.8c0.1,1.9,0.1,3.9,0.1,5.8c0,0.4,0,0.8,0.1,1.2c0.2,0,0.3,0.1,0.5,0.1c1.7,0,3.5,0,5.2,0c0.7,0,1.3,0,2,0
	c0.1,0.2,0.1,0.5,0.1,0.8c0,0.8,0,1.5,0.1,2.3c0,0.2,0,0.5,0,0.7c0.1,0,0.3,0.1,0.4,0.1c1.2,0,2.5-0.1,3.7-0.1c0.1,0,0.2,0,0.4,0
	c2.4-0.1,4.7-0.1,7.1-0.2c0.1,0,0.3,0,0.4,0c0.1,0.3,0.1,0.5,0.1,0.8c0,0.8,0,1.6,0.1,2.4c0,0.2,0,0.4,0.1,0.7
	c1.3,0.1,2.6-0.1,3.9-0.1c0.1,1.3,0.1,2.5,0.2,3.8c0.2,0,0.3,0.1,0.5,0.1c0.6,0,1.1,0,1.7,0c2.1-0.1,4.2-0.2,6.3-0.2
	c0.9,0,1.8-0.1,2.8-0.1c0.1,0,0.3,0,0.5,0c0,0.1,0.1,0.2,0.1,0.3C420.7,324.6,420.7,325.7,420.7,326.9
	C420.8,326.8,420.8,326.8,420.7,326.9z"/>
<path fill="#A3DAD9" stroke="#FFFFFF" stroke-width="0.5318" stroke-miterlimit="10" d="M428,310.8c-0.6,0.1-1.3,0-1.9,0.1
	c-0.6,0-1.2,0.1-1.9,0.1c0,0.2,0,0.3,0,0.5c0.1,3.5,0.2,7,0.3,10.5c0,0.2,0,0.5,0,0.7c-0.1,0-0.3,0.1-0.4,0.1
	c-0.8,0-1.7,0.1-2.5,0.1c-2.4,0.1-4.8,0.2-7.2,0.3c-1.4,0.1-2.9,0.1-4.3,0.2c-0.3,0-0.7,0-1.1-0.1c-0.1-0.4-0.1-0.9-0.1-1.3
	c0-0.4,0-0.9,0-1.3c0-0.4-0.1-0.8-0.1-1.3c-0.7-0.1-1.3,0-1.9,0c-0.6,0-1.3,0-1.9,0c-0.2-0.2-0.1-0.5-0.1-0.7c0-0.8,0-1.6-0.1-2.4
	c0-0.2,0-0.5-0.1-0.7c-1,0-2,0-3,0.1c-1,0-2,0.1-3,0.1c-1,0-2,0.1-3,0.1c-1,0-2,0.1-3,0.1c0-0.2-0.1-0.3-0.1-0.5
	c0-0.9,0-1.8-0.1-2.6c0-0.2,0-0.5-0.1-0.7c-2.5,0-5.1,0.1-7.6,0c-0.1-0.4-0.1-0.7-0.1-1c0-1.4-0.1-2.8-0.1-4.3
	c0-0.8-0.1-1.6-0.1-2.5c-0.2,0-0.3-0.1-0.5-0.1c-0.9,0-1.7-0.1-2.6-0.1c-0.2,0-0.4,0-0.7,0c-0.1-0.3-0.1-0.6-0.1-0.8
	c0-0.7,0-1.4,0-2.1c0-0.2,0-0.5-0.1-0.7c-0.1-0.2-0.1-0.4-0.1-0.6c0-2-0.1-4-0.1-6c0-0.3,0-0.6,0-0.9c1.3-0.2,2.5,0,3.8-0.2
	c0.1-0.6,0-1.3,0-1.9c0-0.6,0-1.2,0-1.9c0.1-0.2,0.4-0.1,0.6-0.1c1.3,0,2.6-0.1,3.8-0.1c0.2,0,0.5,0,0.7,0c0-0.2,0.1-0.4,0-0.5
	c0-0.8-0.1-1.6-0.1-2.4c0-0.3,0-0.6,0-0.9c0.2,0,0.3-0.1,0.5-0.1c2.1-0.1,4.1-0.1,6.2-0.2c2.1-0.1,4.3-0.2,6.4-0.2
	c0.3,0,0.6,0,0.9,0c0,0.1,0.1,0.3,0.1,0.4c0,0.5,0,1,0,1.6c0,1.1,0.1,2.3,0.1,3.4c0,0.1,0,0.1,0.1,0.2c0.2,0,0.3,0,0.5,0
	c2-0.1,4-0.1,6-0.2c0.8,0,1.5-0.1,2.3-0.1c0.8,0,1.6-0.1,2.3-0.1c0.2,0,0.4,0,0.6,0c0.2,0.7,0.1,1.4,0.2,2.2
	c1.3,0.1,2.6-0.2,3.9-0.1c0.1,0.6,0.1,1.2,0.1,1.9c0,0.6,0.1,1.2,0.1,1.8c0.9,0.1,1.8-0.1,2.6-0.1c0.9,0,1.7-0.1,2.6-0.1
	c0.9,0,1.7-0.1,2.6-0.1c0.1,0.1,0.1,0.1,0.1,0.1c0,0,0,0,0,0.1c0.2,5,0.4,10,0.6,15C428,310.6,428,310.6,428,310.8z"/>
<path fill="#D4EDEF" stroke="#FFFFFF" stroke-width="0.5318" stroke-miterlimit="10" d="M329,363.4c0-0.2,0.1-0.3,0.1-0.5
	c0.2,0,0.3-0.1,0.5-0.1c0.1-0.2,0.1-0.4,0.2-0.6c0.4,0,0.8,0,1.2-0.1c0-0.2,0.1-0.4,0.1-0.7c0.4,0,0.8,0,1.2,0
	c0-0.2,0.1-0.4,0.1-0.6c0.2,0,0.3-0.1,0.5-0.1c0-0.2,0.1-0.3,0.1-0.5c0.2,0,0.3-0.1,0.5-0.1c0-0.2,0.1-0.4,0.1-0.6
	c1,0,2.1-0.1,3.2-0.1c0-0.2,0.1-0.4,0.1-0.6c0.2,0,0.3-0.1,0.6-0.1c0-0.2,0.1-0.3,0.1-0.5c0.2,0,0.3-0.1,0.5-0.1
	c0-0.2,0.1-0.4,0.2-0.6c0.1,0,0.3-0.1,0.5-0.1c0-0.1,0.1-0.3,0.1-0.4c0,0,0.1-0.1,0.1-0.1c1.1,0,2.2,0,3.3,0c0,0,0.1,0,0.2,0.1
	c0,0.1,0.1,0.3,0.1,0.5c0,1.5,0,2.9,0,4.4c0,4.3,0,8.5,0.1,12.8c0,1.5,0,3,0,4.5c0,0.6-0.1,1.1-0.1,1.7c0,1.3,0,2.6,0,3.8
	c0,2.1,0,4.3,0.1,6.4c0,1.3,0.1,2.7,0,4c0,1-0.1,2.1-0.1,3.1c0,0.9,0,1.8,0,2.7c0,0.1,0,0.3,0,0.5c-0.2,0-0.3,0.1-0.4,0.1
	c-0.4,0-0.9,0-1.3,0c-0.7,0-1.5,0-2.2,0c-2.3,0-4.7,0.1-7,0.2c-2.8,0.1-5.5,0.1-8.3,0.1c-1.3,0-2.6,0-3.9,0c-1.6,0-3.3-0.1-4.9-0.2
	c-0.4,0-0.8,0-1.3,0c-0.7,0.1-1.4,0.1-2.1,0.1c0-0.2-0.1-0.3-0.1-0.4c0-1.5,0-3,0-4.5c0-2.3,0-4.5,0-6.8c0-3.1,0-6.2,0.1-9.3
	c0-2-0.1-4-0.1-6c0-1.5,0.1-3,0.1-4.5c0.2,0,0.4-0.1,0.5-0.2c0.1-0.1,0.2-0.2,0.3-0.3c0.2-0.2,0.5-0.5,0.7-0.7
	c0.1-0.1,0.2-0.1,0.3-0.1c0.2,0,0.4,0,0.6,0c0-0.3,0.1-0.5,0.1-0.7c0.3-0.1,0.6-0.1,0.9,0c0.2,0,0.4,0.1,0.6,0.1c0.9,0,1.8,0,2.7,0
	c0.2,0,0.4,0,0.6-0.2c0.1-0.1,0.3-0.1,0.4-0.1c0.3-0.1,0.6,0,0.9-0.3c0.2-0.2,0.5-0.1,0.7-0.4c0.1-0.1,0.3,0,0.4,0
	c0.7,0,1.4,0,2.1,0c0.2,0,0.5,0,0.6-0.2c0.1-0.1,0.2-0.1,0.3-0.1c0.3,0,0.7,0,1,0c0.2,0,0.3,0,0.5,0c0.2-0.2,0-0.6,0.4-0.7
	c0-0.2,0.1-0.3,0.1-0.5c0.1-0.1,0.2-0.2,0.3-0.4c0.1-0.2,0-0.4,0.1-0.7c0.2,0.1,0.4,0.2,0.6,0.2c0.2,0,0.4,0,0.6-0.1
	c0-0.2,0.1-0.3,0.1-0.5c0.2,0,0.3-0.1,0.5-0.1c0-0.2,0.1-0.3,0.1-0.5C328.6,363.5,328.8,363.4,329,363.4z"/>
<path fill="#64BCBB" stroke="#FFFFFF" stroke-width="0.5318" stroke-miterlimit="10" d="M399.5,267c0.2,0.3,0.5,0.5,0.4,0.9
	c0.2,0.3,0.2,0.6,0.1,1c0.3,0.2,0.6,0.4,1,0.3c0,0,0.2,0.1,0.2,0.2c0,0.1,0,0.2-0.1,0.2c-0.1,0.1-0.2,0.1-0.3,0.2
	c-0.2,0.1-0.3,0.3-0.2,0.6c0.1,0.2,0.1,0.3,0.2,0.5c0.2,0.1,0.6,0.1,0.8,0.4c0.1,0.1,0.3,0.1,0.5,0.2c0.2,0.3,0.3,0.6,0.5,1
	c-0.3,0.1-0.7,0-1,0.1c-0.4,0-0.7,0-1.1,0c-0.3,0-0.7,0-1,0c-0.4,0-0.7,0-1.1,0c-0.3,0-0.7,0-1,0c-0.4,0-0.7,0-1.1,0
	c-0.3,0-0.7,0-1,0c-0.4,0-0.7,0-1.1,0c-0.3,0-0.7,0-1,0c-0.4,0-0.7,0-1.1,0.1c-0.3,0-0.7,0-1,0c-0.4,0-0.7,0-1.1,0c-0.3,0-0.7,0-1,0
	c-0.4,0-0.7,0-1.1,0c-0.3,0-0.7,0-1,0c-0.4,0-0.7,0-1.1,0c-0.3,0-0.7,0-1,0c-0.4,0-0.7,0-1.1,0c-0.3,0-0.7,0-1,0c-0.4,0-0.7,0-1.1,0
	c-0.3,0-0.7,0-1,0c-0.3,0-0.7,0-1-0.1c-0.4,0-0.7,0-1.1,0c-0.3,0-0.7,0-1,0c-0.4,0-0.7,0-1.1,0c-0.3,0-0.7,0-1,0c-0.4,0-0.7,0-1.1,0
	c-0.3,0-0.7,0-1,0c-0.4,0-0.7,0-1.1,0c-0.3,0-0.7,0-1,0c-0.4,0-0.7,0-1.1,0c-0.3,0-0.7,0-1,0c-0.4,0-0.7,0-1.1,0c-0.3,0-0.7,0-1,0
	c-0.4,0-0.7,0-1.1,0c-0.3,0-0.7,0-1,0c-0.4,0-0.7,0-1.1,0c-0.3,0-0.7,0-1,0c-0.4,0-0.7,0-1.1,0c-0.3,0-0.7,0-1,0c-0.4,0-0.7,0-1.1,0
	c-0.3,0-0.7,0-1,0c-0.1-0.2,0-0.4,0.1-0.6c0.1-0.3,0.1-0.6-0.2-0.8c0-0.3,0.1-0.6,0.3-0.8c0.1-0.1,0.2-0.1,0.2-0.2
	c0-0.3,0.2-0.5,0.4-0.6c0.2-0.2,0.2-0.3,0.2-0.6c-0.1,0-0.3,0-0.4-0.1c-0.3,0-0.5-0.2-0.6-0.5c0-0.4-0.4-0.6-0.5-0.9
	c-0.4-0.2-0.8,0.1-1.1,0.1c0-0.1-0.1-0.1,0-0.2c0.2-0.3,0.2-0.7,0-1.1c-0.3-0.6-0.2-1.2-0.3-1.9c0-0.1,0.1-0.3,0.3-0.3
	c0.1,0,0.1,0,0.2,0c0.1,0,0.1,0,0.2,0c0-0.3,0.1-0.6,0.1-1c0.2,0,0.3,0,0.5,0.1c0.3,0.2,0.6,0.2,0.9,0c0.1-0.1,0.3-0.1,0.4-0.1
	c0-0.1,0-0.2,0-0.3c0-0.2,0-0.3,0.2-0.4c0.2-0.2,0.5-0.4,0.7-0.5c0.1-0.1,0.2-0.1,0.3-0.1c0.2,0,0.4,0.1,0.7-0.1
	c0-0.3,0-0.6,0.2-0.9c0.1-0.1,0.1-0.4,0-0.5c-0.3-0.4-0.3-0.8-0.5-1.2c-0.3-0.2-0.6-0.3-1-0.2c-0.2-0.2-0.4-0.5-0.4-0.9
	c0-0.3-0.2-0.5-0.4-0.6c-0.2-0.1-0.3-0.3-0.4-0.5c-0.1-0.2-0.2-0.5-0.4-0.7c-0.2-0.3-0.2-0.3-0.2-0.7c0.3-0.2,0.6-0.3,1-0.3
	c0.2-0.2,0.3-0.5,0.5-0.7c0.2,0,0.3,0,0.5,0c0.1-0.4,0.1-0.8,0.1-1.2c0.7-0.1,1.4-0.1,2.1-0.1c0.7,0,1.4,0,2.1-0.1
	c0.7,0,1.4,0,2.1,0c0-0.2,0.1-0.3,0.1-0.4c0-1.1,0-2.1,0-3.2c0-1.9-0.1-3.9-0.1-5.8c0-0.6,0-1.1-0.1-1.7c0-0.2,0-0.4,0-0.6
	c0.4-0.2,0.8-0.1,1.3-0.2c0-0.7,0-1.3,0-2c0-0.7,0-1.3,0-2c0-0.6,0-1.3,0-1.9c0-0.7-0.1-1.3,0-2c0.2,0,0.3,0,0.4,0
	c0.4,0.1,0.8,0,1.2-0.2c0.9-0.5,1.8-0.4,2.6,0.2c0.3,0.2,0.6,0.3,0.9,0.4c0.5,0.1,1,0.3,1.4,0.4c0.2,0.1,0.4,0.2,0.5,0.4
	c0.3,0.5,0.5,1.1,0.5,1.8c0,0.6,0.3,0.9,0.9,0.9c0.4,0,0.8-0.1,1.3-0.2c0.3-0.1,0.5-0.3,0.6-0.5c0.2-0.6,0.6-0.9,1-1.2
	c0.2-0.1,0.5-0.2,0.7-0.2c0.5,0,0.9,0,1.4,0c0.2,0,0.3,0,0.5,0.1c0.3,0.1,0.6,0.1,1-0.1c0.2-0.1,0.3-0.1,0.5-0.2
	c0.8,0.2,1.1,0.8,1.3,1.5c0,0,0,0.1,0,0.1c-0.3,0.4-0.3,0.7,0.2,1c0.2,0.1,0.2,0.3,0.1,0.4c-0.3,0.4-0.2,0.8-0.3,1.2
	c0.1,0.3,0.2,0.5,0.4,0.7c0.1,0.1,0.2,0.2,0.2,0.2c0.1,0.1,0.2,0.2,0.2,0.3c0.1,0.3,0.2,0.5,0.5,0.4c0.2,0,0.3,0,0.5,0.1
	c0.2,0.1,0.4,0.3,0.6,0.4c-0.1,0.3-0.1,0.6,0,0.9c0.1,0.3,0,0.7-0.1,1.1c-0.2,0.1-0.4,0.2-0.6,0.3c-0.1,0.2-0.1,0.4-0.2,0.7
	c0,0.1,0,0.3,0,0.3c0.2,0.2,0.1,0.5,0.1,0.8c-0.1,0.4-0.1,0.8-0.2,1.2c-0.6,0.3-0.8,0.8-1,1.4c-0.2,0.1-0.4,0.1-0.5,0.2
	c-0.1,0.1-0.1,0.3-0.2,0.5c-0.2,0.1-0.5,0.1-0.6,0.4c0,0-0.1,0.1-0.1,0.1c-0.4,0.3-0.4,0.3-0.1,0.7c-0.1,0.2-0.2,0.5-0.4,0.7
	c-0.2-0.1-0.1-0.2-0.2-0.3c0-0.2-0.2-0.3-0.3-0.3c-0.2,0-0.3,0.1-0.3,0.2c-0.1,0.1-0.1,0.3-0.2,0.4c-0.1,0-0.2,0-0.3,0
	c-0.3,0-0.5,0.1-0.5,0.4c0,0.3-0.2,0.6-0.4,0.8c0.2,0.3,0.3,0.6,0.3,0.9c0,0.6,0,1.3,0,1.9c0,0.4,0.2,0.7,0.6,0.8
	c0.1,0,0.1,0,0.2,0.1c0.2,0.1,0.3,0.3,0.5,0.4c0.2,0.1,0.4,0,0.6,0c0.1,0,0.2,0.1,0.3,0.1c0.5-0.1,1-0.1,1.5-0.1
	c0.5-0.3,1,0,1.4,0.1c0.3,0.1,0.5,0.2,0.7,0.4c0.2,0.2,0.5,0.4,0.8,0.6c0.4,0.3,0.9,0.4,1.4,0.5c0.3,0.2,0.3,0.7,0.7,0.8
	c0.3,0.1,0.6,0.3,0.9,0.5c0,0.1,0.2,0.3,0.2,0.4c0,0.1,0,0.3,0,0.4c-0.3,0.4-0.2,0.8-0.2,1.2c0.2,0,0.3,0.1,0.4,0.1c2,0,4-0.1,6-0.1
	c0.1,0,0.2,0,0.4,0c0.6,0,0.6,0,0.7,0.6c0,0.1,0,0.2,0.1,0.3c0.1,0.2,0.2,0.3,0.1,0.6c0,0.1,0.1,0.2,0.1,0.3c0,0.1,0.1,0.2,0.1,0.2
	c-0.2,0.4,0,0.6,0.2,0.9c-0.1,0.2-0.2,0.4-0.2,0.5c0.1,0.4,0.3,0.7,0.2,1c-0.1,0.4,0,0.7-0.1,1.1C399.5,266.7,399.5,266.9,399.5,267
	z"/>
<path fill="#A3DAD9" stroke="#FFFFFF" stroke-width="0.5318" stroke-miterlimit="10" d="M315.2,280.6c-0.1-0.5-0.3-0.9-0.6-1.1
	c-0.3-0.3-0.3-0.4-0.4-1.1c0.1-0.1,0.3-0.2,0.4-0.4c0.1-0.1,0.1-0.3,0.2-0.5c0.1-0.1,0.2-0.1,0.4-0.2c0,0,0.1,0,0.1,0
	c0.3,0.3,0.8,0.3,1.2,0.4c0.2,0,0.2,0.1,0.3,0.2c0.1,0.1,0.3,0.1,0.5,0.2c0.1,0.1,0,0.4,0.2,0.6c0.2,0.2,0.4,0,0.6,0
	c0.2,0.2,0.1,0.4,0.1,0.5c-0.2,0.5,0,0.8,0.4,1.1c0.4-0.2,0.7-0.4,1.1-0.6c0.1-0.3,0.1-0.7,0.5-0.9c0.2,0,0.4,0.3,0.6,0.1
	c0.2-0.1,0.2-0.4,0.3-0.6c0.1-0.2,0.2-0.4,0.4-0.5c0.1-0.1,0.1-0.2,0.2-0.2c0.7,0,1.2-0.5,1.8-0.8c0.2-0.1,0.3-0.3,0.3-0.4
	c0.3-0.1,0.5-0.1,0.7-0.2c0.5-0.2,0.5-0.2,0.7-0.8c0.2,0,0.4,0.1,0.6,0.1c0.3-0.1,0.6-0.1,1,0c0.2,0.1,0.5,0,0.8,0
	c0.4,0.5,0.9,0.7,1.5,0.5c0.5-0.1,0.9-0.2,1.3-0.4c0.3-0.2,0.6-0.2,0.9,0.1c0.2,0.2,0.5,0.3,0.8,0.3c0.1,0,0.3,0,0.3,0.1
	c0.4,0.4,0.9,0.4,1.4,0.4c0,0,0.1,0,0.1,0c0.1,0.1,0.1,0.3,0.2,0.4c0.4,0.2,0.7,0.3,1.1,0.1c0.1,0,0.2,0,0.3,0c0.1,0,0.2,0,0.3,0
	c0.3-0.1,0.6-0.1,0.9,0c0.5,0.1,0.9,0.1,1.4,0c0.4,0,0.7,0.1,1.1-0.2c0.2-0.1,0.4,0,0.6,0c0.1,0,0.3,0.1,0.4,0
	c0.4-0.2,0.8,0,1.2,0.1c0.3,0,0.5,0.2,0.6,0.5c0.1,0.3,0.3,0.5,0.5,0.6c0.2,0.2,0.4,0.5,0.6,0.7c0.1,0.1,0.2,0.3,0.2,0.4
	c0.3,0.5,1,0.6,1.4,0.2c0.3-0.3,0.7-0.5,1.1-0.8c0.2-0.1,0.4-0.3,0.6-0.5c0.2,0,0.4,0.3,0.6,0.4c0.2,0.1,0.3,0.2,0.5,0.3
	c0.2,0.1,0.4,0.2,0.6,0.2c0.6,0.2,1.1,0.3,1.6,0.7c0.1,0,0.2,0.1,0.2,0c0.5-0.3,1.2,0.2,1.7-0.3c0.4,0.4,0.9,0.4,1.4,0.4
	c1.2,0,2.5,0,3.7-0.1c0.2,0,0.4,0,0.6,0c0,0.2,0.1,0.3,0.1,0.4c0,0.3,0,0.6,0,0.8c0,0.3,0,0.5-0.1,0.8c-0.1,0.2-0.1,0.4-0.2,0.6
	c-0.1,0.2,0,0.4,0.1,0.6c0.2,0.3,0.4,0.7,0.3,1.1c-0.1,0.2-0.1,0.4-0.1,0.6c0,0.4-0.1,0.8-0.4,1.2c-0.1,0.2-0.1,0.4-0.1,0.5
	c0.1,0.2,0.1,0.4,0.1,0.6c-0.4,0.4-0.7,0.8-1.1,1.2c-0.1,0.1-0.2,0.3-0.1,0.4c0.1,0.3,0.1,0.5,0,0.7c-0.1,0.2,0,0.5,0.1,0.8
	c0,0.1,0.1,0.3,0.1,0.4c-0.2,0.6,0,1.1-0.1,1.7c-0.1,0.6,0,1.1,0,1.7c0,0.1,0,0.2,0.1,0.3c0,0.1,0.1,0.1,0.1,0.2
	c0.1,0.3-0.2,0.5,0,0.8c0.1,0.2,0.1,0.5,0.1,0.8c0,0.1-0.1,0.3,0,0.4c0.1,0.4,0.1,0.8,0,1.3c0.2,0.1,0.3,0.1,0.5,0.2
	c0,0.1,0.1,0.2,0.1,0.4c0,0.1,0.1,0.3,0.1,0.4c-0.3,0-0.5,0-0.7,0c-1.8,0-3.6,0.1-5.5,0.1c-0.2,0-0.5,0.1-0.7,0.1
	c-0.2,0-0.5,0.1-0.7,0.1c-0.8,0-1.7,0-2.5,0c-1.3,0-2.7,0-4,0.1c-0.8,0-1.6,0.1-2.3,0.1c-0.3,0.3-0.3,0.6-0.1,1
	c-0.2,0.1-0.4,0.3-0.6,0.4c-0.1,0.1-0.2,0.2-0.4,0.3c-0.1,0.1-0.3,0.2-0.4,0.2c-0.1,0-0.2-0.1-0.3-0.2c-0.3-0.1-0.7-0.2-1-0.3
	c-0.3,0-0.6,0-0.8,0.1c-0.2,0-0.4,0.1-0.6,0c-0.1-0.1-0.4-0.1-0.5,0c-0.3,0.1-0.5,0-0.8,0c0,0-0.1,0-0.1,0c-0.1-0.1-0.3-0.3-0.4-0.4
	c-0.1-0.1-0.3,0.1-0.5,0c-0.3-0.3-0.6-0.2-1,0c-0.1,0-0.2,0-0.3,0c-0.4-0.3-0.7-0.6-1.3-0.7c-0.2,0-0.3-0.1-0.5-0.2
	c-0.2,0-0.3,0-0.5,0c0-0.1-0.1-0.2-0.1-0.2c-0.1-0.5-0.2-0.6-0.7-0.7c-0.1,0-0.3-0.1-0.4-0.1c-0.4-0.1-0.8-0.4-1.2-0.3
	c-0.2,0-0.2-0.3-0.5-0.3c-0.2,0-0.5,0.1-0.7,0.1c-0.4-0.1-0.7-0.2-1,0.1c0,0-0.1,0-0.2,0c-0.5-0.1-0.8,0-1.1,0.3
	c-0.5-0.3-1-0.4-1.6-0.5c0,0.4-0.1,0.8-0.1,1.2c-0.4,0.2-0.8,0-1.1,0.2c-0.2,0.8-0.1,1.7-0.2,2.5c-0.1,0-0.3,0.1-0.4,0.1
	c-2.3,0-4.6,0-7,0c-0.2,0-0.4,0-0.6-0.1c0.1-0.3,0.1-0.6,0.2-0.9c0.1-0.3,0-0.4-0.2-0.6c-0.5-0.3-0.6-0.8-0.5-1.4
	c0.1-0.3,0.1-0.5-0.1-0.7c-0.2-0.2-0.4-0.2-0.6-0.2c0,0-0.1,0-0.1-0.1c-0.1-0.2,0-0.3,0.1-0.5c0.2-0.3,0.2-0.4-0.2-0.6
	c-0.1,0-0.1,0-0.2-0.1c0,0-0.1-0.1-0.1-0.1c-0.1-0.3,0.1-0.9-0.5-0.9c0-0.2,0.1-0.3,0.1-0.5c0-0.1,0-0.3-0.1-0.4
	c0.1,0,0.1-0.1,0.1-0.1c0.3-0.2,0.3-0.2,0.2-0.4c-0.1-0.2-0.1-0.3-0.3-0.4c-0.1-0.1-0.2-0.1-0.4-0.2c0.2-0.2,0.4-0.4,0.6-0.6
	c0-0.1,0-0.3-0.1-0.5c0-0.2-0.1-0.3,0.1-0.5c0.1-0.1,0.2-0.3,0.1-0.5c-0.2-0.4-0.1-0.7,0.2-1.1c0.1-0.2,0.2-0.3,0.1-0.5
	c-0.2-0.5-0.1-1.1-0.1-1.7c0.1-0.7,0.1-0.5-0.3-1.1c0.2-0.5,0.3-0.9-0.1-1.3c-0.1-0.1-0.1-0.2-0.2-0.4c-0.1-0.1-0.1-0.3-0.2-0.4
	c-0.1-0.1-0.3-0.1-0.5-0.2c0.4-0.4,0.9-0.6,1.4-0.6c0.2,0,0.4,0,0.6-0.1c0.3-0.1,0.4-0.4,0.2-0.6c0,0-0.1-0.1-0.1-0.1
	c0,0-0.1-0.1-0.1-0.1c0.1-0.2,0.4-0.3,0.4-0.5c0,0,0-0.1,0.1-0.1c0.4-0.1,0.3-0.5,0.3-0.8c0.2,0,0.3-0.1,0.5-0.1
	c0.5,0,1-0.1,1.5-0.1c0.3,0,0.5-0.2,0.8-0.3c0.3-0.2,0.4-0.5,0.2-0.8c-0.1-0.2-0.3-0.4-0.4-0.6c0-0.1-0.2-0.2-0.3-0.2
	C315.6,280.5,315.4,280.6,315.2,280.6z"/>
<path fill="#C1C1C0" stroke="#FFFFFF" stroke-width="0.5318" stroke-miterlimit="10" d="M422.1,264c0-1.2-0.2-2.3-0.1-3.5
	c0.3,0,0.6-0.1,0.9-0.1c0.1-1.4-0.1-2.7-0.1-4c-0.3-0.2-0.6-0.2-0.9-0.2c-0.8,0-1.6,0-2.4,0.1c-0.2,0-0.4,0-0.7,0
	c-0.1-1.3,0-2.5-0.2-3.8c-0.2-0.2-0.4-0.1-0.6-0.1c-0.9,0-1.8,0-2.7,0.1c-0.2,0-0.4,0-0.6,0c0-0.2,0-0.3-0.1-0.4
	c-0.1-3.3-0.2-6.7-0.3-10c0-0.4-0.1-0.8,0.1-1.2c0.1-0.1,0-0.3,0-0.5c-0.1-3.7-0.3-7.4-0.4-11.1c0-0.5,0-1,0-1.6
	c0.4-0.3,1-0.6,1.6-0.6c0.7,0,1.3-0.2,1.9-0.4c0.7-0.2,1.4-0.4,2.2-0.6c0.2-0.1,0.4-0.1,0.6-0.1c0.5,0,0.9,0,1.4-0.1
	c0.8-0.2,1.7-0.3,2.5-0.5c0.4-0.6,0.8-1.2,1.1-1.9c0.2-0.3,0.4-0.6,0.7-0.9c0.1-0.1,0.3-0.2,0.4-0.3c0.4-0.2,0.7-0.2,1.1,0
	c0.1,0.1,0.3,0.1,0.4,0.2c0.5,0.3,1.1,0.3,1.7,0.3c0.2,0,0.4-0.1,0.5-0.2c0.2-0.1,0.5-0.2,0.7-0.3c0.1,0,0.3,0,0.4-0.1
	c0.1,2.4,0.2,4.8,0.3,7.1c0.1,2.3,0.2,4.7,0.3,7.1c0.2,0,0.4,0,0.6,0c1.5-0.1,3-0.1,4.5-0.2c0.2,0,0.5,0,0.7,0
	c0,0.2,0.1,0.3,0.1,0.5c0.1,0.9,0.1,1.9,0.1,2.8c0,0.1,0,0.3,0,0.5c0.1,0,0.3,0.1,0.4,0.1c0.6,0,1.2-0.1,1.8-0.1c0.3,0,0.6,0,1,0
	c0,0.2,0.1,0.3,0.1,0.4c0.1,1.3,0.2,2.7,0.2,4c0.1,1.6,0.1,3.2,0.2,4.8c0.1,2.6,0.2,5.3,0.4,7.9c0,0.7,0.1,1.3,0.1,2
	c-0.2,0.1-0.3,0.2-0.5,0.3c-0.1,1.2,0.1,2.5,0.1,3.8c-0.2,0-0.3,0.1-0.4,0.1c-0.8,0.1-1.6,0.1-2.4,0.1c-1.3,0.1-2.6,0.1-3.9,0.2
	c-0.7,0-1.5,0-2.2,0.1c-1.5,0.1-3,0.1-4.5,0.2c-1.7,0.1-3.5,0.2-5.2,0.2C423,264,422.6,264,422.1,264z"/>
<path fill="#D4EDEF" stroke="#FFFFFF" stroke-width="0.5318" stroke-miterlimit="10" d="M483.7,257.9c-0.1-0.1-0.2-0.2-0.2-0.2
	c-0.1,0-0.1,0-0.1,0c-0.2,0.2-0.5,0.3-0.6,0.6c-0.1,0.5-0.4,0.9-0.8,1.3c-0.3,0.3-0.7,0.7-1,1c-0.5,0.5-1.2,0.6-1.9,0.4
	c-0.4-0.2-0.9-0.3-1.3-0.5c-0.5-0.2-0.8-0.5-1.1-0.9c-0.4-0.5-0.5-0.6-1.2-0.5c-0.4,0.1-0.7,0.2-0.7,0.6c-0.1,0.3-0.4,0.4-0.5,0.8
	c-0.8-0.2-1.3,0-1.8,0.6c0.1,0.4-0.1,0.9-0.3,1.3c-0.1,0.2-0.2,0.4-0.3,0.7c-0.4,0.3-0.8,0.3-1.3,0c-0.1-0.1-0.3,0-0.6-0.1
	c-0.2-0.1-0.5-0.5-0.9-0.4c-0.1,0-0.3-0.1-0.3-0.2c-0.2-0.2-0.4-0.3-0.6-0.4c-0.2-0.1-0.3-0.1-0.5,0.1c-0.1,0.2-0.2,0.3-0.5,0.2
	c-0.1,0-0.2,0-0.2,0.1c-0.1,0.3-0.4,0.2-0.6,0.4c-0.1,0.2-0.3,0.3-0.5,0.4c0,0-0.1,0-0.2,0c0-0.2-0.1-0.5-0.1-0.7
	c-0.2-0.2-0.4-0.5-0.8-0.3c-0.6-0.2-1.2-0.1-1.9-0.2c-0.1-0.6-0.1-1.2-0.1-1.9c0-0.6,0-1.2-0.1-1.9c-0.3,0-0.5,0-0.9-0.1
	c-0.2-1.7-0.1-3.4-0.3-5.1c-0.2,0-0.3-0.1-0.5,0c-0.6,0-1.2,0.1-1.8,0.1c-0.4,0-0.7,0-1.1,0c-0.2-0.4-0.1-0.9-0.1-1.3
	c0-0.4-0.1-0.8-0.1-1.3c-0.4-0.2-0.8,0-1.2-0.1c-0.1-0.5-0.3-2.8-0.2-3.5c0.3-0.1,0.7-0.2,1,0c0.1,0,0.2,0.1,0.3,0.1
	c0.4,0,0.8,0,1.2,0c0-0.2,0.1-0.4,0.1-0.6c0.1,0,0.1-0.1,0.2-0.1c1-0.1,2-0.1,3-0.2c0.8,0,1.7-0.1,2.5-0.2c0-0.1,0.1-0.3,0.1-0.4
	c0-0.7-0.1-1.4-0.1-2.1c0-0.3,0-0.5,0-0.8c0.2-0.1,0.4-0.1,0.6-0.2c0-0.2,0.1-0.3,0.1-0.5c0.2-0.1,0.3,0.1,0.4,0.2
	c0.1,0.1,0.3,0.1,0.4,0.2c0.1,0.1,0.3,0.1,0.4,0.1c0.9-0.1,1.7-0.1,2.6-0.2c0.7,0,1.4,0,2.1,0c0.2,0,0.4,0,0.6-0.1
	c0.1-0.6-0.1-1.3,0-1.9c0.4,0,0.8-0.1,1.2-0.1c0.4,0,0.8-0.1,1.2-0.1c0-0.2,0.1-0.3,0-0.4c-0.1-2.3-0.3-4.5-0.4-6.8
	c0-0.7-0.1-1.3-0.1-2c0-0.2,0-0.4,0-0.6c0.5-0.2,1,0,1.5-0.2c0.1-0.6,0-1.2-0.1-1.8c0-0.6-0.1-1.2-0.1-1.9c0.2-0.1,0.4-0.1,0.6-0.2
	c0-0.1,0-0.1,0-0.2c0-0.3,0-0.7-0.1-1c0-0.2,0-0.4,0-0.7c0.2,0,0.3-0.1,0.4-0.1c0.4,0,0.8,0,1.2-0.1c0.2,0,0.4-0.1,0.6-0.1
	c0.1-0.6-0.1-1.3,0-1.9c0.1,0,0.2-0.1,0.4-0.1c1.5-0.2,5.8-0.4,6.4-0.3c0,0,0.1,0.1,0.1,0.1c0.1,1,0.1,2,0.2,3c0,0.1,0,0.3,0,0.4
	c-0.4,0.2-0.9,0-1.2,0.2c-0.1,0.5,0.1,3.1,0.3,4c0.2,0,0.4,0.1,0.5,0.1c0,0.1,0.1,0.1,0.1,0.1c0,0.3,0.1,0.7,0.1,1.1
	c0.2,0,0.4,0,0.6,0.1c0.1,0.6,0.1,1.2,0.2,1.8c0.2,0,0.4,0.1,0.5,0.1c0.2,0.7,0.1,1.5,0.2,2.2c0,0.7,0.1,1.5,0.2,2.2
	c0.1,0,0.3,0.1,0.4,0.1c0.3,0,0.6,0,0.9,0c0,0.2,0.1,0.3,0.1,0.5c0.1,1,0.1,1.9,0.2,2.9c0,0.1,0,0.3,0.1,0.4c0.2,0,0.3,0.1,0.5,0.1
	c0.2,0.4,0.1,0.9,0.2,1.4c0,0.4,0,0.9,0.1,1.3c0.2,0,0.3,0.1,0.5,0.1c0,0.1,0.1,0.1,0.1,0.2c0.1,0.3,0,0.7,0.2,1
	c0.6,0.2,1.2-0.2,1.8,0c0.2,0.3,0.1,0.7,0.2,1.1c0.2,0,0.3,0.1,0.6,0.1c0,0.2,0.1,0.3,0.2,0.5c0.2,0,0.4,0.1,0.6,0.1
	c0,0.2,0,0.4,0.1,0.6c0,0.2,0,0.3,0,0.5c0.2,0,0.4,0.1,0.6,0.1c0.2,0.8,0.2,1.7,0.3,2.5c0.4,0.1,0.9-0.1,1.3,0.1
	c0.1,0.6,0.1,1.2,0.2,1.8c0.1,0,0.3,0.1,0.4,0.1c0.3,0,0.6,0,0.9-0.1c1.5-0.1,3.1-0.2,4.6-0.3c0.2,0,0.5,0,0.7,0
	c0.2,0.2,0.2,0.5,0.2,0.7c0,0.9,0.3,1.8,0.1,2.8c-1.6,0.2-3.1,0.3-4.7,0.4c-1.6,0.1-3.1,0.2-4.7,0.4c0,0.2,0,0.3,0,0.4
	c0.1,0.9,0.1,1.9,0.2,2.8c0,0.2,0,0.4,0,0.6c-0.3,0-0.5,0.1-0.7,0.1c-2,0.1-3.9,0.2-5.9,0.3c0,0-0.1-0.1-0.1-0.1
	c0-0.1,0.1-0.2,0.1-0.3c0-0.2,0-0.3-0.2-0.4c-0.1-0.1-0.2-0.2-0.3-0.3c-0.2-0.5-0.5-0.6-1-0.4c-0.2-0.3-0.4-0.5-0.5-0.8
	c0-0.3-0.3-0.4-0.6-0.4C484,257.9,483.9,257.9,483.7,257.9z"/>
<path fill="#64BCBB" stroke="#FFFFFF" stroke-width="0.5318" stroke-miterlimit="10" d="M360.9,252.3c-0.2,0.4-0.3,0.8-0.5,1.2
	c-0.2,0.4-0.1,0.6,0.3,0.9c0,0,0.1,0.1,0.1,0.1c0,0.1-0.1,0.3-0.1,0.5c-0.1,0.1-0.3,0.1-0.4,0.2c-0.1,0.1-0.1,0.2-0.2,0.4
	c-0.1,0.2-0.2,0.3-0.5,0.4c-0.3,0.1-0.6,0.2-0.9,0.3c-0.1,0.5-0.2,0.9,0.2,1.3c0.1,0.1,0.2,0.2,0.2,0.4c0.1,0.4,0.2,0.7,0.6,0.9
	c0.1,0,0.1,0.2,0.2,0.3c0,0.4,0.3,0.8,0.4,1.1c0.1,0.3,0.2,0.3,0.5,0.1c0.3-0.2,0.5,0,0.6,0.2c0.1,0.3,0.2,0.6,0.4,1
	c-0.1,0.2-0.2,0.5-0.3,0.8c-0.1,0-0.2,0-0.4,0c0,0,0,0-0.1,0c-0.5,0.1-0.7,0.5-1.1,0.7c-0.2,0.1-0.3,0.4-0.3,0.6
	c-0.3,0.3-0.6,0.3-1,0.1c-0.1-0.1-0.3-0.1-0.4-0.1c-0.3,0-0.5,0.2-0.5,0.5c0,0.1,0,0.2,0,0.3c0,0,0,0,0,0.1c0,0-0.1,0.1-0.1,0.1
	c-0.7,0.2-0.7,0.3-0.6,0.9c0,0.1,0.1,0.2,0,0.3c0,0.6,0.2,1.2,0.4,1.7c-0.1,0.2-0.2,0.4-0.2,0.6c-0.1,0.3,0.1,0.6,0.5,0.5
	c0.1,0,0.3-0.1,0.4-0.1c0.3-0.1,0.4-0.1,0.6,0.2c0.1,0.1,0.2,0.3,0.2,0.4c-0.1,0.4,0.2,0.5,0.4,0.7c0.1,0.1,0.2,0.1,0.4,0.2
	c-0.1,0.3-0.4,0.4-0.7,0.4c-0.6,0-1.2,0-1.8,0c-4.1,0.1-8.2,0.1-12.3,0.2c-1.9,0-3.9,0.1-5.8,0.2c-0.2,0-0.4,0-0.6,0
	c-0.1-0.2-0.1-0.3-0.2-0.5c-0.1-0.3-0.3-0.4-0.6-0.4c0,0-0.1,0-0.1,0c-0.5,0.1-0.9,0-1.3-0.3c-0.2-0.2-0.5-0.3-0.8-0.4
	c-0.3-0.1-0.6,0-0.8,0.1c-0.1-0.2-0.2-0.3-0.3-0.4c-0.1-0.1-0.1-0.2-0.2-0.2c-0.6-0.2-0.7-0.7-1-1.1c-0.2-0.3-0.3-0.7-0.5-1.1
	c-0.2-0.1-0.4-0.2-0.7-0.3c0-0.2,0-0.5-0.1-0.7c0-0.2-0.1-0.4-0.1-0.6c-0.4-0.2-0.8-0.4-1.2-0.6c-0.1-0.1-0.3-0.1-0.4-0.1
	c-0.3-0.1-0.5-0.1-0.7-0.4c-0.1-0.2-0.4-0.3-0.6-0.4c-0.5-0.2-0.8-0.6-1.1-1.1c-0.1-0.2-0.3-0.5-0.4-0.6c-0.2-0.2-0.4-0.4-0.5-0.7
	c-0.1-0.1-0.2-0.2-0.3-0.3c-0.3-0.2-0.5-0.5-0.8-0.7c0-0.7,0.3-1.3,0.7-1.8c0.4-0.5,0.3-1,0.3-1.5c0-0.1,0-0.1,0-0.2
	c0.3-0.9,0.3-1,0.1-1.6c0.1-0.3,0.2-0.5,0.4-0.9c-0.5-0.2-1,0.1-1.4-0.1c0-0.2-0.1-0.3-0.1-0.5c-0.6-0.1-1.2-0.1-1.7,0
	c-0.3,0.2-0.3,0.7-0.8,0.6c-0.2-0.5-0.2-1.5,0-2.2c0.2,0,0.3-0.1,0.5-0.1c0.2-0.4,0-0.8,0.2-1.2c0.3,0,0.5,0,0.8,0
	c0,0.2,0.1,0.4,0.1,0.6c0.6,0.1,1.6,0.1,2.2,0c0.1-0.5,0-1,0-1.5c0-0.5,0-1,0-1.5c0-0.5,0-1,0-1.5c1-0.1,2,0,2.9-0.1
	c0.2-0.5,0.2-0.5-0.1-1c0.4-0.2,0.7-0.2,1.1-0.2c3.2,0,6.4,0,9.6-0.1c1.7,0,3.5,0,5.2,0c2.6,0,5.3-0.1,7.9-0.1c0.8,0,1.6,0,2.4,0
	c0.4,0,0.6,0.2,0.5,0.6c0,0.3,0,0.5,0.2,0.7c0,0,0.1,0.1,0.1,0.1c0.1,0.5,0.5,0.8,0.8,1.2c0.9,0.1,1.7,0.4,2.4,1
	c0,0.4,0,0.9-0.1,1.3c-0.1,0.4-0.1,0.7,0.1,1c0.2,0.3,0.4,0.7,0.5,1.1C360.8,252.1,360.8,252.2,360.9,252.3z"/>
<path fill="#D4EDEF" stroke="#FFFFFF" stroke-width="0.5318" stroke-miterlimit="10" d="M356.5,293.1c0.2-0.5,0-1,0-1.4
	c0,0,0-0.1,0-0.1c0.2-0.4,0.1-0.8-0.1-1.2c-0.1-0.1,0-0.3,0-0.4c0.1-0.3,0.1-0.6,0-1c0.4-0.3,0.6-0.8,1.1-1c0.1-0.1,0.2-0.2,0.1-0.4
	c-0.1-0.3-0.1-0.5-0.2-0.9c0.3-0.4,0.4-0.8,0.4-1.3c0-0.3,0-0.6,0.1-0.8c0.2-0.5,0-0.9-0.2-1.2c-0.3-0.4-0.2-0.7,0-1
	c0.2-0.3,0.2-0.7,0.1-1c0-0.1,0-0.1,0-0.2c0-0.2,0-0.3,0-0.5c0-0.2,0-0.4,0.2-0.6c0.2-0.2,0.2-0.4,0-0.6c-0.1-0.2-0.2-0.3-0.3-0.5
	c0.1-0.4,0.3-0.7,0.1-1.1c-0.1-0.2,0-0.4,0.2-0.6c0.2-0.2,0.5-0.3,0.6-0.6c0.1-0.1,0.3-0.2,0.4-0.3c-0.1-0.2-0.2-0.3-0.3-0.4
	c-0.1-0.1-0.2-0.2-0.3-0.4c-0.2,0-0.4,0.1-0.6,0.1c-0.3-0.3-0.8-0.3-0.8-0.9c0.1-0.3,0.4-0.5,0.7-0.6c0.3-0.1,0.7-0.2,1-0.4
	c0.3-0.2,0.7-0.1,1-0.1c3.8-0.1,7.5-0.1,11.3-0.2c2.7-0.1,5.3-0.1,8-0.2c0.4,0,0.9-0.1,1.3,0.1c0.1,0,0.3,0,0.4,0
	c1.9,0,3.8-0.1,5.7-0.1c2.6-0.1,5.2-0.2,7.8-0.2c2.6-0.1,5.2-0.1,7.7-0.2c0.3,0,0.5,0,0.8,0c0,0.5-0.6,0.6-0.6,1.2
	c0,0.1,0.3,0.3,0.2,0.6c0,0,0,0.1,0.1,0.2c0.4,0.3,0.4,0.8,0.4,1.2c0,1.9,0.1,3.7,0.2,5.6c0,0.6,0.1,1.1,0.1,1.7c0,0.2,0,0.5,0,0.7
	c-0.2,0.2-0.4,0.1-0.7,0.1c-2.9,0.1-5.8,0.2-8.7,0.3c-1.6,0.1-3.2,0.1-4.8,0.2c0,0.2-0.1,0.3-0.1,0.5c0,0.9,0.1,1.8,0.1,2.7
	c0,0.2,0,0.4,0,0.6c-0.2,0.2-0.4,0.1-0.6,0.1c-1.2,0-2.4,0.1-3.5,0.1c-0.3,0-0.6,0-1,0c0,0.2-0.1,0.3-0.1,0.5c0,0.8,0,1.7,0.1,2.5
	c0,0.3,0,0.5,0,0.8c-0.2,0.2-0.4,0.1-0.6,0.1c-1.8,0-3.5,0.1-5.3,0.1c-2.7,0-5.5,0-8.2,0.1c-2.2,0-4.4,0.1-6.5,0.1c-2,0-4,0.1-6,0.1
	C357.1,293.1,356.8,293.1,356.5,293.1z"/>
<path fill="#A3DAD9" stroke="#FFFFFF" stroke-width="0.5318" stroke-miterlimit="10" d="M421.7,261.1c0.1,1.1,0.1,2.2,0.2,3.2
	c0.2,0.2,0.5,0.1,0.7,0.1c0.8,0,1.7-0.1,2.5-0.1c0.2,0,0.4,0,0.6,0c0.1,1.3,0.2,2.6,0.2,3.9c0,1.2,0.1,2.5,0.2,3.8
	c0.2,0,0.4,0.1,0.6,0.1c0,0.2,0,0.5,0,0.7c0.1,2.3,0.2,4.6,0.3,6.9c0.1,1.6,0.1,3.2,0.2,4.8c0.1,1.8,0.2,3.7,0.2,5.5
	c0.1,1.5,0.1,3.1,0.1,4.6c0,0.1,0,0.2-0.1,0.4c-0.1,0-0.2,0.1-0.4,0.1c-2.4,0.1-4.7,0.2-7.1,0.3c-0.1-0.6-0.1-1.2-0.1-1.9
	c-0.1-0.6,0-1.2-0.1-1.8c-1.3-0.1-2.6,0.1-3.9,0c-0.2-0.7,0-1.4-0.2-2.1c-0.6-0.1-4.2,0-5.9,0.2c-2.5,0.2-5.1,0.2-5.8,0.1
	c0-0.1,0-0.2,0-0.3c-0.1-1.2-0.1-2.5-0.1-3.7c-0.1-2.5-0.1-5-0.2-7.5c0-0.9-0.1-1.7-0.1-2.6c0-0.4,0-0.8-0.3-1.1
	c-0.1-0.1-0.1-0.2-0.1-0.3c0-0.1,0-0.3,0-0.4c0.3-0.1,0.5-0.3,0.5-0.7c0-0.3,0.1-0.5,0.2-0.8c-0.2-0.4-0.6-0.4-1-0.5
	c-0.1-0.3-0.3-0.6-0.5-0.9c-0.3-0.1-0.6-0.1-0.8-0.4c-0.1-0.1-0.3-0.1-0.4-0.2c-0.1-0.1-0.1-0.3-0.2-0.4c0,0,0.1-0.1,0.1-0.1
	c0.1-0.1,0.2-0.1,0.3-0.2c0.2-0.2,0.3-0.5,0.1-0.7c0-0.1-0.1-0.1-0.1-0.2c-0.1-0.1-0.2-0.2-0.4-0.4c-0.1,0-0.3,0-0.5,0.1
	c-0.1-0.3-0.2-0.6-0.2-0.8c0-0.3-0.2-0.6-0.3-0.9c-0.1-0.2-0.1-0.4,0-0.6c0.1-0.1,0.1-0.2,0.1-0.3c0-0.3,0-0.6-0.1-0.9
	c-0.1-0.3-0.2-0.7-0.1-1c0-0.1,0-0.3,0-0.4c-0.2-0.2-0.2-0.4-0.1-0.6c0-0.1,0-0.2,0-0.3c-0.1-0.2-0.1-0.3,0-0.5
	c0.1-0.2-0.1-0.3-0.1-0.6c0.1,0,0.2,0,0.3,0c0.6,0,1.2,0,1.8,0c0.2,0,0.5,0,0.7,0c1.4,0,2.7-0.1,4.1-0.1c0.4,0,0.8-0.1,1.3-0.1
	c0.9,0,1.8-0.1,2.8-0.1c0.5,0,1,0,1.5,0c0.9,0,1.9-0.1,2.8-0.1c1,0,1.9,0,2.9-0.1c1.1-0.2,2.1-0.1,3.2-0.2
	C421.3,261.1,421.4,261.1,421.7,261.1z"/>
<path fill="#D4EDEF" stroke="#FFFFFF" stroke-width="0.5318" stroke-miterlimit="10" d="M287.4,385.2c-0.4,0.2-0.9,0.2-1.3,0.1
	c-0.2,0-0.4,0-0.6,0c-0.2,0-0.4,0-0.6,0c-0.5-0.1-0.6-0.1-0.7-0.7c0-0.1-0.1-0.2-0.1-0.3c0-0.3,0.1-0.6,0.3-0.8
	c0.1-0.1,0.3-0.2,0.4-0.3c0.3-0.2,0.4-0.5,0.3-0.9c0-0.1-0.1-0.2-0.1-0.3c0.1-0.1,0.2-0.2,0.4-0.4c0-0.7,0.2-1.5-0.1-2.3
	c0.2,0,0.3-0.1,0.4,0c0.5,0.2,0.9,0.1,1.3-0.1c0.1,0,0.1,0,0.2,0c0.3,0.4,0.7,0.3,1.2,0.2c0.4-0.1,0.8-0.2,1-0.6
	c0.1-0.2,0.2-0.3,0.2-0.6c0-0.2,0.1-0.4,0.1-0.5c0.1-0.2,0.2-0.3,0.3-0.5c0.2-0.3,0.4-0.6,0.1-0.8c0.1-0.4,0.2-0.6,0.4-0.9
	c0-0.1,0.1-0.2,0.2-0.3c0.2-0.2,0.5-0.3,0.5-0.7c0-0.1,0.1-0.2,0.1-0.2c0.3-0.3,0.2-0.6,0-0.8c-0.1-0.1-0.1-0.2-0.2-0.3
	c0.1-0.2,0.2-0.4,0.4-0.6c0.7-1,1.3-2.1,2-3.1c0-0.1,0.1-0.1,0.1-0.2c0.1-0.4,0.2-0.7,0.4-1.1c0.2-0.3,0.4-0.6,0.4-1
	c0-0.1,0-0.1,0.3-0.3c0,0.5,0.1,0.9,0.1,1.3c0.4,0.1,0.4,0.1,0.8,0.1c0-0.1,0.1-0.3,0.1-0.4c0.4,0,0.2,0.3,0.5,0.5
	c0.1,0,0.2,0,0.4,0c0.7,0,1.5,0,2.2,0c0.2,0,0.4,0,0.5,0.2c0.4,0.1,0.5,0.4,0.7,0.7c0.2,0.1,0.5,0,0.6,0.3c0,0.1,0.2,0.1,0.3,0.1
	c0.2,0,0.5,0,0.7,0c0.2,0,0.5,0,0.6,0.3c0,0.1,0.2,0.1,0.3,0.1c0.2,0,0.4,0,0.6,0.1c0.4,0.2,0.7,0.1,1-0.2c0.2-0.2,0.4-0.2,0.6-0.3
	c0.2-0.1,0.4-0.1,0.6,0c0.1,0,0.1,0,0.2,0c0-0.2,0.1-0.4,0.1-0.6c0.2,0,0.4,0,0.6,0c0.1,0,0.2-0.1,0.3-0.1c0.1-0.2,0.3-0.2,0.4-0.2
	c0.2,0,0.5,0,0.7,0.1c0.3,0.1,0.6,0.1,1,0c0.3-0.1,0.7-0.2,0.9,0.2c0.2,0,0.4,0.1,0.6,0.1c0.2,0.2,0,0.6,0.2,0.9
	c0.1,0,0.3,0.1,0.5,0.2c0,0.1,0.1,0.1,0.1,0.2c0,1,0,2,0,3c0,0.9,0,1.7,0,2.6c0,0.7,0.1,1.4,0.1,2.1c0,0.8,0,1.7,0,2.5
	c0,3.7,0,7.3-0.1,11c0,1.1,0,2.3,0,3.4c0,2,0,3.9,0,5.9c0,0.2,0,0.4,0,0.6c-0.1,0-0.2,0.1-0.3,0.1c-1.4,0.1-2.9,0.1-4.3,0.2
	c-0.3,0-0.6,0-0.9,0c-1.1-0.1-2.1-0.1-3.2-0.1c-1.1,0-2.3,0-3.4,0c-0.6,0-1.1,0-1.7,0.1c-0.4,0.1-0.7,0.1-1.1,0.1
	c-1.4-0.1-2.9-0.1-4.3,0c-0.4,0-0.6-0.1-0.7-0.5c-0.2-0.5-0.3-0.5-0.2-0.8c0-0.2,0-0.3-0.2-0.4c-0.1-0.1-0.1-0.2-0.2-0.3
	c0.2-0.3,0.2-0.7,0.5-0.9c0.2-0.6,0.5-1.1,0.1-1.7c-0.1-0.1-0.1-0.3-0.2-0.4c-0.2-0.2-0.3-0.5-0.2-0.8c-0.2-0.2-0.5-0.2-0.6-0.6
	c0.3-0.3,0.6-0.6,1-0.8c0.2-0.1,0.3-0.4,0.4-0.5c0.1-0.5,0-0.9-0.2-1.3c0.1-0.2,0.2-0.5,0.3-0.7c0-0.1,0.1-0.1,0.2-0.2
	c0.2-0.1,0.4-0.2,0.5-0.3c0-0.3-0.1-0.5-0.1-0.9c-0.1-0.1-0.3-0.2-0.5-0.4c-0.1-0.2-0.1-0.4-0.2-0.6c0-0.1,0-0.2,0-0.2
	c-0.4-0.4-0.5-1-0.8-1.5c0-0.1-0.1-0.2-0.2-0.2c0.1-0.1,0.1-0.3,0.2-0.4c-0.1-0.5-0.4-0.7-0.9-0.6c-0.3-0.3-0.4-0.6-0.4-1
	c-0.2-0.2-0.4-0.3-0.5-0.4c-0.1,0-0.1,0-0.2,0C288,386,288,385.9,287.4,385.2z"/>
<path fill="#D4EDEF" stroke="#FFFFFF" stroke-width="0.5318" stroke-miterlimit="10" d="M272.6,342.4c0.3-0.5,0.5-1,1-1.2
	c0.5-0.2,0.8-0.6,1.4-0.5c0.4-1,0.6-2,0.9-2.9c0.4-1,0.6-2,0.9-3c0.3-1,0.6-1.9,0.9-2.9c0.3-1,0.6-1.9,0.9-2.9c0.5,0,1.1-0.1,1.6,0
	c3.2,0.1,6.4,0.2,9.6,0.2c0,0.2,0.1,0.4,0.1,0.5c0,0.9,0,1.8,0,2.7c0,0.3-0.1,0.6,0.1,0.9c0.6,0.1,1.2,0,1.8,0.1
	c0.1,0.4,0,0.8,0,1.2c0,0.4,0,0.9,0,1.3c0,0.4,0,0.8,0,1.2c0.6,0.2,1.1,0,1.6,0.1c0.2,0.2,0.1,0.4,0.1,0.5c0,2.1,0,4.2,0,6.3
	c0,0.3,0,0.6,0.1,0.9c0.6,0.1,1.2,0,1.9,0.1c0,0.1,0.1,0.2,0.1,0.4c0,1,0,2,0,3.1c0,0.8,0,1.6,0.1,2.3c0,0.4,0,0.9,0,1.3
	c0,0.4-0.2,0.5-0.5,0.5c-0.3,0-0.5,0-0.8,0c-0.2,0-0.4,0-0.6,0c-0.1,0.7,0,1.3-0.1,1.9c0,0.6,0,1.3-0.1,1.9c-0.6,0.1-1.3,0-1.9,0.1
	c0,0.2-0.1,0.3-0.1,0.5c0,1.3,0,2.7,0,4c0,1,0,1.9,0,2.9c0,0.3,0,0.5,0.2,0.7c0.1,0,0.1,0.2,0.1,0.3c0,0.3,0,0.6,0,0.9
	c-0.2,0-0.4,0-0.6,0.1c-0.1,0-0.3,0-0.4,0c-0.2,0-0.2,0.3-0.4,0.3c-0.2,0-0.3,0-0.4,0.2c-0.1,0.1-0.2,0.1-0.4,0.1c-0.3,0-0.7,0-1,0
	c-0.1,0-0.3,0-0.4,0.1c0,0.5,0,1-0.1,1.4c-0.1,0.1-0.3,0.1-0.3,0.2c-0.1,0.4-0.3,0.4-0.6,0.4c-0.1,0.2-0.1,0.4-0.2,0.6
	c-0.1,0-0.3,0.1-0.5,0.1c0,0.2-0.1,0.3-0.2,0.5c-0.2,0-0.4,0.1-0.5,0.1c0,0.2-0.1,0.4-0.1,0.6c-0.4,0-0.9,0-1.3,0
	c-0.4,0-0.8,0-1.2,0c-0.2,0-0.5,0-0.6,0.2c0,0.1-0.2,0.1-0.3,0.1c-0.5,0-0.5,0-0.9,0.3c-0.1-0.3-0.1-0.7-0.1-1c0-0.3,0-0.7,0-1
	c0-0.3,0-0.7,0-1c-0.2-0.1-0.4-0.1-0.6-0.2c0-0.1,0-0.1-0.1-0.2c0-0.4,0-0.9,0-1.3c0-0.3,0-0.5-0.1-0.8c-0.1-0.3-0.1-0.6,0.1-1
	c0.1-0.1,0.1-0.3,0.1-0.4c0.2,0,0.3-0.1,0.5-0.1c0.2-0.7,0.1-1.3-0.3-1.8c-0.2-0.2-0.2-0.5-0.3-0.8c-0.2,0-0.4-0.1-0.6-0.1
	c-0.1-0.3-0.4-0.6-0.7-0.7c-0.2-0.1-0.3-0.3-0.3-0.5c0-0.2-0.1-0.3-0.2-0.4c-0.1-0.1-0.1-0.3-0.2-0.5c-0.2-0.1-0.6,0-0.7-0.4
	c-0.3-0.1-0.3-0.5-0.6-0.7c-1.2-0.1-2.4,0-3.7-0.1c-1.2-0.1-2.5,0.1-3.8-0.1c0.1-0.3,0.1-0.5,0.2-0.7c0.5-1.6,1-3.2,1.5-4.8
	c0.1-0.2,0.1-0.5,0.1-0.8c-0.1-0.2,0-0.5,0.1-0.7c0.4-0.8,0.7-1.7,0.9-2.6c0.2-0.7,0.3-1.3,0.3-2c0-0.5,0.1-1.1,0.3-1.6
	c0.2-0.4,0.2-0.7,0.1-1.1C273,343.2,272.9,342.8,272.6,342.4z"/>
<path fill="#D4EDEF" stroke="#FFFFFF" stroke-width="0.5318" stroke-miterlimit="10" d="M290.9,397.8c-0.1,0.4-0.2,0.7-0.4,1
	c-0.2,0.2-0.1,0.5-0.2,0.6c-0.3,0.3-0.2,0.6,0,0.8c0.1,0.2,0.2,0.4,0.1,0.7c0,0.1,0,0.2,0.1,0.3c0.1,0.1,0.2,0.3,0.2,0.4
	c-0.1,0.2-0.2,0.2-0.3,0.2c-2.7,0-5.4-0.1-8.1-0.1c-1,0-2,0-3.1-0.1c-0.4,0-0.8,0-1.2-0.1c-0.4-0.5-0.7-1-1.2-1.2
	c-0.2-0.1-0.3-0.3-0.4-0.4c-0.2-0.2-0.5-0.5-0.8-0.4c-0.2,0-0.4-0.1-0.4-0.3c-0.1-0.3-0.3-0.5-0.5-0.7c-0.1-0.1-0.2-0.3-0.2-0.4
	c-0.1-0.3-0.2-0.5-0.4-0.6c-0.5-0.4-0.7-0.8-0.6-1.5c0.1-0.8,0.1-0.9-0.5-1.4c0.1-0.2,0.2-0.4,0.2-0.6c0-0.2,0-0.4,0-0.6
	c-0.2-0.3-0.4-0.4-0.5-0.7c-0.1-0.2-0.2-0.4-0.2-0.7c0.1-0.7-0.3-1.1-0.7-1.5c-0.1-0.1-0.2-0.1-0.2-0.2c0-0.3,0-0.5,0.1-0.8
	c0.1-0.7,0.1-1.5-0.2-2.2c0-0.1-0.1-0.3-0.2-0.3c-0.1-0.1-0.2-0.2-0.3-0.2c0.3-1.3,0.4-2.6,0.2-3.9c0.5-0.6,1.3-0.7,1.9-1.2
	c0-0.2,0-0.3,0.1-0.5c0.1-0.3,0.2-0.5,0.5-0.5c0.1,0,0.2-0.1,0.3-0.1c0-0.1,0-0.2-0.1-0.3c-0.1-0.1-0.2-0.1-0.2-0.1
	c-0.4,0.1-0.8,0.2-1.2,0.3c0,0.2,0.1,0.3,0.1,0.4c0.1,0.3,0,0.6-0.3,0.7c-0.3,0.1-0.6,0.3-0.8,0.4c-0.1,0-0.2,0-0.4,0
	c0.1-0.3,0.2-0.5,0.4-0.7c0.2-0.2,0.2-0.5,0.2-0.7c0-0.6,0-1.3,0.3-1.8c0.1-0.1,0.1-0.3,0.2-0.4c0.1-0.6,0.4-1.2,0.6-1.7
	c0.2-0.5,0.2-1.1-0.1-1.6c-0.1-0.2-0.2-0.3-0.1-0.5c0-0.3,0-0.5,0-0.8c0-0.2,0-0.4-0.1-0.6c-0.1-0.3-0.3-0.5-0.2-0.8
	c0-0.1,0-0.2-0.1-0.3c-0.3-0.3-0.6-0.8-1.2-0.9c0-0.4,0-0.7-0.3-1.1c-0.2-0.3-0.2-0.7-0.3-1.1c-0.1-0.6-0.5-0.9-1-1.1
	c-0.2-0.1-0.4,0-0.6,0.1c0,0,0-0.1,0-0.2c0-0.8-0.1-1.5-0.3-2.3c-0.1-0.7-0.5-1.2-1-1.7c0.1-0.2,0.2-0.4,0.4-0.6
	c0.2-0.3,0.4-0.5,0.3-0.9c0-0.1,0.1-0.2,0.1-0.3c0,0,0,0,0-0.1c0.7-0.9,1.1-1.9,1.5-3c0.1-0.2,0.1-0.3,0.2-0.5c0.1,0,0.2,0,0.3,0
	c2.3,0,4.6,0.1,6.9,0.1c0.4,0.4,0.5,1.1,1.2,1c0.1,0.4,0.2,0.8,0.3,1.2c0.2,0.1,0.5,0.3,0.7,0.5c0.1,0,0.1,0.1,0.2,0.1
	c0.3,0.4,0.3,0.4,0.8,0.5c0,0.3,0.1,0.6,0.3,0.9c0.3,0.3,0.4,0.7,0.3,1.1c-0.2,0-0.4,0.1-0.5,0.1c-0.2,0.7-0.3,1.4-0.1,2.2
	c0.1,0.2,0,0.4,0,0.6c0,0.5,0,0.9,0,1.5c0.2,0,0.4,0.1,0.7,0.1c0,0.2,0,0.3,0,0.5c0,0.7,0,1.4,0,2.1c0,0.2,0,0.3,0.1,0.5
	c0.1,0.3,0.3,0.3,0.6,0.1c0.1-0.1,0.3-0.3,0.4-0.4c0.2,0,0.4,0,0.5,0c0.1,0,0.2,0,0.3-0.1c0.1-0.2,0.3-0.2,0.6-0.2
	c0.6,0,1.2,0,1.8,0c0.2,0,0.5,0,0.7,0c0.1-0.2,0.1-0.4,0.2-0.6c0.2,0,0.3-0.1,0.6-0.1c0-0.1,0.1-0.3,0.1-0.5c0.2,0,0.3-0.1,0.5-0.1
	c0-0.2,0.1-0.4,0.2-0.5c0.2,0,0.3-0.1,0.5-0.1c0.1-0.2,0.1-0.4,0.4-0.5c0,0,0.1-0.1,0.1-0.2c0-0.3,0-0.5,0-0.8c0-0.2,0-0.3,0.1-0.5
	c0.4-0.1,0.8,0,1.2,0c0.3,0,0.6,0.1,0.8-0.2c0.3,0,0.5-0.1,0.7-0.3c0.1-0.1,0.4-0.1,0.5,0c0.2,0,0.5,0,0.7,0.1
	c0.2-0.1,0.3-0.3,0.5-0.4c0.1-0.1,0.3-0.1,0.3-0.1c0.5,0.3,1.1,0.4,1.5,0.9c-0.2,0.5-0.3,1-0.7,1.5c-0.1,0.1-0.2,0.3-0.2,0.5
	c0,0.4-0.3,0.7-0.5,1c-0.6,1-1.3,2-1.9,3.1c-0.3,0.5-0.3,0.6,0.1,1.1c0,0,0,0.1,0.1,0.1c-0.1,0.2-0.2,0.5-0.3,0.7
	c0,0.1-0.1,0.2-0.2,0.2c0,0-0.1,0.1-0.1,0.1c-0.4,0.2-0.3,0.6-0.5,0.9c-0.2,0.3-0.3,0.6-0.1,1c-0.2,0.2-0.3,0.4-0.5,0.7
	c-0.1,0.2-0.3,0.4-0.3,0.6c0,0.4-0.2,0.7-0.4,0.9c-0.2,0.1-0.4,0.1-0.6,0.2c-0.2,0.1-0.4,0.1-0.6-0.1c-0.2-0.2-0.4-0.2-0.7-0.1
	c-0.2,0-0.4,0.1-0.6,0.1c-0.1,0-0.3,0-0.4,0c-0.4-0.3-0.7-0.1-1,0.1c-0.2,0.1-0.3,0.4-0.1,0.6c0.1,0.1,0.2,0.2,0.2,0.4
	c0,0.4,0,0.8-0.1,1.3c0,0.1,0,0.2-0.1,0.3c-0.3,0.3-0.3,0.6-0.2,1c0,0.1,0,0.1,0,0.2c0,0.1-0.1,0.1-0.1,0.2
	c-0.5,0.3-0.8,0.7-0.9,1.3c0.2,0.4,0.1,0.9,0.6,1.3c0.8,0.2,1.6,0.2,2.5,0.2c0.4,0,0.7,0.1,1,0.3c0,0.1,0.1,0.1,0.2,0.2
	c0.3,0,0.6-0.1,0.9-0.2c0.1,0.1,0.3,0.2,0.3,0.4c0,0.4,0.3,0.6,0.4,0.9c0.2,0.1,0.5,0.1,0.7,0.2c0,0.1,0,0.2,0,0.2
	c-0.1,0.3-0.2,0.5,0.1,0.7c0,0.4,0.5,0.7,0.5,1.1c0,0.1,0,0.1,0.1,0.2c0.3,0.3,0.3,0.7,0.3,1.1c0.2,0.1,0.4,0.2,0.5,0.3
	c0.2,0.2,0.1,0.5-0.2,0.6c-0.2,0.1-0.3,0.1-0.3,0.3c-0.1,0.3-0.4,0.4-0.4,0.8c0,0.2,0,0.3,0.1,0.5c0.2,0.2,0.2,0.4,0.1,0.7
	c-0.1,0.2-0.2,0.5-0.4,0.6c-0.4,0.1-0.6,0.5-0.9,0.7c-0.2,0.1-0.2,0.3-0.1,0.6c0,0,0,0,0,0.1c0.2,0.3,0.5,0.6,0.6,0.9
	C290.5,397.1,290.7,397.4,290.9,397.8z"/>
<path fill="#D4EDEF" stroke="#FFFFFF" stroke-width="0.5318" stroke-miterlimit="10" d="M418.4,252.7c0.1,1.3,0.1,2.6,0.2,3.8
	c0.3,0.1,0.6,0.1,0.8,0.1c0.8,0,1.5-0.1,2.3-0.1c0.3,0,0.5,0,0.8,0.1c0.1,0.5,0.2,2.6,0.2,3.5c-0.2,0.2-0.5,0.1-0.8,0.2
	c0,0.1-0.1,0.3-0.1,0.5c-0.1,0-0.1,0.1-0.1,0.1c-0.4,0-0.8,0.1-1.3,0.1c-0.8,0-1.6,0.1-2.4,0.2c-0.9,0.1-1.8,0.1-2.8,0.1
	c-1.2,0-2.3,0.1-3.5,0.1c-0.9,0-1.8,0-2.8,0c-2.1,0.2-4.3,0.1-6.4,0.2c-0.3,0-0.7,0-1,0c-0.6,0-1.3,0-2,0c-0.2-0.3-0.5-0.6-0.7-1
	c0.2-0.4,0.5-0.2,0.7-0.4c0.3-0.2,0.5,0.3,0.8,0.1c0.1-0.5,0.3-1-0.1-1.5c0.1-0.1,0.2-0.2,0.3-0.3c0.1-0.1,0.1-0.2,0.1-0.3
	c0-0.1-0.1-0.2-0.2-0.2c-0.2,0-0.4,0-0.5-0.2c0-0.1,0.1-0.3,0.1-0.5c-0.3-0.2,0-0.7-0.4-0.9c-0.1,0,0-0.2-0.1-0.3
	c-0.1-0.2-0.3-0.4-0.5-0.4c-0.5,0.2-0.8-0.2-1.2-0.5c0.1-0.2,0.3-0.4,0.2-0.6c-0.1-0.1-0.3-0.2-0.5-0.3c-0.1-0.2-0.2-0.5-0.4-0.8
	c0.1-0.1,0.1-0.1,0.2-0.1c0.4-0.2,0.4-0.3,0.2-0.7c0-0.1-0.1-0.1-0.1-0.2c0.2-0.3-0.1-0.6,0-0.9c0,0,0.1-0.1,0.2-0.1
	c0.5-0.3,0.5-0.4,0.2-0.8c0-0.1-0.1-0.2-0.1-0.2c0.3-0.4-0.1-0.8,0-1.2c-0.2-0.3-0.1-0.6,0-0.9c0-0.1,0-0.2,0.1-0.4
	c0.1-0.1,0.2-0.1,0.3-0.2c0.2-0.2,0.2-0.3,0-0.5c0,0-0.1-0.1-0.1-0.1c0-0.2,0-0.4,0.1-0.6c0.1,0,0.2-0.1,0.2-0.2
	c0.2-0.3,0.3-0.5,0.7-0.6c0.1,0,0.2-0.2,0.1-0.4c-0.1-0.2-0.2-0.3,0-0.5c0.1-0.1,0-0.3-0.1-0.4c-0.1-0.1-0.1-0.1-0.2-0.2
	c0.1-0.1,0.3-0.2,0.3-0.4c0-0.1,0-0.3-0.1-0.5c0.3-0.2,0.6-0.4,0.9-0.6c0.3,0.2,0.6,0.5,0.9,0.7c0.1,0,0.2,0,0.2,0
	c0.2-0.1,0.5-0.1,0.5-0.4c0-0.2-0.1-0.5-0.3-0.6c-0.2-0.1-0.2-0.2-0.1-0.4c0.3,0,0.7,0,1,0.1c0.5,0.1,0.9-0.3,0.9-0.8
	c0-0.1-0.1-0.2-0.1-0.2c-0.1-0.1-0.3-0.2-0.5-0.4c0.1-0.1,0.1-0.1,0.2-0.2c0.1,0,0.2,0,0.3-0.1c0.1,0,0.1-0.1,0.1-0.2
	c0-0.1,0-0.2-0.1-0.2c-0.2-0.1-0.4-0.1-0.6-0.2c-0.3-0.3-0.6-0.5-0.9-0.8c0.1-0.2,0.1-0.5,0-0.8c-0.1-0.2-0.1-0.3-0.1-0.5
	c0-0.3-0.2-0.5-0.5-0.5c0,0-0.1,0-0.1,0c-0.5-0.1-0.6-0.3-0.4-0.8c0.1-0.2,0.1-0.3-0.1-0.4c-0.1-0.1-0.2-0.1-0.4-0.1
	c-0.1,0-0.1,0.1-0.2,0.1c-0.1,0-0.1,0.1-0.2,0.1c-0.3-0.1-0.4-0.3-0.4-0.6c0-0.3-0.3-0.5-0.5-0.8c-0.4-0.1-0.6-0.5-1-0.6
	c-0.3-0.1-0.5-0.1-0.8-0.1c-0.2-0.3-0.6-0.6-0.8-1c-0.1-0.1-0.3-0.2-0.4-0.3c-0.2-0.1-0.4-0.1-0.5-0.2c-0.2-0.6-0.6-0.9-1.3-0.8
	c-0.1-0.1-0.1-0.2-0.2-0.3c-0.1-0.2,0-0.3,0.1-0.4c0.1,0,0.1-0.1,0.2-0.1c0.8-0.2,1.5-0.1,2.2,0.2c0.2,0.1,0.3,0.3,0.5,0.4
	c0.3,0.3,0.7,0.7,1,1c0.4,0.4,1,0.5,1.6,0.5c1.3-0.1,2.7-0.4,4-0.7c0.4-0.1,0.7-0.2,1.1-0.3c0.6-0.3,1.3-0.4,2-0.4
	c0.4,0,0.7-0.1,1.2-0.2c0.3-0.4,0.6-0.8,0.9-1.2c0.4-0.5,0.9-0.9,1.5-1c0.4-0.1,0.9-0.3,1.3-0.4c0.5-0.1,0.9-0.3,1.3-0.6
	c0.3-0.2,0.6-0.4,1-0.6c0.1-0.1,0.2-0.1,0.3-0.2c0,0.1,0,0.2,0.1,0.3c0.1,1.7,0.2,3.3,0.2,5c0.1,2.3,0.2,4.7,0.2,7
	c0,0.2,0,0.4-0.1,0.6c-0.1,0.1,0,0.3,0,0.5c0.1,2.5,0.2,5.1,0.2,7.6c0,1.3,0.1,2.6,0.1,3.8c0.2,0.2,0.4,0.1,0.6,0.1
	c0.9,0,1.9,0,2.8-0.1C418.1,252.6,418.2,252.7,418.4,252.7z"/>
<path fill="#D4EDEF" stroke="#FFFFFF" stroke-width="0.5318" stroke-miterlimit="10" d="M303.8,256c-1.2,0.1-2.3,0-3.4,0
	c-1.1,0-2.3,0-3.4,0c-1.1,0-2.2,0-3.4,0c0,0.1-0.1,0.3-0.1,0.4c0,1.9-0.1,3.7-0.1,5.6c0,0.2,0,0.3,0,0.5c0.6,0.1,1.2,0,1.8,0.1
	c0.1,0.3,0,0.7,0,1c-0.2,0-0.3,0.1-0.4,0.1c-2.6,0-5.1-0.1-7.7-0.1c-0.2,0-0.4,0-0.6-0.1c-0.2,0-0.3-0.2-0.2-0.4
	c0.1-0.5,0.1-1,0.2-1.4c0.1-0.5,0.1-0.9,0.1-1.4c0-0.5,0-1,0.1-1.5c0.1-2.7,0.2-5.3,0.4-8c0.1-1.2,0.1-2.3,0.2-3.5
	c0.1-2.7,0.2-5.5,0.3-8.2c0.1-2.4,0.2-4.9,0.3-7.3c0-0.1,0.1-0.3,0-0.4c-0.2-0.3,0-0.6,0.1-0.9c0,0,0,0,0.1,0c0,0,0,0,0.1,0
	c2.5,0,5,0.1,7.5,0.1c0.1,0.1,0.1,0.2,0.2,0.4c0.1,0,0.1,0.1,0.2,0.1c1,0,2.1,0,3.1,0c1.1,0,2.3,0,3.4,0c0.4,0,0.8,0.1,1.1-0.2
	c0.1-0.1,0.2,0,0.3,0c1,0,1.9,0,2.9,0.1c0,0,0.1,0,0.1,0c0.1,0.5,0.1,2.1,0,2.8c-0.1,0-0.3,0-0.5,0c-0.9,0-1.9,0-2.8,0
	c-0.2,0-0.3,0-0.5,0c-0.1,0.5-0.1,1,0,1.5c0.2,0,0.4,0.1,0.6,0.1c0,0.2,0.1,0.3,0.1,0.5c0.2,0,0.3,0.1,0.5,0.1
	c0,0.2,0.1,0.3,0.1,0.5c0.2,0,0.3,0.1,0.6,0.2c0,0.1,0.1,0.3,0.1,0.5c0.4,0,0.8,0.1,1.2,0.1c0.1,0.2,0.1,0.4,0.2,0.6
	c0.2,0,0.4,0,0.5,0c0.2,0,0.4,0,0.6,0c0,0.2,0.1,0.4,0.1,0.5c0.4,0.3,0.9-0.1,1.2,0.3c0,0,0,0,0,0.1c-0.2,0-0.3,0.1-0.5,0.1
	c0,0.2-0.1,0.3-0.1,0.5c-0.4,0-0.7,0-1.1,0.1c-0.2,0.4,0,0.8-0.2,1.2c-0.4,0.2-0.8,0-1.2,0.1c0,0.2-0.1,0.3-0.1,0.5
	c-0.2,0-0.3,0.1-0.5,0.1c0,0.2-0.1,0.3-0.1,0.6c-0.2,0-0.3,0.1-0.5,0.1c-0.2,0.4,0.1,0.8-0.1,1.2c-0.1,0-0.3,0.1-0.4,0.1
	c0,0.1-0.1,0.1-0.1,0.2c0,0.5-0.1,1.1-0.1,1.6c-0.2,0-0.4,0.1-0.7,0.1c0,0.3,0,0.5-0.1,0.8c0.2,0.1,0.4,0.1,0.6,0.2
	C304,249.7,303.9,252.8,303.8,256z"/>
<path fill="#D4EDEF" stroke="#FFFFFF" stroke-width="0.5318" stroke-miterlimit="10" d="M316.9,266.3c-0.3-0.7-0.4-1.3-0.2-2
	c0.2-0.6,0.2-1.2,0.1-1.8c0.3-0.3,0.7-0.4,0.9-0.8c0.1-0.1,0.2-0.2,0.4-0.2c0.3,0,0.5-0.2,0.6-0.4c0.1-0.2,0.3-0.3,0.4-0.5
	c0.1-0.2-0.2-0.3-0.3-0.5c-0.2-0.3-0.3-0.5-0.7-0.7c-0.2-0.1-0.2-0.4-0.1-0.6c0.7,0.1,0.7,0.1,0.9-0.4c0-0.1-0.1-0.1-0.1-0.2
	c-0.3-0.2-0.4-0.6-0.5-0.9c-0.1-0.7-0.1-0.7-0.8-0.6c0-0.1-0.2-0.2-0.1-0.3c0.1-0.2,0.2-0.4,0.4-0.4c0.2,0,0.3,0,0.5,0
	c0.6,0,0.9-0.3,0.8-0.9c0-0.2-0.1-0.4-0.1-0.6c-0.1-0.3,0-0.5,0.3-0.6c0.3-0.1,0.5-0.3,0.6-0.7c0.3,0.2,0.3,0.5,0.6,0.7
	c0.1,0,0.2,0,0.3,0c0.4,0,0.8,0,1.1,0.3c0.1,0.1,0.2,0.1,0.3,0.1c0.1,0,0.3,0,0.4,0.1c0.6,0.3,1.1,0,1.5-0.5
	c0.1-0.1,0.1-0.2,0.2-0.3c0.4-0.1,0.8,0,1.3,0c0,0.2,0.1,0.4,0.1,0.6c0.4,0,0.7,0.1,1,0.1c0,0.3,0,0.6,0,0.9
	c-0.1,0.3,0.1,0.5,0.1,0.8c-0.1,0.1-0.2,0.3-0.4,0.5c0,0.4,0,0.8,0,1.2c0,0.3,0,0.6-0.3,0.7c0,0-0.1,0.1-0.1,0.1
	c-0.2,0.5-0.3,0.9-0.4,1.4c0,0.1,0,0.3,0.1,0.4c0.1,0.1,0.2,0.2,0.3,0.3c0.6,0.3,0.9,0.8,1.3,1.3c0.2,0.2,0.3,0.4,0.4,0.6
	c0.1,0.2,0.2,0.3,0.3,0.5c0.3,0.5,0.8,0.7,1.2,1c0.1,0.1,0.3,0.1,0.4,0.3c0.1,0.2,0.4,0.4,0.6,0.4c0.6,0,1,0.4,1.5,0.6
	c0.1,0.3,0.1,0.6,0.1,0.8c0,0.5,0,0.5,0.4,0.6c0.1,0,0.2,0.1,0.3,0.1c0,0,0,0,0.1,0c0.3,0.6,0.5,1.2,0.9,1.7
	c0.2,0.3,0.4,0.5,0.7,0.6c0,0.1,0.1,0.1,0.1,0.1c0.3,0.5,0.3,0.7,1.2,0.5c0.4,0.2,0.9,0.3,1.2,0.7c0.2,0.2,0.4,0.2,0.7,0.2
	c0.3,0,0.5,0,0.7,0c0.3,0.2,0.2,0.5,0.3,0.7c0.1,0,0.3,0.1,0.4,0.1c0.1,0,0.3,0,0.4,0c3.4-0.1,6.8-0.2,10.1-0.2
	c3.2-0.1,6.4-0.1,9.6-0.1c0.2,0,0.3,0,0.5,0c-0.1,0.3-0.3,0.4-0.4,0.6c-0.1,0.4-0.2,0.7,0.2,0.9c-0.1,0.7-0.4,1.1-1,1.3
	c-0.4,0.1-0.7,0.3-1.1,0.4c-0.1,0.1-0.2,0.3-0.3,0.4c-0.1,0.3-0.1,0.6,0.1,0.9c0.4,0.4,0.7,0.7,1.3,0.6c0,0,0.1,0,0.1,0.1
	c0,0.2-0.2,0.5-0.4,0.6c-0.4,0.3-0.6,0.7-0.8,1.1c0.2,0.2,0.4,0.4,0.1,0.7c-0.1,0.1-0.1,0.3,0,0.5c0.1,0.2,0.2,0.4,0.3,0.6
	c0,0.2-0.2,0.2-0.3,0.2c-1.5,0-3.1,0-4.6,0.1c-0.3,0-0.5,0-0.7-0.2c-0.1-0.2-0.4-0.2-0.6-0.1c-0.3,0.1-0.6,0.2-1,0.1
	c-0.2,0-0.4,0.1-0.5,0.1c-0.5-0.2-0.9-0.4-1.4-0.5c-0.6-0.2-1.2-0.4-1.7-0.9c-0.1-0.1-0.3-0.3-0.5-0.2c-0.1,0-0.3,0-0.4,0.1
	c-0.4,0.4-0.8,0.7-1.3,0.9c-0.1,0.1-0.3,0.2-0.4,0.3c-0.3,0.2-0.6,0.1-0.8-0.2c-0.1-0.2-0.2-0.3-0.3-0.5c-0.1-0.2-0.2-0.4-0.4-0.5
	c-0.3-0.3-0.6-0.5-0.7-0.9c0-0.1-0.1-0.2-0.2-0.3c-0.2-0.1-1.3-0.4-1.5-0.4c-0.2,0.1-0.5,0.1-0.7,0c-0.3,0-0.6,0-0.9,0.1
	c-0.1,0-0.1,0.1-0.2,0.1c-0.4-0.1-0.9,0-1.3,0c-0.5,0-1.1,0-1.6,0c-0.2,0-0.5,0-0.7,0.1c-0.4,0.2-0.5,0.1-0.7-0.3
	c-0.1-0.2-0.2-0.2-0.4-0.3c-0.2,0-0.4,0-0.6-0.1c-0.2,0-0.5,0-0.6-0.3c0-0.1-0.1-0.1-0.2-0.1c-0.5-0.1-0.9-0.3-1.4-0.5
	c-0.3-0.2-0.7-0.1-0.9,0.1c-0.4,0.3-0.9,0.3-1.4,0.4c-0.2,0-0.5-0.1-0.7-0.1c-0.1-0.2-0.3-0.4-0.4-0.6c-0.1,0-0.3,0.1-0.4,0.1
	c-0.3,0.1-0.5,0.1-0.7,0c-0.2-0.1-0.4-0.1-0.6,0c-0.2,0.1-0.4,0-0.6,0c-0.2,0-0.4,0.1-0.4,0.3c0,0.3-0.2,0.4-0.4,0.5
	c-0.1,0-0.2,0.1-0.3,0.2c-0.1,0-0.2-0.1-0.3-0.1c-0.2-0.1-0.3,0-0.4,0.2c0,0.1,0,0.2-0.1,0.4c-0.3,0.2-0.6,0.1-0.8,0.4
	c-0.3,0-0.5,0.3-0.8,0.3c-0.5,0.1-0.9,0.4-1,1c0,0.1,0,0.1-0.1,0.2c0,0-0.1,0-0.1,0c-0.2,0-0.3-0.1-0.5-0.1c-0.5,0.3-0.5,0.3-0.8,1
	c-0.1,0-0.3,0.1-0.5,0.1c-0.1,0-0.2,0.1-0.3,0.2c-0.2-0.1-0.2-0.3-0.2-0.5c0-0.2,0.1-0.4,0.1-0.6c-0.1-0.4-0.2-0.5-0.7-0.4
	c0,0-0.1,0-0.2,0c0-0.1,0-0.1,0-0.2c0-0.4,0-0.4-0.3-0.5c-0.1,0-0.2,0-0.3-0.2c-0.1-0.2-0.2-0.3-0.4-0.2c-0.4,0.1-0.8,0.1-1.1-0.3
	c0-0.1-0.1-0.1-0.2-0.2c-0.1,0-0.1,0-0.2-0.1c-0.1,0.1-0.2,0.2-0.3,0.3c-0.1,0.1-0.3,0.1-0.4,0.1c-0.2,0-0.1-0.2-0.1-0.4
	c0,0,0,0,0-0.1c0.2-0.4,0.5-0.7,0.6-1.1c0.2-0.1,0.4-0.2,0.6-0.2c0.3-0.1,0.4-0.2,0.5-0.4c0.1-0.3,0.1-0.5-0.2-0.7
	c-0.4-0.2-0.8-0.5-1.3-0.5c-0.1,0-0.2,0-0.2,0c-0.2-0.2-0.5-0.2-0.7-0.1c-0.2,0-0.3-0.1-0.3-0.2c0-0.3-0.1-0.6,0-0.9
	c0.2-0.2,0.4,0,0.6,0c0.2,0,0.4-0.1,0.4-0.3c0-0.7,0.5-1.2,0.7-1.8c0-0.1,0.1-0.1,0.1-0.2c0.3-0.2,0.4-0.5,0.4-0.8
	c0.3-0.1,0.5-0.1,0.7,0c0.2,0.1,0.5,0,0.6-0.2c0.2-0.2,0.4-0.4,0.6-0.5c0.2-0.1,0.4-0.3,0.4-0.6c0-0.5,0.1-0.9,0.1-1.4
	c0-0.4-0.2-0.5-0.6-0.5C317.1,266.3,317,266.3,316.9,266.3z"/>
<path fill="#D4EDEF" stroke="#FFFFFF" stroke-width="0.5318" stroke-miterlimit="10" d="M282.6,298.4c0.7-5.9,1.3-11.8,2-17.7
	c-0.1-0.1-0.2-0.2-0.4-0.3c0-0.1,0-0.1,0-0.2c0.3-0.6,0.4-1.2,0.5-1.8c0-0.3,0-0.7-0.1-1c-0.1-0.1,0-0.3-0.1-0.5
	c0-0.1,0-0.2-0.1-0.3c-0.1-0.2-0.2-0.3-0.2-0.5c0.1-0.3,0-0.7,0.2-1c0.1-0.2,0.1-0.5,0.1-0.8c0-0.2-0.1-0.4-0.1-0.6
	c0-0.1,0-0.3,0.2-0.4c0.3-0.2,0.4-0.5,0.5-0.8c0.1-0.6,0.2-1.1,0.5-1.6c0.1-0.1,0.1-0.3,0.1-0.5c0.2-1.9,0.4-3.9,0.7-5.8
	c0-0.2,0-0.3,0.1-0.5c0.1,0,0.3-0.1,0.4-0.1c2.5,0,5,0.1,7.5,0.1c0.3,0,0.6,0,1,0c0,0.2,0.1,0.3,0.1,0.5c0,4.1-0.1,8.3-0.1,12.4
	c0,0.3,0,0.5,0,0.8c0.2,0.1,0.4,0.1,0.6,0.2c0,0.2,0.1,0.5,0.1,0.7c0.4,0.1,0.7,0,1.1,0.1c0.3,0,0.7,0,1,0c0.4,0,0.7,0,1.1,0
	c0,0.2,0.1,0.3,0.1,0.5c0,0.7,0,1.4,0,2.1c0,0.2,0,0.5,0.1,0.7c0.1,0.1,0.1,0.3,0.1,0.5c0,1,0,2,0,3.1c0,0.7,0,1.3,0,2
	c0,1.2,0,2.4-0.1,3.5c0,0.1,0,0.2,0,0.4c-1.3,0.2-2.6-0.1-3.9,0.1c0,0.1-0.1,0.3-0.1,0.4c0,0.4,0,0.9,0,1.3c0,0.1,0,0.3,0.1,0.4
	c0.1,0.3,0.1,0.7,0.1,1.1c-0.2,0-0.4,0.1-0.6,0.1c0,0.2-0.1,0.4-0.1,0.6c-0.4,0-0.9,0.1-1.3,0.1c-0.4,0-0.8-0.1-1.2,0.1
	c-0.1,0.5-0.1,1,0,1.5c0.4,0,0.8,0,1.2,0.1c0.2,0.3,0.1,0.7,0.1,1.1c-0.2,0-0.3,0.1-0.5,0.1c-1.3,0-2.7,0-4,0
	c-0.3,0-0.7-0.1-0.9,0.2c-0.1,0.1-0.3,0-0.5,0c-0.8,0-1.5,0-2.3,0c-0.4,0-0.8,0.1-1.2,0.1C283.6,298.5,283.1,298.4,282.6,298.4z"/>
<path fill="#D4EDEF" stroke="#FFFFFF" stroke-width="0.5318" stroke-miterlimit="10" d="M401.1,237.9c0.1,0.2,0.1,0.4,0.2,0.6
	c0.1,0.2,0.1,0.4,0,0.7c-0.1,0.3,0,0.5,0.3,0.6c0.2,0.1,0.4,0.2,0.4,0.4c0.1,0.1,0.2,0.2,0.3,0.4c0,0.1-0.1,0.2-0.1,0.4
	c-0.1,0.2,0,0.3,0.2,0.4c0.1,0.1,0.2,0.1,0.3,0.2c0.1,0.1,0.1,0.2,0.1,0.4c-0.1,0.2-0.2,0.3-0.4,0.2c-0.4-0.1-0.7-0.1-1.1-0.2
	c-0.2,0-0.3,0-0.5,0.1c-0.1,0.3,0,0.6,0.1,0.8c0,0.1,0.2,0.1,0.3,0.2c0.1,0.1,0.1,0.1,0.1,0.2c0,0.1-0.2,0.1-0.3,0
	c-0.2-0.1-0.3-0.2-0.4-0.3c-0.1-0.1-0.1-0.1-0.2-0.2c-0.1-0.1-0.3-0.1-0.4,0c-0.4,0.2-0.7,0.5-1.1,0.7c-0.3,0.2-0.3,0.3,0,0.6
	c-0.2,0.2-0.5,0.5-0.1,0.8c-0.1,0.1-0.3,0.1-0.4,0.2c-0.2,0.1-0.1,0.3,0.1,0.4c0,0,0.1,0,0.1,0c-0.1,0.2-0.2,0.5-0.3,0.7
	c-0.1,0-0.3,0-0.4,0.1c-0.2,0.1-0.3,0.2-0.1,0.5c0,0,0.1,0.1,0.1,0.2c-0.1,0.1-0.2,0.2-0.2,0.3c0,0.1-0.1,0.2-0.1,0.3
	c0.1,0.1,0.1,0.3,0,0.4c0,0-0.1,0.1-0.1,0.1c0.2,0.4,0,0.7-0.3,1c0.1,0.1,0.3,0.2,0.4,0.4c-0.1,0.1-0.2,0.3-0.3,0.5
	c0.1,0.1,0.2,0.1,0.4,0.2c0,0,0,0.1,0,0.1c-0.1,0.1-0.2,0.2-0.3,0.3c-0.1,0.3-0.1,0.5-0.2,0.8c0,0.1,0,0.2,0,0.3
	c-0.1,0.1-0.2,0.3-0.3,0.4c0.2,0.1,0.3,0.2,0.4,0.3c0,0.2-0.1,0.4-0.1,0.6c0,0.1-0.1,0.1-0.1,0.2c-0.1,0.1-0.1,0.1-0.2,0.2
	c0.1,0.3,0.4,0.6,0.4,0.9c0,0.3,0.1,0.6,0.1,1c0.6,0.3,1.1,0.8,1.9,0.7c-0.1,0.2-0.1,0.3-0.1,0.5c0,0.2,0.1,0.3,0.1,0.5
	c0.1,0.1,0.2,0.3,0.3,0.4c0,0.2-0.1,0.4,0,0.5c0.1,0.2,0.3,0.3,0.4,0.5c0,0.2-0.1,0.4,0,0.6c0,0.2,0.2,0.3,0,0.5
	c-0.2,0-0.4,0-0.5,0.2c-0.1,0.1-0.3,0.1-0.4,0.1c-0.6,0.2-0.7,0.3-0.7,0.9c0,0,0,0,0,0.1c0,0,0,0-0.1,0c-2,0.1-3.9,0.1-5.9,0.2
	c-0.1,0-0.3,0-0.4,0c-0.1-0.2-0.2-0.4,0-0.7c0.3-0.5,0.1-0.9-0.1-1.3c0-0.1-0.3-0.2-0.4-0.3c-0.3-0.1-0.5-0.4-0.8-0.6
	c0,0-0.1-0.1-0.1-0.1c-0.1-0.5-0.5-0.6-0.9-0.6c-0.2,0-0.3-0.1-0.5-0.1c-0.4-0.3-0.9-0.4-1.3-0.8c-0.5-0.5-1.3-0.6-2-0.7
	c-0.6,0.2-1.3,0-1.9,0.2c-0.3,0.1-0.7,0.1-1-0.2c-0.2-0.1-0.4-0.2-0.6-0.3c-0.2-0.1-0.3-0.2-0.3-0.4c0-0.4-0.1-0.9-0.1-1.3
	c0-0.4,0.1-0.7,0.1-1.1c0-0.2,0-0.4,0-0.5c0-0.2,0.1-0.5,0.1-0.7c0.2,0,0.4,0.1,0.6,0c0.2-0.1,0.3-0.2,0.4-0.4
	c0.1,0.1,0.2,0.2,0.3,0.3c0.2,0.2,0.5,0.1,0.6-0.1c0.1-0.2,0.2-0.4,0.3-0.6c0.1-0.1,0.1-0.2,0.3-0.3c0.3-0.1,0.3-0.4,0.2-0.6
	c0.3-0.1,0.5-0.3,0.5-0.7c0.2,0,0.3-0.1,0.5-0.1c0.1-0.6,0.2-1.2,1-1.2c0-0.1,0.1-0.3,0.1-0.4c0-0.2,0-0.3,0-0.5
	c0-0.4,0.1-0.7,0.4-0.9c0.2-0.1,0.1-0.3,0-0.4c-0.1-0.1-0.3-0.2-0.4-0.3c0-0.2,0.1-0.4,0.1-0.6c0.2-0.1,0.3-0.2,0.5-0.3
	c0.2-0.1,0.3-0.3,0.2-0.6c0-0.2,0-0.4,0-0.5c0.1-0.2,0-0.5,0-0.7c0-0.1,0-0.1,0.1-0.1c0.4-0.4,0.3-0.5-0.1-0.6
	c-0.2-0.1-0.4-0.2-0.6-0.3c-0.2-0.2-0.5-0.3-0.8-0.1c-0.1-0.3-0.1-0.5-0.4-0.7c-0.2-0.1-0.3-0.4-0.4-0.6c0-0.4,0.1-0.8,0.3-1.1
	c0.2-0.2,0.1-0.5-0.1-0.7c-0.1-0.1-0.2-0.2-0.3-0.2c0.2-0.7,0.2-0.7-0.1-1.5c0.6-0.2,0.9-0.6,1.3-1.1c0.3-0.4,0.7-0.6,1.1-0.7
	c1.5-0.4,2.9-1.2,4.3-1.8c0.2-0.1,0.4-0.3,0.6-0.4c0.2-0.2,0.3-0.4,0.6-0.5c0,0.1,0.1,0.2,0.1,0.2c0.1,0.2,0.3,0.3,0.6,0.3
	c0.6,0,0.6,0,0.8,0.6c0,0,0,0.1,0.1,0.2c0.1,0,0.2,0.1,0.4,0.1c0.3,0.1,0.5,0.2,0.7,0.5c0.2,0.3,0.5,0.6,0.7,0.9
	c0.3,0.1,0.5-0.1,0.8,0c0.3,0.1,0.6,0.3,0.8,0.5c0,0,0.1,0.1,0.1,0.2c0.1,0.6,0.6,1,1,1.5c0.2-0.1,0.4-0.1,0.5-0.2
	C399.9,237.6,400.2,237.7,401.1,237.9z"/>
<path fill="#D4EDEF" stroke="#FFFFFF" stroke-width="0.5318" stroke-miterlimit="10" d="M294.4,211.5c0.3,0.3,0.5,0.4,0.6,0.6
	c0.1,0.1,0.2,0.2,0.3,0.3c0.6,0.7,1.4,0.9,2.2,0.5c0.1,0,0.1,0,0.2,0.1c0.2,0.2,0.4,0.1,0.7,0c0.3-0.2,0.6-0.3,0.9-0.5
	c0.2-0.1,0.4-0.2,0.7-0.1c0.2,0.1,0.4,0,0.4-0.3c0.1-0.6,0.5-1,1.1-1.2c0.2-0.1,0.3-0.2,0.3-0.4c0.1-0.2,0.3-0.3,0.5-0.3
	c0.4,0,0.8,0.1,1.2,0.3c0.1,0,0.2,0.1,0.2,0.2c0.2,0.5,0.7,0.8,1.1,1.1c0.3,0.2,0.4,0.4,0.3,0.7c0,0.1,0,0.2,0,0.3
	c0,0.1,0.1,0.2,0.1,0.3c0.4,0.4,0.8,0.8,1.2,1.2c0.1,0.1,0.2,0.1,0.3,0.1c0.1,0,0.3,0.1,0.4,0.1c0,0.2,0,0.3,0,0.4
	c0,1.2-0.1,2.3-0.1,3.5c0,0.3-0.1,0.6,0.2,0.8c0.1,0.1,0.1,0.3,0.1,0.5c0,0.7,0,1.5,0,2.2c0,1.4,0,2.7-0.1,4.1c0,0.3,0,0.6,0,0.9
	c0.1,1.2,0,2.3,0,3.5c0,0.1,0,0.1-0.1,0.2c-0.2,0.1-0.4,0.1-0.7,0.1c-0.9,0-1.8,0-2.6,0c-0.2,0-0.4,0-0.6,0.1
	c-0.2,0.1-0.4,0.1-0.6,0.1c-1,0-2.1,0-3.1,0c-0.9,0-1.8,0-2.7,0c-0.2,0-0.4,0-0.6,0c0-0.1-0.1-0.2-0.1-0.4c-0.6-0.1-1.3-0.1-2-0.1
	c-0.6,0-1.3,0-1.9,0c-0.7,0-1.3,0-2,0c-0.6,0-1.3,0.1-1.9-0.1c-0.1-0.3,0-0.6,0.1-0.9c0.1-0.4,0.1-0.7,0.1-1.1c0-0.9,0-1.8-0.2-2.8
	c0-0.3-0.1-0.5-0.2-0.8c0-0.1-0.1-0.2-0.1-0.3c0-0.3,0-0.5-0.2-0.7c-0.2-0.2-0.2-0.5,0-0.7c0.1-0.1,0.2-0.3,0.3-0.4
	c0.1-0.3,0.3-0.5,0.7-0.5c0.3,0,0.5-0.2,0.6-0.5c0.1-0.6,0.3-1.2,0.2-1.8c-0.1-0.4,0-0.8,0-1.1c0-0.4,0-0.7-0.1-1
	c-0.1-0.3-0.2-0.7-0.2-1c0-0.6-0.2-1.2-0.4-1.7c-0.3-0.9-0.7-1.8-1.1-2.7c-0.1-0.2-0.1-0.4-0.2-0.5c0.1-0.2,0.3-0.1,0.4-0.2
	c0.3-0.2,0.5-0.1,0.7,0.1c0.1,0.1,0.2,0.2,0.3,0.3c0.4,0.1,0.6,0.4,0.6,0.8c0.1,0,0.3,0.1,0.4,0.1c0.2,0.2,0.3,0.4,0.5,0.6
	c0.2,0.1,0.4,0.1,0.7,0.2c0.2,0.1,0.3,0.2,0.2,0.4c-0.1,0.1-0.1,0.2-0.2,0.3c-0.1,0.2-0.1,0.3,0.1,0.5c0.1-0.1,0.2-0.1,0.3-0.2
	c0.1-0.2,0.2-0.4,0.3-0.6c0.1-0.3,0.4-0.4,0.7-0.5c0.1,0.3,0.2,0.5,0.3,0.8c0,0.2,0,0.3,0,0.5c0,0.1,0,0.3,0,0.4
	c0,0.1,0.1,0.2,0.2,0.2c0.1,0,0.2,0,0.2-0.1c0.2-0.2,0.3-0.4,0.2-0.7c0-0.1-0.1-0.3-0.2-0.4c-0.1-0.2-0.1-0.3,0-0.5
	c0.1-0.3,0.1-0.6,0-0.9c-0.3-0.1-0.5-0.1-0.8-0.1c-0.3,0-0.5-0.2-0.7-0.5C292.8,212,293.7,212.1,294.4,211.5z"/>
<path fill="#A3DAD9" stroke="#FFFFFF" stroke-width="0.5318" stroke-miterlimit="10" d="M296.3,278.4c0-0.3-0.1-0.5-0.1-0.7
	c-0.2,0-0.3-0.1-0.5-0.1c0-0.1-0.1-0.1-0.1-0.2c0-0.8,0-1.7,0-2.5c0-2.5,0.1-5.1,0.1-7.6c0-1.2,0-2.5,0-3.7c0-0.3,0-0.6,0.1-0.9
	c0.1,0,0.2-0.1,0.3-0.1c6.7,0,13.4,0.1,20.1,0.2c0.1,0,0.1,0.1,0.2,0.1c0,0.5,0,1-0.1,1.4c-0.2,0.7,0,1.4,0.2,2.1
	c0.1,0.2,0.2,0.3,0.4,0.2c0.1,0,0.3,0,0.4,0c0.1,0.5,0.1,1.1,0,1.6c0,0.1-0.1,0.2-0.2,0.3c-0.3,0.2-0.5,0.4-0.8,0.6
	c-0.4,0-0.8-0.3-1.3,0.1c0,0.5-0.3,0.8-0.5,1.2c-0.3,0.6-0.5,1.2-0.7,1.8c-0.1,0-0.2-0.1-0.4-0.1c-0.3,0-0.5,0.1-0.5,0.4
	c0,0.3,0,0.6,0,0.8c0,0.4,0.2,0.6,0.6,0.6c0.1,0,0.2,0,0.3,0c0.4,0.3,0.9,0.1,1.3,0.3c0.1,0.1,0.3,0.1,0.4,0.2
	c0.1,0.1,0.2,0.2,0.2,0.3c0,0.1-0.1,0.2-0.2,0.3c-0.1,0.1-0.3,0.1-0.4,0.1c-0.3,0.1-0.5,0.3-0.6,0.5c-0.1,0.2-0.1,0.3-0.2,0.4
	c-0.4,0.5-0.4,0.9,0,1.4c0,0.1,0.1,0.1,0.1,0.2c-0.2,0.3-0.4,0.5-0.7,0.8c-4.5,0-9.1,0-13.7-0.1
	C298.7,278.5,297.5,278.4,296.3,278.4z"/>
<path fill="#64BCBB" stroke="#FFFFFF" stroke-width="0.5318" stroke-miterlimit="10" d="M303.6,235c-0.1-0.3,0-0.6,0-0.9
	c1.3-0.1,2.5,0,3.8,0c0-0.2,0.1-0.3,0.1-0.5c0-0.7,0-1.4,0-2.1c0-0.2,0-0.4,0-0.5c0.1,0,0.2-0.1,0.2-0.1c3.2,0,6.3,0,9.5,0
	c0.1,0,0.2,0,0.4,0.1c0,0.4,0,0.8,0,1.2c0.4,0,0.8,0,1.2,0.1c0,0.2,0.1,0.4,0.1,0.5c0,0,0.1,0.1,0.2,0.1c0.3,0,0.7,0,1,0
	c0.2,0,0.4,0,0.7,0c0.1,1.5,0,3,0.1,4.5c0.2,0,0.4,0.1,0.6,0.1c0,0.1,0.1,0.3,0.1,0.5c0.2,0,0.3,0.1,0.6,0.1c0,0.1,0.1,0.3,0.1,0.5
	c0.2,0,0.3,0.1,0.5,0.1c0,0.2,0.1,0.3,0.1,0.5c0.2,0,0.4,0.1,0.6,0.2c0,0.1,0.1,0.3,0.1,0.5c0.2,0,0.3,0.1,0.5,0.1
	c0,0.2,0.1,0.3,0.1,0.6c0.2,0,0.3,0.1,0.5,0.1c0,0.2,0.1,0.3,0.1,0.5c0.2,0,0.4,0.1,0.6,0.2c0,0.1,0,0.3,0.1,0.5
	c0.2,0,0.3,0.1,0.5,0.1c0,0.2,0.1,0.3,0.1,0.5c0.2,0,0.4,0.1,0.6,0.1c0.1,0.6,0.1,7.5,0,8.1c-0.2,0.1-0.5,0.1-0.7,0.1
	c-0.2,0-0.5,0-0.7,0c-0.1-0.2-0.1-0.4-0.2-0.6c-0.5-0.1-1-0.1-1.5,0c-0.2,0.4,0,0.8-0.1,1.2c-0.3,0-0.5,0-0.8,0c-0.3,0-0.5,0-0.8,0
	c-0.2-0.4,0-0.8-0.2-1.2c-0.6-0.1-1.2,0-1.8-0.1c-0.1-0.2-0.1-0.4-0.2-0.6c-0.2,0-0.3-0.1-0.5-0.1c0-0.2-0.1-0.3-0.1-0.5
	c-0.2-0.1-0.4-0.1-0.5-0.2c0-0.2-0.1-0.3-0.1-0.5c-0.2,0-0.3-0.1-0.5-0.1c0-0.2-0.1-0.4-0.1-0.6c-0.8,0-1.7,0-2.5,0
	c0-0.1,0-0.2-0.1-0.3c0-0.1,0-0.2-0.1-0.3c-0.2,0-0.3-0.1-0.5-0.1c-0.1-0.2-0.1-0.3-0.2-0.5c-0.1,0-0.1-0.1-0.2-0.1
	c-0.9,0-1.8,0-2.7,0c-2.5,0-5,0-7.5,0c-0.2,0-0.4,0-0.6,0c0,0-0.1-0.1-0.1-0.2c0.2,0,0.4-0.1,0.6-0.1c0-0.1,0.1-0.1,0.1-0.2
	c0-0.5,0.1-1.1,0.1-1.6c0.2-0.1,0.4-0.1,0.6-0.1c0-0.4,0-0.8,0-1.2c0.2,0,0.4-0.1,0.6-0.1c0-0.2,0.1-0.3,0.1-0.5
	c0.2,0,0.4-0.1,0.6-0.1c0-0.2,0.1-0.3,0.1-0.5c0.1,0,0.1-0.1,0.2-0.1c0.3,0,0.7,0,1,0c0.1-0.4,0-0.8,0.1-1.2c0.1,0,0.2-0.1,0.4-0.1
	c0.3,0,0.5,0,0.8,0c0.1-0.2,0.1-0.4,0.1-0.6c0.2,0,0.3-0.1,0.5-0.1c0.2-0.2,0.1-0.5,0.1-0.8c-0.4-0.2-0.8-0.1-1.2-0.2
	c-0.1-0.2-0.1-0.3-0.2-0.5c-0.3-0.1-0.7-0.1-1.1-0.1c-0.1-0.2-0.1-0.3-0.2-0.5c-0.4-0.2-0.8,0-1.2-0.1c0-0.2-0.1-0.3-0.1-0.5
	c-0.2,0-0.3-0.1-0.5-0.1c0-0.2-0.1-0.3-0.1-0.5c-0.2,0-0.4-0.1-0.6-0.1c0-0.2-0.1-0.3-0.1-0.6C304,235,303.8,235,303.6,235z"/>
<path fill="#D4EDEF" stroke="#FFFFFF" stroke-width="0.5318" stroke-miterlimit="10" d="M304.1,256.3c0-1.2,0-2.2,0.1-3.3
	c0-1.1,0-2.1,0-3.2c0-1.1-0.1-2.2,0-3.3c0.2,0,0.4,0,0.5,0c3-0.1,9,0,9.6,0.1c0,0.2,0.1,0.3,0.1,0.5c0.2,0.1,0.4,0.1,0.6,0.2
	c0,0.2,0.1,0.3,0.1,0.5c0.2,0.2,0.4,0.1,0.6,0.1c0.6,0,1.2,0,1.9,0c0.1,0.2,0.1,0.4,0.2,0.6c0.2,0,0.3,0.1,0.5,0.1
	c0,0.2,0.1,0.3,0.1,0.5c0.2,0.1,0.4,0.1,0.6,0.2c0,0.2,0.1,0.3,0.1,0.5c0.2,0,0.3,0.1,0.5,0.1c0,0.2,0.1,0.4,0.1,0.5
	c0.1,0,0.1,0.1,0.1,0.1c0.4,0,0.8,0,1.1,0c0.2,0,0.4,0,0.6,0c0,0.4,0.1,0.8,0.1,1.2c0.4,0,0.8,0,1.2,0.1c0.2,0.4,0.1,0.8,0.1,1.3
	c0,0.4,0.1,0.8,0,1.2c-0.4-0.1-0.8-0.1-1.1-0.4c-0.1-0.1-0.3-0.2-0.5-0.2c-0.2,0-0.4,0-0.7,0c-0.1-0.2-0.2-0.4-0.4-0.6
	c-0.2-0.2-0.5-0.2-0.6,0c-0.2,0.3-0.4,0.5-0.7,0.7c-0.3,0.2-0.4,0.5-0.3,0.8c0,0.2,0.1,0.4,0.1,0.6c0,0.2,0,0.3-0.1,0.5
	c-0.2,0-0.5,0-0.8,0c-0.4,0-0.7,0.3-0.8,0.6c0,0.1,0,0.2,0,0.3c0.1,0.1,0.2,0.3,0.3,0.5c0.2,0,0.4,0,0.6-0.1c0,0,0.1,0.1,0.1,0.2
	c0,0.5,0.1,0.9,0.5,1.3c-0.1,0-0.1,0.1-0.2,0c-0.3-0.1-0.5-0.1-0.7,0.2c-0.2,0.3-0.1,0.7,0.1,0.9c0.2,0.2,0.4,0.2,0.5,0.5
	c0.1,0.2,0.2,0.3,0.4,0.5c-0.1,0.2-0.3,0.3-0.4,0.5c-0.4,0-0.8,0.3-1.1,0.6c-0.3,0.4-0.8,0.6-1.4,0.6c-4.3,0-8.5,0-12.8-0.1
	c-2.9,0-5.8-0.1-8.7-0.1c-0.1,0-0.3,0-0.5,0c0-0.2-0.1-0.3-0.1-0.4c0-1.8,0-3.5,0.1-5.3c0,0,0-0.1,0-0.1c0.1-0.2,0.3-0.1,0.5-0.1
	c2.9,0,5.9,0,8.8,0C303.5,256.3,303.8,256.3,304.1,256.3z"/>
<path fill="#D4EDEF" stroke="#FFFFFF" stroke-width="0.5318" stroke-miterlimit="10" d="M311.5,289.4c0.2,0.2,0.2,0.4,0.2,0.7
	c0,0.2,0.1,0.4,0.1,0.7c-0.1,0-0.3,0.1-0.4,0.1c-0.2,0.1-0.2,0.2-0.1,0.3c0.1,0.2,0.2,0.7,0.2,0.8c0,0.1,0,0.2,0,0.2
	c-0.1,0.1-0.3,0.2-0.4,0.3c0.1,0.4,0.2,0.6,0.4,0.9c-0.2,0.2-0.5,0.3-0.7,0.4c-0.1,0.5,0.3,0.6,0.6,0.8c-0.3,0.4-0.3,0.4-0.2,1
	c-0.1,0.1-0.2,0.1-0.3,0.2c-0.1,0.1-0.2,0.2-0.1,0.4c0,0.1,0.2,0.2,0.3,0.2c0.2,0,0.3,0,0.5,0c0,0.2,0.1,0.3,0,0.4
	c0,0.3,0.1,0.5,0.4,0.6c0,0.1-0.1,0.3-0.1,0.4c0,0.1,0,0.2,0,0.3c-0.4,0.1-0.7,0.1-1,0.1c-1.2,0-2.5-0.1-3.7,0c-2.4,0.1-4.8,0-7.2,0
	c-0.3,0-0.5,0-0.8,0.1c-0.1,0.1-0.2,0-0.3,0c-0.9,0-1.9-0.1-2.8-0.1c0,0-0.1,0-0.1,0c-0.6-0.3-1.2-0.1-1.8-0.2c-0.1,0-0.2,0-0.4,0
	c-0.1-0.5,0-0.9-0.1-1.4c-0.4-0.1-0.8,0-1.2-0.1c-0.1-0.3,0-0.6-0.1-0.8c0.2-0.2,0.4-0.2,0.6-0.2c0.6,0,1.3,0,1.9,0
	c0-0.2,0.1-0.4,0.1-0.6c0.2,0,0.4-0.1,0.5-0.1c0-0.6,0-1.1-0.1-1.6c-0.1-0.5,0-1,0-1.5c0.3-0.2,0.7-0.1,1-0.1c0.9,0,1.7,0,2.6,0.1
	c0.1,0,0.2,0,0.4,0c0-0.1,0.1-0.2,0.1-0.3c0-1.5,0.1-3,0.1-4.5c0-1.5,0-2.9,0-4.4c0-0.4,0-0.8-0.1-1.2c-0.1-0.1,0-0.3,0-0.5
	c0-0.7,0-1.4,0-2.1c0.1,0,0.3,0,0.4-0.1c1.9-0.1,3.8,0.1,5.7,0.1c2.5,0,4.9,0,7.4,0c0.3,0,0.5,0,0.7,0c0.3,0.4,0.6,0.7,0.8,1
	c0.2,0.2,0.2,0.3,0.3,0.6c0.1,0.4,0.3,0.6,0.7,0.5c0.1,0,0.1,0,0.2,0c0.2,0.2,0.3,0.4,0.5,0.6c0.1,0.2,0.1,0.3-0.1,0.4
	c-0.2,0.1-0.5,0.3-0.8,0.3c-0.6,0-1.2,0.1-1.8,0.1c-0.3,0-0.4,0.1-0.5,0.4c0,0.2-0.1,0.3-0.2,0.4c-0.1,0-0.1,0.1-0.1,0.2
	c0,0.2-0.1,0.3-0.3,0.4c-0.3,0.3-0.3,0.4,0,0.7c0,0,0,0,0,0.1c-0.1,0-0.2,0-0.3,0c-0.5,0-1,0.2-1.5,0.5c-0.4,0.2-0.4,0.6-0.5,1
	c0,0.1,0.1,0.2,0.2,0.2c0.1,0,0.3,0,0.4,0c0.2,0.2,0.2,0.5,0.4,0.8c0.2,0.2,0.1,0.5,0,0.8c0.1,0.1,0.1,0.2,0.2,0.2
	c0.4,0.2,0.4,0.6,0.2,0.9C311.6,289.2,311.6,289.2,311.5,289.4z"/>
<path fill="#D4EDEF" stroke="#FFFFFF" stroke-width="0.5318" stroke-miterlimit="10" d="M326.2,232.8c-0.3,0.1-0.6,0-0.7,0.3
	c0,0-0.1,0.1-0.2,0.1c-1.3,0-2.6,0-3.9,0c0-0.2-0.1-0.4-0.1-0.5c-0.6-0.2-1.2,0.1-1.8-0.2c0-0.1,0-0.1-0.1-0.2c0-0.1,0-0.2,0-0.3
	c-0.4-0.2-0.8,0-1.2-0.2c-0.2-0.4,0-0.8-0.1-1.1c-0.1,0-0.2,0-0.3,0c-2,0-4.1,0-6.1-0.1c-1.2,0-2.3,0-3.5,0c-0.1,0-0.3,0-0.5-0.1
	c0-0.2,0-0.3,0-0.5c0.1-1.2,0.1-2.4,0-3.6c0-1.3,0-2.6,0-3.8c0-1,0-2.1,0-3.1c0-0.2,0-0.5-0.1-0.7c-0.1-0.1-0.1-0.2-0.1-0.3
	c0-1.2,0-2.4,0.1-3.6c0,0,0-0.1,0-0.2c0.1,0,0.3-0.1,0.4,0c0.5,0.1,0.9,0.1,1.4,0.1c0.1,0,0.3,0,0.4,0c0.5,0.3,1,0.1,1.5,0.1
	c0.1,0,0.3-0.1,0.4-0.2c0.3-0.3,0.5-0.6,0.7-0.9c0.2-0.3,0.4-0.6,0.7-0.8c0.1,0.1,0.3,0.1,0.4,0.2c0.6,0.4,1.2,0.5,1.8,0.5
	c0.3,0,0.6,0.1,0.8,0.3c0.1,0.1,0.2,0.2,0.4,0.2c0.4,0.2,0.7,0.5,0.9,0.9c0.1,0.3,0.3,0.5,0.6,0.6c0.3,0.1,0.6,0.3,1,0.2
	c0.1,0,0.3,0.1,0.4,0.2c0.1,0.1,0.1,0.1,0.2,0.2c0.4,0.4,0.8,0.8,1.3,0.9c1,0.3,1.4,1.1,1.5,2c0.1,0.4,0.1,0.7,0.3,1.1
	c0.1,0.1,0.1,0.3,0.1,0.5c0,0.4,0.2,0.7,0.5,1c0.5,0.4,0.9,0.9,1.1,1.5c0,0.1,0.1,0.2,0.1,0.2c0.2,0.2,0.2,0.3,0.1,0.5
	c0,0.2-0.1,0.3-0.1,0.5c0,0.2-0.1,0.4,0,0.6c0.1,0.5,0.3,1,0.5,1.5c0.1,0.4,0.2,0.7,0.3,1.1c0,0.1,0,0.2,0,0.3
	c-0.1,0.8-0.2,1.7,0.1,2.5c0.1,0.3,0.2,0.5,0.4,0.7c0.2,0.2,0.3,0.5,0.3,0.8c0,0.2,0.1,0.3,0.1,0.5
	C326.1,232.4,326.1,232.6,326.2,232.8z"/>
<path fill="#64BCBB" stroke="#FFFFFF" stroke-width="0.5318" stroke-miterlimit="10" d="M368.3,241.8c-0.5,0-0.8,0.1-1.2,0.1
	c0,0.8,0,1.6,0,2.4c0,0.8,0,1.6,0,2.3c0,0.8,0,1.6,0,2.3c0,0.8,0.1,1.6,0.1,2.3c0,0.8,0.1,1.6,0,2.3c-0.3,0.1-0.6,0.1-0.9,0.1
	c-1.7,0-3.5,0.1-5.2,0.1c-0.1,0-0.2,0-0.4-0.1c0-0.2,0.1-0.3,0.1-0.5c0.1-0.2,0.2-0.5,0.3-0.7c0-0.2,0.1-0.4,0-0.5
	c-0.3-0.4-0.2-0.9-0.6-1.2c-0.1-0.1-0.2-0.4-0.2-0.7c0-0.5,0.1-1,0.2-1.5c-0.1-0.2-0.2-0.5-0.5-0.6c-0.1-0.1-0.2-0.2-0.3-0.3
	c-0.1-0.1-0.2-0.2-0.3-0.2c-0.5-0.1-1-0.3-1.5-0.4c-0.6-0.5-0.9-1.3-0.9-2.1c-0.3-0.3-0.6-0.7-0.9-0.9c-0.3-0.2-0.4-0.6-0.7-0.8
	c0,0-0.1-0.1-0.1-0.1c0.1-0.4-0.2-0.6-0.3-0.8c-0.1-0.3-0.2-0.3-0.5-0.2c-0.4,0.1-0.5,0-0.7-0.3c-0.1-0.3-0.2-0.6-0.3-0.8
	c0.2-0.2,0.3-0.4,0.5-0.6c-0.1-0.2-0.1-0.4-0.2-0.6c-0.1-0.1-0.1-0.2-0.1-0.4c0-0.1,0-0.2,0-0.3c-0.1-0.1-0.1-0.3-0.1-0.5
	c0-0.3,0-0.6-0.2-0.8c-0.1-0.1-0.1-0.3-0.1-0.4c0-0.4,0-0.8,0-1.2c0.3-0.2,0.7-0.5,0.7-1c0,0,0-0.1,0.1-0.1c0.4-0.3,0.7-0.8,1.1-1
	c0,0,0.1,0,0.1-0.1c0.4-0.2,0.9-0.4,1.3-0.4c0.4,0,0.9,0.1,1.3,0.2c0.3,0.1,0.6,0.1,0.8,0.2c0.5,0.1,1,0.1,1.5-0.1
	c0.2-0.1,0.3-0.1,0.5-0.2c0.3-0.1,0.6-0.2,1-0.2c0.5,0,0.9-0.1,1.3-0.2c0.6-0.2,1.3-0.4,1.9-0.7c0.6-0.2,1.2,0,1.7,0.2
	c0.1,0.1,0.3,0.2,0.4,0.3c0.3,0.3,0.7,0.5,1.1,0.5c0.1,1.3,0.1,2.6,0.1,3.9C368.3,239.2,368.4,240.5,368.3,241.8z"/>
<path fill="#64BCBB" stroke="#FFFFFF" stroke-width="0.5318" stroke-miterlimit="10" d="M326.1,233.1c0,0.3,0,0.4,0,0.5
	c-0.1,0.3-0.1,0.6-0.2,0.8c-0.1,0.6,0.1,1.2,0.3,1.7c0,0.1,0.1,0.2,0.2,0.3c0.3,0.2,0.7,0.5,1,0.6c0.3,0.1,0.6,0.3,0.8,0.5
	c0.5,0.4,1.1,0.7,1.8,0.9c0.2,0,0.3,0.1,0.5,0.1c1,0,2,0.3,3,0.7c0.3,0.1,0.6,0.2,0.9,0.3c0.6,0.2,1.2,0.4,1.7,0.8
	c0.3,0.3,0.7,0.3,1.1,0.2c0.3-0.1,0.6-0.2,0.9-0.3c0.5-0.2,1.1-0.1,1.5,0.4c0,0,0,0,0,0.1c0.3,0.6,0.8,0.7,1.4,0.8
	c0.8,0.1,1.6,0.1,2.3-0.4c0.2-0.1,0.5-0.2,0.7-0.4c0.2-0.1,0.4-0.3,0.6-0.5c0.2-0.2,0.5-0.4,0.8-0.4c0.5-0.1,0.9-0.2,1.4-0.1
	c0.3,0.1,0.7,0,0.9-0.2c0.4-0.3,0.8-0.5,1.2-0.8c0.4-0.3,0.9-0.5,1.4-0.6c0.8-0.1,1.4-0.6,1.9-1.3c0.2,0,0.4,0,0.7,0
	c0.1,0.3,0,0.7,0.1,1c0,0.2,0,0.4,0.2,0.6c0.1,0.1,0.1,0.3,0.1,0.5c-0.1,0.3,0,0.5,0.1,0.8c0,0.3,0.1,0.5,0.3,0.8c0,0,0,0.1,0,0.2
	c-0.2,0.1-0.3,0.2-0.5,0.4c0.1,0.3,0.2,0.6,0.3,0.8c0.1,0.2,0.2,0.5,0.4,0.7c0.3,0.2,0.6,0.3,0.9,0.2c0.1,0.1,0.2,0.2,0.2,0.4
	c0.4,0.9,0.5,1,1,1.5c0,0,0,0.1,0.1,0.1c-0.1,0.1-0.2,0.1-0.3,0.1c-0.9,0-1.8,0-2.8,0c-3.8,0-7.5,0-11.3,0.1c-2.1,0-4.2,0.1-6.3,0.1
	c-1.3,0-2.7,0-4,0c-0.3,0-0.6,0-0.9,0c-0.3,0-0.5,0.1-0.8,0.2c-0.1,0.4,0.3,0.6,0.3,0.9c-0.1,0-0.2,0.1-0.3,0.1c-0.8,0-1.5,0-2.3,0
	c0-0.2-0.1-0.3-0.1-0.4c0-0.9,0-1.8,0-2.6c0-0.2,0-0.5,0-0.7c-0.2-0.1-0.4-0.1-0.6-0.2c0-0.2-0.1-0.3-0.1-0.5
	c-0.2,0-0.3-0.1-0.5-0.1c0-0.2-0.1-0.4-0.1-0.6c-0.2,0-0.3-0.1-0.6-0.1c0-0.2-0.1-0.3-0.1-0.5c-0.2,0-0.3-0.1-0.5-0.1
	c0-0.2-0.1-0.3-0.1-0.6c-0.2,0-0.3-0.1-0.5-0.1c0-0.2-0.1-0.3-0.1-0.5c-0.2,0-0.3-0.1-0.5-0.1c0-0.2-0.1-0.3-0.1-0.5
	c-0.2,0-0.3-0.1-0.5-0.1c0-0.2-0.1-0.3-0.1-0.5c-0.2,0-0.3-0.1-0.6-0.1c0-0.1-0.1-0.3-0.1-0.5c-0.2,0-0.3-0.1-0.5-0.1
	c-0.1-0.6-0.1-3,0-3.6c0.1,0,0.3-0.1,0.5-0.1c1.1,0,2.3,0,3.4,0C325.6,233.5,325.6,233.5,326.1,233.1z"/>
</svg>
