<?xml version="1.0" encoding="UTF-8" standalone="no"?>
<!-- Generator: Adobe Illustrator 18.0.0, SVG Export Plug-In . SVG Version: 6.00 Build 0)  -->

<svg
   xmlns:dc="http://purl.org/dc/elements/1.1/"
   xmlns:cc="http://creativecommons.org/ns#"
   xmlns:rdf="http://www.w3.org/1999/02/22-rdf-syntax-ns#"
   xmlns:svg="http://www.w3.org/2000/svg"
   xmlns="http://www.w3.org/2000/svg"
   xmlns:sodipodi="http://sodipodi.sourceforge.net/DTD/sodipodi-0.dtd"
   xmlns:inkscape="http://www.inkscape.org/namespaces/inkscape"
   version="1.1"
   id="Layer_1"
   x="0px"
   y="0px"
   viewBox="0 0 157 157"
   enable-background="new 0 0 612 792"
   xml:space="preserve"
   inkscape:version="0.48.5 r10040"
   width="100%"
   height="100%"
   sodipodi:docname="genderless.svg"><metadata
     id="metadata3065"><rdf:RDF><cc:Work
         rdf:about=""><dc:format>image/svg+xml</dc:format><dc:type
           rdf:resource="http://purl.org/dc/dcmitype/StillImage" /></cc:Work></rdf:RDF></metadata><defs
     id="defs3063" /><sodipodi:namedview
     pagecolor="#ffffff"
     bordercolor="#666666"
     borderopacity="1"
     objecttolerance="10"
     gridtolerance="10"
     guidetolerance="10"
     inkscape:pageopacity="0"
     inkscape:pageshadow="2"
     inkscape:window-width="640"
     inkscape:window-height="480"
     id="namedview3061"
     showgrid="false"
     fit-margin-top="0"
     fit-margin-left="0"
     fit-margin-right="0"
     fit-margin-bottom="0"
     inkscape:zoom="0.2979798"
     inkscape:cx="79.300003"
     inkscape:cy="62"
     inkscape:window-x="59"
     inkscape:window-y="0"
     inkscape:window-maximized="0"
     inkscape:current-layer="Layer_1" /><rect
     x="0"
     y="0"
     width="157"
     height="157"
     id="rect3043"
     style="fill:#e5e5e5" /><path
     d="M 125.7,116.8 C 120,90.4 105.1,68.8 83.700003,61.8 l -0.2,0.2 -0.1,-0.3 c 0,0 0,0 -0.1,0 l -5.8,6 -5.8,-6 c 0,0 0,0 -0.1,0 l -0.1,0.3 -0.2,-0.2 c -21.4,7 -36.3,28.6 -42,55 h 13.1 l 10.1,-12.7 c -0.4,0.9 -1.3,6.2 0.2,12.4 l 1.9,0.2 c 0,0 0.1,0 0.1,0 1.3,0.1 44.1,0.1 45.399997,0 0.1,0 0.1,0 0.1,0 l 1.9,-0.2 c 1.5,-6.2 0.5,-11.5 0.2,-12.4 l 10.1,12.7 h 13.3 z"
     id="path3045"
     inkscape:connector-curvature="0" /><rect
     x="20.699997"
     y="118.79999"
     width="114.9"
     height="12.5"
     id="rect3047" /><path
     d="M 31.600003,153.5 H 124.6 l 1.5,-20.1 H 30.100003 l 1.5,20.1 z m 0,0"
     id="path3049"
     inkscape:connector-curvature="0" /><g
     id="g3051"
     transform="translate(-226.7,-301)"><path
       d="m 327.3,403.1 -5.8,2.8 c -0.9,0.4 -2,0.1 -2.4,-0.8 l -6.3,-12.9 c -0.4,-0.9 -0.1,-2 0.8,-2.4 l 5.8,-2.8 c 0.9,-0.4 2,-0.1 2.4,0.8 l 6.3,12.9 c 0.4,0.9 0.1,2 -0.8,2.4 z"
       id="path3053"
       inkscape:connector-curvature="0"
       style="fill:#e5e5e5" /><rect
       x="321.29999"
       y="402"
       transform="matrix(0.9877,0.1563,-0.1563,0.9877,68.0344,-45.4201)"
       width="3.2"
       height="16.1"
       id="rect3055"
       style="fill:#e5e5e5" /></g><path
     d="m 90.100003,65.2 c 0,6 -5.3,10.8 -11.8,10.8 -6.5,0 -11.8,-4.8 -11.8,-10.8 V 48.8 h 23.8 c 0,0 -0.2,16.3 -0.2,16.4 z"
     id="path3057"
     inkscape:connector-curvature="0"
     style="fill:#e5e5e5" /><path
     d="m 100.8,40.7 c 0,14.3 -10.499997,25.9 -23.399997,25.9 -12.9,0 -23.4,-11.6 -23.4,-25.9 0,-14.3 10.5,-25.9 23.4,-25.9 12.9,0 23.399997,11.6 23.399997,25.9 l 0,0 z m 0,0"
     id="path3059"
     inkscape:connector-curvature="0" /></svg>