<?xml version="1.0" encoding="utf-8"?>
<!-- Generator: Adobe Illustrator 18.0.0, SVG Export Plug-In . SVG Version: 6.00 Build 0)  -->
<!DOCTYPE svg PUBLIC "-//W3C//DTD SVG 1.1//EN" "http://www.w3.org/Graphics/SVG/1.1/DTD/svg11.dtd">
<svg version="1.1" id="Layer_1" xmlns="http://www.w3.org/2000/svg" xmlns:xlink="http://www.w3.org/1999/xlink" x="0px" y="0px"
	 viewBox="0 0 792 612" enable-background="new 0 0 792 612" xml:space="preserve">
<path fill="#64BCBB" d="M320.9,291.4c-2.8,4.1-3.2,7.5-3.2,7.5c-0.1,0.3-0.3,0.3-0.4,0c0,0-0.5-3.4-3.3-7.5
	c-2.3-3.2-3.3-4.5-3.3-7.1c0-3.7,3-6.7,6.8-6.7c3.7,0,6.8,3,6.8,6.7C324.2,286.9,322.2,289.5,320.9,291.4z M320.1,284.4
	c0-1.4-1.1-2.6-2.6-2.6c-1.4,0-2.5,1.1-2.5,2.6s1.2,2.7,2.5,2.7C318.9,287.1,320.1,285.9,320.1,284.4z"/>
</svg>
