<?xml version="1.0" encoding="UTF-8" standalone="no"?>
<!-- Generator: Adobe Illustrator 18.0.0, SVG Export Plug-In . SVG Version: 6.00 Build 0)  -->

<svg
   xmlns:dc="http://purl.org/dc/elements/1.1/"
   xmlns:cc="http://creativecommons.org/ns#"
   xmlns:rdf="http://www.w3.org/1999/02/22-rdf-syntax-ns#"
   xmlns:svg="http://www.w3.org/2000/svg"
   xmlns="http://www.w3.org/2000/svg"
   xmlns:sodipodi="http://sodipodi.sourceforge.net/DTD/sodipodi-0.dtd"
   xmlns:inkscape="http://www.inkscape.org/namespaces/inkscape"
   version="1.1"
   id="Layer_1"
   x="0px"
   y="0px"
   viewBox="0 0 21.599999 21.604999"
   enable-background="new 0 0 792 612"
   xml:space="preserve"
   inkscape:version="0.48.5 r10040"
   width="100%"
   height="100%"
   sodipodi:docname="indistrict_funding__gps.svg"><metadata
     id="metadata3033"><rdf:RDF><cc:Work
         rdf:about=""><dc:format>image/svg+xml</dc:format><dc:type
           rdf:resource="http://purl.org/dc/dcmitype/StillImage" /><dc:title /></cc:Work></rdf:RDF></metadata><defs
     id="defs3031" /><sodipodi:namedview
     pagecolor="#ffffff"
     bordercolor="#666666"
     borderopacity="1"
     objecttolerance="10"
     gridtolerance="10"
     guidetolerance="10"
     inkscape:pageopacity="0"
     inkscape:pageshadow="2"
     inkscape:window-width="640"
     inkscape:window-height="480"
     id="namedview3029"
     showgrid="false"
     fit-margin-top="0.08"
     fit-margin-left="4"
     fit-margin-right="4"
     fit-margin-bottom="0"
     inkscape:zoom="1.77"
     inkscape:cx="89.3"
     inkscape:cy="-6.8749993"
     inkscape:window-x="59"
     inkscape:window-y="0"
     inkscape:window-maximized="0"
     inkscape:current-layer="Layer_1"><sodipodi:guide
       position="4,7.2538047e-07"
       orientation="0,13.6"
       id="guide2990" /><sodipodi:guide
       position="17.599999,7.2538047e-07"
       orientation="-21.525,0"
       id="guide2992" /><sodipodi:guide
       position="17.599999,21.525"
       orientation="0,-13.6"
       id="guide2994" /><sodipodi:guide
       position="4,21.525"
       orientation="21.525,0"
       id="guide2996" /></sodipodi:namedview><path
     d="m 14.199999,13.879999 c -2.8,4.1 -3.2,7.5 -3.2,7.5 -0.1,0.3 -0.3,0.3 -0.4,0 0,0 -0.5,-3.4 -3.2999989,-7.5 -2.3,-3.2 -3.3,-4.4999996 -3.3,-7.0999996 0,-3.7 3,-6.70000005 6.7999989,-6.70000005 3.7,0 6.8,3.00000005 6.8,6.70000005 -0.1,2.6 -2.1,5.1999996 -3.4,7.0999996 z m -0.8,-6.9999996 c 0,-1.4 -1.1,-2.6 -2.6,-2.6 -1.3999989,0 -2.4999989,1.1 -2.4999989,2.6 0,1.5 1.2,2.7 2.4999989,2.7 1.4,0 2.6,-1.2 2.6,-2.7 z"
     id="path3027"
     inkscape:connector-curvature="0"
     style="fill:#64bcbb" /></svg>