<?xml version="1.0" encoding="utf-8"?>
<!-- Generator: Adobe Illustrator 18.0.0, SVG Export Plug-In . SVG Version: 6.00 Build 0)  -->
<!DOCTYPE svg PUBLIC "-//W3C//DTD SVG 1.1//EN" "http://www.w3.org/Graphics/SVG/1.1/DTD/svg11.dtd">
<svg version="1.1" id="Layer_1" xmlns="http://www.w3.org/2000/svg" xmlns:xlink="http://www.w3.org/1999/xlink" x="0px" y="0px"
	 viewBox="0 0 792 612" enable-background="new 0 0 792 612" xml:space="preserve">
<rect x="332.2" y="352" fill="none" width="127.7" height="15.3"/>
<text transform="matrix(1 0 0 1 332.1519 362.6393)" fill="#FFFFFF" font-family="'OpenSans-Bold'" font-size="14">Browse My Ballot</text>
<rect x="341" y="211.2" fill="#48A04B" width="138.7" height="138.7"/>
<rect x="346.7" y="327.9" fill="none" width="132.3" height="23.3"/>
<text transform="matrix(1 0 0 1 346.7107 338.4923)" fill="#FFFFFF" font-family="'OpenSans-Bold'" font-size="14">Search Campaigns</text>
<rect x="377" y="284" fill="#FFFFFF" width="68.2" height="7.4"/>
<path fill="#FFFFFF" d="M387.4,317.7h47.6l4.7-24.5h-57L387.4,317.7z M387.4,317.7"/>
<path fill="#64BCBA" d="M401.5,303.7l-3.2,2.4l1.2,3.8c0,0.1,0.1,0.2,0.1,0.4c0,0.2,0,0.3-0.2,0.3c-0.2,0-0.3-0.1-0.4-0.2l-3.2-2.3
	l-3.2,2.3c-0.1,0.1-0.3,0.2-0.5,0.2c-0.2,0-0.2-0.1-0.2-0.3c0-0.1,0-0.2,0.1-0.4l1.2-3.8l-3.2-2.4c-0.1-0.1-0.3-0.3-0.3-0.4
	c0-0.2,0.4-0.3,0.6-0.3l4,0l1.2-3.8c0-0.2,0.2-0.5,0.4-0.5s0.3,0.3,0.4,0.5l1.2,3.8l4,0c0.2,0,0.6,0,0.6,0.3
	C401.8,303.4,401.6,303.6,401.5,303.7z"/>
<path fill="#64BCBA" d="M416.8,303.7l-3.2,2.4l1.2,3.8c0,0.1,0.1,0.2,0.1,0.4c0,0.2,0,0.3-0.2,0.3c-0.2,0-0.3-0.1-0.4-0.2l-3.2-2.3
	l-3.2,2.3c-0.1,0.1-0.3,0.2-0.5,0.2c-0.2,0-0.2-0.1-0.2-0.3c0-0.1,0-0.2,0.1-0.4l1.2-3.8l-3.2-2.4c-0.1-0.1-0.3-0.3-0.3-0.4
	c0-0.2,0.4-0.3,0.6-0.3l4,0l1.2-3.8c0-0.2,0.2-0.5,0.4-0.5s0.3,0.3,0.4,0.5l1.2,3.8l4,0c0.2,0,0.6,0,0.6,0.3
	C417.1,303.4,416.9,303.6,416.8,303.7z"/>
<path fill="#64BCBA" d="M432,303.7l-3.2,2.4l1.2,3.8c0,0.1,0.1,0.2,0.1,0.4c0,0.2,0,0.3-0.2,0.3c-0.2,0-0.3-0.1-0.4-0.2l-3.2-2.3
	l-3.2,2.3c-0.1,0.1-0.3,0.2-0.5,0.2c-0.2,0-0.2-0.1-0.2-0.3c0-0.1,0-0.2,0.1-0.4l1.2-3.8l-3.2-2.4c-0.1-0.1-0.3-0.3-0.3-0.4
	c0-0.2,0.4-0.3,0.6-0.3l4,0l1.2-3.8c0-0.2,0.2-0.5,0.4-0.5s0.3,0.3,0.4,0.5l1.2,3.8l4,0c0.2,0,0.6,0,0.6,0.3
	C432.4,303.4,432.2,303.6,432,303.7z"/>
<g>
	<path fill="#FFFFFF" d="M410.8,222.5c0,0-18.3-0.8-16.2,27.6c0,0-0.1,23.2,10.3,25.3c0,0-4.6-5.3-3.3-9c0,0,5.7-1.1,4.9-9.8
		c0,0-4.8-4.2-5.4-7.1c0,0,0-9.1,0.8-10.3c0,0,4.6,0.4,5,0c0,0,3.7-3.4,4.6-5.1c0,0,0.7,3-1.1,4.9h4.8c0,0,1.5-1.5,1.8-3.2
		c0,0,0.5,2.9-0.2,3.3h2.8c0,0,1.5,8.1,1.2,10.4c0,0-2.7,6-5.4,7c0,0-0.9,9,5.6,10.2c0,0-0.6,8.1-4.6,8.4c0,0,6.7,1.8,10.5-12.5
		c0,0,1.9-19.9-0.6-26.3C426.3,236.3,423.9,224,410.8,222.5z"/>
</g>
<path fill="#FFFFFF" d="M385.4,282.9c0-10.3,8-18.7,17.9-18.7c9.9,0,17.9,8.4,17.9,18.7"/>
<path fill="#FFFFFF" d="M399.8,282.9c0-10.3,8-18.7,17.9-18.7c9.9,0,17.9,8.4,17.9,18.7"/>
<path fill="#48A04B" d="M418.1,263.9c0,4.2-3.1,7.6-7,7.6s-7-3.4-7-7.6"/>
<g>
	<path fill="#48A04B" d="M425.9,276.6l-1.3,0.6c-0.9,0.4-2,0.1-2.4-0.8l-2.4-5c-0.4-0.9-0.1-2,0.8-2.4l1.3-0.6
		c0.9-0.4,2-0.1,2.4,0.8l2.4,5C427.2,275,426.8,276.1,425.9,276.6z"/>
	
		<rect x="423.7" y="275.6" transform="matrix(0.9877 0.1563 -0.1563 0.9877 48.9157 -62.8969)" fill="#48A04B" width="1.6" height="8.2"/>
</g>
</svg>
