<?xml version="1.0" encoding="UTF-8" standalone="no"?>
<!-- Generator: Adobe Illustrator 18.0.0, SVG Export Plug-In . SVG Version: 6.00 Build 0)  -->

<svg
   xmlns:dc="http://purl.org/dc/elements/1.1/"
   xmlns:cc="http://creativecommons.org/ns#"
   xmlns:rdf="http://www.w3.org/1999/02/22-rdf-syntax-ns#"
   xmlns:svg="http://www.w3.org/2000/svg"
   xmlns="http://www.w3.org/2000/svg"
   xmlns:sodipodi="http://sodipodi.sourceforge.net/DTD/sodipodi-0.dtd"
   xmlns:inkscape="http://www.inkscape.org/namespaces/inkscape"
   version="1.1"
   id="Layer_1"
   x="0px"
   y="0px"
   viewBox="0 0 138.69999 138.69999"
   enable-background="new 0 0 792 612"
   xml:space="preserve"
   inkscape:version="0.48.5 r10040"
   width="100%"
   height="100%"
   sodipodi:docname="landing_search.svg"><metadata
     id="metadata43"><rdf:RDF><cc:Work
         rdf:about=""><dc:format>image/svg+xml</dc:format><dc:type
           rdf:resource="http://purl.org/dc/dcmitype/StillImage" /></cc:Work></rdf:RDF></metadata><defs
     id="defs41" /><sodipodi:namedview
     pagecolor="#ffffff"
     bordercolor="#666666"
     borderopacity="1"
     objecttolerance="10"
     gridtolerance="10"
     guidetolerance="10"
     inkscape:pageopacity="0"
     inkscape:pageshadow="2"
     inkscape:window-width="822"
     inkscape:window-height="669"
     id="namedview39"
     showgrid="false"
     fit-margin-top="0"
     fit-margin-left="0"
     fit-margin-right="0"
     fit-margin-bottom="0"
     inkscape:zoom="3.0849673"
     inkscape:cx="28.250926"
     inkscape:cy="43.899996"
     inkscape:window-x="0"
     inkscape:window-y="0"
     inkscape:window-maximized="0"
     inkscape:current-layer="Layer_1" /><rect
     x="0"
     y="-1.5401806e-06"
     width="138.7"
     height="138.7"
     id="rect7"
     style="fill:#48a04b" /><rect
     x="5.7000122"
     y="116.7"
     width="132.3"
     height="23.299999"
     id="rect9"
     style="fill:none" /><text
     font-size="14"
     id="text11"
     style="font-size:14px;fill:#ffffff;font-family:OpenSansBold"
     x="6"
     y="127.2923">Search Campaigns</text>
<rect
     x="36"
     y="72.800003"
     width="68.199997"
     height="7.4000001"
     id="rect13"
     style="fill:#ffffff" /><path
     d="m 46.4,106.5 h 47.600002 l 4.7,-24.499999 H 41.7 L 46.4,106.5 z m 0,0"
     id="path15"
     inkscape:connector-curvature="0"
     style="fill:#ffffff" /><path
     d="m 60.5,92.500001 -3.2,2.4 1.2,3.8 c 0,0.1 0.1,0.2 0.1,0.4 0,0.2 0,0.3 -0.2,0.3 -0.2,0 -0.3,-0.1 -0.4,-0.2 l -3.2,-2.3 -3.2,2.3 c -0.1,0.1 -0.3,0.2 -0.5,0.2 -0.2,0 -0.2,-0.1 -0.2,-0.3 0,-0.1 0,-0.2 0.1,-0.4 l 1.2,-3.8 -3.2,-2.4 c -0.1,-0.1 -0.3,-0.3 -0.3,-0.4 0,-0.2 0.4,-0.3 0.6,-0.3 l 4,0 1.2,-3.8 c 0,-0.2 0.2,-0.5 0.4,-0.5 0.2,0 0.3,0.3 0.4,0.5 l 1.2,3.8 4,0 c 0.2,0 0.6,0 0.6,0.3 -0.3,0.1 -0.5,0.3 -0.6,0.4 z"
     id="path17"
     inkscape:connector-curvature="0"
     style="fill:#64bcba" /><path
     d="m 75.8,92.500001 -3.2,2.4 1.2,3.8 c 0,0.1 0.1,0.2 0.1,0.4 0,0.2 0,0.3 -0.2,0.3 -0.2,0 -0.3,-0.1 -0.4,-0.2 l -3.2,-2.3 -3.2,2.3 c -0.1,0.1 -0.3,0.2 -0.5,0.2 -0.2,0 -0.2,-0.1 -0.2,-0.3 0,-0.1 0,-0.2 0.1,-0.4 l 1.2,-3.8 -3.2,-2.4 c -0.1,-0.1 -0.3,-0.3 -0.3,-0.4 0,-0.2 0.4,-0.3 0.6,-0.3 l 4,0 1.2,-3.8 c 0,-0.2 0.2,-0.5 0.4,-0.5 0.2,0 0.3,0.3 0.4,0.5 l 1.2,3.8 4,0 c 0.2,0 0.6,0 0.6,0.3 -0.3,0.1 -0.5,0.3 -0.6,0.4 z"
     id="path19"
     inkscape:connector-curvature="0"
     style="fill:#64bcba" /><path
     d="m 91,92.500001 -3.2,2.4 1.2,3.8 c 0,0.1 0.1,0.2 0.1,0.4 0,0.2 0,0.3 -0.2,0.3 -0.2,0 -0.3,-0.1 -0.4,-0.2 l -3.2,-2.3 -3.2,2.3 c -0.1,0.1 -0.3,0.2 -0.5,0.2 -0.2,0 -0.2,-0.1 -0.2,-0.3 0,-0.1 0,-0.2 0.1,-0.4 l 1.2,-3.8 -3.2,-2.4 c -0.1,-0.1 -0.3,-0.3 -0.3,-0.4 0,-0.2 0.4,-0.3 0.6,-0.3 l 4,0 1.2,-3.8 c 0,-0.2 0.2,-0.5 0.4,-0.5 0.2,0 0.3,0.3 0.4,0.5 l 1.2,3.8 4,0 c 0.2,0 0.600002,0 0.600002,0.3 -0.2,0.1 -0.400002,0.3 -0.600002,0.4 z"
     id="path21"
     inkscape:connector-curvature="0"
     style="fill:#64bcba" /><g
     id="g23"
     transform="translate(-341,-211.2)"><path
       d="m 410.8,222.5 c 0,0 -18.3,-0.8 -16.2,27.6 0,0 -0.1,23.2 10.3,25.3 0,0 -4.6,-5.3 -3.3,-9 0,0 5.7,-1.1 4.9,-9.8 0,0 -4.8,-4.2 -5.4,-7.1 0,0 0,-9.1 0.8,-10.3 0,0 4.6,0.4 5,0 0,0 3.7,-3.4 4.6,-5.1 0,0 0.7,3 -1.1,4.9 h 4.8 c 0,0 1.5,-1.5 1.8,-3.2 0,0 0.5,2.9 -0.2,3.3 h 2.8 c 0,0 1.5,8.1 1.2,10.4 0,0 -2.7,6 -5.4,7 0,0 -0.9,9 5.6,10.2 0,0 -0.6,8.1 -4.6,8.4 0,0 6.7,1.8 10.5,-12.5 0,0 1.9,-19.9 -0.6,-26.3 0,0 -2.4,-12.3 -15.5,-13.8 z"
       id="path25"
       inkscape:connector-curvature="0"
       style="fill:#ffffff" /></g><path
     d="m 44.4,71.700001 c 0,-10.3 8,-18.7 17.9,-18.7 9.9,0 17.9,8.4 17.9,18.7"
     id="path27"
     inkscape:connector-curvature="0"
     style="fill:#ffffff" /><path
     d="m 58.8,71.700001 c 0,-10.3 8,-18.7 17.9,-18.7 9.9,0 17.900002,8.4 17.900002,18.7"
     id="path29"
     inkscape:connector-curvature="0"
     style="fill:#ffffff" /><path
     d="m 77.1,52.700001 c 0,4.2 -3.1,7.6 -7,7.6 -3.9,0 -7,-3.4 -7,-7.6"
     id="path31"
     inkscape:connector-curvature="0"
     style="fill:#48a04b" /><g
     id="g33"
     transform="translate(-341,-211.2)"><path
       d="m 425.9,276.6 -1.3,0.6 c -0.9,0.4 -2,0.1 -2.4,-0.8 l -2.4,-5 c -0.4,-0.9 -0.1,-2 0.8,-2.4 l 1.3,-0.6 c 0.9,-0.4 2,-0.1 2.4,0.8 l 2.4,5 c 0.5,0.8 0.1,1.9 -0.8,2.4 z"
       id="path35"
       inkscape:connector-curvature="0"
       style="fill:#48a04b" /><rect
       x="423.70001"
       y="275.60001"
       transform="matrix(0.9877,0.1563,-0.1563,0.9877,48.9157,-62.8969)"
       width="1.6"
       height="8.1999998"
       id="rect37"
       style="fill:#48a04b" /></g></svg>