<?xml version="1.0" encoding="UTF-8" standalone="no"?>
<!-- Generator: Adobe Illustrator 18.0.0, SVG Export Plug-In . SVG Version: 6.00 Build 0)  -->

<svg
   xmlns:dc="http://purl.org/dc/elements/1.1/"
   xmlns:cc="http://creativecommons.org/ns#"
   xmlns:rdf="http://www.w3.org/1999/02/22-rdf-syntax-ns#"
   xmlns:svg="http://www.w3.org/2000/svg"
   xmlns="http://www.w3.org/2000/svg"
   xmlns:sodipodi="http://sodipodi.sourceforge.net/DTD/sodipodi-0.dtd"
   xmlns:inkscape="http://www.inkscape.org/namespaces/inkscape"
   version="1.1"
   id="Layer_1"
   x="0px"
   y="0px"
   viewBox="0 0 26 26"
   enable-background="new 0 0 792 612"
   xml:space="preserve"
   inkscape:version="0.48.5 r10040"
   width="100%"
   height="100%"
   sodipodi:docname="landing_twitter.svg"><metadata
     id="metadata3008"><rdf:RDF><cc:Work
         rdf:about=""><dc:format>image/svg+xml</dc:format><dc:type
           rdf:resource="http://purl.org/dc/dcmitype/StillImage" /></cc:Work></rdf:RDF></metadata><defs
     id="defs3006" /><sodipodi:namedview
     pagecolor="#ffffff"
     bordercolor="#666666"
     borderopacity="1"
     objecttolerance="10"
     gridtolerance="10"
     guidetolerance="10"
     inkscape:pageopacity="0"
     inkscape:pageshadow="2"
     inkscape:window-width="640"
     inkscape:window-height="480"
     id="namedview3004"
     showgrid="false"
     fit-margin-top="0"
     fit-margin-left="0"
     fit-margin-right="0"
     fit-margin-bottom="0"
     inkscape:zoom="0.38562092"
     inkscape:cx="12.2"
     inkscape:cy="11.7"
     inkscape:window-x="55"
     inkscape:window-y="84"
     inkscape:window-maximized="0"
     inkscape:current-layer="Layer_1" /><path
     d="M 13,0 C 5.8,0 0,5.8 0,13 0,20.2 5.8,26 13,26 20.2,26 26,20.2 26,13 26,5.8 20.2,0 13,0 z"
     id="path2998"
     inkscape:connector-curvature="0"
     style="fill:#64bcba" /><g
     transform="matrix(0.57079,0,0,-0.57079,-426.60937,140.5052)"
     id="g3000"><path
       d="m 786.7,234.3 c -0.2,-0.4 -0.6,-1 -1.2,-1.7 -0.6,-0.7 -1.3,-1.3 -2.1,-1.8 0,-0.2 0,-0.4 0.1,-0.5 0.1,-2.5 -0.5,-5.1 -1.3,-7.3 -1.6,-4 -4.1,-7.3 -7.6,-9.4 -3.7,-2.1 -8,-2.6 -11.9,-2.2 -2.6,0.3 -5.2,1.2 -7.1,2.8 3.6,-0.4 6.9,0.8 9.5,2.7 -2.9,-0.1 -5.1,2 -6.1,4.5 0.5,-0.1 0.9,-0.1 1.4,-0.1 0.5,0 1,0.1 1.5,0.2 -1.9,0.6 -3.5,1.7 -4.3,3.4 -0.5,1.1 -0.7,2.1 -0.7,3.2 0.9,-0.5 1.9,-0.9 2.9,-0.9 -1.5,1.2 -2.6,2.8 -2.8,4.6 -0.1,1.5 0.2,2.9 0.8,4.2 2.2,-2.4 4.6,-4.4 7.4,-5.6 1.9,-0.8 3.8,-1.2 5.8,-1.2 -0.2,1.8 -0.1,3.5 0.8,4.9 1,1.6 2.4,2.5 4,2.9 2.3,0.6 4.5,-0.2 5.9,-1.8 1.5,0.2 3,0.8 4.1,1.5 -0.5,-1.5 -1.5,-3 -2.9,-3.7 1.3,0.4 2.6,0.8 3.8,1.3 z"
       id="path3002"
       inkscape:connector-curvature="0"
       style="fill:#ffffff" /></g></svg>