<?xml version="1.0" encoding="utf-8"?>
<!-- Generator: Adobe Illustrator 18.0.0, SVG Export Plug-In . SVG Version: 6.00 Build 0)  -->
<!DOCTYPE svg PUBLIC "-//W3C//DTD SVG 1.1//EN" "http://www.w3.org/Graphics/SVG/1.1/DTD/svg11.dtd">
<svg version="1.1" id="Layer_1" xmlns="http://www.w3.org/2000/svg" xmlns:xlink="http://www.w3.org/1999/xlink" x="0px" y="0px"
	 viewBox="0 0 792 612" enable-background="new 0 0 792 612" xml:space="preserve">
<path fill="#64BCBA" d="M395,291.7c-7.2,0-13,5.8-13,13c0,7.2,5.8,13,13,13s13-5.8,13-13C408,297.5,402.2,291.7,395,291.7z
	 M399.4,305l-2.7,0l0,9.8h-3.7V305h-2.5v-3.4l2.5,0l0-2c0-2.8,0.7-4.4,4-4.4h2.7v3.4h-1.7c-1.3,0-1.3,0.5-1.3,1.4l0,1.7h3L399.4,305
	z"/>
</svg>
