<?xml version="1.0" encoding="utf-8"?>
<!-- Generator: Adobe Illustrator 18.0.0, SVG Export Plug-In . SVG Version: 6.00 Build 0)  -->
<!DOCTYPE svg PUBLIC "-//W3C//DTD SVG 1.1//EN" "http://www.w3.org/Graphics/SVG/1.1/DTD/svg11.dtd">
<svg version="1.1" id="Layer_1" xmlns="http://www.w3.org/2000/svg" xmlns:xlink="http://www.w3.org/1999/xlink" x="0px" y="0px"
	 viewBox="0 0 792 612" enable-background="new 0 0 792 612" xml:space="preserve">
<rect x="327.2" y="235.3" fill="#64BCBA" width="138.7" height="138.7"/>
<rect x="332.2" y="352" fill="none" width="127.7" height="15.3"/>
<text transform="matrix(1 0 0 1 332.1519 362.6393)" fill="#FFFFFF" font-family="'OpenSans-Bold'" font-size="14">Browse My Ballot</text>
<g>
	<path fill="#FFFFFF" d="M361.8,320h17.6l2.4-14.3h-17L361.8,320z M367.6,309.1h10.2l-1.3,7.5h-10.5L367.6,309.1z M367.6,309.1"/>
	<path fill="#FFFFFF" d="M384.1,291.6l-3.7,2.1l-0.3,2.1h-9.9l1.5-7h8.3l5.1-3l0-0.3H369l-2.8,13.5h16.6L384.1,291.6z M384.1,291.6"
		/>
	<g>
		<path fill="#FFFFFF" d="M385.9,286.4l-8.7,5.1l-2.3-2.2l-2.3,1.4l4,4.2l11.4-6.7L385.9,286.4z M385.9,286.4"/>
		<path fill="#FFFFFF" d="M445.2,257.2l-4.3-5.1c-1.1-1.3-3.1-1.5-4.5-0.4l-3.7,3.1l8.4,9.9l3.7-3.1
			C446.1,260.5,446.3,258.5,445.2,257.2L445.2,257.2z M445.2,257.2"/>
	</g>
	<path fill="#FFFFFF" d="M429.3,277.1l-3.7,3.1l12,49.5h-86.1l12.7-52.5h38.9l5.3-4.3h-47.7L346,334.1h97.1L429.3,277.1z
		 M429.3,277.1"/>
	<path fill="#FFFFFF" d="M431.1,256.3l-33.8,28.6l8.4,9.9l19-16l0,0l4.2-3.5l10.6-9L431.1,256.3z M431.1,256.3"/>
	<path fill="#FFFFFF" d="M390.3,299.3l13.1-3.2l-7.9-9.3L390.3,299.3z M390.3,299.3"/>
</g>
<polygon fill="#FFFFFF" points="424.3,312 385.9,312 386.6,307.7 423.2,307.7 "/>
<polygon fill="#FFFFFF" points="421.7,317.2 386.3,317.2 387,313.8 420.6,313.8 "/>
</svg>
