<?xml version="1.0" encoding="utf-8"?>
<!-- Generator: Adobe Illustrator 18.0.0, SVG Export Plug-In . SVG Version: 6.00 Build 0)  -->
<!DOCTYPE svg PUBLIC "-//W3C//DTD SVG 1.1//EN" "http://www.w3.org/Graphics/SVG/1.1/DTD/svg11.dtd">
<svg version="1.1" id="Layer_1" xmlns="http://www.w3.org/2000/svg" xmlns:xlink="http://www.w3.org/1999/xlink" x="0px" y="0px"
	 viewBox="0 0 792 612" enable-background="new 0 0 792 612" xml:space="preserve">
<path fill="#64BCBA" d="M396.8,291.7c-7.2,0-13,5.8-13,13c0,7.2,5.8,13,13,13c7.2,0,13-5.8,13-13C409.8,297.5,404,291.7,396.8,291.7
	z"/>
<g transform="matrix(.57079,0,0,-.57079,-42.80937,432.2052)">
	<path fill="#FFFFFF" d="M786.7,234.3c-0.2-0.4-0.6-1-1.2-1.7c-0.6-0.7-1.3-1.3-2.1-1.8c0-0.2,0-0.4,0.1-0.5
		c0.1-2.5-0.5-5.1-1.3-7.3c-1.6-4-4.1-7.3-7.6-9.4c-3.7-2.1-8-2.6-11.9-2.2c-2.6,0.3-5.2,1.2-7.1,2.8c3.6-0.4,6.9,0.8,9.5,2.7
		c-2.9-0.1-5.1,2-6.1,4.5c0.5-0.1,0.9-0.1,1.4-0.1c0.5,0,1,0.1,1.5,0.2c-1.9,0.6-3.5,1.7-4.3,3.4c-0.5,1.1-0.7,2.1-0.7,3.2
		c0.9-0.5,1.9-0.9,2.9-0.9c-1.5,1.2-2.6,2.8-2.8,4.6c-0.1,1.5,0.2,2.9,0.8,4.2c2.2-2.4,4.6-4.4,7.4-5.6c1.9-0.8,3.8-1.2,5.8-1.2
		c-0.2,1.8-0.1,3.5,0.8,4.9c1,1.6,2.4,2.5,4,2.9c2.3,0.6,4.5-0.2,5.9-1.8c1.5,0.2,3,0.8,4.1,1.5c-0.5-1.5-1.5-3-2.9-3.7
		C784.2,233.4,785.5,233.8,786.7,234.3z"/>
</g>
</svg>
