<?xml version="1.0" encoding="utf-8"?>
<!-- Generator: Adobe Illustrator 18.0.0, SVG Export Plug-In . SVG Version: 6.00 Build 0)  -->
<!DOCTYPE svg PUBLIC "-//W3C//DTD SVG 1.1//EN" "http://www.w3.org/Graphics/SVG/1.1/DTD/svg11.dtd">
<svg version="1.1" id="Layer_1" xmlns="http://www.w3.org/2000/svg" xmlns:xlink="http://www.w3.org/1999/xlink" x="0px" y="0px"
	 viewBox="0 0 792 612" enable-background="new 0 0 792 612" xml:space="preserve">
<rect x="332.2" y="352" fill="none" width="127.7" height="15.3"/>
<text transform="matrix(1 0 0 1 332.1519 362.6393)" fill="#FFFFFF" font-family="'OpenSans-Bold'" font-size="14">Browse My Ballot</text>
<rect x="339.5" y="212.3" fill="#A4A4A4" width="138.7" height="138.7"/>
<rect x="345.8" y="329" fill="none" width="133" height="18.7"/>
<text transform="matrix(1 0 0 1 345.8185 339.6393)" fill="#FFFFFF" font-family="'OpenSans-Bold'" font-size="14">View All of Oregon</text>
<path id="OR_1_" fill="#FFFFFF" d="M465,307.2l-1.6-15.9l-1.6-15.6l-0.1-3.8l0.3-5.5l-1.7-1.5l-2,0.8l-0.9-0.6l0-1.1l-0.6-2.6l2-5.7
	l1.4-0.9l0.6-1.3l-0.5-2.8l0.5-0.8l1.5-5.8l1.9-4.6l-0.9-3.1l-3.5-1.1l-2.1-3.1l-12.4,1.1l-13.3,1.5l-12.5,4.5l-0.8-1l-3.9,3.2
	l-3.8,0.8l-2.4-0.6l-0.8,0.9l-3.9,1.2l-1.8-0.6l-4.9-0.2l-0.6,0.3l-3.9,0l-1,2l-5.1,1.5l-6-1.6l0.3-0.8l-2-6.4l-3-2.5l-3.5,0.7
	l-1.3-1.8l-2,0.3l-4.1,3.3l0,5.9l0.3,9.1l-0.8,6.2l0,12.8l-1.3,12.9l-2.9,12.5l-0.7,2.9l1.8,7.2l0.7,5.2l3.1,3l6.4-0.1l10.1-0.9
	l6.7-0.5l11.4-0.3l11.9-1.1l12.1-0.7 M464.9,307.6l-41.2,4.5l29.6-3.1l12-1.5"/>
<path fill="#64BCBA" d="M419.2,281.9c-5.4,7.7-6.1,14.2-6.1,14.2c-0.1,0.5-0.6,0.5-0.7,0c0,0-1-6.5-6.3-14.2
	c-4.4-6.1-6.3-8.5-6.3-13.4c0-7.1,5.7-12.8,12.8-12.8c7.1,0,12.9,5.7,12.9,12.8C425.5,273.5,421.7,278.3,419.2,281.9z M417.6,268.7
	c0-2.7-2.1-4.9-5-4.9c-2.6,0-4.8,2.1-4.8,4.9c0,2.7,2.2,5.1,4.8,5.1C415.5,273.8,417.6,271.5,417.6,268.7z"/>
</svg>
