<?xml version="1.0" encoding="utf-8"?>
<!-- Generator: Adobe Illustrator 18.0.0, SVG Export Plug-In . SVG Version: 6.00 Build 0)  -->
<!DOCTYPE svg PUBLIC "-//W3C//DTD SVG 1.1//EN" "http://www.w3.org/Graphics/SVG/1.1/DTD/svg11.dtd">
<svg version="1.1" id="Layer_1" xmlns="http://www.w3.org/2000/svg" xmlns:xlink="http://www.w3.org/1999/xlink" x="0px" y="0px"
	 viewBox="0 0 792 612" enable-background="new 0 0 792 612" xml:space="preserve">
<path fill="#64BCBA" d="M396.8,291.7c-7.2,0-13,5.8-13,13c0,7.2,5.8,13,13,13c7.2,0,13-5.8,13-13C409.8,297.5,404,291.7,396.8,291.7
	z"/>
<path fill="#FFFFFF" d="M387.3,299.2l5.8,5.4l-5.8,5.9V299.2z M405.9,311.5h-17.5l5.8-5.9l3,2.8l3.1-2.9L405.9,311.5z M405.6,297.7
	l-8.5,8l-8.5-8H405.6z M407,299.2v11.3l-5.7-5.9L407,299.2z"/>
</svg>
