<?xml version="1.0" encoding="UTF-8" standalone="no"?>
<!-- Generator: Adobe Illustrator 18.0.0, SVG Export Plug-In . SVG Version: 6.00 Build 0)  -->

<svg
   xmlns:dc="http://purl.org/dc/elements/1.1/"
   xmlns:cc="http://creativecommons.org/ns#"
   xmlns:rdf="http://www.w3.org/1999/02/22-rdf-syntax-ns#"
   xmlns:svg="http://www.w3.org/2000/svg"
   xmlns="http://www.w3.org/2000/svg"
   xmlns:sodipodi="http://sodipodi.sourceforge.net/DTD/sodipodi-0.dtd"
   xmlns:inkscape="http://www.inkscape.org/namespaces/inkscape"
   version="1.1"
   id="Layer_1"
   x="0px"
   y="0px"
   viewBox="0 0 138.69999 138.69999"
   enable-background="new 0 0 792 612"
   xml:space="preserve"
   inkscape:version="0.48.5 r10040"
   width="100%"
   height="100%"
   sodipodi:docname="landing_oregon.svg"><metadata
     id="metadata20"><rdf:RDF><cc:Work
         rdf:about=""><dc:format>image/svg+xml</dc:format><dc:type
           rdf:resource="http://purl.org/dc/dcmitype/StillImage" /></cc:Work></rdf:RDF></metadata><defs
     id="defs18" /><sodipodi:namedview
     pagecolor="#ffffff"
     bordercolor="#666666"
     borderopacity="1"
     objecttolerance="10"
     gridtolerance="10"
     guidetolerance="10"
     inkscape:pageopacity="0"
     inkscape:pageshadow="2"
     inkscape:window-width="829"
     inkscape:window-height="681"
     id="namedview16"
     showgrid="false"
     fit-margin-top="0"
     fit-margin-left="0"
     fit-margin-right="0"
     fit-margin-bottom="0"
     inkscape:zoom="2.1814013"
     inkscape:cx="56.499995"
     inkscape:cy="44.999995"
     inkscape:window-x="0"
     inkscape:window-y="0"
     inkscape:window-maximized="0"
     inkscape:current-layer="Layer_1" /><rect
     x="-7.299993"
     y="139.7"
     width="127.7"
     height="15.3"
     id="rect3"
     style="fill:none" /><rect
     x="-5.2798669e-06"
     y="0"
     width="138.7"
     height="138.7"
     id="rect7"
     style="fill:#a4a4a4" /><rect
     x="6.2999825"
     y="116.7"
     width="133"
     height="18.700001"
     id="rect9"
     style="fill:none" /><text
     font-size="14"
     id="text11"
     style="font-size:14px;fill:#ffffff;font-family:OpenSansBold"
     x="5"
     y="127.33929">View All of Oregon</text>
<path
     id="OR_1_"
     d="m 125.5,94.899997 -1.6,-15.9 -1.6,-15.6 -0.1,-3.8 0.3,-5.5 -1.7,-1.5 -2,0.8 -0.9,-0.6 0,-1.1 -0.6,-2.6 2,-5.7 1.4,-0.9 0.6,-1.3 -0.5,-2.8 0.5,-0.8 1.5,-5.8 1.9,-4.6 -0.9,-3.1 -3.5,-1.1 -2.1,-3.1 -12.4,1.1 -13.300005,1.5 -12.5,4.5 -0.8,-1 -3.9,3.2 -3.8,0.8 -2.4,-0.6 -0.8,0.9 -3.9,1.2 -1.8,-0.6 -4.9,-0.2 -0.6,0.3 -3.9,0 -1,2 -5.1,1.5 -6,-1.6 0.3,-0.8 -2,-6.4 -3,-2.5 -3.5,0.7 -1.3,-1.8 -2,0.3 -4.1,3.3 0,5.9 0.3,9.1 -0.8,6.2 0,12.8 -1.3,12.9 -2.9,12.5 -0.7,2.9 1.8,7.2 0.7,5.200003 3.1,3 6.4,-0.1 10.1,-0.9 6.7,-0.5 11.4,-0.3 11.9,-1.1 12.1,-0.700003 m 41.100005,-4.5 -41.200005,4.5 29.600005,-3.1 12,-1.5"
     inkscape:connector-curvature="0"
     style="fill:#ffffff" /><path
     d="m 79.699995,69.599997 c -5.4,7.7 -6.1,14.2 -6.1,14.2 -0.1,0.5 -0.6,0.5 -0.7,0 0,0 -1,-6.5 -6.3,-14.2 -4.4,-6.1 -6.3,-8.5 -6.3,-13.4 0,-7.1 5.7,-12.8 12.8,-12.8 7.1,0 12.9,5.7 12.9,12.8 0,5 -3.8,9.8 -6.3,13.4 z m -1.6,-13.2 c 0,-2.7 -2.1,-4.9 -5,-4.9 -2.6,0 -4.8,2.1 -4.8,4.9 0,2.7 2.2,5.1 4.8,5.1 2.9,0 5,-2.3 5,-5.1 z"
     id="path14"
     inkscape:connector-curvature="0"
     style="fill:#64bcba" /></svg>