<?xml version="1.0" encoding="UTF-8" standalone="no"?>
<!-- Generator: Adobe Illustrator 18.0.0, SVG Export Plug-In . SVG Version: 6.00 Build 0)  -->

<svg
   xmlns:dc="http://purl.org/dc/elements/1.1/"
   xmlns:cc="http://creativecommons.org/ns#"
   xmlns:rdf="http://www.w3.org/1999/02/22-rdf-syntax-ns#"
   xmlns:svg="http://www.w3.org/2000/svg"
   xmlns="http://www.w3.org/2000/svg"
   xmlns:sodipodi="http://sodipodi.sourceforge.net/DTD/sodipodi-0.dtd"
   xmlns:inkscape="http://www.inkscape.org/namespaces/inkscape"
   version="1.1"
   id="Layer_1"
   x="0px"
   y="0px"
   viewBox="0 0 138.7 138.7"
   enable-background="new 0 0 792 612"
   xml:space="preserve"
   inkscape:version="0.48.5 r10040"
   width="100%"
   height="100%"
   sodipodi:docname="landing_browse.svg"><metadata
     id="metadata35"><rdf:RDF><cc:Work
         rdf:about=""><dc:format>image/svg+xml</dc:format><dc:type
           rdf:resource="http://purl.org/dc/dcmitype/StillImage" /></cc:Work></rdf:RDF></metadata><defs
     id="defs33" /><sodipodi:namedview
     pagecolor="#ffffff"
     bordercolor="#666666"
     borderopacity="1"
     objecttolerance="10"
     gridtolerance="10"
     guidetolerance="10"
     inkscape:pageopacity="0"
     inkscape:pageshadow="2"
     inkscape:window-width="640"
     inkscape:window-height="480"
     id="namedview31"
     showgrid="false"
     fit-margin-top="0"
     fit-margin-left="0"
     fit-margin-right="0"
     fit-margin-bottom="0"
     inkscape:zoom="0.38562092"
     inkscape:cx="68.799988"
     inkscape:cy="68"
     inkscape:window-x="0"
     inkscape:window-y="0"
     inkscape:window-maximized="0"
     inkscape:current-layer="Layer_1" /><rect
     x="0"
     y="0"
     width="138.7"
     height="138.7"
     id="rect3"
     style="fill:#64bcba" /><rect
     x="5"
     y="116.7"
     width="127.7"
     height="15.3"
     id="rect5"
     style="fill:none" /><text
     font-size="14"
     id="text7"
     style="font-size:14px;fill:#ffffff;font-family:OpenSansBold"
     x="9.0"
     y="127.33929">Browse My Ballot</text>
<g
     id="g9"
     transform="translate(-327.20001,-235.3)"><path
       d="m 361.8,320 h 17.6 l 2.4,-14.3 h -17 l -3,14.3 z m 5.8,-10.9 h 10.2 l -1.3,7.5 H 366 l 1.6,-7.5 z m 0,0"
       id="path11"
       inkscape:connector-curvature="0"
       style="fill:#ffffff" /><path
       d="m 384.1,291.6 -3.7,2.1 -0.3,2.1 h -9.9 l 1.5,-7 h 8.3 l 5.1,-3 0,-0.3 H 369 l -2.8,13.5 h 16.6 l 1.3,-7.4 z m 0,0"
       id="path13"
       inkscape:connector-curvature="0"
       style="fill:#ffffff" /><g
       id="g15"><path
         d="m 385.9,286.4 -8.7,5.1 -2.3,-2.2 -2.3,1.4 4,4.2 11.4,-6.7 -2.1,-1.8 z m 0,0"
         id="path17"
         inkscape:connector-curvature="0"
         style="fill:#ffffff" /><path
         d="m 445.2,257.2 -4.3,-5.1 c -1.1,-1.3 -3.1,-1.5 -4.5,-0.4 l -3.7,3.1 8.4,9.9 3.7,-3.1 c 1.3,-1.1 1.5,-3.1 0.4,-4.4 l 0,0 z m 0,0"
         id="path19"
         inkscape:connector-curvature="0"
         style="fill:#ffffff" /></g><path
       d="m 429.3,277.1 -3.7,3.1 12,49.5 h -86.1 l 12.7,-52.5 h 38.9 l 5.3,-4.3 H 360.7 L 346,334.1 h 97.1 l -13.8,-57 z m 0,0"
       id="path21"
       inkscape:connector-curvature="0"
       style="fill:#ffffff" /><path
       d="m 431.1,256.3 -33.8,28.6 8.4,9.9 19,-16 0,0 4.2,-3.5 10.6,-9 -8.4,-10 z m 0,0"
       id="path23"
       inkscape:connector-curvature="0"
       style="fill:#ffffff" /><path
       d="m 390.3,299.3 13.1,-3.2 -7.9,-9.3 -5.2,12.5 z m 0,0"
       id="path25"
       inkscape:connector-curvature="0"
       style="fill:#ffffff" /></g><polygon
     points="423.2,307.7 424.3,312 385.9,312 386.6,307.7 "
     id="polygon27"
     style="fill:#ffffff"
     transform="translate(-327.20001,-235.3)" /><polygon
     points="420.6,313.8 421.7,317.2 386.3,317.2 387,313.8 "
     id="polygon29"
     style="fill:#ffffff"
     transform="translate(-327.20001,-235.3)" /></svg>