<?xml version="1.0" encoding="utf-8"?>
<!-- Generator: Adobe Illustrator 18.0.0, SVG Export Plug-In . SVG Version: 6.00 Build 0)  -->
<!DOCTYPE svg PUBLIC "-//W3C//DTD SVG 1.1//EN" "http://www.w3.org/Graphics/SVG/1.1/DTD/svg11.dtd">
<svg version="1.1" id="Layer_1" xmlns="http://www.w3.org/2000/svg" xmlns:xlink="http://www.w3.org/1999/xlink" x="0px" y="0px"
	 viewBox="0 0 792 612" enable-background="new 0 0 792 612" xml:space="preserve">
<circle fill="#64BCBA" cx="344.4" cy="165.6" r="32"/>
<path fill="#FFFFFF" d="M365.9,159.6l-12.1,8.8l4.6,14.2c0.1,0.4,0.2,0.9,0.2,1.3c0,0.6-0.2,1.1-0.8,1.1c-0.6,0-1.2-0.4-1.7-0.7
	l-12.1-8.7l-12.1,8.7c-0.5,0.4-1.1,0.7-1.7,0.7c-0.6,0-0.8-0.5-0.8-1c0-0.5,0.1-0.9,0.3-1.4l4.6-14.2l-12.1-8.8
	c-0.5-0.4-1.3-1-1.3-1.6c0-0.9,1.5-1,2.1-1l14.9,0l4.6-14.2c0.2-0.6,0.7-1.8,1.4-1.8s1.2,1.2,1.4,1.8l4.6,14.2l14.9,0
	c0.6,0,2.1,0.1,2.1,1C367.1,158.6,366.3,159.3,365.9,159.6z"/>
</svg>
