<?xml version="1.0" encoding="UTF-8" standalone="no"?>
<!-- Generator: Adobe Illustrator 18.0.0, SVG Export Plug-In . SVG Version: 6.00 Build 0)  -->

<svg
   xmlns:dc="http://purl.org/dc/elements/1.1/"
   xmlns:cc="http://creativecommons.org/ns#"
   xmlns:rdf="http://www.w3.org/1999/02/22-rdf-syntax-ns#"
   xmlns:svg="http://www.w3.org/2000/svg"
   xmlns="http://www.w3.org/2000/svg"
   xmlns:sodipodi="http://sodipodi.sourceforge.net/DTD/sodipodi-0.dtd"
   xmlns:inkscape="http://www.inkscape.org/namespaces/inkscape"
   version="1.1"
   id="Layer_1"
   x="0px"
   y="0px"
   viewBox="0 0 64 64"
   enable-background="new 0 0 792 612"
   xml:space="preserve"
   inkscape:version="0.48.5 r10040"
   width="100%"
   height="100%"
   sodipodi:docname="navi_county.svg"><metadata
     id="metadata3105"><rdf:RDF><cc:Work
         rdf:about=""><dc:format>image/svg+xml</dc:format><dc:type
           rdf:resource="http://purl.org/dc/dcmitype/StillImage" /></cc:Work></rdf:RDF></metadata><defs
     id="defs3103" /><sodipodi:namedview
     pagecolor="#ffffff"
     bordercolor="#666666"
     borderopacity="1"
     objecttolerance="10"
     gridtolerance="10"
     guidetolerance="10"
     inkscape:pageopacity="0"
     inkscape:pageshadow="2"
     inkscape:window-width="640"
     inkscape:window-height="480"
     id="namedview3101"
     showgrid="false"
     fit-margin-top="0"
     fit-margin-left="0"
     fit-margin-right="0"
     fit-margin-bottom="0"
     inkscape:zoom="0.38562092"
     inkscape:cx="83.600006"
     inkscape:cy="-108.39999"
     inkscape:window-x="59"
     inkscape:window-y="0"
     inkscape:window-maximized="0"
     inkscape:current-layer="Layer_1" /><circle
     cx="344.39999"
     cy="165.60001"
     r="32"
     id="circle3097"
     sodipodi:cx="344.39999"
     sodipodi:cy="165.60001"
     sodipodi:rx="32"
     sodipodi:ry="32"
     style="fill:#64bcba"
     transform="translate(-312.39999,-133.60001)" /><path
     d="m 53.500006,25.999994 -12.1,8.8 4.6,14.2 c 0.1,0.4 0.2,0.9 0.2,1.3 0,0.6 -0.2,1.1 -0.8,1.1 -0.6,0 -1.2,-0.4 -1.7,-0.7 l -12.1,-8.7 -12.1,8.7 c -0.5,0.4 -1.1,0.7 -1.7,0.7 -0.6,0 -0.8,-0.5 -0.8,-1 0,-0.5 0.1,-0.9 0.3,-1.4 l 4.6,-14.2 -12.0999999,-8.8 c -0.5,-0.4 -1.3,-1 -1.3,-1.6 0,-0.9 1.4999999,-1 2.0999999,-1 l 14.9,0 4.6,-14.2000001 c 0.2,-0.6 0.7,-1.8 1.4,-1.8 0.7,0 1.2,1.2 1.4,1.8 l 4.6,14.2000001 14.9,0 c 0.6,0 2.1,0.1 2.1,1 0.2,0.6 -0.6,1.3 -1,1.6 z"
     id="path3099"
     inkscape:connector-curvature="0"
     style="fill:#ffffff" /></svg>