<?xml version="1.0" encoding="utf-8"?>
<!-- Generator: Adobe Illustrator 18.0.0, SVG Export Plug-In . SVG Version: 6.00 Build 0)  -->
<!DOCTYPE svg PUBLIC "-//W3C//DTD SVG 1.1//EN" "http://www.w3.org/Graphics/SVG/1.1/DTD/svg11.dtd">
<svg version="1.1" id="Layer_1" xmlns="http://www.w3.org/2000/svg" xmlns:xlink="http://www.w3.org/1999/xlink" x="0px" y="0px"
	 viewBox="0 0 792 612" enable-background="new 0 0 792 612" xml:space="preserve">
<circle fill="#D8D8D7" cx="395.9" cy="305.6" r="32"/>
<g>
	<g>
		<path fill="#A4A4A4" d="M378.1,289.1v30.1c14.3,4.9,27.7-4.9,42,0v-30.1C405.8,284.2,392.4,294.1,378.1,289.1L378.1,289.1z
			 M393.7,298.1c0.1-0.4,0.2-0.7,0.3-1.1c0.1,0.4,0.2,0.6,0.3,1c0.4-0.1,0.6-0.1,1.1-0.2c-0.4,0.3-0.5,0.5-0.9,0.8
			c0.1,0.4,0.2,0.6,0.3,1c-0.3-0.2-0.5-0.3-0.9-0.5c-0.4,0.3-0.5,0.5-0.9,0.8c0.1-0.4,0.2-0.7,0.3-1.1c-0.4-0.2-0.5-0.3-0.9-0.5
			C393,298.2,393.2,298.2,393.7,298.1L393.7,298.1z M390.1,295.2c0.1-0.4,0.2-0.6,0.3-1.1c0.1,0.4,0.2,0.6,0.3,1
			c0.4-0.1,0.6-0.1,1.1-0.2c-0.4,0.3-0.5,0.5-0.9,0.8c0.1,0.4,0.2,0.6,0.3,1c-0.4-0.2-0.5-0.3-0.9-0.5c-0.3,0.3-0.5,0.4-0.9,0.7
			c0.1-0.4,0.2-0.6,0.3-1.1c-0.4-0.2-0.5-0.3-0.9-0.6C389.5,295.3,389.7,295.3,390.1,295.2L390.1,295.2z M390.1,301.8
			c0.1-0.4,0.2-0.6,0.3-1.1c0.1,0.4,0.2,0.6,0.3,1c0.4-0.1,0.6-0.1,1.1-0.1c-0.4,0.3-0.5,0.5-0.9,0.8c0.1,0.4,0.2,0.6,0.3,1
			c-0.4-0.2-0.5-0.3-0.9-0.5c-0.3,0.3-0.5,0.4-0.9,0.7c0.1-0.4,0.2-0.6,0.3-1.1c-0.4-0.2-0.5-0.3-0.9-0.6
			C389.5,301.9,389.7,301.9,390.1,301.8L390.1,301.8z M387,298.8c0.1-0.4,0.2-0.6,0.3-1c0.1,0.4,0.2,0.6,0.3,1c0.4,0,0.6,0,1.1-0.1
			c-0.4,0.3-0.5,0.4-0.9,0.7c0.1,0.4,0.2,0.6,0.3,1c-0.4-0.2-0.5-0.4-0.9-0.6c-0.4,0.3-0.5,0.4-0.9,0.6c0.1-0.4,0.2-0.6,0.3-1
			c-0.4-0.3-0.5-0.4-0.9-0.7C386.4,298.8,386.6,298.8,387,298.8L387,298.8z M383.2,295.1c0.1-0.4,0.2-0.6,0.3-1
			c0.1,0.4,0.2,0.6,0.3,1.1c0.4,0.1,0.6,0.1,1.1,0.1c-0.4,0.2-0.5,0.3-0.9,0.5c0.1,0.4,0.2,0.6,0.3,1.1c-0.4-0.3-0.5-0.4-0.9-0.8
			c-0.4,0.2-0.5,0.3-0.9,0.5c0.1-0.4,0.2-0.6,0.3-1c-0.3-0.3-0.5-0.5-0.9-0.8C382.5,295,382.7,295,383.2,295.1L383.2,295.1z
			 M383.2,301.7c0.1-0.4,0.2-0.6,0.3-1c0.1,0.4,0.2,0.6,0.3,1.1c0.4,0.1,0.6,0.1,1.1,0.1c-0.4,0.2-0.5,0.3-0.9,0.5
			c0.1,0.4,0.2,0.6,0.3,1.1c-0.4-0.3-0.5-0.4-0.9-0.8c-0.4,0.2-0.5,0.3-0.9,0.5c0.1-0.4,0.2-0.6,0.3-1c-0.3-0.3-0.5-0.5-0.9-0.8
			C382.5,301.6,382.7,301.6,383.2,301.7L383.2,301.7z M417.9,316.1c-12.9-2.8-24.7,4.6-37.6,1.8v-2.4c12.9,2.8,24.7-4.6,37.6-1.8
			V316.1z M417.9,311.5c-12.9-2.8-24.7,4.6-37.6,1.8V311c12.9,2.8,24.7-4.6,37.6-1.8V311.5z M417.9,307c-12.9-2.8-24.7,4.6-37.6,1.8
			v-2.3c12.9,2.8,24.7-4.6,37.6-1.8V307z M417.9,302.5c-6.8-1.6-12.5-0.6-19.2,1v-2.5c6.7-1.5,12.4-2.5,19.2-1V302.5z M417.9,297.7
			c-6.8-1.6-12.5-0.6-19.2,1v-2.3c6.7-1.5,12.4-2.5,19.2-1V297.7z M417.9,293.2c-6.8-1.6-12.5-0.6-19.2,1v-2.8
			c6.7-1.5,12.4-2.5,19.2-1V293.2z M417.9,293.2"/>
	</g>
	<path fill="#A4A4A4" d="M375.6,284.9h-1.4c-1.3,0-2.3,1-2.3,2.3c0,0.9,0.5,1.6,1.2,2v34.2l3.6,4v-38.2c0.7-0.4,1.1-1.1,1.1-2
		C377.8,285.9,376.8,284.9,375.6,284.9L375.6,284.9z M375.6,284.9"/>
</g>
</svg>
