<?xml version="1.0" encoding="utf-8"?>
<!-- Generator: Adobe Illustrator 18.0.0, SVG Export Plug-In . SVG Version: 6.00 Build 0)  -->
<!DOCTYPE svg PUBLIC "-//W3C//DTD SVG 1.1//EN" "http://www.w3.org/Graphics/SVG/1.1/DTD/svg11.dtd">
<svg version="1.1" id="Layer_1" xmlns="http://www.w3.org/2000/svg" xmlns:xlink="http://www.w3.org/1999/xlink" x="0px" y="0px"
	 viewBox="0 0 792 612" enable-background="new 0 0 792 612" xml:space="preserve">
<circle fill="#64BCBA" cx="395.6" cy="304.7" r="35.7"/>
<path fill="#FFFFFF" d="M421.9,297.4L407.3,308l5.5,17.1c0.2,0.5,0.3,1.1,0.3,1.6c0,0.7-0.2,1.3-1,1.3c-0.7,0-1.5-0.5-2-0.9
	l-14.5-10.5L381.1,327c-0.6,0.4-1.3,0.9-2.1,0.9c-0.7,0-1-0.6-1-1.2c0-0.6,0.2-1.1,0.3-1.6L384,308l-14.5-10.6
	c-0.6-0.4-1.5-1.2-1.5-2c0-1.1,1.8-1.2,2.6-1.2l18,0.1l5.5-17.1c0.2-0.7,0.8-2.1,1.7-2.1s1.4,1.4,1.6,2.1l5.6,17.1l17.9-0.1
	c0.7,0,2.6,0.1,2.6,1.2C423.4,296.2,422.4,297,421.9,297.4z"/>
</svg>
