<?xml version="1.0" encoding="utf-8"?>
<!-- Generator: Adobe Illustrator 18.0.0, SVG Export Plug-In . SVG Version: 6.00 Build 0)  -->
<!DOCTYPE svg PUBLIC "-//W3C//DTD SVG 1.1//EN" "http://www.w3.org/Graphics/SVG/1.1/DTD/svg11.dtd">
<svg version="1.1" id="Layer_1" xmlns="http://www.w3.org/2000/svg" xmlns:xlink="http://www.w3.org/1999/xlink" x="0px" y="0px"
	 viewBox="0 0 792 612" enable-background="new 0 0 792 612" xml:space="preserve">
<circle fill="#D1D1D1" cx="395.6" cy="304.7" r="35.7"/>
<path fill="#A4A4A4" d="M404.4,287v-6.3c0-0.3,0.3-0.6,0.9-0.8c0.6-0.2,1.3-0.3,2.2-0.3c0.9,0,1.6,0.1,2.2,0.3
	c0.6,0.2,0.9,0.5,0.9,0.8v8.1v3.4l12.6,10.9h-5l-22.6-18.4L373,303h-5l27.6-23.4L404.4,287z M413.2,302.5v5.7v17.4h-11.4
	c0-0.3,0.1-0.6,0.1-1v-7.3c0-1.7-0.6-3.1-1.8-4.3c-1.2-1.2-2.7-1.8-4.4-1.8c-1.8,0-3.2,0.6-4.4,1.8c-1.2,1.2-1.8,2.6-1.8,4.3v7.3
	c0,0.3,0,0.6,0.1,1H378v-16.3v-6.7l17.6-14.7L413.2,302.5z"/>
</svg>
