<?xml version="1.0" encoding="utf-8"?>
<!-- Generator: Adobe Illustrator 18.0.0, SVG Export Plug-In . SVG Version: 6.00 Build 0)  -->
<!DOCTYPE svg PUBLIC "-//W3C//DTD SVG 1.1//EN" "http://www.w3.org/Graphics/SVG/1.1/DTD/svg11.dtd">
<svg version="1.1" id="Layer_1" xmlns="http://www.w3.org/2000/svg" xmlns:xlink="http://www.w3.org/1999/xlink" x="0px" y="0px"
	 viewBox="0 0 792 612" enable-background="new 0 0 792 612" xml:space="preserve">
<circle fill="#D8D8D7" cx="295.9" cy="126.6" r="32"/>
<path fill="#A4A4A4" d="M273.6,134.4c0.1-0.3,0.3-0.7,0.3-1c0-0.1,0-0.2,0-0.3c0-0.2,0.1-0.3,0.2-0.5c0-0.1,0-0.2,0.1-0.4
	c0-0.1,0-0.2,0.1-0.3c0-0.1,0-0.2-0.1-0.2c0-0.1,0-0.1,0.1-0.2c0.1-0.1,0.2-0.1,0.3-0.2c0.4-0.6,0.6-1.3,0.8-2
	c0.2-0.7,0.3-1.3,0.4-2c0.1-0.8,0.3-1.6,0.3-2.4c0-0.2,0.1-0.4,0.1-0.6c0-0.1,0-0.3,0-0.4c0.1-0.2,0.1-0.4,0.1-0.6
	c0-0.1,0.1-0.2,0-0.2c-0.1-0.4,0.1-1,0.1-1.4c0,0,0,0-0.1,0c0,0,0,0,0,0c0.1-0.1,0.2-0.3,0.2-0.4c0-0.1-0.1-0.1-0.1-0.2
	c0-0.1,0-0.1,0-0.2c0-0.3,0-0.5,0-0.9c0-0.1,0.1-0.2,0.1-0.3c0.1-0.2,0.1-0.4,0.1-0.6c0-0.3,0.1-0.6,0.2-0.9
	c-0.2,0.1,0.1-0.4,0.1-0.4c0.1-0.2,0.1-0.5,0.1-0.8c0-0.2,0-0.4,0.1-0.7c0-0.2,0.1-0.5-0.2-0.4c0-0.1,0.1-0.1,0.2-0.1
	c0.1-0.1,0.1-0.4,0.1-0.5c0-0.1,0-0.3,0-0.4c0-0.2,0.1-0.2,0.1-0.4c0-0.1,0.1-0.3,0-0.4c0-0.1,0.1-0.4,0.1-0.5c0-0.3,0.1-0.6,0-0.8
	c0-0.1-0.2-0.2-0.1-0.3c0.1-0.1,0.1-0.4,0.1-0.6c0-0.1,0-0.3,0-0.4c0-0.1-0.2-0.3-0.1-0.3c0.1-0.1,0.1-0.1,0.2-0.2c0,0,0.1,0,0.1,0
	c0.1-0.1,0.1-0.2,0.1-0.3c0-0.3,0-0.6-0.1-0.8c-0.1-0.2-0.1-0.7-0.4-0.8c0.1-0.2,0.2,0,0.2,0.1c0,0.1,0.3,0.1,0.3,0.2
	c0.1,0.1,0.2,0.3,0.4,0.3c0.2,0,0-0.1,0-0.2c0-0.1,0.2,0,0.3-0.1c0.1,0,0.1-0.1,0.2-0.1c0.1,0,0.1,0,0.2,0c0.1,0,0.3,0,0.3-0.1
	c0.1-0.1,0.2,0.1,0.3-0.1c0-0.2,0.2,0.1,0.2,0c0.2-0.1,0.2-0.2,0.4-0.3c0.3-0.1,0.5,0.2,0.4,0.5c0,0.4,0.5,0.5,0.8,0.4
	c0.4-0.1,0.6-0.4,1-0.2c0.3,0.1,0.5,0.3,0.7,0.5c0.1,0.1,0.3,0.1,0.4,0.2c0.1,0.1,0.1,0.3,0.2,0.4c0.2,0.2,0.4,0.6,0.3,0.9
	c0,0.2,0.2,0.3,0.1,0.5c-0.1,0.2-0.1,0.3,0,0.5c0.1,0.1,0.1,0.3,0.1,0.4c0,0.3-0.2,0.6,0.2,0.7c0.1,0.1,0.3,0.2,0.4,0.2
	c0.1,0.1,0.3,0,0.4,0.1c0.1,0,0.3,0.1,0.5,0.2c0.1,0,0.2,0.2,0.3,0.2c0.1,0,0.2-0.1,0.3-0.1c0.2,0,0.2,0.2,0.3,0.2
	c0.4,0.1,0.6-0.2,0.9-0.3c0.1,0,0.2,0,0.4-0.1c0.2-0.1,0.3-0.1,0.5-0.2c0,0,0.1-0.1,0.1-0.1c0.1-0.1,0.1,0,0.2-0.1
	c0.2-0.1,0.1-0.2,0.3-0.3c0.3-0.2,0.6,0,0.9,0c0.1,0,0.3-0.1,0.4-0.1c0.2,0,0.4-0.1,0.5-0.2c0.1,0,0.2,0,0.3,0.1
	c0.2,0.1,0.2,0.2,0.4,0.2c0.1,0,0.3-0.1,0.4-0.1c0.2,0.1,0.3,0.2,0.5,0.2c0.2,0.1,0.3,0.2,0.3,0.4c0,0.2,0.3,0.2,0.3,0.1
	c0.1,0,0.2-0.1,0.2-0.2c0.1-0.1,0.3-0.1,0.5-0.1c0.1,0,0.1,0,0.1,0c0.1,0,0.1-0.1,0.2,0c0.1,0,0.1,0.1,0.2,0.1
	c0.1,0,0.2-0.1,0.2-0.2c0.2-0.2,0.7-0.2,1-0.4c0.3-0.3,0.6-0.3,0.9,0c0.2,0.3,0.7,0.1,1,0c0.1,0,0.3-0.1,0.4-0.1
	c0.3,0,0.3,0,0.5-0.3c0.1-0.1,0.4-0.1,0.5-0.2c0.2,0,0.3-0.2,0.5-0.2c0.2-0.1,0.3-0.1,0.5-0.1c0.2-0.1,0.4-0.1,0.5-0.2
	c0.2,0,0.3,0,0.5,0c0.3-0.1,0.3-0.2,0.4-0.4c0.1-0.2,0.2-0.2,0.4-0.1c0.2,0.1,0.3,0.1,0.5,0c0.1-0.1,0.3-0.1,0.5-0.1
	c0.1,0,0.3-0.1,0.4-0.1c0.2,0,0.3,0,0.5,0.1c0.2,0,0.4,0,0.5-0.1c0.1-0.1,0.3-0.2,0.4-0.2c0.2-0.2,0.2-0.2,0.4-0.2c0.3,0,0.7,0,1,0
	c0.6,0,1.3,0,1.9,0c1.4,0,2.8-0.1,4.2-0.1c0.7,0,1.4,0,2.1-0.1c0.3,0,0.7,0,1,0c0.3,0,0.8-0.1,1,0.1c0.1,0.1,0.1,0.3,0.1,0.4
	c0.1,0.1,0.2,0.2,0.3,0.3c0.1,0.1,0.2,0.5,0.4,0.5c0,0,0.1-0.1,0.1-0.1c0.2,0,0.2,0.1,0.3,0.2c0,0.2,0.2,0.1,0.3,0.1
	c0.2,0,0.3,0.1,0.4,0.2c0.1,0,0.2,0.1,0.2,0.2c0,0.2,0,0.3,0.1,0.4c0.1,0.2,0.3,0.3,0.4,0.5c0,0.1-0.1,0.2-0.2,0.3
	c-0.1,0.1-0.1,0.3-0.2,0.4c-0.1,0.1,0,0.3-0.1,0.4c0,0.1,0,0-0.1,0.1c0,0.1-0.1,0.1-0.1,0.1c0,0.3-0.4,0.6-0.4,0.9
	c0,0.1,0,0.2,0,0.4c0,0.1-0.1,0.2-0.1,0.3c-0.1,0.3,0,0.6-0.2,0.9c0,0.1-0.1,0.1-0.2,0.2c0,0.1,0,0.1,0,0.2c0,0.1-0.2,0.3-0.3,0.4
	c-0.1,0.1,0,0.2-0.1,0.3c-0.1,0.1,0,0.2,0,0.4c0.1,0.2-0.1,0.5-0.2,0.7c-0.1,0.1-0.1,0.2-0.2,0.4c0,0.1,0,0.2-0.1,0.2
	c0,0.1-0.2,0.1-0.3,0.2c-0.1,0.1-0.1,0.1-0.2,0.1c-0.1,0.1-0.2,0.2-0.2,0.3c0,0.1-0.1,0.2-0.1,0.3c0,0.1-0.1,0.2-0.1,0.4
	c0,0.1,0,0.3-0.1,0.3c0,0.1-0.1,0.1-0.1,0.2c0,0.1,0.1,0.3-0.1,0.3c-0.1,0-0.1,0.1-0.1,0.2c0,0.1-0.2,0.1-0.2,0.2
	c0,0.1,0.1,0.2,0.1,0.3c0,0.1,0,0.1,0,0.2c0,0-0.1,0.2-0.1,0.2c-0.1,0.3,0.4,0.3,0.2,0.7c-0.1,0.1-0.1,0.1,0,0.2
	c0.1,0.1,0.2,0.2,0.4,0.2c0.1,0,0-0.2,0.1-0.2c0.1,0,0.1,0.1,0.2,0.2c0.1,0.1,0.2,0.2,0.2,0.2c0,0,0-0.1,0.1-0.1c0,0,0.1,0,0.1,0
	c0.1,0,0.2,0,0.3,0.1c0.1,0.2-0.1,0.3,0.1,0.3c0.1,0,0.2,0,0.3,0.1c0.1,0.1,0,0.2-0.1,0.4c0,0.1-0.1,0.2-0.1,0.3
	c-0.1,0.1-0.2,0-0.2,0.2c0,0.1,0,0.2,0.1,0.2c0.1,0.1,0.1,0.1,0.1,0.3c0,0.1,0,0.3-0.1,0.3c-0.1,0.1,0,0.1,0,0.2
	c0,0.1,0,0.2-0.1,0.3c0,0.1,0,0.2,0,0.3c0,0-0.1,0-0.2,0.1c0,0-0.1,0.2-0.1,0.3c0.1,0.5,0.1,1.1,0.1,1.6c0,0.7,0.1,1.3,0.1,2
	c0,1.5,0.1,3.1,0.2,4.6c0.1,1.5,0.2,3.1,0.2,4.6c0,0.4,0,0.8,0,1.2c0,0.1-0.8,0.1-0.9,0.1c-0.8,0.1-1.5,0.1-2.3,0.1
	c-3.1,0.1-6.1,0.2-9.2,0.3c-1.5,0-3,0-4.5,0c-1.5,0-3,0-4.5,0c-2.8,0-5.7-0.1-8.5-0.2c-2.8-0.1-5.7-0.1-8.5-0.2
	c-0.7,0-1.4-0.1-2.1-0.1c-0.3,0-0.6,0-0.9,0c-0.2,0-0.4,0-0.5-0.1c-0.1-0.1-0.2-0.2-0.3-0.3c-0.2-0.1-0.4-0.4-0.4-0.6
	c0-0.2,0-0.4-0.1-0.6c0-0.1,0-0.2-0.1-0.3c-0.1-0.2,0-0.2-0.1-0.4c0-0.2-0.1-0.3-0.1-0.5c0-0.2,0-0.3,0-0.5c0-0.3,0-0.5,0.1-0.8
	c0.1-0.3,0.1-0.5,0.1-0.8c0-0.1,0-0.3-0.1-0.3c-0.1-0.1-0.2-0.1-0.2-0.2c0-0.2-0.2-0.5-0.4-0.4c0-0.1,0-0.3,0-0.4
	c0-0.1-0.2-0.3-0.1-0.5C273.3,135,273.4,134.7,273.6,134.4z"/>
</svg>
