<?xml version="1.0" encoding="UTF-8" standalone="no"?>
<!-- Generator: Adobe Illustrator 18.0.0, SVG Export Plug-In . SVG Version: 6.00 Build 0)  -->

<svg
   xmlns:dc="http://purl.org/dc/elements/1.1/"
   xmlns:cc="http://creativecommons.org/ns#"
   xmlns:rdf="http://www.w3.org/1999/02/22-rdf-syntax-ns#"
   xmlns:svg="http://www.w3.org/2000/svg"
   xmlns="http://www.w3.org/2000/svg"
   xmlns:sodipodi="http://sodipodi.sourceforge.net/DTD/sodipodi-0.dtd"
   xmlns:inkscape="http://www.inkscape.org/namespaces/inkscape"
   version="1.1"
   id="Layer_1"
   x="0px"
   y="0px"
   viewBox="0 0 71.400002 71.400002"
   enable-background="new 0 0 792 612"
   xml:space="preserve"
   inkscape:version="0.48.5 r10040"
   width="100%"
   height="100%"
   sodipodi:docname="navi_zipcodes.svg"><metadata
     id="metadata3166"><rdf:RDF><cc:Work
         rdf:about=""><dc:format>image/svg+xml</dc:format><dc:type
           rdf:resource="http://purl.org/dc/dcmitype/StillImage" /></cc:Work></rdf:RDF></metadata><defs
     id="defs3164" /><sodipodi:namedview
     pagecolor="#ffffff"
     bordercolor="#666666"
     borderopacity="1"
     objecttolerance="10"
     gridtolerance="10"
     guidetolerance="10"
     inkscape:pageopacity="0"
     inkscape:pageshadow="2"
     inkscape:window-width="640"
     inkscape:window-height="480"
     id="namedview3162"
     showgrid="false"
     fit-margin-top="0"
     fit-margin-left="0"
     fit-margin-right="0"
     fit-margin-bottom="0"
     inkscape:zoom="0.38562092"
     inkscape:cx="36.200001"
     inkscape:cy="34.400013"
     inkscape:window-x="59"
     inkscape:window-y="0"
     inkscape:window-maximized="0"
     inkscape:current-layer="Layer_1" /><circle
     cx="395.5"
     cy="304.70001"
     r="35.700001"
     id="circle3158"
     sodipodi:cx="395.5"
     sodipodi:cy="304.70001"
     sodipodi:rx="35.700001"
     sodipodi:ry="35.700001"
     style="fill:#d1d1d1"
     transform="translate(-359.8,-269.00001)" /><path
     d="m 43.700001,43.299989 c -6.6,9.5 -7.6,17.4 -7.6,17.4 -0.1,0.7 -0.7,0.7 -0.9,0 0,0 -1.2,-8 -7.7,-17.4 -5.4,-7.5 -7.8,-10.4 -7.8,-16.5 0,-8.7 7,-15.7 15.8,-15.7 8.7,0 15.9,7 15.9,15.7 0.1,6.1 -4.6,12 -7.7,16.5 z m -1.9,-16.2 c 0,-3.4 -2.6,-6 -6.1,-6 -3.2,0 -5.9,2.6 -5.9,6 0,3.4 2.7,6.2 5.9,6.2 3.5,0 6.1,-2.8 6.1,-6.2 z"
     id="path3160"
     inkscape:connector-curvature="0"
     style="fill:#a4a4a4" /></svg>