<?xml version="1.0" encoding="UTF-8" standalone="no"?>
<!-- Generator: Adobe Illustrator 18.0.0, SVG Export Plug-In . SVG Version: 6.00 Build 0)  -->

<svg
   xmlns:dc="http://purl.org/dc/elements/1.1/"
   xmlns:cc="http://creativecommons.org/ns#"
   xmlns:rdf="http://www.w3.org/1999/02/22-rdf-syntax-ns#"
   xmlns:svg="http://www.w3.org/2000/svg"
   xmlns="http://www.w3.org/2000/svg"
   xmlns:sodipodi="http://sodipodi.sourceforge.net/DTD/sodipodi-0.dtd"
   xmlns:inkscape="http://www.inkscape.org/namespaces/inkscape"
   version="1.1"
   id="Layer_1"
   x="0px"
   y="0px"
   viewBox="0 0 64 64"
   enable-background="new 0 0 792 612"
   xml:space="preserve"
   inkscape:version="0.48.5 r10040"
   width="100%"
   height="100%"
   sodipodi:docname="navi_state.svg"><metadata
     id="metadata3155"><rdf:RDF><cc:Work
         rdf:about=""><dc:format>image/svg+xml</dc:format><dc:type
           rdf:resource="http://purl.org/dc/dcmitype/StillImage" /></cc:Work></rdf:RDF></metadata><defs
     id="defs3153" /><sodipodi:namedview
     pagecolor="#ffffff"
     bordercolor="#666666"
     borderopacity="1"
     objecttolerance="10"
     gridtolerance="10"
     guidetolerance="10"
     inkscape:pageopacity="0"
     inkscape:pageshadow="2"
     inkscape:window-width="640"
     inkscape:window-height="480"
     id="namedview3151"
     showgrid="false"
     fit-margin-top="0"
     fit-margin-left="0"
     fit-margin-right="0"
     fit-margin-bottom="0"
     inkscape:zoom="0.38562092"
     inkscape:cx="132.10001"
     inkscape:cy="-147.4"
     inkscape:window-x="59"
     inkscape:window-y="0"
     inkscape:window-maximized="0"
     inkscape:current-layer="Layer_1" /><circle
     cx="295.89999"
     cy="126.6"
     r="32"
     id="circle3147"
     sodipodi:cx="295.89999"
     sodipodi:cy="126.6"
     sodipodi:rx="32"
     sodipodi:ry="32"
     style="fill:#64bcba"
     transform="translate(-263.89999,-94.599998)" /><path
     d="m 9.7000061,39.800002 c 0.1,-0.3 0.2999999,-0.7 0.2999999,-1 0,-0.1 0,-0.2 0,-0.3 0,-0.2 0.1,-0.3 0.2,-0.5 0,-0.1 0,-0.2 0.1,-0.4 0,-0.1 0,-0.2 0.1,-0.3 0,-0.1 0,-0.2 -0.1,-0.2 0,-0.1 0,-0.1 0.1,-0.2 0.1,-0.1 0.2,-0.1 0.3,-0.2 0.4,-0.6 0.6,-1.3 0.8,-2 0.2,-0.7 0.3,-1.3 0.4,-2 0.1,-0.8 0.3,-1.6 0.3,-2.4 0,-0.2 0.1,-0.4 0.1,-0.6 0,-0.1 0,-0.3 0,-0.4 0.1,-0.2 0.1,-0.4 0.1,-0.6 0,-0.1 0.1,-0.2 0,-0.2 -0.1,-0.4 0.1,-1 0.1,-1.4 0,0 0,0 -0.1,0 0,0 0,0 0,0 0.1,-0.1 0.2,-0.3 0.2,-0.4 0,-0.1 -0.1,-0.1 -0.1,-0.2 0,-0.1 0,-0.1 0,-0.2 0,-0.3 0,-0.5 0,-0.9 0,-0.1 0.1,-0.2 0.1,-0.3 0.1,-0.2 0.1,-0.4 0.1,-0.6 0,-0.3 0.1,-0.6 0.2,-0.9 -0.2,0.1 0.1,-0.4 0.1,-0.4 0.1,-0.2 0.1,-0.5 0.1,-0.8 0,-0.2 0,-0.4 0.1,-0.7 0,-0.2 0.1,-0.5 -0.2,-0.4 0,-0.1 0.1,-0.1 0.2,-0.1 0.1,-0.1 0.1,-0.4 0.1,-0.5 0,-0.1 0,-0.3 0,-0.4 0,-0.2 0.1,-0.2 0.1,-0.4 0,-0.1 0.1,-0.3 0,-0.4 0,-0.1 0.1,-0.4 0.1,-0.5 0,-0.3 0.1,-0.6 0,-0.8 0,-0.1 -0.2,-0.2 -0.1,-0.3 0.1,-0.1 0.1,-0.4 0.1,-0.6 0,-0.1 0,-0.3 0,-0.4 0,-0.1 -0.2,-0.3 -0.1,-0.3 0.1,-0.1 0.1,-0.1 0.2,-0.2 0,0 0.1,0 0.1,0 0.1,-0.1 0.1,-0.2 0.1,-0.3 0,-0.3 0,-0.6 -0.1,-0.8 -0.1,-0.2 -0.1,-0.7 -0.4,-0.8 0.1,-0.2 0.2,0 0.2,0.1 0,0.1 0.3,0.1 0.3,0.2 0.1,0.1 0.2,0.3 0.4,0.3 0.2,0 0,-0.1 0,-0.2 0,-0.1 0.2,0 0.3,-0.1 0.1,0 0.1,-0.1 0.2,-0.1 0.1,0 0.1,0 0.2,0 0.1,0 0.3,0 0.3,-0.1 0.1,-0.1 0.2,0.1 0.3,-0.1 0,-0.2 0.2,0.1 0.2,0 0.2,-0.1 0.2,-0.2 0.4,-0.3 0.3,-0.1 0.5,0.2 0.4,0.5 0,0.4 0.5,0.5 0.8,0.4 0.4,-0.1 0.6,-0.4 1,-0.2 0.3,0.1 0.5,0.3 0.7,0.5 0.1,0.1 0.3,0.1 0.4,0.2 0.1,0.1 0.1,0.3 0.2,0.4 0.2,0.2 0.4,0.6 0.3,0.9 0,0.2 0.2,0.3 0.1,0.5 -0.1,0.2 -0.1,0.3 0,0.5 0.1,0.1 0.1,0.3 0.1,0.4 0,0.3 -0.2,0.6 0.2,0.7 0.1,0.1 0.3,0.2 0.4,0.2 0.1,0.1 0.3,0 0.4,0.1 0.1,0 0.3,0.1 0.5,0.2 0.1,0 0.2,0.2 0.3,0.2 0.1,0 0.2,-0.1 0.3,-0.1 0.2,0 0.2,0.2 0.3,0.2 0.4,0.1 0.6,-0.2 0.9,-0.3 0.1,0 0.2,0 0.4,-0.1 0.2,-0.1 0.3,-0.1 0.5,-0.2 0,0 0.1,-0.1 0.1,-0.1 0.1,-0.1 0.1,0 0.2,-0.1 0.2,-0.1 0.1,-0.2 0.3,-0.3 0.3,-0.2 0.6,0 0.9,0 0.1,0 0.3,-0.1 0.4,-0.1 0.2,0 0.4,-0.1 0.5,-0.2 0.1,0 0.2,0 0.3,0.1 0.2,0.1 0.2,0.2 0.4,0.2 0.1,0 0.3,-0.1 0.4,-0.1 0.2,0.1 0.3,0.2 0.5,0.2 0.2,0.1 0.3,0.2 0.3,0.4 0,0.2 0.3,0.2 0.3,0.1 0.1,0 0.2,-0.1 0.2,-0.2 0.1,-0.1 0.3,-0.1 0.5,-0.1 0.1,0 0.1,0 0.1,0 0.1,0 0.1,-0.1 0.2,0 0.1,0 0.1,0.1 0.2,0.1 0.1,0 0.2,-0.1 0.2,-0.2 0.2,-0.2 0.7,-0.2 1,-0.4 0.3,-0.3 0.6,-0.3 0.9,0 0.2,0.3 0.7,0.1 1,0 0.1,0 0.3,-0.1 0.4,-0.1 0.3,0 0.3,0 0.5,-0.3 0.1,-0.1 0.4,-0.1 0.5,-0.2 0.2,0 0.3,-0.2 0.5,-0.2 0.2,-0.1 0.3,-0.1 0.5,-0.1 0.2,-0.1 0.4,-0.1 0.5,-0.2 0.2,0 0.3,0 0.5,0 0.3,-0.1 0.3,-0.2 0.4,-0.4 0.1,-0.2 0.2,-0.2 0.4,-0.1 0.2,0.1 0.3,0.1 0.5,0 0.1,-0.1 0.3,-0.1 0.5,-0.1 0.1,0 0.3,-0.1 0.4,-0.1 0.2,0 0.3,0 0.5,0.1 0.2,0 0.4,0 0.5,-0.1 0.1,-0.1 0.3,-0.2 0.4,-0.2 0.2,-0.2 0.2,-0.2 0.4,-0.2 0.3,0 0.7,0 1,0 0.6,0 1.3,0 1.9,0 1.4,0 2.8,-0.1 4.2,-0.1 0.7,0 1.4,0 2.1,-0.1 0.3,0 0.7,0 1,0 0.3,0 0.8,-0.1 1,0.1 0.1,0.1 0.1,0.3 0.1,0.4 0.1,0.1 0.2,0.2 0.3,0.3 0.1,0.1 0.2,0.5 0.4,0.5 0,0 0.1,-0.1 0.1,-0.1 0.2,0 0.2,0.1 0.3,0.2 0,0.2 0.2,0.1 0.3,0.1 0.2,0 0.3,0.1 0.4,0.2 0.1,0 0.2,0.1 0.2,0.2 0,0.2 0,0.3 0.1,0.4 0.1,0.2 0.3,0.3 0.4,0.5 0,0.1 -0.1,0.2 -0.2,0.3 -0.1,0.1 -0.1,0.3 -0.2,0.4 -0.1,0.1 0,0.3 -0.1,0.4 0,0.1 0,0 -0.1,0.1 0,0.1 -0.1,0.1 -0.1,0.1 0,0.3 -0.4,0.6 -0.4,0.9 0,0.1 0,0.2 0,0.4 0,0.1 -0.1,0.2 -0.1,0.3 -0.1,0.3 0,0.6 -0.2,0.9 0,0.1 -0.1,0.1 -0.2,0.2 0,0.1 0,0.1 0,0.2 0,0.1 -0.2,0.3 -0.3,0.4 -0.1,0.1 0,0.2 -0.1,0.3 -0.1,0.1 0,0.2 0,0.4 0.1,0.2 -0.1,0.5 -0.2,0.7 -0.1,0.1 -0.1,0.2 -0.2,0.4 0,0.1 0,0.2 -0.1,0.2 0,0.1 -0.2,0.1 -0.3,0.2 -0.1,0.1 -0.1,0.1 -0.2,0.1 -0.1,0.1 -0.2,0.2 -0.2,0.3 0,0.1 -0.1,0.2 -0.1,0.3 0,0.1 -0.1,0.2 -0.1,0.4 0,0.1 0,0.3 -0.1,0.3 0,0.1 -0.1,0.1 -0.1,0.2 0,0.1 0.1,0.3 -0.1,0.3 -0.1,0 -0.1,0.1 -0.1,0.2 0,0.1 -0.2,0.1 -0.2,0.2 0,0.1 0.1,0.2 0.1,0.3 0,0.1 0,0.1 0,0.2 0,0 -0.1,0.2 -0.1,0.2 -0.1,0.3 0.4,0.3 0.2,0.7 -0.1,0.1 -0.1,0.1 0,0.2 0.1,0.1 0.2,0.2 0.4,0.2 0.1,0 0,-0.2 0.1,-0.2 0.1,0 0.1,0.1 0.2,0.2 0.1,0.1 0.2,0.2 0.2,0.2 0,0 0,-0.1 0.1,-0.1 0,0 0.1,0 0.1,0 0.1,0 0.2,0 0.3,0.1 0.1,0.2 -0.1,0.3 0.1,0.3 0.1,0 0.2,0 0.3,0.1 0.1,0.1 0,0.2 -0.1,0.4 0,0.1 -0.1,0.2 -0.1,0.3 -0.1,0.1 -0.2,0 -0.2,0.2 0,0.1 0,0.2 0.1,0.2 0.1,0.1 0.1,0.1 0.1,0.3 0,0.1 0,0.3 -0.1,0.3 -0.1,0.1 0,0.1 0,0.2 0,0.1 0,0.2 -0.1,0.3 0,0.1 0,0.2 0,0.3 0,0 -0.1,0 -0.2,0.1 0,0 -0.1,0.2 -0.1,0.3 0.1,0.5 0.1,1.1 0.1,1.6 0,0.7 0.1,1.3 0.1,2 0,1.5 0.1,3.1 0.2,4.6 0.1,1.5 0.2,3.1 0.2,4.6 0,0.4 0,0.8 0,1.2 0,0.1 -0.8,0.1 -0.9,0.1 -0.8,0.1 -1.5,0.1 -2.3,0.1 -3.1,0.1 -6.1,0.2 -9.2,0.3 -1.5,0 -3,0 -4.5,0 -1.5,0 -3,0 -4.5,0 -2.8,0 -5.7,-0.1 -8.5,-0.2 -2.8,-0.1 -5.7,-0.1 -8.5,-0.2 -0.7,0 -1.4,-0.1 -2.1,-0.1 -0.3,0 -0.6,0 -0.9,0 -0.2,0 -0.4,0 -0.5,-0.1 -0.1,-0.1 -0.2,-0.2 -0.3,-0.3 -0.1999999,-0.1 -0.3999999,-0.4 -0.3999999,-0.6 0,-0.2 0,-0.4 -0.1,-0.6 0,-0.1 0,-0.2 -0.1,-0.3 -0.1,-0.2 0,-0.2 -0.1,-0.4 0,-0.2 -0.1,-0.3 -0.1,-0.5 0,-0.2 0,-0.3 0,-0.5 0,-0.3 0,-0.5 0.1,-0.8 0.1,-0.3 0.1,-0.5 0.1,-0.8 0,-0.1 0,-0.3 -0.1,-0.3 -0.1,-0.1 -0.2,-0.1 -0.2,-0.2 0,-0.2 -0.2,-0.5 -0.4,-0.4 0,-0.1 0,-0.3 0,-0.4 0,-0.1 -0.2,-0.3 -0.1,-0.5 0.7,-0.2 0.8,-0.5 1,-0.8 z"
     id="path3149"
     inkscape:connector-curvature="0"
     style="fill:#ffffff" /></svg>