<?xml version="1.0" encoding="utf-8"?>
<!-- Generator: Adobe Illustrator 18.0.0, SVG Export Plug-In . SVG Version: 6.00 Build 0)  -->
<!DOCTYPE svg PUBLIC "-//W3C//DTD SVG 1.1//EN" "http://www.w3.org/Graphics/SVG/1.1/DTD/svg11.dtd">
<svg version="1.1" id="Layer_1" xmlns="http://www.w3.org/2000/svg" xmlns:xlink="http://www.w3.org/1999/xlink" x="0px" y="0px"
	 viewBox="0 0 792 612" enable-background="new 0 0 792 612" xml:space="preserve">
<circle fill="#D1D1D1" cx="395.5" cy="304.7" r="35.7"/>
<path fill="#A4A4A4" d="M403.5,312.3c-6.6,9.5-7.6,17.4-7.6,17.4c-0.1,0.7-0.7,0.7-0.9,0c0,0-1.2-8-7.7-17.4
	c-5.4-7.5-7.8-10.4-7.8-16.5c0-8.7,7-15.7,15.8-15.7c8.7,0,15.9,7,15.9,15.7C411.3,301.9,406.6,307.8,403.5,312.3z M401.6,296.1
	c0-3.4-2.6-6-6.1-6c-3.2,0-5.9,2.6-5.9,6s2.7,6.2,5.9,6.2C399,302.3,401.6,299.5,401.6,296.1z"/>
</svg>
