<?xml version="1.0" encoding="UTF-8" standalone="no"?>
<!-- Generator: Adobe Illustrator 18.0.0, SVG Export Plug-In . SVG Version: 6.00 Build 0)  -->

<svg
   xmlns:dc="http://purl.org/dc/elements/1.1/"
   xmlns:cc="http://creativecommons.org/ns#"
   xmlns:rdf="http://www.w3.org/1999/02/22-rdf-syntax-ns#"
   xmlns:svg="http://www.w3.org/2000/svg"
   xmlns="http://www.w3.org/2000/svg"
   xmlns:sodipodi="http://sodipodi.sourceforge.net/DTD/sodipodi-0.dtd"
   xmlns:inkscape="http://www.inkscape.org/namespaces/inkscape"
   version="1.1"
   id="Layer_1"
   x="0px"
   y="0px"
   viewBox="0 0 33.399999 33.399999"
   enable-background="new 0 0 792 612"
   xml:space="preserve"
   inkscape:version="0.48.5 r10040"
   width="100%"
   height="100%"
   sodipodi:docname="party_rep_elphant.svg"><metadata
     id="metadata3041"><rdf:RDF><cc:Work
         rdf:about=""><dc:format>image/svg+xml</dc:format><dc:type
           rdf:resource="http://purl.org/dc/dcmitype/StillImage" /></cc:Work></rdf:RDF></metadata><defs
     id="defs3039" /><sodipodi:namedview
     pagecolor="#ffffff"
     bordercolor="#666666"
     borderopacity="1"
     objecttolerance="10"
     gridtolerance="10"
     guidetolerance="10"
     inkscape:pageopacity="0"
     inkscape:pageshadow="2"
     inkscape:window-width="640"
     inkscape:window-height="480"
     id="namedview3037"
     showgrid="false"
     fit-margin-top="4.25"
     fit-margin-left="0"
     fit-margin-right="0"
     fit-margin-bottom="4.25"
     inkscape:zoom="0.38562092"
     inkscape:cx="16.599999"
     inkscape:cy="16.049999"
     inkscape:window-x="59"
     inkscape:window-y="0"
     inkscape:window-maximized="0"
     inkscape:current-layer="Layer_1" /><g
     id="g3031"
     transform="translate(-379.4,-288.65)"><path
       d="m 396.2,292.9 h -6.3 c -5,0 -9.2,3.4 -10.3,8.1 h 27 c -1.2,-4.7 -5.4,-8.1 -10.4,-8.1 l 0,0 z m -7.5,4.2 -1,0.7 0.4,1.2 c 0,0.1 0,0.3 -0.1,0.4 -0.1,0 -0.1,0.1 -0.2,0.1 -0.1,0 -0.1,0 -0.2,-0.1 l -1,-0.7 -1,0.7 c -0.1,0.1 -0.3,0.1 -0.4,0 -0.1,-0.1 -0.2,-0.3 -0.1,-0.4 l 0.4,-1.2 -1,-0.7 c -0.1,-0.1 -0.2,-0.3 -0.1,-0.4 0,-0.1 0.2,-0.2 0.3,-0.2 h 1.3 l 0.4,-1.2 c 0,-0.1 0.2,-0.2 0.3,-0.2 0.2,0 0.3,0.1 0.3,0.2 l 0.4,1.2 h 1.3 c 0.2,0 0.3,0.1 0.3,0.2 -0.1,0.2 -0.2,0.4 -0.3,0.4 l 0,0 z m 6.6,0 -1,0.7 0.4,1.2 c 0,0.1 0,0.3 -0.1,0.4 -0.1,0 -0.1,0.1 -0.2,0.1 -0.1,0 -0.1,0 -0.2,-0.1 l -1,-0.7 -1,0.7 c -0.1,0.1 -0.3,0.1 -0.4,0 -0.1,-0.1 -0.2,-0.3 -0.1,-0.4 l 0.4,-1.2 -1,-0.7 c -0.1,-0.1 -0.2,-0.3 -0.1,-0.4 0,-0.1 0.2,-0.2 0.3,-0.2 h 1.3 l 0.4,-1.2 c 0,-0.1 0.2,-0.2 0.3,-0.2 0.2,0 0.3,0.1 0.3,0.2 l 0.4,1.2 h 1.3 c 0.2,0 0.3,0.1 0.3,0.2 -0.1,0.2 -0.2,0.4 -0.3,0.4 l 0,0 z m 6.3,0 -1,0.7 0.4,1.2 c 0,0.1 0,0.3 -0.1,0.4 -0.1,0 -0.1,0.1 -0.2,0.1 -0.1,0 -0.1,0 -0.2,-0.1 l -1,-0.7 -1,0.7 c -0.1,0.1 -0.3,0.1 -0.4,0 -0.1,-0.1 -0.2,-0.3 -0.1,-0.4 l 0.4,-1.2 -1,-0.7 c -0.1,-0.1 -0.2,-0.3 -0.1,-0.4 0,-0.1 0.2,-0.2 0.3,-0.2 h 1.3 l 0.4,-1.2 c 0,-0.1 0.2,-0.2 0.3,-0.2 0.2,0 0.3,0.1 0.3,0.2 l 0.4,1.2 h 1.3 c 0.2,0 0.3,0.1 0.3,0.2 -0.1,0.2 -0.1,0.4 -0.3,0.4 l 0,0 z m 0,0"
       id="path3033"
       inkscape:connector-curvature="0"
       style="fill:#a4a4a4" /><path
       d="m 409.3,307.7 v 5.5 c 0,0.7 -0.6,1.2 -1.2,1.2 -0.7,0 -1.1,-0.6 -1.1,-1.2 v -5.5 h 0 l 0,-4.2 c 0,-0.2 0,-0.5 0,-0.7 h -27.6 c 0,0.2 0,0.5 0,0.7 v 14.1 h 5.8 V 310 H 396 v 7.6 h 5.4 v -7.8 c 0,-0.6 0.5,-1.1 1.1,-1.1 0.5,0 1.1,0.4 1.1,1.1 v 3.3 c 0,2.6 2,4.7 4.5,4.7 2.6,0 4.7,-2.1 4.7,-4.7 v -5.5 h -3.5 z m 0,0"
       id="path3035"
       inkscape:connector-curvature="0"
       style="fill:#a4a4a4" /></g></svg>