<?xml version="1.0" encoding="utf-8"?>
<!-- Generator: Adobe Illustrator 18.0.0, SVG Export Plug-In . SVG Version: 6.00 Build 0)  -->
<!DOCTYPE svg PUBLIC "-//W3C//DTD SVG 1.1//EN" "http://www.w3.org/Graphics/SVG/1.1/DTD/svg11.dtd">
<svg version="1.1" id="Layer_1" xmlns="http://www.w3.org/2000/svg" xmlns:xlink="http://www.w3.org/1999/xlink" x="0px" y="0px"
	 viewBox="0 0 792 612" enable-background="new 0 0 792 612" xml:space="preserve">
<g>
	<path fill="#A4A4A4" d="M396.2,292.9h-6.3c-5,0-9.2,3.4-10.3,8.1h27C405.4,296.3,401.2,292.9,396.2,292.9L396.2,292.9z
		 M388.7,297.1l-1,0.7l0.4,1.2c0,0.1,0,0.3-0.1,0.4c-0.1,0-0.1,0.1-0.2,0.1c-0.1,0-0.1,0-0.2-0.1l-1-0.7l-1,0.7
		c-0.1,0.1-0.3,0.1-0.4,0c-0.1-0.1-0.2-0.3-0.1-0.4l0.4-1.2l-1-0.7c-0.1-0.1-0.2-0.3-0.1-0.4c0-0.1,0.2-0.2,0.3-0.2h1.3l0.4-1.2
		c0-0.1,0.2-0.2,0.3-0.2c0.2,0,0.3,0.1,0.3,0.2l0.4,1.2h1.3c0.2,0,0.3,0.1,0.3,0.2C388.9,296.9,388.8,297.1,388.7,297.1L388.7,297.1
		z M395.3,297.1l-1,0.7l0.4,1.2c0,0.1,0,0.3-0.1,0.4c-0.1,0-0.1,0.1-0.2,0.1c-0.1,0-0.1,0-0.2-0.1l-1-0.7l-1,0.7
		c-0.1,0.1-0.3,0.1-0.4,0c-0.1-0.1-0.2-0.3-0.1-0.4l0.4-1.2l-1-0.7c-0.1-0.1-0.2-0.3-0.1-0.4c0-0.1,0.2-0.2,0.3-0.2h1.3l0.4-1.2
		c0-0.1,0.2-0.2,0.3-0.2c0.2,0,0.3,0.1,0.3,0.2l0.4,1.2h1.3c0.2,0,0.3,0.1,0.3,0.2C395.5,296.9,395.4,297.1,395.3,297.1L395.3,297.1
		z M401.6,297.1l-1,0.7l0.4,1.2c0,0.1,0,0.3-0.1,0.4c-0.1,0-0.1,0.1-0.2,0.1c-0.1,0-0.1,0-0.2-0.1l-1-0.7l-1,0.7
		c-0.1,0.1-0.3,0.1-0.4,0c-0.1-0.1-0.2-0.3-0.1-0.4l0.4-1.2l-1-0.7c-0.1-0.1-0.2-0.3-0.1-0.4c0-0.1,0.2-0.2,0.3-0.2h1.3l0.4-1.2
		c0-0.1,0.2-0.2,0.3-0.2c0.2,0,0.3,0.1,0.3,0.2l0.4,1.2h1.3c0.2,0,0.3,0.1,0.3,0.2C401.8,296.9,401.8,297.1,401.6,297.1L401.6,297.1
		z M401.6,297.1"/>
	<path fill="#A4A4A4" d="M409.3,307.7v5.5c0,0.7-0.6,1.2-1.2,1.2c-0.7,0-1.1-0.6-1.1-1.2v-5.5h0l0-4.2c0-0.2,0-0.5,0-0.7h-27.6
		c0,0.2,0,0.5,0,0.7v14.1h5.8v-7.6h10.8v7.6h5.4v-7.8c0-0.6,0.5-1.1,1.1-1.1c0.5,0,1.1,0.4,1.1,1.1v3.3c0,2.6,2,4.7,4.5,4.7
		c2.6,0,4.7-2.1,4.7-4.7v-5.5H409.3z M409.3,307.7"/>
</g>
</svg>
