<?xml version="1.0" encoding="utf-8"?>
<!-- Generator: Adobe Illustrator 18.0.0, SVG Export Plug-In . SVG Version: 6.00 Build 0)  -->
<!DOCTYPE svg PUBLIC "-//W3C//DTD SVG 1.1//EN" "http://www.w3.org/Graphics/SVG/1.1/DTD/svg11.dtd">
<svg version="1.1" id="Layer_1" xmlns="http://www.w3.org/2000/svg" xmlns:xlink="http://www.w3.org/1999/xlink" x="0px" y="0px"
	 viewBox="0 0 792 612" enable-background="new 0 0 792 612" xml:space="preserve">
<g>
	<g>
		<path fill="#A4A4A4" d="M379.9,321.4h5.8v-5.5h10.9v5.5h5.6v-8.7h-22.2V321.4z M379.9,321.4"/>
		<path fill="#A4A4A4" d="M413.9,299.7c-0.9-1.1-1.8-2.3-2.7-3.4c-0.3-0.4-0.6-0.7-0.9-1.1c0.1-0.1,0.2-0.2,0.2-0.3
			c0.4-0.6,0.9-1.2,1.2-1.8c0.1-0.2,0.7-1.4,0.1-2.1c-0.2-0.2-0.4-0.3-0.7-0.3c-0.4,0-0.9,0.3-1.2,0.4l-0.1,0
			c-0.6,0.4-1.2,0.7-1.9,1.2c0,0-0.1,0-0.1,0.1c-0.2-0.4-0.3-0.8-0.5-1.1c-0.2-0.6-0.5-1.1-0.7-1.8c-0.2-0.5-0.6-0.8-1.1-0.8
			c-0.3,0-0.5,0.1-0.7,0.3c-0.3,0.4-0.5,1-0.5,1.8c0,1-0.1,1.6-0.2,2.6c-0.1,0.3-0.2,0.6-0.4,0.8l-4.3,4.4c-0.4,0.4-0.8,0.6-1.4,0.6
			l0,0l-15.1,0l-0.1,0c-1.2,0-2,0.5-2.7,1.5l-4.1,6.5l2.6,1.9l1.1-1.7v3.2h22.6c0-0.1,0.1-0.1,0.1-0.2c0.9-2,1.8-4,2.7-6l0.6-1.2
			c0.1-0.1,0.1-0.2,0.2-0.3c0.4,0.2,0.8,0.3,1.2,0.5c1.5,0.6,2.9,1.2,4.3,1.9c0.3,0.2,0.6,0.2,0.9,0.2c0.6,0,1.1-0.3,1.5-0.9
			C415.2,303.1,415.2,301.3,413.9,299.7L413.9,299.7z M386.9,304.9l-1.1,0.8l0.4,1.4c0.1,0.2,0,0.3-0.1,0.5
			c-0.1,0.1-0.2,0.1-0.2,0.1c-0.1,0-0.2,0-0.2-0.1l-1.1-0.8l-1.2,0.8c-0.1,0.1-0.3,0.1-0.5,0c-0.1-0.1-0.2-0.3-0.1-0.5l0.4-1.4
			l-1.2-0.8c-0.1-0.1-0.2-0.3-0.1-0.5c0.1-0.2,0.2-0.3,0.4-0.3h1.4l0.4-1.4c0.1-0.2,0.2-0.3,0.4-0.3c0.2,0,0.3,0.1,0.4,0.3l0.4,1.4
			h1.4c0.2,0,0.3,0.1,0.4,0.3C387.1,304.6,387,304.8,386.9,304.9L386.9,304.9z M394.3,304.9l-1.2,0.8l0.4,1.4c0.1,0.2,0,0.3-0.1,0.5
			c-0.1,0.1-0.2,0.1-0.2,0.1c-0.1,0-0.2,0-0.2-0.1l-1.1-0.8l-1.2,0.8c-0.1,0.1-0.3,0.1-0.5,0c-0.1-0.1-0.2-0.3-0.1-0.5l0.4-1.4
			l-1.1-0.8c-0.1-0.1-0.2-0.3-0.1-0.5c0.1-0.2,0.2-0.3,0.4-0.3h1.4l0.4-1.4c0.1-0.2,0.2-0.3,0.4-0.3c0.2,0,0.3,0.1,0.4,0.3l0.4,1.4
			h1.4c0.2,0,0.3,0.1,0.4,0.3C394.5,304.6,394.4,304.8,394.3,304.9L394.3,304.9z M401.4,304.9l-1.1,0.8l0.4,1.4
			c0.1,0.2,0,0.3-0.1,0.5c-0.1,0.1-0.2,0.1-0.2,0.1c-0.1,0-0.2,0-0.2-0.1l-1.1-0.8l-1.2,0.8c-0.1,0.1-0.3,0.1-0.5,0
			c-0.1-0.1-0.2-0.3-0.1-0.5l0.4-1.4l-1.1-0.8c-0.1-0.1-0.2-0.3-0.1-0.5c0.1-0.2,0.2-0.3,0.4-0.3h1.4l0.4-1.4
			c0.1-0.2,0.2-0.3,0.4-0.3c0.2,0,0.3,0.1,0.4,0.3l0.4,1.4h1.4c0.2,0,0.3,0.1,0.4,0.3C401.6,304.6,401.6,304.8,401.4,304.9
			L401.4,304.9z M401.4,304.9"/>
	</g>
</g>
</svg>
