<?xml version="1.0" encoding="UTF-8" standalone="no"?>
<!-- Generator: Adobe Illustrator 18.0.0, SVG Export Plug-In . SVG Version: 6.00 Build 0)  -->

<svg
   xmlns:dc="http://purl.org/dc/elements/1.1/"
   xmlns:cc="http://creativecommons.org/ns#"
   xmlns:rdf="http://www.w3.org/1999/02/22-rdf-syntax-ns#"
   xmlns:svg="http://www.w3.org/2000/svg"
   xmlns="http://www.w3.org/2000/svg"
   xmlns:sodipodi="http://sodipodi.sourceforge.net/DTD/sodipodi-0.dtd"
   xmlns:inkscape="http://www.inkscape.org/namespaces/inkscape"
   version="1.1"
   id="Layer_1"
   x="0px"
   y="0px"
   viewBox="0 0 38.862847 38.859999"
   enable-background="new 0 0 792 612"
   xml:space="preserve"
   inkscape:version="0.48.5 r10040"
   width="100%"
   height="100%"
   sodipodi:docname="party2_dem_donkey.svg"><metadata
     id="metadata3103"><rdf:RDF><cc:Work
         rdf:about=""><dc:format>image/svg+xml</dc:format><dc:type
           rdf:resource="http://purl.org/dc/dcmitype/StillImage" /></cc:Work></rdf:RDF></metadata><defs
     id="defs3101" /><sodipodi:namedview
     pagecolor="#ffffff"
     bordercolor="#666666"
     borderopacity="1"
     objecttolerance="10"
     gridtolerance="10"
     guidetolerance="10"
     inkscape:pageopacity="0"
     inkscape:pageshadow="2"
     inkscape:window-width="640"
     inkscape:window-height="480"
     id="namedview3099"
     showgrid="false"
     fit-margin-top="3.08"
     fit-margin-left="0"
     fit-margin-right="0"
     fit-margin-bottom="3.08"
     inkscape:zoom="0.38562092"
     inkscape:cx="20"
     inkscape:cy="18.480005"
     inkscape:window-x="59"
     inkscape:window-y="0"
     inkscape:window-maximized="0"
     inkscape:current-layer="Layer_1" /><g
     id="g3091"
     transform="translate(-376,-285.62)"><g
       id="g3093"><path
         d="m 379.9,321.4 h 5.8 v -5.5 h 10.9 v 5.5 h 5.6 v -8.7 H 380 v 8.7 z m 0,0"
         id="path3095"
         inkscape:connector-curvature="0"
         style="fill:#a4a4a4" /><path
         d="m 413.9,299.7 c -0.9,-1.1 -1.8,-2.3 -2.7,-3.4 -0.3,-0.4 -0.6,-0.7 -0.9,-1.1 0.1,-0.1 0.2,-0.2 0.2,-0.3 0.4,-0.6 0.9,-1.2 1.2,-1.8 0.1,-0.2 0.7,-1.4 0.1,-2.1 -0.2,-0.2 -0.4,-0.3 -0.7,-0.3 -0.4,0 -0.9,0.3 -1.2,0.4 l -0.1,0 c -0.6,0.4 -1.2,0.7 -1.9,1.2 0,0 -0.1,0 -0.1,0.1 -0.2,-0.4 -0.3,-0.8 -0.5,-1.1 -0.2,-0.6 -0.5,-1.1 -0.7,-1.8 -0.2,-0.5 -0.6,-0.8 -1.1,-0.8 -0.3,0 -0.5,0.1 -0.7,0.3 -0.3,0.4 -0.5,1 -0.5,1.8 0,1 -0.1,1.6 -0.2,2.6 -0.1,0.3 -0.2,0.6 -0.4,0.8 l -4.3,4.4 c -0.4,0.4 -0.8,0.6 -1.4,0.6 l 0,0 -15.1,0 -0.1,0 c -1.2,0 -2,0.5 -2.7,1.5 l -4.1,6.5 2.6,1.9 1.1,-1.7 v 3.2 h 22.6 c 0,-0.1 0.1,-0.1 0.1,-0.2 0.9,-2 1.8,-4 2.7,-6 l 0.6,-1.2 c 0.1,-0.1 0.1,-0.2 0.2,-0.3 0.4,0.2 0.8,0.3 1.2,0.5 1.5,0.6 2.9,1.2 4.3,1.9 0.3,0.2 0.6,0.2 0.9,0.2 0.6,0 1.1,-0.3 1.5,-0.9 1.4,-1.5 1.4,-3.3 0.1,-4.9 l 0,0 z m -27,5.2 -1.1,0.8 0.4,1.4 c 0.1,0.2 0,0.3 -0.1,0.5 -0.1,0.1 -0.2,0.1 -0.2,0.1 -0.1,0 -0.2,0 -0.2,-0.1 l -1.1,-0.8 -1.2,0.8 c -0.1,0.1 -0.3,0.1 -0.5,0 -0.1,-0.1 -0.2,-0.3 -0.1,-0.5 l 0.4,-1.4 -1.2,-0.8 c -0.1,-0.1 -0.2,-0.3 -0.1,-0.5 0.1,-0.2 0.2,-0.3 0.4,-0.3 h 1.4 l 0.4,-1.4 c 0.1,-0.2 0.2,-0.3 0.4,-0.3 0.2,0 0.3,0.1 0.4,0.3 l 0.4,1.4 h 1.4 c 0.2,0 0.3,0.1 0.4,0.3 0,0.2 -0.1,0.4 -0.2,0.5 l 0,0 z m 7.4,0 -1.2,0.8 0.4,1.4 c 0.1,0.2 0,0.3 -0.1,0.5 -0.1,0.1 -0.2,0.1 -0.2,0.1 -0.1,0 -0.2,0 -0.2,-0.1 l -1.1,-0.8 -1.2,0.8 c -0.1,0.1 -0.3,0.1 -0.5,0 -0.1,-0.1 -0.2,-0.3 -0.1,-0.5 l 0.4,-1.4 -1.1,-0.8 c -0.1,-0.1 -0.2,-0.3 -0.1,-0.5 0.1,-0.2 0.2,-0.3 0.4,-0.3 h 1.4 l 0.4,-1.4 c 0.1,-0.2 0.2,-0.3 0.4,-0.3 0.2,0 0.3,0.1 0.4,0.3 l 0.4,1.4 h 1.4 c 0.2,0 0.3,0.1 0.4,0.3 0,0.2 -0.1,0.4 -0.2,0.5 l 0,0 z m 7.1,0 -1.1,0.8 0.4,1.4 c 0.1,0.2 0,0.3 -0.1,0.5 -0.1,0.1 -0.2,0.1 -0.2,0.1 -0.1,0 -0.2,0 -0.2,-0.1 l -1.1,-0.8 -1.2,0.8 c -0.1,0.1 -0.3,0.1 -0.5,0 -0.1,-0.1 -0.2,-0.3 -0.1,-0.5 l 0.4,-1.4 -1.1,-0.8 c -0.1,-0.1 -0.2,-0.3 -0.1,-0.5 0.1,-0.2 0.2,-0.3 0.4,-0.3 h 1.4 l 0.4,-1.4 c 0.1,-0.2 0.2,-0.3 0.4,-0.3 0.2,0 0.3,0.1 0.4,0.3 l 0.4,1.4 h 1.4 c 0.2,0 0.3,0.1 0.4,0.3 -0.1,0.2 -0.1,0.4 -0.3,0.5 l 0,0 z m 0,0"
         id="path3097"
         inkscape:connector-curvature="0"
         style="fill:#a4a4a4" /></g></g></svg>