<?xml version="1.0" encoding="UTF-8" standalone="no"?>
<!-- Generator: Adobe Illustrator 18.0.0, SVG Export Plug-In . SVG Version: 6.00 Build 0)  -->

<svg
   xmlns:dc="http://purl.org/dc/elements/1.1/"
   xmlns:cc="http://creativecommons.org/ns#"
   xmlns:rdf="http://www.w3.org/1999/02/22-rdf-syntax-ns#"
   xmlns:svg="http://www.w3.org/2000/svg"
   xmlns="http://www.w3.org/2000/svg"
   xmlns:sodipodi="http://sodipodi.sourceforge.net/DTD/sodipodi-0.dtd"
   xmlns:inkscape="http://www.inkscape.org/namespaces/inkscape"
   version="1.1"
   id="Layer_1"
   x="0px"
   y="0px"
   viewBox="0 0 53 53"
   enable-background="new 0 0 792 612"
   xml:space="preserve"
   inkscape:version="0.48.5 r10040"
   width="100%"
   height="100%"
   sodipodi:docname="search_campgains.svg"><metadata
     id="metadata3145"><rdf:RDF><cc:Work
         rdf:about=""><dc:format>image/svg+xml</dc:format><dc:type
           rdf:resource="http://purl.org/dc/dcmitype/StillImage" /></cc:Work></rdf:RDF></metadata><defs
     id="defs3143" /><sodipodi:namedview
     pagecolor="#ffffff"
     bordercolor="#666666"
     borderopacity="1"
     objecttolerance="10"
     gridtolerance="10"
     guidetolerance="10"
     inkscape:pageopacity="0"
     inkscape:pageshadow="2"
     inkscape:window-width="640"
     inkscape:window-height="480"
     id="namedview3141"
     showgrid="false"
     fit-margin-top="0"
     fit-margin-left="0"
     fit-margin-right="0"
     fit-margin-bottom="0"
     inkscape:zoom="0.38562092"
     inkscape:cx="25.600006"
     inkscape:cy="26.200012"
     inkscape:window-x="59"
     inkscape:window-y="0"
     inkscape:window-maximized="0"
     inkscape:current-layer="Layer_1" /><circle
     cx="396.89999"
     cy="305.70001"
     r="26.5"
     id="circle3135"
     sodipodi:cx="396.89999"
     sodipodi:cy="305.70001"
     sodipodi:rx="26.5"
     sodipodi:ry="26.5"
     style="fill:#a4a4a4"
     transform="translate(-370.39999,-279.20001)" /><path
     d="m 26.500006,5.3999878 c -2.7,0 -5.1,1 -7,2.9 -1.9,1.9000002 -2.9,4.3000002 -2.9,7.1000002 0,2.8 1,5.1 2.9,7.1 1.9,1.9 4.3,2.9 7,2.9 2.7,0 5.1,-1 7.1,-2.9 2,-1.9 2.9,-4.3 2.9,-7.1 0,-2.8 -1,-5.1 -2.9,-7.1000002 -2,-1.9 -4.3,-2.9 -7.1,-2.9 z"
     id="path3137"
     inkscape:connector-curvature="0"
     style="fill:#ffffff" /><path
     d="m 45.600006,36.199988 c 0,-0.7 -0.1,-1.5 -0.3,-2.1 -0.2,-0.7 -0.5,-1.3 -0.8,-1.8 -0.3,-0.5 -0.8,-1 -1.5,-1.6 -0.7,-0.6 -1.3,-1 -1.8,-1.4 -0.5,-0.4 -1.3,-0.8 -2.2,-1.3 -1,-0.5 -1.7,-0.9 -2.3,-1.1 -0.6,-0.3 -1.4,-0.6 -2.5,-1.1 -2.2,1.8 -4.7,2.7 -7.5,2.7 -2.9,0 -5.5,-1 -7.7,-2.9 -1.3,0.5 -2.4,1 -3.3,1.4 -0.8,0.4 -1.8,0.9 -2.9,1.5 -1.1,0.6 -1.9,1.3 -2.6,2 -0.5999999,0.7 -1.1999999,1.5 -1.6999999,2.5 -0.5,1 -0.8,2.1 -0.9,3.3 v 3.9 c 4.3999999,5.7 11.2999999,9.4 19.0999999,9.4 7.7,0 14.6,-3.6 19,-9.2 v -4.2 z"
     id="path3139"
     inkscape:connector-curvature="0"
     style="fill:#ffffff" /></svg>