<?xml version="1.0" encoding="utf-8"?>
<!-- Generator: Adobe Illustrator 18.0.0, SVG Export Plug-In . SVG Version: 6.00 Build 0)  -->
<!DOCTYPE svg PUBLIC "-//W3C//DTD SVG 1.1//EN" "http://www.w3.org/Graphics/SVG/1.1/DTD/svg11.dtd">
<svg version="1.1" id="Layer_1" xmlns="http://www.w3.org/2000/svg" xmlns:xlink="http://www.w3.org/1999/xlink" x="0px" y="0px"
	 viewBox="0 0 792 612" enable-background="new 0 0 792 612" xml:space="preserve">
<circle fill="#A4A4A4" cx="396.9" cy="305.8" r="26.5"/>
<path fill="#FFFFFF" d="M415.1,301.5l-10.2,7.4l3.9,12c0.1,0.4,0.2,0.7,0.2,1.1c0,0.5-0.1,0.9-0.7,0.9c-0.5,0-1-0.3-1.4-0.6
	l-10.2-7.4l-10.2,7.4c-0.4,0.3-0.9,0.6-1.4,0.6c-0.5,0-0.7-0.4-0.7-0.9c0-0.4,0.1-0.8,0.2-1.1l3.9-12l-10.2-7.4
	c-0.4-0.3-1.1-0.9-1.1-1.4c0-0.8,1.3-0.9,1.8-0.9l12.6,0l3.8-12c0.1-0.5,0.6-1.5,1.2-1.5c0.6,0,1,1,1.1,1.5l3.9,12l12.5,0
	c0.5,0,1.8,0.1,1.8,0.8C416.2,300.7,415.5,301.2,415.1,301.5z"/>
</svg>
