<?xml version="1.0" encoding="utf-8"?>
<!-- Generator: Adobe Illustrator 18.0.0, SVG Export Plug-In . SVG Version: 6.00 Build 0)  -->
<!DOCTYPE svg PUBLIC "-//W3C//DTD SVG 1.1//EN" "http://www.w3.org/Graphics/SVG/1.1/DTD/svg11.dtd">
<svg version="1.1" id="Layer_1" xmlns="http://www.w3.org/2000/svg" xmlns:xlink="http://www.w3.org/1999/xlink" x="0px" y="0px"
	 viewBox="0 0 792 612" enable-background="new 0 0 792 612" xml:space="preserve">
<circle fill="#A4A4A4" cx="396.9" cy="305.7" r="26.5"/>
<path fill="#FFFFFF" d="M396.9,284.6c-2.7,0-5.1,1-7,2.9c-1.9,1.9-2.9,4.3-2.9,7.1s1,5.1,2.9,7.1c1.9,1.9,4.3,2.9,7,2.9
	c2.7,0,5.1-1,7.1-2.9c2-1.9,2.9-4.3,2.9-7.1s-1-5.1-2.9-7.1C402,285.6,399.7,284.6,396.9,284.6z"/>
<path fill="#FFFFFF" d="M416,315.4c0-0.7-0.1-1.5-0.3-2.1c-0.2-0.7-0.5-1.3-0.8-1.8c-0.3-0.5-0.8-1-1.5-1.6c-0.7-0.6-1.3-1-1.8-1.4
	c-0.5-0.4-1.3-0.8-2.2-1.3c-1-0.5-1.7-0.9-2.3-1.1c-0.6-0.3-1.4-0.6-2.5-1.1c-2.2,1.8-4.7,2.7-7.5,2.7c-2.9,0-5.5-1-7.7-2.9
	c-1.3,0.5-2.4,1-3.3,1.4c-0.8,0.4-1.8,0.9-2.9,1.5c-1.1,0.6-1.9,1.3-2.6,2c-0.6,0.7-1.2,1.5-1.7,2.5c-0.5,1-0.8,2.1-0.9,3.3v3.9
	c4.4,5.7,11.3,9.4,19.1,9.4c7.7,0,14.6-3.6,19-9.2V315.4z"/>
</svg>
