<?xml version="1.0" encoding="UTF-8" standalone="no"?>
<!-- Generator: Adobe Illustrator 18.0.0, SVG Export Plug-In . SVG Version: 6.00 Build 0)  -->

<svg
   xmlns:dc="http://purl.org/dc/elements/1.1/"
   xmlns:cc="http://creativecommons.org/ns#"
   xmlns:rdf="http://www.w3.org/1999/02/22-rdf-syntax-ns#"
   xmlns:svg="http://www.w3.org/2000/svg"
   xmlns="http://www.w3.org/2000/svg"
   xmlns:sodipodi="http://sodipodi.sourceforge.net/DTD/sodipodi-0.dtd"
   xmlns:inkscape="http://www.inkscape.org/namespaces/inkscape"
   version="1.1"
   id="Layer_1"
   x="0px"
   y="0px"
   viewBox="0 0 53 53"
   enable-background="new 0 0 792 612"
   xml:space="preserve"
   inkscape:version="0.48.5 r10040"
   width="100%"
   height="100%"
   sodipodi:docname="search_campgains4.svg"><metadata
     id="metadata3253"><rdf:RDF><cc:Work
         rdf:about=""><dc:format>image/svg+xml</dc:format><dc:type
           rdf:resource="http://purl.org/dc/dcmitype/StillImage" /></cc:Work></rdf:RDF></metadata><defs
     id="defs3251" /><sodipodi:namedview
     pagecolor="#ffffff"
     bordercolor="#666666"
     borderopacity="1"
     objecttolerance="10"
     gridtolerance="10"
     guidetolerance="10"
     inkscape:pageopacity="0"
     inkscape:pageshadow="2"
     inkscape:window-width="640"
     inkscape:window-height="480"
     id="namedview3249"
     showgrid="false"
     fit-margin-top="0"
     fit-margin-left="0"
     fit-margin-right="0"
     fit-margin-bottom="0"
     inkscape:zoom="0.38562092"
     inkscape:cx="25.600006"
     inkscape:cy="26.299988"
     inkscape:window-x="59"
     inkscape:window-y="0"
     inkscape:window-maximized="0"
     inkscape:current-layer="Layer_1" /><circle
     cx="396.89999"
     cy="305.79999"
     r="26.5"
     id="circle3245"
     sodipodi:cx="396.89999"
     sodipodi:cy="305.79999"
     sodipodi:rx="26.5"
     sodipodi:ry="26.5"
     style="fill:#a4a4a4"
     transform="translate(-370.39999,-279.29999)" /><path
     d="m 44.700006,22.200012 -10.2,7.4 3.9,12 c 0.1,0.4 0.2,0.7 0.2,1.1 0,0.5 -0.1,0.9 -0.7,0.9 -0.5,0 -1,-0.3 -1.4,-0.6 l -10.2,-7.4 -10.2,7.4 c -0.4,0.3 -0.9,0.6 -1.4,0.6 -0.5,0 -0.7,-0.4 -0.7,-0.9 0,-0.4 0.1,-0.8 0.2,-1.1 l 3.9,-12 -10.1999999,-7.4 c -0.4,-0.3 -1.1,-0.9 -1.1,-1.4 0,-0.8 1.3,-0.9 1.8,-0.9 l 12.5999999,0 3.8,-11.9999998 c 0.1,-0.5 0.6,-1.5 1.2,-1.5 0.6,0 1,1 1.1,1.5 l 3.9,11.9999998 12.5,0 c 0.5,0 1.8,0.1 1.8,0.8 0.3,0.7 -0.4,1.2 -0.8,1.5 z"
     id="path3247"
     inkscape:connector-curvature="0"
     style="fill:#ffffff" /></svg>