<?xml version="1.0" encoding="utf-8"?>
<!-- Generator: Adobe Illustrator 18.0.0, SVG Export Plug-In . SVG Version: 6.00 Build 0)  -->
<!DOCTYPE svg PUBLIC "-//W3C//DTD SVG 1.1//EN" "http://www.w3.org/Graphics/SVG/1.1/DTD/svg11.dtd">
<svg version="1.1" id="Layer_1" xmlns="http://www.w3.org/2000/svg" xmlns:xlink="http://www.w3.org/1999/xlink" x="0px" y="0px"
	 viewBox="0 0 792 612" enable-background="new 0 0 792 612" xml:space="preserve">
<path fill="#A4A4A4" d="M400.2,312.5c-2.3,0-4.5-0.8-6.3-2.3l-1.8,4.4l-4.5,4.5c-0.5,0.3-1,0.5-1.6,0.5c-1.4,0-2.6-1.3-2.6-2.7
	c0-0.6,0.2-1.1,0.5-1.6l4.5-4.5l4.4-1.8c-1.5-1.8-2.3-4.1-2.3-6.4c0-5.3,4.4-9.6,9.7-9.6c5.2,0,9.7,4.4,9.7,9.7c0,2.5-0.9,5-2.8,6.9
	C405.1,311.6,402.6,312.5,400.2,312.5z M400.2,308.8c3.2,0,5.9-2.7,5.9-6c0-3.2-2.7-5.9-5.9-5.9c-3.3,0-6,2.7-6,5.9
	c0,1.6,0.6,3.1,1.7,4.3C397.1,308.2,398.6,308.8,400.2,308.8z"/>
<path fill="#A4A4A4" d="M399.2,311.5c-2.3,0-4.5-0.8-6.3-2.3l-1.8,4.4l-4.5,4.5c-0.5,0.3-1,0.5-1.6,0.5c-1.4,0-2.6-1.3-2.6-2.7
	c0-0.6,0.2-1.1,0.5-1.6l4.5-4.5l4.4-1.8c-1.5-1.8-2.3-4.1-2.3-6.4c0-5.3,4.4-9.6,9.7-9.6c5.2,0,9.7,4.4,9.7,9.7c0,2.5-0.9,5-2.8,6.9
	C404.1,310.6,401.6,311.5,399.2,311.5z M399.2,307.8c3.2,0,5.9-2.7,5.9-6c0-3.2-2.7-5.9-5.9-5.9c-3.3,0-6,2.7-6,5.9
	c0,1.6,0.6,3.1,1.7,4.3C396.1,307.2,397.6,307.8,399.2,307.8z"/>
</svg>
