<?xml version="1.0" encoding="utf-8"?>
<!-- Generator: Adobe Illustrator 18.0.0, SVG Export Plug-In . SVG Version: 6.00 Build 0)  -->
<!DOCTYPE svg PUBLIC "-//W3C//DTD SVG 1.1//EN" "http://www.w3.org/Graphics/SVG/1.1/DTD/svg11.dtd">
<svg version="1.1" id="Layer_1" xmlns="http://www.w3.org/2000/svg" xmlns:xlink="http://www.w3.org/1999/xlink" x="0px" y="0px"
	 viewBox="0 0 792 612" enable-background="new 0 0 792 612" xml:space="preserve">
<path fill="#48A04B" d="M404.3,308c0,4.8-3.9,8.7-8.6,8.7c-4.8,0-8.7-3.9-8.7-8.7c0-3.6,2.2-6.6,5.2-7.9l-2.2-4.7
	c0-0.5,0.3-0.7,0.7-0.7h9.7c0.4,0,0.7,0.2,0.7,0.7L399,300C402.1,301.3,404.3,304.4,404.3,308z M398.9,305.8l0.2,0.1l1.2-2.4
	l-0.2-0.1c-0.2,0.1-0.3,0.2-0.4,0.2c-0.1,0-0.2,0-0.3-0.1c-1.6-0.6-2.4-0.9-3.3-0.9v-0.5c0-0.2,0.1-0.4,0.5-0.5v-0.2h-2.1v0.2
	c0.4,0.1,0.4,0.3,0.4,0.5v0.4c-2.6,0.1-4,1.3-4,3.2c0,2,1.1,2.6,4,2.9v2.6c-2.1-0.2-3.1-1-3.1-1.7l-0.2-0.1l-1.1,2.5l0.2,0.1
	c0.2-0.1,0.2-0.1,0.3-0.1c0,0,0.2,0,0.2,0.1c1.3,0.6,2.5,1,3.6,1.1v0.5c0,0.3-0.1,0.4-0.4,0.5v0.2h2.1V314c-0.4-0.1-0.5-0.2-0.5-0.5
	V313c2.6-0.1,4.2-1.4,4.2-3.3c0-1.9-1.4-2.8-3.9-3h-0.3v-2.3c0.6,0,1.2,0.2,1.9,0.5C398.7,305.2,398.9,305.4,398.9,305.8z
	 M395,304.2v2.3c-1.3-0.1-2-0.2-2-1c0-0.2,0.1-0.4,0.3-0.6C393.6,304.4,394.2,304.3,395,304.2z M396.1,308.8
	c1.6,0.1,2.1,0.2,2.1,0.9c0,0.8-0.6,1.3-2.1,1.5V308.8z"/>
</svg>
