<?xml version="1.0" encoding="UTF-8" standalone="no"?>
<!-- Generator: Adobe Illustrator 18.0.0, SVG Export Plug-In . SVG Version: 6.00 Build 0)  -->

<svg
   xmlns:dc="http://purl.org/dc/elements/1.1/"
   xmlns:cc="http://creativecommons.org/ns#"
   xmlns:rdf="http://www.w3.org/1999/02/22-rdf-syntax-ns#"
   xmlns:svg="http://www.w3.org/2000/svg"
   xmlns="http://www.w3.org/2000/svg"
   xmlns:sodipodi="http://sodipodi.sourceforge.net/DTD/sodipodi-0.dtd"
   xmlns:inkscape="http://www.inkscape.org/namespaces/inkscape"
   version="1.1"
   id="Layer_1"
   x="0px"
   y="0px"
   viewBox="0 0 23.299998 23.300001"
   enable-background="new 0 0 792 612"
   xml:space="preserve"
   inkscape:version="0.48.5 r10040"
   width="100%"
   height="100%"
   sodipodi:docname="total_money_raised.svg"><metadata
     id="metadata3293"><rdf:RDF><cc:Work
         rdf:about=""><dc:format>image/svg+xml</dc:format><dc:type
           rdf:resource="http://purl.org/dc/dcmitype/StillImage" /></cc:Work></rdf:RDF></metadata><defs
     id="defs3291" /><sodipodi:namedview
     pagecolor="#ffffff"
     bordercolor="#666666"
     borderopacity="1"
     objecttolerance="10"
     gridtolerance="10"
     guidetolerance="10"
     inkscape:pageopacity="0"
     inkscape:pageshadow="2"
     inkscape:window-width="640"
     inkscape:window-height="480"
     id="namedview3289"
     showgrid="false"
     fit-margin-top="0.65"
     fit-margin-left="3"
     fit-margin-right="3"
     fit-margin-bottom="0.65"
     inkscape:zoom="0.38562092"
     inkscape:cx="12"
     inkscape:cy="11.350001"
     inkscape:window-x="59"
     inkscape:window-y="0"
     inkscape:window-maximized="0"
     inkscape:current-layer="Layer_1" /><path
     d="m 20.299999,13.950001 c 0,4.8 -3.9,8.7 -8.6,8.7 -4.7999989,0 -8.6999989,-3.9 -8.6999989,-8.7 0,-3.600001 2.2,-6.6000015 5.2,-7.9000015 l -2.2,-4.7 c 0,-0.49999993 0.3,-0.69999993 0.7,-0.69999993 h 9.6999989 c 0.4,0 0.7,0.2 0.7,0.69999993 l -2.1,4.6 c 3.1,1.3 5.3,4.4000005 5.3,8.0000015 z m -5.4,-2.2 0.2,0.1 1.2,-2.4000015 -0.2,-0.1 c -0.2,0.1 -0.3,0.2 -0.4,0.2 -0.1,0 -0.2,0 -0.3,-0.1 -1.6,-0.6 -2.4,-0.9 -3.3,-0.9 v -0.5 c 0,-0.2 0.1,-0.4 0.5,-0.5 v -0.2 h -2.1 v 0.2 c 0.4,0.1 0.4,0.3 0.4,0.5 v 0.4 c -2.5999989,0.1 -3.9999989,1.3 -3.9999989,3.2000015 0,2 1.1,2.6 3.9999989,2.9 v 2.6 c -2.0999989,-0.2 -3.0999989,-1 -3.0999989,-1.7 l -0.2,-0.1 -1.1,2.5 0.2,0.1 c 0.2,-0.1 0.2,-0.1 0.3,-0.1 0,0 0.2,0 0.2,0.1 1.3,0.6 2.5,1 3.5999989,1.1 v 0.5 c 0,0.3 -0.1,0.4 -0.4,0.5 v 0.2 h 2.1 v -0.3 c -0.4,-0.1 -0.5,-0.2 -0.5,-0.5 v -0.5 c 2.6,-0.1 4.2,-1.4 4.2,-3.3 0,-1.9 -1.4,-2.8 -3.9,-3 h -0.3 V 10.35 c 0.6,0 1.2,0.2 1.9,0.500001 0.8,0.3 1,0.5 1,0.9 z m -3.9,-1.600001 v 2.300001 c -1.2999989,-0.1 -1.9999989,-0.2 -1.9999989,-1 0,-0.2 0.1,-0.4 0.3,-0.6 C 9.6000001,10.35 10.199999,10.25 10.999999,10.15 z m 1.1,4.600001 c 1.6,0.1 2.1,0.2 2.1,0.9 0,0.8 -0.6,1.3 -2.1,1.5 v -2.4 z"
     id="path3287"
     inkscape:connector-curvature="0"
     style="fill:#48a04b" /></svg>