<?xml version="1.0" encoding="UTF-8" standalone="no"?>
<!-- Generator: Adobe Illustrator 18.0.0, SVG Export Plug-In . SVG Version: 6.00 Build 0)  -->

<svg
   xmlns:dc="http://purl.org/dc/elements/1.1/"
   xmlns:cc="http://creativecommons.org/ns#"
   xmlns:rdf="http://www.w3.org/1999/02/22-rdf-syntax-ns#"
   xmlns:svg="http://www.w3.org/2000/svg"
   xmlns="http://www.w3.org/2000/svg"
   xmlns:sodipodi="http://sodipodi.sourceforge.net/DTD/sodipodi-0.dtd"
   xmlns:inkscape="http://www.inkscape.org/namespaces/inkscape"
   version="1.1"
   id="Layer_1"
   x="0px"
   y="0px"
   viewBox="0 0 55.200001 55.200001"
   enable-background="new 0 0 612 792"
   xml:space="preserve"
   inkscape:version="0.48.5 r10040"
   width="100%"
   height="100%"
   sodipodi:docname="whos_giving_union_funding.svg"><metadata
     id="metadata3119"><rdf:RDF><cc:Work
         rdf:about=""><dc:format>image/svg+xml</dc:format><dc:type
           rdf:resource="http://purl.org/dc/dcmitype/StillImage" /></cc:Work></rdf:RDF></metadata><defs
     id="defs3117" /><sodipodi:namedview
     pagecolor="#ffffff"
     bordercolor="#666666"
     borderopacity="1"
     objecttolerance="10"
     gridtolerance="10"
     guidetolerance="10"
     inkscape:pageopacity="0"
     inkscape:pageshadow="2"
     inkscape:window-width="640"
     inkscape:window-height="480"
     id="namedview3115"
     showgrid="false"
     fit-margin-top="0"
     fit-margin-left="0"
     fit-margin-right="0"
     fit-margin-bottom="0"
     inkscape:zoom="0.2979798"
     inkscape:cx="27.899988"
     inkscape:cy="26.6"
     inkscape:window-x="59"
     inkscape:window-y="0"
     inkscape:window-maximized="0"
     inkscape:current-layer="Layer_1" /><circle
     cx="305.70001"
     cy="395"
     r="27.6"
     id="circle3111"
     sodipodi:cx="305.70001"
     sodipodi:cy="395"
     sodipodi:rx="27.6"
     sodipodi:ry="27.6"
     style="fill:#64bcba"
     transform="translate(-278.10001,-367.4)" /><path
     d="m 27.899988,26.6 c -0.6,-0.4 -1.4,-0.6 -2.1,-0.6 -1,0 -2.1,0.4 -2.8,1.2 l -6.6,6.6 c -0.7,0.7 -1.2,1.7 -1.2,2.8 0,2.2 1.8,3.9 3.9,3.9 1.1,0 2.7,-0.6 3.1,-1.7 h 8.9 l -4.9,4.8 c -1.9,1.8 -4.4,2.9 -7,2.9 -5.5,0 -9.9999998,-4.5 -9.9999998,-10 0,-2.6 0.9999998,-5.2 2.8999998,-7 l 6.6,-6.6 c 1.9,-1.9 4.4,-2.9 7.1,-2.9 2.3,0 4.6,0.8 6.4,2.4 l -4.3,4.2 z m 15.9,-0.6 -6.6,6.6 c -1.9,1.9 -4.4,2.9 -7.1,2.9 -2.3,0 -4.6,-0.8 -6.4,-2.4 l 4.3,-4.3 c 0.6,0.4 1.4,0.6 2.1,0.6 1,0 2.1,-0.4 2.8,-1.2 l 6.6,-6.6 c 0.7,-0.7 1.2,-1.7 1.2,-2.8 0,-2.2 -1.8,-3.9 -3.9,-3.9 -1.1,0 -2.7,0.6 -3.1,1.7 h -8.9 l 4.9,-4.8 c 1.9,-1.8 4.4,-2.8999996 7,-2.8999996 5.5,0 10,4.4999996 10,9.9999996 0,2.7 -1.1,5.3 -2.9,7.1 z"
     id="path3113"
     inkscape:connector-curvature="0"
     style="fill:#ffffff" /></svg>