<?xml version="1.0" encoding="utf-8"?>
<!-- Generator: Adobe Illustrator 18.0.0, SVG Export Plug-In . SVG Version: 6.00 Build 0)  -->
<!DOCTYPE svg PUBLIC "-//W3C//DTD SVG 1.1//EN" "http://www.w3.org/Graphics/SVG/1.1/DTD/svg11.dtd">
<svg version="1.1" id="Layer_1" xmlns="http://www.w3.org/2000/svg" xmlns:xlink="http://www.w3.org/1999/xlink" x="0px" y="0px"
	 viewBox="0 0 792 612" enable-background="new 0 0 792 612" xml:space="preserve">
<circle fill="#64BCBA" cx="395.5" cy="304.5" r="84"/>
<g>
	<path fill="#FFFFFF" d="M394.6,240.1c-7.7,0-14.3,2.7-19.7,8.2c-5.5,5.5-8.2,12.1-8.2,19.8s2.7,14.4,8.2,19.8
		c5.5,5.5,12,8.2,19.7,8.2c7.7,0,14.3-2.7,19.8-8.2c5.5-5.5,8.3-12.1,8.3-19.8s-2.8-14.4-8.3-19.8
		C408.9,242.9,402.3,240.1,394.6,240.1z"/>
	<path fill="#FFFFFF" d="M448.2,326.5c0-2.1-0.3-4.1-0.9-6c-0.6-1.9-1.4-3.5-2.3-5c-0.9-1.4-2.3-2.9-4.2-4.5
		c-1.9-1.6-3.6-2.9-5.1-3.9c-1.5-1-3.6-2.2-6.3-3.5c-2.7-1.4-4.9-2.4-6.5-3.1c-1.6-0.7-4-1.8-7.2-3.2c-6.2,5-13.2,7.6-20.9,7.6
		c-8.2,0-15.4-2.7-21.7-8.2c-3.8,1.5-6.8,2.8-9.2,3.9c-2.4,1.1-5.1,2.5-8.1,4.3c-3,1.8-5.5,3.6-7.2,5.5c-1.8,1.9-3.4,4.2-4.7,6.9
		c-1.4,2.7-2.2,5.8-2.5,9.1v11c12.4,16.1,31.8,26.5,53.7,26.5c21.6,0,40.9-10.2,53.3-26V326.5z"/>
</g>
</svg>
