<?xml version="1.0" encoding="utf-8"?>
<!-- Generator: Adobe Illustrator 18.0.0, SVG Export Plug-In . SVG Version: 6.00 Build 0)  -->
<!DOCTYPE svg PUBLIC "-//W3C//DTD SVG 1.1//EN" "http://www.w3.org/Graphics/SVG/1.1/DTD/svg11.dtd">
<svg version="1.1" id="Layer_1" xmlns="http://www.w3.org/2000/svg" xmlns:xlink="http://www.w3.org/1999/xlink" x="0px" y="0px"
	 viewBox="0 0 792 612" enable-background="new 0 0 792 612" xml:space="preserve">
<circle fill="#10716F" cx="397" cy="305.4" r="71.5"/>
<g>
	<path fill="#FFFFFF" stroke="#10716F" stroke-miterlimit="10" d="M354.4,268.2c-3.7,0-6.9,1.3-9.6,4c-2.6,2.6-4,5.8-4,9.6
		s1.3,7,4,9.6c2.6,2.6,5.8,4,9.6,4c3.7,0,6.9-1.3,9.6-4c2.7-2.6,4-5.8,4-9.6s-1.3-7-4-9.6C361.4,269.6,358.2,268.2,354.4,268.2z"/>
	<path fill="#FFFFFF" stroke="#10716F" stroke-miterlimit="10" d="M440.7,268.2c-3.7,0-6.9,1.3-9.6,4c-2.6,2.6-4,5.8-4,9.6
		s1.3,7,4,9.6c2.6,2.6,5.8,4,9.6,4c3.7,0,6.9-1.3,9.6-4c2.7-2.6,4-5.8,4-9.6s-1.3-7-4-9.6C447.7,269.6,444.5,268.2,440.7,268.2z"/>
	<path fill="#FFFFFF" stroke="#10716F" stroke-miterlimit="10" d="M417.4,261.7c-3.7,0-6.9,1.3-9.6,4c-2.6,2.6-4,5.8-4,9.6
		c0,3.8,1.3,7,4,9.6c2.6,2.6,5.8,4,9.6,4c3.7,0,6.9-1.3,9.6-4c2.7-2.6,4-5.8,4-9.6c0-3.8-1.3-7-4-9.6
		C424.4,263,421.2,261.7,417.4,261.7z"/>
	<path fill="#FFFFFF" stroke="#10716F" stroke-miterlimit="10" d="M376.1,261.7c-3.7,0-6.9,1.3-9.6,4c-2.6,2.6-4,5.8-4,9.6
		c0,3.8,1.3,7,4,9.6c2.6,2.6,5.8,4,9.6,4c3.7,0,6.9-1.3,9.6-4c2.7-2.6,4-5.8,4-9.6c0-3.8-1.3-7-4-9.6
		C383.1,263,379.9,261.7,376.1,261.7z"/>
	<path fill="#FFFFFF" stroke="#10716F" stroke-miterlimit="10" d="M370.1,276.9c-3.7,0-6.9,1.3-9.6,4c-2.6,2.6-4,5.8-4,9.6
		c0,3.8,1.3,7,4,9.6c2.6,2.6,5.8,4,9.6,4c3.7,0,6.9-1.3,9.6-4c2.7-2.6,4-5.8,4-9.6c0-3.8-1.3-7-4-9.6
		C377,278.2,373.8,276.9,370.1,276.9z"/>
	<path fill="#FFFFFF" stroke="#10716F" stroke-miterlimit="10" d="M423.5,276.9c-3.7,0-6.9,1.3-9.6,4c-2.6,2.6-4,5.8-4,9.6
		c0,3.8,1.3,7,4,9.6c2.6,2.6,5.8,4,9.6,4c3.7,0,6.9-1.3,9.6-4c2.7-2.6,4-5.8,4-9.6c0-3.8-1.3-7-4-9.6
		C430.4,278.2,427.2,276.9,423.5,276.9z"/>
	<path fill="#FFFFFF" stroke="#10716F" stroke-miterlimit="10" d="M397.1,264.8c-3.7,0-6.9,1.3-9.6,4c-2.6,2.6-4,5.8-4,9.6
		s1.3,7,4,9.6c2.6,2.6,5.8,4,9.6,4c3.7,0,6.9-1.3,9.6-4c2.7-2.6,4-5.8,4-9.6s-1.3-7-4-9.6C404,266.2,400.8,264.8,397.1,264.8z"/>
	<path fill="#FFFFFF" d="M379.6,325.4c-0.5-0.8-1.2-1.6-2.3-2.4c-1-0.8-2-1.5-2.7-2.1c-0.8-0.5-1.9-1.2-3.4-1.9
		c-1.5-0.7-2.6-1.3-3.5-1.7c-0.9-0.4-2.2-1-3.8-1.7c-3.3,2.7-7.1,4.1-11.2,4.1c-4.4,0-8.3-1.5-11.7-4.4c-0.8,0.3-1.6,0.6-2.3,0.9
		c3.7,13.7,11.7,25.6,22.6,34.2c8.1-1.9,15.2-6.6,20.2-13v-6.2c0-1.1-0.2-2.2-0.5-3.2C380.5,327,380.1,326.2,379.6,325.4z"/>
	<path fill="#FFFFFF" stroke="#10716F" stroke-miterlimit="10" d="M441.8,287.1c4.2,0,7.8,1.5,10.8,4.5c3,3,4.5,6.6,4.5,10.8
		c0,4.2-1.5,7.8-4.5,10.8c-3,3-6.6,4.5-10.8,4.5c-4.2,0-7.8-1.5-10.8-4.5c-3-3-4.5-6.6-4.5-10.8c0-4.2,1.5-7.8,4.5-10.8
		C434,288.5,437.6,287.1,441.8,287.1z"/>
	<path fill="#FFFFFF" d="M414.4,325.4c0.5-0.8,1.2-1.6,2.3-2.4c1-0.8,2-1.5,2.7-2.1c0.8-0.5,1.9-1.2,3.4-1.9
		c1.5-0.7,2.6-1.3,3.5-1.7c0.9-0.4,2.2-1,3.8-1.7c3.3,2.7,7.1,4.1,11.2,4.1c4.4,0,8.3-1.5,11.7-4.4c0.8,0.3,1.6,0.6,2.3,0.9
		c-3.7,13.7-11.7,25.6-22.6,34.2c-8.1-1.9-15.2-6.6-20.2-13v-6.2c0-1.1,0.2-2.2,0.5-3.2C413.5,327,413.9,326.2,414.4,325.4z"/>
	<path fill="#FFFFFF" stroke="#10716F" stroke-miterlimit="10" d="M434.9,333.9c0-1.5-0.2-2.9-0.7-4.2c-0.4-1.3-1-2.5-1.6-3.5
		c-0.6-1-1.6-2-3-3.1c-1.4-1.1-2.5-2-3.6-2.7c-1-0.7-2.5-1.5-4.4-2.5c-1.9-0.9-3.4-1.7-4.5-2.2c-1.1-0.5-2.8-1.2-5-2.2
		c-4.3,3.5-9.2,5.3-14.6,5.3c-5.7,0-10.8-1.9-15.1-5.7c-2.6,1-4.8,1.9-6.4,2.7c-1.6,0.8-3.5,1.8-5.6,3c-2.1,1.2-3.8,2.5-5,3.8
		c-1.2,1.3-2.3,2.9-3.3,4.8c-1,1.9-1.5,4-1.8,6.4v7.6c8.6,11.2,22.2,18.5,37.4,18.5c15.1,0,28.5-7.1,37.1-18.1V333.9z"/>
	<path fill="#FFFFFF" stroke="#10716F" stroke-miterlimit="10" d="M397.5,276.9c-5.4,0-10,1.9-13.8,5.7c-3.8,3.8-5.7,8.4-5.7,13.8
		s1.9,10,5.7,13.8c3.8,3.8,8.4,5.7,13.8,5.7c5.4,0,10-1.9,13.8-5.7c3.8-3.8,5.8-8.4,5.8-13.8s-1.9-10-5.8-13.8
		C407.5,278.8,402.9,276.9,397.5,276.9z"/>
	<path fill="#FFFFFF" stroke="#10716F" stroke-miterlimit="10" d="M352.2,287.1c-4.2,0-7.8,1.5-10.8,4.5c-3,3-4.5,6.6-4.5,10.8
		c0,4.2,1.5,7.8,4.5,10.8c3,3,6.6,4.5,10.8,4.5c4.2,0,7.8-1.5,10.8-4.5c3-3,4.5-6.6,4.5-10.8c0-4.2-1.5-7.8-4.5-10.8
		C360,288.5,356.4,287.1,352.2,287.1z"/>
</g>
</svg>
