<?xml version="1.0" encoding="utf-8"?>
<!-- Generator: Adobe Illustrator 18.0.0, SVG Export Plug-In . SVG Version: 6.00 Build 0)  -->
<!DOCTYPE svg PUBLIC "-//W3C//DTD SVG 1.1//EN" "http://www.w3.org/Graphics/SVG/1.1/DTD/svg11.dtd">
<svg version="1.1" id="Layer_1" xmlns="http://www.w3.org/2000/svg" xmlns:xlink="http://www.w3.org/1999/xlink" x="0px" y="0px"
	 viewBox="0 0 792 612" enable-background="new 0 0 792 612" xml:space="preserve">
<circle fill="#C79C60" cx="391.4" cy="309.3" r="69.6"/>
<path fill="#FFFFFF" d="M440.1,298.6L413.3,318l10.3,31.6c0.3,1.1,0.5,1.8,0.5,2.9c0,1.3-0.3,2.4-1.8,2.4c-1.3,0-2.6-0.8-3.7-1.6
	l-26.9-19.5l-26.9,19.5c-1.1,0.8-2.4,1.6-3.7,1.6s-1.8-1.1-1.8-2.4c0-1.1,0.3-2.1,0.5-2.9l10.3-31.6l-26.9-19.5
	c-1.1-0.8-2.9-2.4-2.9-3.7c0-2.1,3.4-2.4,4.7-2.4h33.2l10-31.6c0.3-1.3,1.6-3.9,3.2-3.9c1.6,0,2.6,2.6,2.9,3.9l10.3,31.6h32.9
	c1.3,0,4.7,0.3,4.7,2.1C443,296.5,441.2,297.8,440.1,298.6z"/>
</svg>
