<?xml version="1.0" encoding="UTF-8" standalone="no"?>
<!-- Generator: Adobe Illustrator 18.0.0, SVG Export Plug-In . SVG Version: 6.00 Build 0)  -->

<svg
   xmlns:dc="http://purl.org/dc/elements/1.1/"
   xmlns:cc="http://creativecommons.org/ns#"
   xmlns:rdf="http://www.w3.org/1999/02/22-rdf-syntax-ns#"
   xmlns:svg="http://www.w3.org/2000/svg"
   xmlns="http://www.w3.org/2000/svg"
   xmlns:sodipodi="http://sodipodi.sourceforge.net/DTD/sodipodi-0.dtd"
   xmlns:inkscape="http://www.inkscape.org/namespaces/inkscape"
   version="1.1"
   id="Layer_1"
   x="0px"
   y="0px"
   viewBox="0 0 168 168"
   enable-background="new 0 0 792 612"
   xml:space="preserve"
   inkscape:version="0.48.5 r10040"
   width="100%"
   height="100%"
   sodipodi:docname="whos_giving_indv.svg"><metadata
     id="metadata3655"><rdf:RDF><cc:Work
         rdf:about=""><dc:format>image/svg+xml</dc:format><dc:type
           rdf:resource="http://purl.org/dc/dcmitype/StillImage" /></cc:Work></rdf:RDF></metadata><defs
     id="defs3653" /><sodipodi:namedview
     pagecolor="#ffffff"
     bordercolor="#666666"
     borderopacity="1"
     objecttolerance="10"
     gridtolerance="10"
     guidetolerance="10"
     inkscape:pageopacity="0"
     inkscape:pageshadow="2"
     inkscape:window-width="640"
     inkscape:window-height="480"
     id="namedview3651"
     showgrid="false"
     fit-margin-top="0"
     fit-margin-left="0"
     fit-margin-right="0"
     fit-margin-bottom="0"
     inkscape:zoom="0.38562092"
     inkscape:cx="84.5"
     inkscape:cy="82.5"
     inkscape:window-x="59"
     inkscape:window-y="0"
     inkscape:window-maximized="0"
     inkscape:current-layer="Layer_1" /><circle
     cx="395.5"
     cy="304.5"
     r="84"
     id="circle3643"
     sodipodi:cx="395.5"
     sodipodi:cy="304.5"
     sodipodi:rx="84"
     sodipodi:ry="84"
     style="fill:#64bcba"
     transform="translate(-311.5,-220.5)" /><g
     id="g3645"
     transform="translate(-311.5,-220.5)"><path
       d="m 394.6,240.1 c -7.7,0 -14.3,2.7 -19.7,8.2 -5.5,5.5 -8.2,12.1 -8.2,19.8 0,7.7 2.7,14.4 8.2,19.8 5.5,5.5 12,8.2 19.7,8.2 7.7,0 14.3,-2.7 19.8,-8.2 5.5,-5.5 8.3,-12.1 8.3,-19.8 0,-7.7 -2.8,-14.4 -8.3,-19.8 -5.5,-5.4 -12.1,-8.2 -19.8,-8.2 z"
       id="path3647"
       inkscape:connector-curvature="0"
       style="fill:#ffffff" /><path
       d="m 448.2,326.5 c 0,-2.1 -0.3,-4.1 -0.9,-6 -0.6,-1.9 -1.4,-3.5 -2.3,-5 -0.9,-1.4 -2.3,-2.9 -4.2,-4.5 -1.9,-1.6 -3.6,-2.9 -5.1,-3.9 -1.5,-1 -3.6,-2.2 -6.3,-3.5 -2.7,-1.4 -4.9,-2.4 -6.5,-3.1 -1.6,-0.7 -4,-1.8 -7.2,-3.2 -6.2,5 -13.2,7.6 -20.9,7.6 -8.2,0 -15.4,-2.7 -21.7,-8.2 -3.8,1.5 -6.8,2.8 -9.2,3.9 -2.4,1.1 -5.1,2.5 -8.1,4.3 -3,1.8 -5.5,3.6 -7.2,5.5 -1.8,1.9 -3.4,4.2 -4.7,6.9 -1.4,2.7 -2.2,5.8 -2.5,9.1 v 11 c 12.4,16.1 31.8,26.5 53.7,26.5 21.6,0 40.9,-10.2 53.3,-26 v -11.4 z"
       id="path3649"
       inkscape:connector-curvature="0"
       style="fill:#ffffff" /></g></svg>