<?xml version="1.0" encoding="utf-8"?>
<!-- Generator: Adobe Illustrator 18.0.0, SVG Export Plug-In . SVG Version: 6.00 Build 0)  -->
<!DOCTYPE svg PUBLIC "-//W3C//DTD SVG 1.1//EN" "http://www.w3.org/Graphics/SVG/1.1/DTD/svg11.dtd">
<svg version="1.1" id="Layer_1" xmlns="http://www.w3.org/2000/svg" xmlns:xlink="http://www.w3.org/1999/xlink" x="0px" y="0px"
	 viewBox="0 0 792 612" enable-background="new 0 0 792 612" xml:space="preserve">
<circle fill="#C2645E" cx="395.5" cy="304.5" r="80"/>
<g>
	<g>
		<path fill="#FFFFFF" d="M421.3,271.3h-6.9c0-5.1,0-7.7-14-7.7c-13.3,0-13.3,2.6-13.3,7.7h-6.9c0-10.9,5.1-14.6,20.2-14.6
			C416,256.7,421.3,260.4,421.3,271.3z"/>
	</g>
	<path fill="#FFFFFF" d="M442.7,339.8h-90.6c-1.4,0-2.5-1.1-2.5-2.5v-64c0-1.4,1.1-2.5,2.5-2.5h90.6c1.4,0,2.5,1.1,2.5,2.5v64
		C445.2,338.7,444,339.8,442.7,339.8z"/>
</g>
</svg>
