<?xml version="1.0" encoding="UTF-8" standalone="no"?>
<!-- Generator: Adobe Illustrator 18.0.0, SVG Export Plug-In . SVG Version: 6.00 Build 0)  -->

<svg
   xmlns:dc="http://purl.org/dc/elements/1.1/"
   xmlns:cc="http://creativecommons.org/ns#"
   xmlns:rdf="http://www.w3.org/1999/02/22-rdf-syntax-ns#"
   xmlns:svg="http://www.w3.org/2000/svg"
   xmlns="http://www.w3.org/2000/svg"
   xmlns:sodipodi="http://sodipodi.sourceforge.net/DTD/sodipodi-0.dtd"
   xmlns:inkscape="http://www.inkscape.org/namespaces/inkscape"
   version="1.1"
   id="Layer_1"
   x="0px"
   y="0px"
   viewBox="0 0 143 143"
   enable-background="new 0 0 792 612"
   xml:space="preserve"
   inkscape:version="0.48.5 r10040"
   width="100%"
   height="100%"
   sodipodi:docname="whos_giving_pac.svg"><metadata
     id="metadata3761"><rdf:RDF><cc:Work
         rdf:about=""><dc:format>image/svg+xml</dc:format><dc:type
           rdf:resource="http://purl.org/dc/dcmitype/StillImage" /></cc:Work></rdf:RDF></metadata><defs
     id="defs3759" /><sodipodi:namedview
     pagecolor="#ffffff"
     bordercolor="#666666"
     borderopacity="1"
     objecttolerance="10"
     gridtolerance="10"
     guidetolerance="10"
     inkscape:pageopacity="0"
     inkscape:pageshadow="2"
     inkscape:window-width="640"
     inkscape:window-height="480"
     id="namedview3757"
     showgrid="false"
     fit-margin-top="0"
     fit-margin-left="0"
     fit-margin-right="0"
     fit-margin-bottom="0"
     inkscape:zoom="0.38562092"
     inkscape:cx="70.5"
     inkscape:cy="70.899994"
     inkscape:window-x="59"
     inkscape:window-y="0"
     inkscape:window-maximized="0"
     inkscape:current-layer="Layer_1" /><circle
     cx="397"
     cy="305.39999"
     r="71.5"
     id="circle3727"
     sodipodi:cx="397"
     sodipodi:cy="305.39999"
     sodipodi:rx="71.5"
     sodipodi:ry="71.5"
     style="fill:#10716f"
     transform="translate(-325.5,-233.89999)" /><g
     id="g3729"
     transform="translate(-325.5,-233.89999)"><path
       stroke-miterlimit="10"
       d="m 354.4,268.2 c -3.7,0 -6.9,1.3 -9.6,4 -2.6,2.6 -4,5.8 -4,9.6 0,3.8 1.3,7 4,9.6 2.6,2.6 5.8,4 9.6,4 3.7,0 6.9,-1.3 9.6,-4 2.7,-2.6 4,-5.8 4,-9.6 0,-3.8 -1.3,-7 -4,-9.6 -2.6,-2.6 -5.8,-4 -9.6,-4 z"
       id="path3731"
       inkscape:connector-curvature="0"
       style="fill:#ffffff;stroke:#10716f;stroke-miterlimit:10" /><path
       stroke-miterlimit="10"
       d="m 440.7,268.2 c -3.7,0 -6.9,1.3 -9.6,4 -2.6,2.6 -4,5.8 -4,9.6 0,3.8 1.3,7 4,9.6 2.6,2.6 5.8,4 9.6,4 3.7,0 6.9,-1.3 9.6,-4 2.7,-2.6 4,-5.8 4,-9.6 0,-3.8 -1.3,-7 -4,-9.6 -2.6,-2.6 -5.8,-4 -9.6,-4 z"
       id="path3733"
       inkscape:connector-curvature="0"
       style="fill:#ffffff;stroke:#10716f;stroke-miterlimit:10" /><path
       stroke-miterlimit="10"
       d="m 417.4,261.7 c -3.7,0 -6.9,1.3 -9.6,4 -2.6,2.6 -4,5.8 -4,9.6 0,3.8 1.3,7 4,9.6 2.6,2.6 5.8,4 9.6,4 3.7,0 6.9,-1.3 9.6,-4 2.7,-2.6 4,-5.8 4,-9.6 0,-3.8 -1.3,-7 -4,-9.6 -2.6,-2.7 -5.8,-4 -9.6,-4 z"
       id="path3735"
       inkscape:connector-curvature="0"
       style="fill:#ffffff;stroke:#10716f;stroke-miterlimit:10" /><path
       stroke-miterlimit="10"
       d="m 376.1,261.7 c -3.7,0 -6.9,1.3 -9.6,4 -2.6,2.6 -4,5.8 -4,9.6 0,3.8 1.3,7 4,9.6 2.6,2.6 5.8,4 9.6,4 3.7,0 6.9,-1.3 9.6,-4 2.7,-2.6 4,-5.8 4,-9.6 0,-3.8 -1.3,-7 -4,-9.6 -2.6,-2.7 -5.8,-4 -9.6,-4 z"
       id="path3737"
       inkscape:connector-curvature="0"
       style="fill:#ffffff;stroke:#10716f;stroke-miterlimit:10" /><path
       stroke-miterlimit="10"
       d="m 370.1,276.9 c -3.7,0 -6.9,1.3 -9.6,4 -2.6,2.6 -4,5.8 -4,9.6 0,3.8 1.3,7 4,9.6 2.6,2.6 5.8,4 9.6,4 3.7,0 6.9,-1.3 9.6,-4 2.7,-2.6 4,-5.8 4,-9.6 0,-3.8 -1.3,-7 -4,-9.6 -2.7,-2.7 -5.9,-4 -9.6,-4 z"
       id="path3739"
       inkscape:connector-curvature="0"
       style="fill:#ffffff;stroke:#10716f;stroke-miterlimit:10" /><path
       stroke-miterlimit="10"
       d="m 423.5,276.9 c -3.7,0 -6.9,1.3 -9.6,4 -2.6,2.6 -4,5.8 -4,9.6 0,3.8 1.3,7 4,9.6 2.6,2.6 5.8,4 9.6,4 3.7,0 6.9,-1.3 9.6,-4 2.7,-2.6 4,-5.8 4,-9.6 0,-3.8 -1.3,-7 -4,-9.6 -2.7,-2.7 -5.9,-4 -9.6,-4 z"
       id="path3741"
       inkscape:connector-curvature="0"
       style="fill:#ffffff;stroke:#10716f;stroke-miterlimit:10" /><path
       stroke-miterlimit="10"
       d="m 397.1,264.8 c -3.7,0 -6.9,1.3 -9.6,4 -2.6,2.6 -4,5.8 -4,9.6 0,3.8 1.3,7 4,9.6 2.6,2.6 5.8,4 9.6,4 3.7,0 6.9,-1.3 9.6,-4 2.7,-2.6 4,-5.8 4,-9.6 0,-3.8 -1.3,-7 -4,-9.6 -2.7,-2.6 -5.9,-4 -9.6,-4 z"
       id="path3743"
       inkscape:connector-curvature="0"
       style="fill:#ffffff;stroke:#10716f;stroke-miterlimit:10" /><path
       d="m 379.6,325.4 c -0.5,-0.8 -1.2,-1.6 -2.3,-2.4 -1,-0.8 -2,-1.5 -2.7,-2.1 -0.8,-0.5 -1.9,-1.2 -3.4,-1.9 -1.5,-0.7 -2.6,-1.3 -3.5,-1.7 -0.9,-0.4 -2.2,-1 -3.8,-1.7 -3.3,2.7 -7.1,4.1 -11.2,4.1 -4.4,0 -8.3,-1.5 -11.7,-4.4 -0.8,0.3 -1.6,0.6 -2.3,0.9 3.7,13.7 11.7,25.6 22.6,34.2 8.1,-1.9 15.2,-6.6 20.2,-13 v -6.2 c 0,-1.1 -0.2,-2.2 -0.5,-3.2 -0.5,-1 -0.9,-1.8 -1.4,-2.6 z"
       id="path3745"
       inkscape:connector-curvature="0"
       style="fill:#ffffff" /><path
       stroke-miterlimit="10"
       d="m 441.8,287.1 c 4.2,0 7.8,1.5 10.8,4.5 3,3 4.5,6.6 4.5,10.8 0,4.2 -1.5,7.8 -4.5,10.8 -3,3 -6.6,4.5 -10.8,4.5 -4.2,0 -7.8,-1.5 -10.8,-4.5 -3,-3 -4.5,-6.6 -4.5,-10.8 0,-4.2 1.5,-7.8 4.5,-10.8 3,-3.1 6.6,-4.5 10.8,-4.5 z"
       id="path3747"
       inkscape:connector-curvature="0"
       style="fill:#ffffff;stroke:#10716f;stroke-miterlimit:10" /><path
       d="m 414.4,325.4 c 0.5,-0.8 1.2,-1.6 2.3,-2.4 1,-0.8 2,-1.5 2.7,-2.1 0.8,-0.5 1.9,-1.2 3.4,-1.9 1.5,-0.7 2.6,-1.3 3.5,-1.7 0.9,-0.4 2.2,-1 3.8,-1.7 3.3,2.7 7.1,4.1 11.2,4.1 4.4,0 8.3,-1.5 11.7,-4.4 0.8,0.3 1.6,0.6 2.3,0.9 -3.7,13.7 -11.7,25.6 -22.6,34.2 -8.1,-1.9 -15.2,-6.6 -20.2,-13 v -6.2 c 0,-1.1 0.2,-2.2 0.5,-3.2 0.5,-1 0.9,-1.8 1.4,-2.6 z"
       id="path3749"
       inkscape:connector-curvature="0"
       style="fill:#ffffff" /><path
       stroke-miterlimit="10"
       d="m 434.9,333.9 c 0,-1.5 -0.2,-2.9 -0.7,-4.2 -0.4,-1.3 -1,-2.5 -1.6,-3.5 -0.6,-1 -1.6,-2 -3,-3.1 -1.4,-1.1 -2.5,-2 -3.6,-2.7 -1,-0.7 -2.5,-1.5 -4.4,-2.5 -1.9,-0.9 -3.4,-1.7 -4.5,-2.2 -1.1,-0.5 -2.8,-1.2 -5,-2.2 -4.3,3.5 -9.2,5.3 -14.6,5.3 -5.7,0 -10.8,-1.9 -15.1,-5.7 -2.6,1 -4.8,1.9 -6.4,2.7 -1.6,0.8 -3.5,1.8 -5.6,3 -2.1,1.2 -3.8,2.5 -5,3.8 -1.2,1.3 -2.3,2.9 -3.3,4.8 -1,1.9 -1.5,4 -1.8,6.4 v 7.6 c 8.6,11.2 22.2,18.5 37.4,18.5 15.1,0 28.5,-7.1 37.1,-18.1 v -7.9 z"
       id="path3751"
       inkscape:connector-curvature="0"
       style="fill:#ffffff;stroke:#10716f;stroke-miterlimit:10" /><path
       stroke-miterlimit="10"
       d="m 397.5,276.9 c -5.4,0 -10,1.9 -13.8,5.7 -3.8,3.8 -5.7,8.4 -5.7,13.8 0,5.4 1.9,10 5.7,13.8 3.8,3.8 8.4,5.7 13.8,5.7 5.4,0 10,-1.9 13.8,-5.7 3.8,-3.8 5.8,-8.4 5.8,-13.8 0,-5.4 -1.9,-10 -5.8,-13.8 -3.8,-3.8 -8.4,-5.7 -13.8,-5.7 z"
       id="path3753"
       inkscape:connector-curvature="0"
       style="fill:#ffffff;stroke:#10716f;stroke-miterlimit:10" /><path
       stroke-miterlimit="10"
       d="m 352.2,287.1 c -4.2,0 -7.8,1.5 -10.8,4.5 -3,3 -4.5,6.6 -4.5,10.8 0,4.2 1.5,7.8 4.5,10.8 3,3 6.6,4.5 10.8,4.5 4.2,0 7.8,-1.5 10.8,-4.5 3,-3 4.5,-6.6 4.5,-10.8 0,-4.2 -1.5,-7.8 -4.5,-10.8 -3,-3.1 -6.6,-4.5 -10.8,-4.5 z"
       id="path3755"
       inkscape:connector-curvature="0"
       style="fill:#ffffff;stroke:#10716f;stroke-miterlimit:10" /></g></svg>